<svg width="29" height="29" viewBox="0 0 29 29" fill="none" xmlns="http://www.w3.org/2000/svg">
<path d="M25.9069 13.3519L14.8024 24.4565C13.442 25.8169 11.5969 26.5812 9.67298 26.5812C7.74909 26.5812 5.904 25.8169 4.5436 24.4565C3.18321 23.0961 2.41895 21.251 2.41895 19.3272C2.41895 17.4033 3.18321 15.5582 4.5436 14.1978L15.6482 3.0932C16.5551 2.18627 17.7852 1.67676 19.0678 1.67676C20.3504 1.67676 21.5804 2.18627 22.4874 3.0932C23.3943 4.00013 23.9038 5.23019 23.9038 6.51278C23.9038 7.79537 23.3943 9.02543 22.4874 9.93236L11.3707 21.0369C10.9172 21.4904 10.3022 21.7452 9.66089 21.7452C9.0196 21.7452 8.40457 21.4904 7.9511 21.0369C7.49764 20.5835 7.24288 19.9685 7.24288 19.3272C7.24288 18.6859 7.49764 18.0708 7.9511 17.6174L18.2099 7.3707" stroke="#FF4002" stroke-width="2" stroke-linecap="round" stroke-linejoin="round"/>
</svg>
