<svg width="16" height="22" viewBox="0 0 16 22" fill="none" xmlns="http://www.w3.org/2000/svg">
<path d="M7.17783 21.0358C1.12375 12.4621 0 11.5822 0 8.43124C0 4.11511 3.58171 0.616211 8 0.616211C12.4183 0.616211 16 4.11511 16 8.43124C16 11.5822 14.8763 12.4621 8.82217 21.0358C8.42488 21.5965 7.57508 21.5964 7.17783 21.0358ZM8 11.6875C9.84096 11.6875 11.3333 10.2296 11.3333 8.43124C11.3333 6.63285 9.84096 5.17498 8 5.17498C6.15904 5.17498 4.66667 6.63285 4.66667 8.43124C4.66667 10.2296 6.15904 11.6875 8 11.6875Z" fill="#FF4002"/>
</svg>
