<svg width="24" height="24" viewBox="0 0 24 24" fill="none" xmlns="http://www.w3.org/2000/svg">
<path d="M20.335 9.0032C20.1461 8.81549 20.0399 8.56022 20.0399 8.29395V4.99994C20.0399 4.44766 19.5922 3.99994 19.0399 3.99994H15.7515C15.4879 3.99994 15.2349 3.89582 15.0476 3.71023L12.7092 1.39281C12.3173 1.00446 11.685 1.00684 11.296 1.39814L9.0032 3.7049C8.81549 3.89375 8.56022 3.99994 8.29395 3.99994H4.99994C4.44766 3.99994 3.99994 4.44766 3.99994 4.99994V8.29395C3.99994 8.56022 3.89375 8.81549 3.7049 9.0032L1.39814 11.296C1.00684 11.685 1.00446 12.3173 1.39281 12.7092L3.71023 15.0476C3.89582 15.2349 3.99994 15.4879 3.99994 15.7515V19.0399C3.99994 19.5922 4.44766 20.0399 4.99994 20.0399H8.29395C8.56022 20.0399 8.81549 20.1461 9.0032 20.335L11.296 22.6417C11.685 23.033 12.3173 23.0354 12.7092 22.6471L15.0476 20.3297C15.2349 20.1441 15.4879 20.0399 15.7515 20.0399H19.0399C19.5922 20.0399 20.0399 19.5922 20.0399 19.0399V15.7515C20.0399 15.4879 20.1441 15.2349 20.3297 15.0476L22.6471 12.7092C23.0354 12.3173 23.033 11.685 22.6417 11.296L20.335 9.0032ZM8.82994 7.04994C9.80994 7.04994 10.5999 7.83994 10.5999 8.82994C10.5999 9.29937 10.4135 9.74958 10.0815 10.0815C9.74958 10.4135 9.29937 10.5999 8.82994 10.5999C7.83994 10.5999 7.04994 9.80994 7.04994 8.82994C7.04994 7.83994 7.83994 7.04994 8.82994 7.04994ZM15.2199 16.9999C14.2399 16.9999 13.4499 16.1999 13.4499 15.2199C13.4499 14.7505 13.6364 14.3003 13.9684 13.9684C14.3003 13.6364 14.7505 13.4499 15.2199 13.4499C16.1999 13.4499 16.9999 14.2399 16.9999 15.2199C16.9999 15.692 16.8124 16.1448 16.4786 16.4786C16.1448 16.8124 15.692 16.9999 15.2199 16.9999ZM8.49994 17.0299L6.99994 15.5299L15.5299 6.99994L17.0299 8.49994L8.49994 17.0299Z" fill="#FF4002"/>
</svg>
