<svg width="83" height="83" viewBox="0 0 83 83" fill="none" xmlns="http://www.w3.org/2000/svg">
<path d="M80.069 56.543L56.1287 15.043C55.8863 14.6322 55.5353 14.2963 55.1143 14.072C54.6933 13.8478 54.2186 13.744 53.7425 13.7721L41.3444 14.4983L50.1631 18.9336C51.463 19.5826 52.5553 20.5825 53.3162 21.8202C54.0772 23.0579 54.4764 24.4839 54.4687 25.9368V74.3102L79.1094 60.0705C79.7026 59.7283 80.1365 59.1654 80.3163 58.5046C80.4961 57.8437 80.4072 57.1386 80.069 56.543Z" fill="white"/>
<path d="M25.9375 33.7188C27.37 33.7188 28.5312 32.5575 28.5312 31.125C28.5312 29.6925 27.37 28.5312 25.9375 28.5312C24.505 28.5312 23.3438 29.6925 23.3438 31.125C23.3438 32.5575 24.505 33.7188 25.9375 33.7188Z" fill="white"/>
<path d="M47.8547 23.6298L28.5312 13.9551V23.8113C30.2618 24.4232 31.7204 25.6271 32.6492 27.2104C33.5779 28.7936 33.9171 30.6543 33.6067 32.4634C33.2963 34.2725 32.3563 35.9137 30.9529 37.0968C29.5495 38.2799 27.7731 38.9288 25.9375 38.9288C24.1019 38.9288 22.3255 38.2799 20.9221 37.0968C19.5187 35.9137 18.5787 34.2725 18.2683 32.4634C17.9579 30.6543 18.2971 28.7936 19.2258 27.2104C20.1546 25.6271 21.6132 24.4232 23.3438 23.8113V13.9551L4.02031 23.6298C3.59257 23.8453 3.23286 24.1751 2.98106 24.5825C2.72926 24.99 2.5952 25.4592 2.59375 25.9382V77.8132C2.59375 78.5011 2.86702 79.1608 3.35344 79.6473C3.83986 80.1337 4.49959 80.407 5.1875 80.407H46.6875C47.3754 80.407 48.0351 80.1337 48.5216 79.6473C49.008 79.1608 49.2812 78.5011 49.2812 77.8132V25.9382C49.2798 25.4592 49.1457 24.99 48.8939 24.5825C48.6421 24.1751 48.2824 23.8453 47.8547 23.6298ZM15.5625 46.6882H28.5312C29.2192 46.6882 29.8789 46.9615 30.3653 47.4479C30.8517 47.9343 31.125 48.594 31.125 49.282C31.125 49.9699 30.8517 50.6296 30.3653 51.116C29.8789 51.6024 29.2192 51.8757 28.5312 51.8757H15.5625C14.8746 51.8757 14.2149 51.6024 13.7284 51.116C13.242 50.6296 12.9688 49.9699 12.9688 49.282C12.9688 48.594 13.242 47.9343 13.7284 47.4479C14.2149 46.9615 14.8746 46.6882 15.5625 46.6882ZM36.3125 70.032H15.5625C14.8746 70.032 14.2149 69.7587 13.7284 69.2723C13.242 68.7858 12.9688 68.1261 12.9688 67.4382C12.9688 66.7503 13.242 66.0906 13.7284 65.6041C14.2149 65.1177 14.8746 64.8445 15.5625 64.8445H36.3125C37.0004 64.8445 37.6601 65.1177 38.1466 65.6041C38.633 66.0906 38.9062 66.7503 38.9062 67.4382C38.9062 68.1261 38.633 68.7858 38.1466 69.2723C37.6601 69.7587 37.0004 70.032 36.3125 70.032ZM36.3125 60.9538H15.5625C14.8746 60.9538 14.2149 60.6806 13.7284 60.1941C13.242 59.7077 12.9688 59.048 12.9688 58.3601C12.9688 57.6722 13.242 57.0124 13.7284 56.526C14.2149 56.0396 14.8746 55.7663 15.5625 55.7663H36.3125C37.0004 55.7663 37.6601 56.0396 38.1466 56.526C38.633 57.0124 38.9062 57.6722 38.9062 58.3601C38.9062 59.048 38.633 59.7077 38.1466 60.1941C37.6601 60.6806 37.0004 60.9538 36.3125 60.9538Z" fill="white"/>
<path d="M27.1047 13.2541L28.5312 13.9544V5.1875C28.5312 4.49959 28.258 3.83986 27.7716 3.35344C27.2851 2.86702 26.6254 2.59375 25.9375 2.59375C25.2496 2.59375 24.5899 2.86702 24.1034 3.35344C23.617 3.83986 23.3438 4.49959 23.3438 5.1875V13.9544L24.7703 13.2541C25.1323 13.0716 25.5321 12.9766 25.9375 12.9766C26.3429 12.9766 26.7427 13.0716 27.1047 13.2541Z" fill="white"/>
</svg>
