<svg width="83" height="83" viewBox="0 0 83 83" fill="none" xmlns="http://www.w3.org/2000/svg">
<g clip-path="url(#clip0_1714_427)">
<path d="M25.9375 28.3704C25.9375 29.101 26.2277 29.8016 26.7443 30.3182C27.2609 30.8348 27.9615 31.125 28.6921 31.125C29.4226 31.125 30.1233 30.8348 30.6398 30.3182C31.1564 29.8016 31.4466 29.101 31.4466 28.3704C31.4466 27.6399 31.1564 26.9392 30.6398 26.4227C30.1233 25.9061 29.4226 25.6159 28.6921 25.6159C27.9615 25.6159 27.2609 25.9061 26.7443 26.4227C26.2277 26.9392 25.9375 27.6399 25.9375 28.3704ZM41.5 0C18.5816 0 0 18.5816 0 41.5C0 64.4184 18.5816 83 41.5 83C64.4184 83 83 64.4184 83 41.5C83 18.5816 64.4184 0 41.5 0ZM20.75 28.3704C20.75 26.2641 21.5868 24.244 23.0762 22.7546C24.5656 21.2651 26.5857 20.4284 28.6921 20.4284C30.7984 20.4284 32.8185 21.2651 34.3079 22.7546C35.7974 24.244 36.6341 26.2641 36.6341 28.3704C36.6341 30.4768 35.7974 32.4969 34.3079 33.9863C32.8185 35.4757 30.7984 36.3125 28.6921 36.3125C26.5857 36.3125 24.5656 35.4757 23.0762 33.9863C21.5868 32.4969 20.75 30.4768 20.75 28.3704ZM27.7739 58.8989C27.2859 59.3842 26.6257 59.6566 25.9375 59.6566C25.2493 59.6566 24.5891 59.3842 24.1011 58.8989C23.6149 58.4125 23.3417 57.7529 23.3417 57.0651C23.3417 56.3773 23.6149 55.7177 24.1011 55.2313L55.2261 24.1063C55.7153 23.6338 56.3705 23.3724 57.0506 23.3783C57.7306 23.3842 58.3812 23.657 58.8621 24.1379C59.343 24.6188 59.6158 25.2694 59.6217 25.9494C59.6276 26.6295 59.3662 27.2847 58.8937 27.7739L27.7739 58.8989ZM54.3079 62.25C52.2016 62.25 50.1815 61.4132 48.6921 59.9238C47.2026 58.4344 46.3659 56.4143 46.3659 54.3079C46.3659 52.2016 47.2026 50.1815 48.6921 48.6921C50.1815 47.2026 52.2016 46.3659 54.3079 46.3659C56.4143 46.3659 58.4344 47.2026 59.9238 48.6921C61.4132 50.1815 62.25 52.2016 62.25 54.3079C62.25 56.4143 61.4132 58.4344 59.9238 59.9238C58.4344 61.4132 56.4143 62.25 54.3079 62.25ZM51.5534 54.3079C51.5534 54.6697 51.6246 55.0279 51.7631 55.3621C51.9015 55.6963 52.1044 55.9999 52.3602 56.2557C52.616 56.5115 52.9196 56.7144 53.2538 56.8528C53.588 56.9913 53.9462 57.0625 54.3079 57.0625C54.6697 57.0625 55.0279 56.9913 55.3621 56.8528C55.6963 56.7144 55.9999 56.5115 56.2557 56.2557C56.5115 55.9999 56.7144 55.6963 56.8528 55.3621C56.9913 55.0279 57.0625 54.6697 57.0625 54.3079C57.0625 53.9462 56.9913 53.588 56.8528 53.2538C56.7144 52.9196 56.5115 52.616 56.2557 52.3602C55.9999 52.1044 55.6963 51.9015 55.3621 51.7631C55.0279 51.6246 54.6697 51.5534 54.3079 51.5534C53.9462 51.5534 53.588 51.6246 53.2538 51.7631C52.9196 51.9015 52.616 52.1044 52.3602 52.3602C52.1044 52.616 51.9015 52.9196 51.7631 53.2538C51.6246 53.588 51.5534 53.9462 51.5534 54.3079Z" fill="white"/>
</g>
<defs>
<clipPath id="clip0_1714_427">
<rect width="83" height="83" fill="white"/>
</clipPath>
</defs>
</svg>
