<svg width="83" height="83" viewBox="0 0 83 83" fill="none" xmlns="http://www.w3.org/2000/svg">
<path d="M16.0467 52.8088V69.4779C16.0558 70.3157 16.395 71.1161 16.9907 71.7054C17.5864 72.2946 18.3905 72.625 19.2283 72.625H38.6642V52.8088H16.0467ZM44.3358 72.625H63.7717C64.6095 72.625 65.4136 72.2946 66.0093 71.7054C66.605 71.1161 66.9442 70.3157 66.9533 69.4779V52.8088H44.3358V72.625ZM69.5125 24.5196H63.1492C63.801 23.1958 64.1439 21.7414 64.1521 20.2658C64.1429 17.6394 63.0932 15.1238 61.2328 13.2698C59.3724 11.4159 56.8531 10.375 54.2267 10.375C51.483 10.5051 48.832 11.4087 46.5801 12.9814C44.3281 14.5541 42.5669 16.7318 41.5 19.2629C40.4331 16.7318 38.6719 14.5541 36.4199 12.9814C34.168 11.4087 31.517 10.5051 28.7733 10.375C26.1469 10.375 23.6276 11.4159 21.7672 13.2698C19.9068 15.1238 18.8571 17.6394 18.8479 20.2658C18.8561 21.7414 19.199 23.1958 19.8508 24.5196H13.4875C11.7583 24.5196 10.375 26.56 10.375 29.05V42.6413C10.375 45.1312 11.7583 47.1717 13.4875 47.1717H38.6642V24.5196H44.3358V47.1717H69.5125C71.2417 47.1717 72.625 45.1312 72.625 42.6413V29.05C72.625 26.56 71.2417 24.5196 69.5125 24.5196ZM28.7733 24.5196C28.1848 24.5728 27.5917 24.5028 27.0317 24.3141C26.4717 24.1254 25.9572 23.8221 25.521 23.4235C25.0847 23.025 24.7363 22.5399 24.4979 21.9992C24.2595 21.4585 24.1364 20.874 24.1364 20.2831C24.1364 19.6922 24.2595 19.1078 24.4979 18.5671C24.7363 18.0264 25.0847 17.5413 25.521 17.1427C25.9572 16.7441 26.4717 16.4408 27.0317 16.2521C27.5917 16.0634 28.1848 15.9934 28.7733 16.0467C33.615 16.0467 36.3471 21.0267 37.6958 24.5196H28.7733ZM54.2267 24.5196H45.3042C46.6529 21.0613 49.385 16.0467 54.2267 16.0467C54.8152 15.9934 55.4083 16.0634 55.9683 16.2521C56.5283 16.4408 57.0428 16.7441 57.479 17.1427C57.9153 17.5413 58.2637 18.0264 58.5021 18.5671C58.7405 19.1078 58.8636 19.6922 58.8636 20.2831C58.8636 20.874 58.7405 21.4585 58.5021 21.9992C58.2637 22.5399 57.9153 23.025 57.479 23.4235C57.0428 23.8221 56.5283 24.1254 55.9683 24.3141C55.4083 24.5028 54.8152 24.5728 54.2267 24.5196Z" fill="white"/>
</svg>
