<svg width="50" height="50" viewBox="0 0 50 50" fill="none" xmlns="http://www.w3.org/2000/svg">
<path d="M5.35268 46.4286H44.6384V17.8571H5.35268V46.4286ZM16.067 12.5V4.46429C16.067 4.20387 15.9833 3.98996 15.8158 3.82254C15.6484 3.65513 15.4345 3.57143 15.1741 3.57143H13.3884C13.128 3.57143 12.9141 3.65513 12.7467 3.82254C12.5792 3.98996 12.4955 4.20387 12.4955 4.46429V12.5C12.4955 12.7604 12.5792 12.9743 12.7467 13.1417C12.9141 13.3092 13.128 13.3929 13.3884 13.3929H15.1741C15.4345 13.3929 15.6484 13.3092 15.8158 13.1417C15.9833 12.9743 16.067 12.7604 16.067 12.5ZM37.4955 12.5V4.46429C37.4955 4.20387 37.4118 3.98996 37.2444 3.82254C37.077 3.65513 36.8631 3.57143 36.6027 3.57143H34.817C34.5565 3.57143 34.3426 3.65513 34.1752 3.82254C34.0078 3.98996 33.9241 4.20387 33.9241 4.46429V12.5C33.9241 12.7604 34.0078 12.9743 34.1752 13.1417C34.3426 13.3092 34.5565 13.3929 34.817 13.3929H36.6027C36.8631 13.3929 37.077 13.3092 37.2444 13.1417C37.4118 12.9743 37.4955 12.7604 37.4955 12.5ZM48.2098 10.7143V46.4286C48.2098 47.3958 47.8564 48.2329 47.1496 48.9397C46.4427 49.6466 45.6057 50 44.6384 50H5.35268C4.38542 50 3.54836 49.6466 2.84152 48.9397C2.13467 48.2329 1.78125 47.3958 1.78125 46.4286V10.7143C1.78125 9.74702 2.13467 8.90997 2.84152 8.20312C3.54836 7.49628 4.38542 7.14286 5.35268 7.14286H8.92411V4.46429C8.92411 3.23661 9.36124 2.18564 10.2355 1.31138C11.1097 0.437128 12.1607 0 13.3884 0H15.1741C16.4018 0 17.4528 0.437128 18.327 1.31138C19.2013 2.18564 19.6384 3.23661 19.6384 4.46429V7.14286H30.3527V4.46429C30.3527 3.23661 30.7898 2.18564 31.6641 1.31138C32.5383 0.437128 33.5893 0 34.817 0H36.6027C37.8304 0 38.8813 0.437128 39.7556 1.31138C40.6298 2.18564 41.067 3.23661 41.067 4.46429V7.14286H44.6384C45.6057 7.14286 46.4427 7.49628 47.1496 8.20312C47.8564 8.90997 48.2098 9.74702 48.2098 10.7143Z" fill="#FF4002"/>
</svg>
