<svg width="57" height="57" viewBox="0 0 57 57" fill="none" xmlns="http://www.w3.org/2000/svg">
<circle cx="28.5" cy="29.3384" r="20.1176" fill="#FF4002"/>
<path d="M55.8422 24.4023H55.7531C54.2836 24.4023 52.8586 24.3578 51.3891 24.4023C51.211 24.4023 51.0774 24.4023 50.9438 24.3578C50.3649 21.4188 49.1625 18.6578 47.5594 16.2086C47.6485 16.075 47.8266 15.8969 48.0492 15.6742C49.0289 14.6945 50.0086 13.7148 50.9883 12.7352C49.207 10.2859 47.0695 8.10391 44.5758 6.36719C43.5516 7.43594 42.4828 8.46016 41.4586 9.48438C41.325 9.61797 41.1914 9.70703 41.0578 9.79609C38.6086 8.19297 35.8477 7.03516 32.9086 6.45625C32.9086 6.36719 32.8641 6.27812 32.8641 6.14453C32.9086 5.34297 32.8641 4.58594 32.8641 3.78437C32.8641 3.02734 32.8641 2.31484 32.8641 1.55781C31.4836 1.33516 30.0141 1.24609 28.5 1.24609C26.986 1.24609 25.5164 1.37969 24.0914 1.60234C24.136 2.35938 24.0914 3.07188 24.0914 3.82891C24.0914 4.63047 24.0914 5.3875 24.0914 6.18906C24.0914 6.32266 24.0914 6.41172 24.0469 6.50078C21.1078 7.07969 18.3024 8.2375 15.8977 9.84063C15.7641 9.79609 15.6305 9.6625 15.4969 9.52891C14.4727 8.46016 13.4039 7.43594 12.3797 6.41172C9.93048 8.19297 7.74845 10.3305 5.9672 12.7797C6.94689 13.7594 7.92658 14.7391 8.90626 15.7188C9.12892 15.9414 9.30704 16.1195 9.39611 16.2531C7.83751 18.7023 6.6797 21.4188 6.05626 24.4023C5.92267 24.4469 5.78907 24.4469 5.61095 24.4469C4.14142 24.4023 2.71642 24.4469 1.24689 24.4469H1.15782C0.890637 25.8719 0.801575 27.3859 0.801575 28.9445C0.801575 30.4586 0.935168 31.9727 1.15782 33.4422C1.20236 33.4422 1.29142 33.4422 1.33595 33.4422C2.85001 33.4422 4.36407 33.4422 5.87814 33.4422C5.92267 33.4422 5.9672 33.4422 6.01173 33.4422C6.63517 36.4703 7.79298 39.2312 9.44064 41.725C9.39611 41.8141 9.30704 41.8586 9.21798 41.9477C8.23829 42.8828 7.25861 43.907 6.27892 44.8867C6.14533 45.0203 6.05626 45.1094 5.9672 45.1984C7.74845 47.6477 9.88595 49.7406 12.3352 51.5219L12.4242 51.4328C13.4485 50.3641 14.5617 49.2953 15.586 48.2266C15.675 48.1375 15.7195 48.093 15.8086 48.0484C18.2578 49.6516 21.0188 50.8539 24.0024 51.4328C24.0469 51.5219 24.0469 51.6555 24.0469 51.8336C24.0024 53.3031 24.0469 54.7727 24.0469 56.2422V56.3312C25.4719 56.5539 26.9414 56.6875 28.4555 56.6875C29.9695 56.6875 31.4391 56.5539 32.8641 56.3312V56.2422C32.8641 54.7727 32.8641 53.3031 32.8195 51.8336C32.8195 51.7 32.8195 51.5664 32.8641 51.4328C35.8477 50.8539 38.6531 49.6961 41.0578 48.0484C41.1469 48.093 41.1914 48.182 41.2805 48.2266C42.3047 49.2953 43.418 50.3641 44.4422 51.4328C44.4867 51.4773 44.4867 51.4773 44.5313 51.5219C46.9805 49.7852 49.118 47.6477 50.8992 45.1984C50.8102 45.1094 50.7211 45.0203 50.5875 44.8867C49.6078 43.907 48.6281 42.9273 47.6485 41.9477C47.5594 41.8586 47.5149 41.7695 47.4258 41.725C49.0735 39.2758 50.2758 36.4703 50.8547 33.4422C50.8992 33.4422 50.9438 33.4422 50.9883 33.4422C52.5024 33.4422 54.0164 33.4422 55.5305 33.4422C55.575 33.4422 55.6641 33.4422 55.7086 33.4422C55.9313 31.9727 56.0649 30.4586 56.0649 28.9445C56.1985 27.3859 56.1094 25.8719 55.8422 24.4023ZM39.7664 24.6695L29.6133 34.6891L26.8524 37.45C25.6945 38.6078 23.8242 38.6078 22.6219 37.4055L19.7719 34.6891L17.2336 32.0617C16.6547 31.4828 16.343 30.7258 16.343 29.9688C16.343 29.2117 16.6547 28.4102 17.2336 27.8758C18.3914 26.718 20.2617 26.718 21.4195 27.8758L24.7149 31.1711L35.536 20.4836C36.1149 19.9047 36.8274 19.6375 37.6289 19.6375C38.4305 19.6375 39.143 19.9492 39.7219 20.5281C40.3008 21.107 40.568 21.8195 40.568 22.6211C40.657 23.3781 40.3453 24.1352 39.7664 24.6695Z" fill="#2B2E35"/>
</svg>
