<svg width="57" height="57" viewBox="0 0 57 57" fill="none" xmlns="http://www.w3.org/2000/svg">
<circle cx="29" cy="36" r="10" fill="#FF4002"/>
<path d="M28.5 38C29.8117 38 30.875 36.9367 30.875 35.625C30.875 34.3133 29.8117 33.25 28.5 33.25C27.1883 33.25 26.125 34.3133 26.125 35.625C26.125 36.9367 27.1883 38 28.5 38Z" fill="black"/>
<path d="M40.375 19H23.75V14.25C23.75 12.9902 24.2504 11.782 25.1412 10.8912C26.032 10.0004 27.2402 9.5 28.5 9.5C29.7598 9.5 30.968 10.0004 31.8588 10.8912C32.7496 11.782 33.25 12.9902 33.25 14.25C33.25 14.8799 33.5002 15.484 33.9456 15.9294C34.391 16.3748 34.9951 16.625 35.625 16.625C36.2549 16.625 36.859 16.3748 37.3044 15.9294C37.7498 15.484 38 14.8799 38 14.25C38 11.7304 36.9991 9.31408 35.2175 7.53249C33.4359 5.75089 31.0196 4.75 28.5 4.75C25.9804 4.75 23.5641 5.75089 21.7825 7.53249C20.0009 9.31408 19 11.7304 19 14.25V19H16.625C14.7353 19 12.9231 19.7507 11.5869 21.0869C10.2507 22.4231 9.5 24.2353 9.5 26.125V45.125C9.5 47.0147 10.2507 48.8269 11.5869 50.1631C12.9231 51.4993 14.7353 52.25 16.625 52.25H40.375C42.2647 52.25 44.0769 51.4993 45.4131 50.1631C46.7493 48.8269 47.5 47.0147 47.5 45.125V26.125C47.5 24.2353 46.7493 22.4231 45.4131 21.0869C44.0769 19.7507 42.2647 19 40.375 19ZM28.5 42.75C27.0908 42.75 25.7133 42.3321 24.5416 41.5492C23.3699 40.7663 22.4566 39.6535 21.9174 38.3516C21.3781 37.0497 21.237 35.6171 21.5119 34.235C21.7868 32.8529 22.4654 31.5833 23.4619 30.5869C24.4583 29.5904 25.7279 28.9118 27.11 28.6369C28.4921 28.362 29.9247 28.5031 31.2266 29.0424C32.5285 29.5816 33.6413 30.4949 34.4242 31.6666C35.2071 32.8383 35.625 34.2158 35.625 35.625C35.625 37.5147 34.8743 39.3269 33.5381 40.6631C32.2019 41.9993 30.3897 42.75 28.5 42.75Z" fill="#2B2E35"/>
</svg>
