<svg width="55" height="41" viewBox="0 0 55 41" fill="none" xmlns="http://www.w3.org/2000/svg">
<path d="M30.875 4.75H2.375C1.74511 4.75 1.14102 5.00022 0.695621 5.44562C0.250223 5.89102 0 6.49511 0 7.125V28.5H33.25V7.125C33.25 6.49511 32.9998 5.89102 32.5544 5.44562C32.109 5.00022 31.5049 4.75 30.875 4.75ZM12.9675 12.3262C12.825 12.6587 12.9675 12.4569 10.3431 15.0931C10.2324 15.2038 10.101 15.2917 9.9563 15.3516C9.81163 15.4115 9.65658 15.4424 9.5 15.4424C9.34342 15.4424 9.18837 15.4115 9.0437 15.3516C8.89904 15.2917 8.7676 15.2038 8.65687 15.0931C8.54615 14.9824 8.45833 14.851 8.3984 14.7063C8.33848 14.5616 8.30764 14.4066 8.30764 14.25C8.30764 14.0934 8.33848 13.9384 8.3984 13.7937C8.45833 13.649 8.54615 13.5176 8.65687 13.4069L9.01313 13.0625H4.75C4.43506 13.0625 4.13301 12.9374 3.91031 12.7147C3.68761 12.492 3.5625 12.1899 3.5625 11.875C3.5625 11.5601 3.68761 11.258 3.91031 11.0353C4.13301 10.8126 4.43506 10.6875 4.75 10.6875H9.01313L8.65687 10.3431C8.43326 10.1195 8.30764 9.81623 8.30764 9.5C8.30764 9.18377 8.43326 8.88049 8.65687 8.65687C8.88049 8.43326 9.18377 8.30764 9.5 8.30764C9.81623 8.30764 10.1195 8.43326 10.3431 8.65687L12.7181 11.0319C12.8829 11.1989 12.9945 11.4109 13.0389 11.6413C13.0833 11.8716 13.0584 12.11 12.9675 12.3262Z" fill="#2B2E35"/>
<path d="M4.20375 30.875C3.02326 32.1749 2.37103 33.869 2.375 35.625C1.74511 35.625 1.14102 35.3748 0.695621 34.9294C0.250223 34.484 0 33.8799 0 33.25V30.875H4.20375ZM33.25 30.875V35.625H16.625C16.629 33.869 15.9767 32.1749 14.7963 30.875H33.25Z" fill="black"/>
<path d="M53.5919 22.5625H42.75V14.25H46.3125L53.5919 22.5625Z" fill="#FF4002"/>
<path d="M53.4375 29.6875H54.625V33.25C54.625 33.8799 54.3748 34.484 53.9294 34.9294C53.484 35.3748 52.8799 35.625 52.25 35.625C52.25 33.7353 51.4993 31.9231 50.1631 30.5869C48.8269 29.2507 47.0147 28.5 45.125 28.5C43.2353 28.5 41.4231 29.2507 40.0869 30.5869C38.7507 31.9231 38 33.7353 38 35.625H35.625V14.25H40.375V23.75C40.375 24.0649 40.5001 24.367 40.7228 24.5897C40.9455 24.8124 41.2476 24.9375 41.5625 24.9375H54.625V27.3125H53.4375C53.1226 27.3125 52.8205 27.4376 52.5978 27.6603C52.3751 27.883 52.25 28.1851 52.25 28.5C52.25 28.8149 52.3751 29.117 52.5978 29.3397C52.8205 29.5624 53.1226 29.6875 53.4375 29.6875Z" fill="black"/>
<path d="M45.125 40.375C47.7484 40.375 49.875 38.2484 49.875 35.625C49.875 33.0016 47.7484 30.875 45.125 30.875C42.5016 30.875 40.375 33.0016 40.375 35.625C40.375 38.2484 42.5016 40.375 45.125 40.375Z" fill="black"/>
<path d="M9.5 40.375C12.1234 40.375 14.25 38.2484 14.25 35.625C14.25 33.0016 12.1234 30.875 9.5 30.875C6.87665 30.875 4.75 33.0016 4.75 35.625C4.75 38.2484 6.87665 40.375 9.5 40.375Z" fill="black"/>
<path d="M21.375 0H9.5C9.18506 0 8.88301 0.125111 8.66031 0.347811C8.43761 0.57051 8.3125 0.872555 8.3125 1.1875C8.3125 1.50244 8.43761 1.80449 8.66031 2.02719C8.88301 2.24989 9.18506 2.375 9.5 2.375H21.375C21.6899 2.375 21.992 2.24989 22.2147 2.02719C22.4374 1.80449 22.5625 1.50244 22.5625 1.1875C22.5625 0.872555 22.4374 0.57051 22.2147 0.347811C21.992 0.125111 21.6899 0 21.375 0ZM4.75 0H1.1875C0.872555 0 0.57051 0.125111 0.347811 0.347811C0.125111 0.57051 0 0.872555 0 1.1875C0 1.50244 0.125111 1.80449 0.347811 2.02719C0.57051 2.24989 0.872555 2.375 1.1875 2.375H4.75C5.06494 2.375 5.36699 2.24989 5.58969 2.02719C5.81239 1.80449 5.9375 1.50244 5.9375 1.1875C5.9375 0.872555 5.81239 0.57051 5.58969 0.347811C5.36699 0.125111 5.06494 0 4.75 0Z" fill="black"/>
</svg>
