<svg width="52" height="52" viewBox="0 0 52 52" fill="none" xmlns="http://www.w3.org/2000/svg">
<g clip-path="url(#clip0_801_1748)">
<path d="M46.4141 0H5.58594C4.10495 0.00161298 2.68508 0.590648 1.63786 1.63786C0.590648 2.68508 0.00161298 4.10495 0 5.58594L0 46.4141C0.00161298 47.8951 0.590648 49.3149 1.63786 50.3621C2.68508 51.4094 4.10495 51.9984 5.58594 52H46.4141C47.8951 51.9984 49.3149 51.4094 50.3621 50.3621C51.4094 49.3149 51.9984 47.8951 52 46.4141V5.58594C51.9984 4.10495 51.4094 2.68508 50.3621 1.63786C49.3149 0.590648 47.8951 0.00161298 46.4141 0ZM48.9531 5.58594V24.4766H27.5234V3.04688H46.4141C47.0875 3.04688 47.7333 3.31438 48.2094 3.79055C48.6856 4.26672 48.9531 4.91254 48.9531 5.58594ZM5.58594 3.04688H24.4766V24.4766H3.04688V5.58594C3.04688 4.91254 3.31438 4.26672 3.79055 3.79055C4.26672 3.31438 4.91254 3.04688 5.58594 3.04688ZM3.04688 46.4141V27.5234H24.4766V48.9531H5.58594C4.91254 48.9531 4.26672 48.6856 3.79055 48.2094C3.31438 47.7333 3.04688 47.0875 3.04688 46.4141ZM46.4141 48.9531H27.5234V27.5234H48.9531V46.4141C48.9531 47.0875 48.6856 47.7333 48.2094 48.2094C47.7333 48.6856 47.0875 48.9531 46.4141 48.9531Z" fill="#FF4002"/>
<path d="M7.71875 15.3359H12.2891V19.9062C12.2891 20.3103 12.4496 20.6978 12.7353 20.9835C13.021 21.2692 13.4085 21.4297 13.8125 21.4297C14.2165 21.4297 14.604 21.2692 14.8897 20.9835C15.1754 20.6978 15.3359 20.3103 15.3359 19.9062V15.3359H19.9062C20.3103 15.3359 20.6978 15.1754 20.9835 14.8897C21.2692 14.604 21.4297 14.2165 21.4297 13.8125C21.4297 13.4085 21.2692 13.021 20.9835 12.7353C20.6978 12.4496 20.3103 12.2891 19.9062 12.2891H15.3359V7.71875C15.3359 7.31471 15.1754 6.92722 14.8897 6.64152C14.604 6.35582 14.2165 6.19531 13.8125 6.19531C13.4085 6.19531 13.021 6.35582 12.7353 6.64152C12.4496 6.92722 12.2891 7.31471 12.2891 7.71875V12.2891H7.71875C7.31471 12.2891 6.92722 12.4496 6.64152 12.7353C6.35582 13.021 6.19531 13.4085 6.19531 13.8125C6.19531 14.2165 6.35582 14.604 6.64152 14.8897C6.92722 15.1754 7.31471 15.3359 7.71875 15.3359ZM32.0938 15.3359H44.2812C44.6853 15.3359 45.0728 15.1754 45.3585 14.8897C45.6442 14.604 45.8047 14.2165 45.8047 13.8125C45.8047 13.4085 45.6442 13.021 45.3585 12.7353C45.0728 12.4496 44.6853 12.2891 44.2812 12.2891H32.0938C31.6897 12.2891 31.3022 12.4496 31.0165 12.7353C30.7308 13.021 30.5703 13.4085 30.5703 13.8125C30.5703 14.2165 30.7308 14.604 31.0165 14.8897C31.3022 15.1754 31.6897 15.3359 32.0938 15.3359ZM15.9159 38.1875L19.9174 34.187C20.2032 33.9012 20.3638 33.5135 20.3638 33.1094C20.3638 32.7052 20.2032 32.3176 19.9174 32.0318C19.6316 31.746 19.244 31.5855 18.8398 31.5855C18.4357 31.5855 18.0481 31.746 17.7623 32.0318L13.7617 36.0334L9.76117 32.0318C9.47538 31.746 9.08776 31.5855 8.68359 31.5855C8.27942 31.5855 7.89181 31.746 7.60602 32.0318C7.32022 32.3176 7.15967 32.7052 7.15967 33.1094C7.15967 33.5135 7.32022 33.9012 7.60602 34.187L11.6076 38.1875L7.60602 42.188C7.32022 42.4738 7.15967 42.8615 7.15967 43.2656C7.15967 43.6698 7.32022 44.0574 7.60602 44.3432C7.89181 44.629 8.27942 44.7896 8.68359 44.7896C9.08776 44.7896 9.47538 44.629 9.76117 44.3432L13.7617 40.3416L17.7623 44.3432C18.0481 44.629 18.4357 44.7896 18.8398 44.7896C19.244 44.7896 19.6316 44.629 19.9174 44.3432C20.2032 44.0574 20.3638 43.6698 20.3638 43.2656C20.3638 42.8615 20.2032 42.4738 19.9174 42.188L15.9159 38.1875ZM38.2383 42.707C37.8342 42.707 37.4467 42.8675 37.161 43.1532C36.8753 43.4389 36.7148 43.8264 36.7148 44.2305V44.332C36.7148 44.7361 36.8753 45.1236 37.161 45.4093C37.4467 45.695 37.8342 45.8555 38.2383 45.8555C38.6423 45.8555 39.0298 45.695 39.3155 45.4093C39.6012 45.1236 39.7617 44.7361 39.7617 44.332V44.2305C39.7617 43.8264 39.6012 43.4389 39.3155 43.1532C39.0298 42.8675 38.6423 42.707 38.2383 42.707ZM38.2383 33.7695C38.6423 33.7695 39.0298 33.609 39.3155 33.3233C39.6012 33.0376 39.7617 32.6501 39.7617 32.2461V32.1445C39.7617 31.7405 39.6012 31.353 39.3155 31.0673C39.0298 30.7816 38.6423 30.6211 38.2383 30.6211C37.8342 30.6211 37.4467 30.7816 37.161 31.0673C36.8753 31.353 36.7148 31.7405 36.7148 32.1445V32.2461C36.7148 32.6501 36.8753 33.0376 37.161 33.3233C37.4467 33.609 37.8342 33.7695 38.2383 33.7695ZM44.332 36.7148H32.1445C31.7405 36.7148 31.353 36.8753 31.0673 37.161C30.7816 37.4467 30.6211 37.8342 30.6211 38.2383C30.6211 38.6423 30.7816 39.0298 31.0673 39.3155C31.353 39.6012 31.7405 39.7617 32.1445 39.7617H44.332C44.7361 39.7617 45.1236 39.6012 45.4093 39.3155C45.695 39.0298 45.8555 38.6423 45.8555 38.2383C45.8555 37.8342 45.695 37.4467 45.4093 37.161C45.1236 36.8753 44.7361 36.7148 44.332 36.7148Z" fill="#FF4002"/>
</g>
<defs>
<clipPath id="clip0_801_1748">
<rect width="52" height="52" fill="white"/>
</clipPath>
</defs>
</svg>
