<svg width="50" height="41" viewBox="0 0 50 41" fill="none" xmlns="http://www.w3.org/2000/svg">
<path d="M3.57114 18.2854H24.998V21.9424H3.57114V18.2854ZM0 9.14294H17.8557V12.7999H0V9.14294Z" fill="#FF4002"/>
<path d="M49.8573 19.393L44.5006 6.59354C44.3632 6.26456 44.1344 5.98417 43.8426 5.78718C43.5509 5.59019 43.2091 5.48528 42.8597 5.48548H37.503V1.82849C37.503 1.34355 37.3149 0.878462 36.98 0.535553C36.6451 0.192645 36.191 0 35.7174 0H7.14826V3.65699H33.9318V26.6155C33.1182 27.0993 32.4062 27.7433 31.8367 28.5103C31.2673 29.2773 30.8519 30.1521 30.6142 31.0844H19.3937C18.9591 29.3607 17.9256 27.8586 16.4868 26.8595C15.048 25.8603 13.3028 25.4329 11.5783 25.6572C9.85373 25.8815 8.26829 26.7422 7.11912 28.0779C5.96994 29.4136 5.33594 31.1327 5.33594 32.9129C5.33594 34.693 5.96994 36.4121 7.11912 37.7478C8.26829 39.0835 9.85373 39.9442 11.5783 40.1685C13.3028 40.3928 15.048 39.9654 16.4868 38.9663C17.9256 37.9672 18.9591 36.465 19.3937 34.7414H30.6142C31.0027 36.3106 31.891 37.7025 33.1386 38.6967C34.3863 39.6909 35.9221 40.2307 37.503 40.2307C39.0839 40.2307 40.6196 39.6909 41.8673 38.6967C43.115 37.7025 44.0033 36.3106 44.3917 34.7414H48.2164C48.69 34.7414 49.1441 34.5487 49.479 34.2058C49.8139 33.8629 50.002 33.3978 50.002 32.9129V20.1134C50.0021 19.8657 49.9528 19.6206 49.8573 19.393ZM12.505 36.5699C11.7987 36.5699 11.1082 36.3554 10.521 35.9535C9.93368 35.5517 9.47596 34.9806 9.20567 34.3123C8.93538 33.6441 8.86466 32.9088 9.00245 32.1994C9.14024 31.49 9.48036 30.8384 9.9798 30.327C10.4792 29.8155 11.1155 29.4673 11.8083 29.3261C12.501 29.185 13.2191 29.2575 13.8716 29.5343C14.5241 29.811 15.0819 30.2798 15.4743 30.8812C15.8667 31.4825 16.0761 32.1896 16.0761 32.9129C16.0752 33.8825 15.6986 34.8121 15.0291 35.4977C14.3596 36.1833 13.4518 36.5689 12.505 36.5699ZM37.503 9.14246H41.6812L45.5095 18.2849H37.503V9.14246ZM37.503 36.5699C36.7967 36.5699 36.1062 36.3554 35.519 35.9535C34.9317 35.5517 34.474 34.9806 34.2037 34.3123C33.9334 33.6441 33.8627 32.9088 34.0005 32.1994C34.1382 31.49 34.4784 30.8384 34.9778 30.327C35.4772 29.8155 36.1135 29.4673 36.8063 29.3261C37.499 29.185 38.217 29.2575 38.8696 29.5343C39.5221 29.811 40.0799 30.2798 40.4723 30.8812C40.8647 31.4825 41.0741 32.1896 41.0741 32.9129C41.0732 33.8825 40.6966 34.8121 40.0271 35.4977C39.3576 36.1833 38.4498 36.5689 37.503 36.5699ZM46.4308 31.0844H44.3917C43.9984 29.5181 43.1087 28.1299 41.862 27.1371C40.6153 26.1444 39.0822 25.6034 37.503 25.5989V21.9419H46.4308V31.0844Z" fill="#FF4002"/>
</svg>
