<svg width="52" height="52" viewBox="0 0 52 52" fill="none" xmlns="http://www.w3.org/2000/svg">
<path d="M38.2613 40.9663C31.7046 40.9686 25.2899 39.056 19.805 35.4635C14.3202 31.8709 10.0039 26.7547 7.38628 20.7431C6.72815 19.4025 7.98753 18.6794 8.67003 18.3056L10.035 17.4931L6.50065 16.0225C6.24681 15.9293 6.02024 15.7742 5.84148 15.5714C5.66271 15.3685 5.5374 15.1242 5.4769 14.8606C4.92557 12.38 4.65305 9.84553 4.6644 7.30438C4.6644 6.87341 4.83561 6.46008 5.14035 6.15533C5.4451 5.85059 5.85843 5.67938 6.2894 5.67938C12.397 5.68093 18.3888 7.34656 23.621 10.4973C28.8532 13.6481 33.1281 18.1649 35.9863 23.5625C36.0993 23.7517 36.1727 23.962 36.2019 24.1805C36.2312 24.3989 36.2156 24.6211 36.1563 24.8334C36.097 25.0457 35.9951 25.2437 35.8568 25.4153C35.7185 25.587 35.5468 25.7287 35.352 25.8319C35.1572 25.9351 34.9435 25.9976 34.7238 26.0155C34.5041 26.0335 34.283 26.0066 34.0741 25.9364C33.8651 25.8663 33.6726 25.7543 33.5083 25.6074C33.3439 25.4605 33.2112 25.2817 33.1182 25.0819C30.6692 20.4473 27.0625 16.5255 22.6487 13.6978C18.235 10.8702 13.1646 9.23306 7.93065 8.94563C8.01262 10.4138 8.19724 11.8745 8.48315 13.3169C9.23878 13.6013 10.2707 14.0238 11.7332 14.6331L14.2925 15.6975C14.6122 15.8258 14.8828 16.0523 15.0654 16.3444C15.2479 16.6364 15.3329 16.979 15.3082 17.3225C15.3165 17.4891 15.2855 17.6553 15.2177 17.8077C15.15 17.9602 15.0474 18.0945 14.9182 18.2C14.7174 18.4688 14.4307 18.6609 14.1057 18.7444C13.4719 19.1588 12.4807 19.7356 10.9125 20.6456C13.2856 25.5095 16.9142 29.6516 21.4235 32.6441C25.9329 35.6365 31.1594 37.3707 36.5632 37.6675C36.4802 36.1435 36.2819 34.6279 35.97 33.1338C35.886 32.7071 35.9749 32.2645 36.2172 31.9034C36.4594 31.5423 36.8352 31.2922 37.2619 31.2081C37.6886 31.1241 38.1311 31.213 38.4923 31.4553C38.8534 31.6975 39.1035 32.0733 39.1875 32.5C39.6523 34.759 39.8864 37.0593 39.8863 39.3656C39.8799 39.7924 39.7058 40.1995 39.4018 40.499C39.0977 40.7985 38.6881 40.9663 38.2613 40.9663Z" fill="#FF4002"/>
<path d="M45.7704 46.3125C45.4151 46.312 45.0698 46.1949 44.7873 45.9794L25.5067 31.2325C25.2468 31.0343 25.0528 30.7624 24.9499 30.4522C24.8469 30.142 24.84 29.808 24.9298 29.4938L25.9292 26C25.9879 25.7946 26.0864 25.6028 26.2192 25.4355C26.3521 25.2682 26.5165 25.1287 26.7033 25.025C26.89 24.9212 27.0953 24.8553 27.3075 24.8309C27.5198 24.8065 27.7347 24.8242 27.9401 24.8828C28.1455 24.9415 28.3373 25.0401 28.5046 25.1729C28.6719 25.3057 28.8114 25.4702 28.9152 25.6569C29.0189 25.8437 29.0849 26.049 29.1092 26.2612C29.1336 26.4734 29.116 26.6884 29.0573 26.8938L28.3585 29.3313L46.7617 43.4038C47.029 43.6112 47.2248 43.8969 47.322 44.221C47.4191 44.5451 47.4127 44.8914 47.3035 45.2117C47.1944 45.532 46.988 45.8102 46.7132 46.0075C46.4383 46.2048 46.1088 46.3115 45.7704 46.3125Z" fill="#FF4002"/>
</svg>
