<svg width="52" height="52" viewBox="0 0 52 52" fill="none" xmlns="http://www.w3.org/2000/svg">
<g clip-path="url(#clip0_801_1765)">
<path d="M5.38416 21.3588L21.2015 38.2425L13.5848 21.3588H5.38416ZM26 40.9591L34.8608 21.3588H17.1393L26 40.9591ZM13.661 18.1091L18.8403 8.35966H12.1884L4.87637 18.1091H13.661H13.661ZM30.7985 38.2425L46.6159 21.3588H38.4152L30.7985 38.2425ZM17.3424 18.1091H34.6577L29.4783 8.35966H22.5217L17.3424 18.1091ZM38.339 18.1091H47.1236L39.8116 8.35966H33.1597L38.339 18.1091ZM41.9189 5.76999L51.6683 18.7692C51.9052 19.0738 52.0153 19.4251 51.9983 19.8228C51.9814 20.2205 51.8375 20.5633 51.5667 20.851L27.1933 46.8494C26.8886 47.1879 26.4909 47.3571 26 47.3571C25.5092 47.3571 25.1114 47.1879 24.8067 46.8494L0.433304 20.8511C0.16249 20.5633 0.0186198 20.2205 0.00169271 19.8228C-0.0152344 19.4251 0.0947917 19.0738 0.331771 18.7692L10.0811 5.77002C10.3858 5.32992 10.8174 5.10986 11.376 5.10986H40.6241C41.1826 5.10986 41.6142 5.32992 41.9189 5.77002V5.76999Z" fill="#FF4002"/>
</g>
<defs>
<clipPath id="clip0_801_1765">
<rect width="52" height="52" fill="white"/>
</clipPath>
</defs>
</svg>
