<svg width="56" height="56" viewBox="0 0 56 56" fill="none" xmlns="http://www.w3.org/2000/svg">
<path d="M28.1094 13.1765C28.8841 13.1765 30.7246 13.6664 30.7246 13.6664C35.7109 14.809 39.2207 19.4019 39.2207 24.5875V38.5451L40.2402 39.5693L41.092 40.4249H14.908L15.7598 39.5693L16.7793 38.5451V24.5875C16.7793 19.402 20.2891 14.809 25.2754 13.6664C25.2754 13.6664 27.2488 13.1765 27.8906 13.1765M28 5.25C26.0748 5.25 24.6029 6.72853 24.6029 8.6625V10.2549C18.1482 11.734 13.2793 17.6488 13.2793 24.5875V37.1L8.75 41.65V43.925H47.25V41.65L42.7207 37.1V24.5875C42.7207 17.6488 37.8517 11.734 31.3971 10.2549V8.6625C31.3971 6.72853 29.9252 5.25 28 5.25ZM32.5293 46.2H23.4706C23.4706 48.7026 25.5085 50.75 28 50.75C30.4915 50.75 32.5293 48.7026 32.5293 46.2Z" fill="#FF4002"/>
</svg>
