<svg width="52" height="52" viewBox="0 0 52 52" fill="none" xmlns="http://www.w3.org/2000/svg">
<path d="M26 27.625C18.8321 27.625 13 21.7929 13 14.625C13 7.45713 18.8321 1.625 26 1.625C33.1679 1.625 39 7.45713 39 14.625C39 21.7929 33.1679 27.625 26 27.625ZM26 4.875C20.6229 4.875 16.25 9.24788 16.25 14.625C16.25 20.0021 20.6229 24.375 26 24.375C31.3771 24.375 35.75 20.0021 35.75 14.625C35.75 9.24788 31.3771 4.875 26 4.875Z" fill="#FF4002"/>
<path d="M26.65 21.45H25.35C24.4392 21.4464 23.5537 21.15 22.8242 20.6046C22.0947 20.0591 21.56 19.2936 21.2989 18.421C21.233 18.2148 21.209 17.9974 21.2283 17.7818C21.2476 17.5662 21.3098 17.3566 21.4112 17.1653C21.5127 16.974 21.6513 16.805 21.819 16.668C21.9866 16.5311 22.18 16.429 22.3877 16.3679C22.5953 16.3067 22.8131 16.2876 23.0283 16.3118C23.2434 16.336 23.4516 16.4029 23.6405 16.5086C23.8294 16.6143 23.9953 16.7568 24.1284 16.9275C24.2615 17.0982 24.3592 17.2939 24.4156 17.5029C24.5375 17.914 24.9226 18.2016 25.35 18.2016H26.65C26.9088 18.2016 27.157 18.0988 27.34 17.9158C27.523 17.7328 27.6258 17.4846 27.6258 17.2258C27.6258 16.967 27.523 16.7188 27.34 16.5358C27.157 16.3528 26.9088 16.25 26.65 16.25H25.35C23.0198 16.25 21.125 14.3536 21.125 12.025C21.125 9.69636 23.0198 7.79999 25.35 7.79999H26.65C28.4716 7.79999 30.0804 8.96024 30.6572 10.6892C30.7281 10.8925 30.7578 11.1077 30.7448 11.3225C30.7317 11.5374 30.6761 11.7474 30.5812 11.9406C30.4863 12.1337 30.354 12.3061 30.1919 12.4477C30.0298 12.5893 29.8413 12.6973 29.6371 12.7654C29.433 12.8335 29.2173 12.8604 29.0027 12.8445C28.7881 12.8286 28.5788 12.7703 28.3869 12.6728C28.195 12.5753 28.0244 12.4407 27.885 12.2768C27.7455 12.1129 27.64 11.9229 27.5746 11.7179C27.5106 11.5233 27.3867 11.3539 27.2206 11.234C27.0546 11.1141 26.8548 11.0496 26.65 11.05H25.35C25.0914 11.05 24.8434 11.1527 24.6606 11.3356C24.4777 11.5184 24.375 11.7664 24.375 12.025C24.375 12.2836 24.4777 12.5316 24.6606 12.7144C24.8434 12.8973 25.0914 13 25.35 13H26.65C28.9802 13 30.875 14.8964 30.875 17.225C30.875 19.5536 28.9802 21.45 26.65 21.45Z" fill="#FF4002"/>
<path d="M26 9.75001C25.5596 9.75001 25.1534 9.57126 24.8463 9.27876C24.7812 9.19751 24.7 9.11626 24.6513 9.01876C24.5868 8.93588 24.5373 8.84239 24.505 8.74251C24.4583 8.6502 24.4249 8.55172 24.4059 8.45001C24.3913 8.33626 24.375 8.23876 24.375 8.12501C24.375 7.70251 24.5521 7.28001 24.8463 6.97126C25.4475 6.37001 26.5362 6.37001 27.1537 6.97126C27.4462 7.28001 27.625 7.70251 27.625 8.12501C27.625 8.23876 27.6087 8.33626 27.5909 8.45001C27.5739 8.55203 27.541 8.65074 27.4934 8.74251C27.4604 8.84212 27.411 8.93549 27.3471 9.01876C27.2821 9.11626 27.2171 9.19751 27.1521 9.27876C26.845 9.57126 26.4225 9.75001 26 9.75001ZM26 22.75C25.5596 22.75 25.1534 22.5713 24.8463 22.2788C24.7812 22.1975 24.7 22.1163 24.6513 22.0188C24.5868 21.9359 24.5373 21.8424 24.505 21.7425C24.4583 21.6502 24.4249 21.5517 24.4059 21.45C24.3913 21.3363 24.375 21.2388 24.375 21.125C24.375 20.7025 24.5521 20.28 24.8463 19.9713C25.4475 19.37 26.5362 19.37 27.1537 19.9713C27.4462 20.28 27.625 20.7025 27.625 21.125C27.625 21.2388 27.6087 21.3363 27.5909 21.45C27.5739 21.552 27.541 21.6507 27.4934 21.7425C27.4604 21.8421 27.411 21.9355 27.3471 22.0188C27.2821 22.1163 27.2171 22.1975 27.1521 22.2788C26.845 22.5713 26.4225 22.75 26 22.75ZM29.25 50.375H3.25C2.81902 50.375 2.4057 50.2038 2.10095 49.8991C1.7962 49.5943 1.625 49.181 1.625 48.75V34.125C1.625 33.6944 1.79562 33.28 2.10112 32.9761C2.48137 32.5943 5.93613 29.25 9.75 29.25C12.909 29.25 16.9845 31.6371 18.3544 32.5H26C26.7113 32.5011 27.4137 32.6576 28.0582 32.9585C28.7026 33.2595 29.2735 33.6977 29.7309 34.2424C30.1883 34.7871 30.5212 35.4251 30.7062 36.1119C30.8911 36.7987 30.9238 37.5176 30.8019 38.2184L43.6248 32.8754C44.3654 32.566 45.1711 32.4445 45.9701 32.5219C46.7691 32.5993 47.5365 32.8732 48.204 33.319C48.8725 33.7634 49.4206 34.3664 49.7994 35.0741C50.1782 35.7818 50.3759 36.5723 50.375 37.375C50.3751 37.6591 50.3007 37.9382 50.1593 38.1845C50.0179 38.4309 49.8143 38.6358 49.569 38.779L30.069 50.154C29.8203 50.2987 29.5377 50.3749 29.25 50.375ZM4.875 47.125H28.8096L46.9121 36.5658C46.7859 36.3481 46.6113 36.1624 46.4019 36.023C46.1803 35.8725 45.9244 35.7801 45.6578 35.7543C45.3912 35.7285 45.1224 35.77 44.876 35.8751L29.8772 42.1249C29.6784 42.2074 29.4653 42.25 29.25 42.25H16.25C15.819 42.25 15.4057 42.0788 15.101 41.7741C14.7962 41.4693 14.625 41.056 14.625 40.625C14.625 40.194 14.7962 39.7807 15.101 39.476C15.4057 39.1712 15.819 39 16.25 39H26C26.4184 38.9813 26.8135 38.8019 27.1029 38.4992C27.3924 38.1965 27.5539 37.7938 27.5539 37.375C27.5539 36.9562 27.3924 36.5535 27.1029 36.2508C26.8135 35.9481 26.4184 35.7687 26 35.75H17.875C17.5549 35.75 17.2396 35.6541 16.9731 35.4786C15.73 34.6499 12.0039 32.5 9.75 32.5C7.97875 32.5 5.93612 33.93 4.875 34.8384V47.125Z" fill="#FF4002"/>
</svg>
