<svg width="535" height="547" fill="none" xmlns="http://www.w3.org/2000/svg"><path d="M156.829 54.107c.019-3.298-.113-6.615.247-9.875 1.289-12.225 7.543-22.611 21.948-25.757 2.16-.474 4.378-.683 6.595-.702 17.855-.17 35.728-.34 53.582-.398 30.439-.113 60.878-.17 91.317-.208 34.609-.057 69.199-.057 103.808-.095 6.122 0 12.244-.114 18.366-.038 14.689.209 29.378.53 44.048.758 2.672.038 5.344.076 7.998-.038 6.027-.227 11.694.986 16.849 4.037 7.089 4.17 11.107 10.539 12.51 18.48.663 3.753.853 7.638.872 11.448.132 24.848-.209 395.842-.228 466.614 0 13.551-10.064 25.208-23.54 26.705a17.21 17.21 0 01-.986.095c-3.127.246-6.254.417-9.4.417-49.658.208-99.335.455-148.993.511-36.315.057-72.649-.113-108.963-.227-18.745-.057-37.509-.171-56.254-.322-4.568-.038-9.079-.607-13.381-2.313-9.515-3.752-14.67-11.106-16.982-20.772-.891-3.772-1.1-7.582-1.081-11.448.19-25.417.398-50.833.493-76.269.133-33.718 1.005-336.195 1.175-380.603z" fill="#F6EBE5"/><path d="M135.639 54.107c.019-3.298-.113-6.615.247-9.875 1.289-12.225 7.543-22.611 21.948-25.757 2.16-.474 4.378-.683 6.596-.702 17.854-.17 35.727-.34 53.581-.398 30.439-.113 60.878-.17 91.317-.208 34.609-.057 69.199-.057 103.808-.095 6.122 0 12.244-.114 18.366-.038 14.689.209 29.378.53 44.048.758 2.672.038 5.345.076 7.998-.038 6.027-.227 11.694.986 16.85 4.037 7.088 4.17 11.106 10.539 12.509 18.48.663 3.753.853 7.638.872 11.448.132 24.848-.209 395.842-.228 466.614 0 13.551-10.064 25.208-23.54 26.705-.322.038-.663.076-.985.095-3.128.246-6.255.417-9.401.417-49.658.208-99.335.455-148.993.511-36.315.057-72.648-.113-108.963-.227-18.745-.057-37.509-.171-56.254-.322-4.568-.038-9.079-.607-13.381-2.313-9.515-3.752-14.67-11.106-16.982-20.772-.891-3.772-1.1-7.582-1.081-11.448.19-25.417.398-50.833.493-76.269.133-33.718 1.005-336.195 1.175-380.603z" fill="#fff"/><path d="M281.147 8.259c-6.084-7.79-19.2-6.88-24.128.038.683 1.744 1.422 3.374 1.971 5.06.285.872.247 1.858.228 2.787 0 .284-.36.739-.626.815-.303.075-.853-.095-1.004-.323a6.92 6.92 0 01-.796-1.933c-.341-1.364-.929-2.596-1.649-4.075-.36.455-.569.645-.72.91-4.72 8.472-1.593 18.612 6.937 22.744.36.17.701.341 1.042.53.682.38.739 1.024.455 1.63-.303.626-.91.986-1.554.626-1.706-.928-3.526-1.762-5.023-2.994-7.145-5.838-8.643-16.13-3.866-24.242.303-.53.625-1.061.928-1.554-5.496-7.449-18.498-7.297-24.108-.057.663 1.687 1.402 3.317 1.933 5.023.284.872.303 1.838.284 2.767 0 .341-.436.929-.72.948-.341.038-.891-.285-1.099-.626-.323-.512-.436-1.156-.626-1.762-.398-1.308-.815-2.616-1.763-3.98-.985 1.497-1.535 2.842-1.99 4.245-2.634 8.112 1.517 16.28 8.453 19.465 1.517.701 1.858 1.384 1.365 2.218-.436.739-1.099.815-2.502.132-6.785-3.373-10.329-8.87-10.633-16.432-.17-3.943.929-7.563 3.052-10.899.208-.322.379-.682.569-1.023-5.194-7.506-18.689-7.41-24.09-.057.682 1.725 1.421 3.355 1.971 5.06.284.872.246 1.858.227 2.787 0 .284-.379.815-.606.815-.398 0-.948-.19-1.156-.493-.341-.493-.512-1.137-.664-1.744a12.598 12.598 0 00-1.781-4.056c-.436.74-.815 1.289-1.119 1.896-3.885 8.187-.758 17.475 7.051 21.493.493.246.986.492 1.46.758.682.379.758 1.004.473 1.61-.284.626-.909.986-1.554.645-1.706-.928-3.525-1.762-5.022-2.975-7.146-5.838-8.662-16.11-3.886-24.242.303-.53.626-1.061.986-1.649-3.033-3.487-6.729-5.307-11.316-5.401-7.505-.19-12.774 3.354-15.977 9.874-3.961 8.093-.72 17.324 6.937 21.323.493.246.985.474 1.459.758.72.455.948 1.156.55 1.782-.379.587-.948.89-1.611.511-1.687-.966-3.526-1.781-5.004-3.013-7.695-6.35-8.643-17.722-2.729-25.834 2.843-3.904 6.652-6.463 11.258-7.562 6.539-1.573 12.377.057 17.342 4.662.228.209.455.436.834.796 3.848-3.677 8.416-5.913 13.761-6.008 5.42-.095 10.064 1.971 14.006 6.008 3.848-3.677 8.415-5.913 13.76-6.008 5.421-.095 10.065 1.971 14.007 6.008 3.847-3.677 8.415-5.913 13.76-6.008 5.421-.095 10.064 1.971 14.007 6.008 3.847-3.677 8.415-5.913 13.76-6.008 5.42-.095 10.064 1.971 14.025 6.027 3.848-3.696 8.416-5.913 13.76-6.027 5.421-.095 10.065 1.971 14.026 6.027 3.829-3.696 8.415-5.913 13.76-6.027 5.421-.095 10.064 1.971 14.026 6.008 3.904-3.733 8.548-5.989 13.987-6.008 5.421-.038 10.027 2.104 13.95 6.198.796-.607 1.592-1.175 2.388-1.782 3.26-2.54 7.032-3.79 11.088-3.923 4.89-.152 9.192 1.554 12.869 4.795.417.36.796.758 1.289 1.232 3.885-3.734 8.472-5.932 13.855-6.027 5.421-.076 10.045 2.047 13.893 5.99 2.369-1.99 4.795-3.753 7.714-4.834 10.064-3.715 21.322 1.971 23.957 12.168.227.891.208 1.858.189 2.786 0 .285-.379.72-.644.796-.303.076-.853-.113-1.004-.36-.361-.587-.588-1.27-.778-1.933-.871-2.976-2.217-5.63-4.567-7.752-2.843-2.559-6.084-3.961-9.951-4.132-4.985-.208-9.23 1.384-12.699 4.947-.151.17-.265.38-.341.455.683 1.744 1.422 3.374 1.952 5.08.285.947.228 2.009.247 3.013 0 .228-.303.626-.512.663-.341.057-.891-.018-1.042-.246a5.837 5.837 0 01-.834-1.895c-.342-1.384-.91-2.635-1.668-4.037-1.498 1.478-1.952 3.279-2.388 5.041-1.972 7.79 1.895 15.22 8.548 18.442.36.17.701.36 1.042.53.701.36.777.967.588 1.612-.19.644-.967.91-1.763.644-.36-.133-.72-.303-1.08-.474-5.175-2.52-8.492-6.596-9.875-12.168-1.308-5.269-.398-10.235 2.426-14.86.246-.397.474-.814.701-1.193-5.136-7.24-18.119-7.563-24.128-.114.645 1.649 1.384 3.26 1.915 4.947.303.947.284 1.99.303 2.994 0 .285-.36.74-.644.796-.304.076-.853-.094-1.005-.34-.36-.588-.606-1.27-.796-1.934-.379-1.346-.815-2.653-1.763-3.923-.265.34-.473.55-.606.796-4.72 8.49-1.554 18.612 6.975 22.744.36.17.701.341 1.042.53.664.398.72 1.024.436 1.63-.303.626-.891.891-1.573.607-1.914-.758-3.658-1.782-5.212-3.127-6.975-5.97-8.416-16.32-3.507-24.337.247-.397.493-.796.721-1.194-4.511-7.183-17.968-7.79-23.825-.379.55 1.479 1.175 2.995 1.63 4.55.285.947.322 1.99.341 2.994.019.303-.341.853-.549.872-.398.038-.967-.133-1.194-.417-.36-.493-.493-1.138-.702-1.725-.436-1.232-.872-2.483-1.421-4.018-1.611 1.857-2.237 3.81-2.71 5.8-1.839 7.865 2.217 15.087 8.699 18.176.36.17.701.341 1.043.53.682.38.739 1.024.473 1.63-.284.626-.871.93-1.573.645a18.737 18.737 0 01-5.231-3.108c-6.994-5.97-8.434-16.3-3.544-24.318.322-.53.644-1.061.929-1.535-4.815-7.354-18.082-8.017-24.261-.36.645 1.649 1.384 3.279 1.915 4.966.303.947.284 1.99.303 2.995 0 .284-.379.72-.645.796-.303.075-.853-.114-1.004-.36-.36-.588-.588-1.27-.777-1.934-.379-1.345-.815-2.653-1.763-3.923-.265.341-.474.568-.606.815-4.72 8.51-1.536 18.631 6.974 22.744.361.17.702.341 1.043.53.663.399.72 1.024.417 1.63-.303.626-.891.873-1.573.607-1.896-.758-3.658-1.782-5.212-3.127-6.975-5.97-8.397-16.32-3.488-24.336.246-.398.493-.796.72-1.194-4.511-7.146-18.062-7.923-24.052-.19.664 1.706 1.422 3.336 1.934 5.042.284.947.227 2.009.246 3.013 0 .228-.303.626-.512.664-.341.056-.89-.02-1.042-.247a6.343 6.343 0 01-.853-1.895c-.341-1.384-.91-2.635-1.687-4.075-.379.474-.701.758-.891 1.137-4.416 8.472-1.307 18.271 7.051 22.384.417.209.967.341 1.213.682.284.38.493 1.005.398 1.44-.171.664-.796.968-1.497.759-.455-.133-.872-.36-1.289-.569-5.25-2.577-8.586-6.71-9.932-12.395-1.232-5.212-.303-10.083 2.464-14.632.171-.266.322-.53.474-.815.076-.133.133-.284.209-.417-5.061-7.202-18.063-7.563-24.109-.095.644 1.649 1.383 3.26 1.895 4.947.303.948.303 1.99.303 2.995 0 .284-.36.739-.625.815-.303.075-.853-.095-1.005-.342-.36-.587-.606-1.27-.796-1.933-.379-1.345-.834-2.653-1.686-3.866-.247.208-.455.322-.569.511-4.852 8.548-1.763 18.764 6.842 22.953.36.17.701.341 1.043.53.663.399.739 1.024.435 1.63-.303.626-.909.967-1.573.607-1.705-.947-3.525-1.762-5.022-2.994-7.146-5.838-8.643-16.13-3.848-24.242.303-.53.626-1.061.91-1.535-5.534-7.468-18.555-7.278-24.109-.057.664 1.706 1.403 3.336 1.933 5.023.285.947.247 2.009.266 3.013 0 .228-.285.645-.493.664-.341.056-.891 0-1.042-.228-.38-.568-.626-1.232-.872-1.895-.474-1.308-.929-2.616-1.498-4.246-1.213 1.138-1.686 2.294-2.047 3.412-2.047 6.293-1.175 12.073 3.507 16.944 1.232 1.27 2.843 2.161 4.302 3.203.436.323 1.081.417 1.422.796.303.342.511 1.005.398 1.44-.152.664-.777.949-1.498.778-.379-.095-.739-.284-1.08-.455-6.785-3.393-10.311-8.889-10.614-16.433-.151-3.942.929-7.562 3.071-10.879.341-.36.492-.701.72-1.118z" fill="#F6EBE5"/><path d="M114.823 8.259c-6.084-7.79-19.2-6.88-24.128.038.682 1.744 1.422 3.374 1.971 5.06.285.872.247 1.858.228 2.787 0 .284-.36.739-.626.815-.303.075-.853-.095-1.004-.323a6.935 6.935 0 01-.796-1.933c-.342-1.364-.929-2.596-1.65-4.075-.36.455-.568.645-.72.91-4.719 8.472-1.592 18.612 6.937 22.744.36.17.702.341 1.043.53.682.38.74 1.024.455 1.63-.303.626-.91.986-1.554.626-1.706-.928-3.526-1.762-5.023-2.994-7.145-5.838-8.643-16.13-3.867-24.242.304-.53.626-1.061.93-1.554-5.497-7.449-18.5-7.297-24.11-.057.664 1.687 1.403 3.317 1.934 5.023.284.872.303 1.838.284 2.767 0 .341-.436.929-.72.948-.341.038-.891-.285-1.1-.626-.322-.512-.436-1.156-.625-1.762-.398-1.308-.815-2.616-1.763-3.98-.985 1.497-1.535 2.842-1.99 4.245-2.634 8.112 1.517 16.28 8.453 19.465 1.517.701 1.858 1.384 1.365 2.218-.436.739-1.1.815-2.502.132-6.785-3.373-10.33-8.87-10.633-16.432-.17-3.943.93-7.563 3.052-10.899.208-.322.379-.682.569-1.023C54.038.79 40.544.887 35.142 8.24c.682 1.725 1.421 3.355 1.97 5.06.285.872.247 1.858.228 2.787 0 .284-.379.815-.606.815-.398 0-.948-.19-1.156-.493-.342-.493-.512-1.137-.664-1.744a12.59 12.59 0 00-1.781-4.056c-.436.74-.815 1.289-1.119 1.896-3.885 8.187-.758 17.475 7.051 21.493.493.246.986.492 1.46.758.682.379.758 1.004.473 1.61-.284.626-.91.986-1.554.645-1.706-.928-3.525-1.762-5.023-2.975-7.145-5.838-8.661-16.11-3.885-24.242.303-.53.626-1.061.986-1.649-3.033-3.487-6.729-5.307-11.316-5.401-7.505-.19-12.774 3.354-15.977 9.874-3.962 8.093-.72 17.324 6.937 21.323.492.246.985.474 1.459.758.72.455.948 1.156.55 1.782-.38.587-.948.89-1.611.511-1.687-.966-3.526-1.781-5.004-3.013-7.695-6.35-8.643-17.722-2.73-25.834C6.676 4.241 10.485 1.682 15.09.583 21.629-.99 27.467.64 32.432 5.245c.228.209.455.436.834.796C37.114 2.364 41.682.128 47.026.033c5.421-.095 10.065 1.971 14.007 6.008C64.881 2.364 69.448.128 74.793.033c5.42-.095 10.064 1.971 14.007 6.008C92.647 2.364 97.215.128 102.56.033c5.421-.095 10.064 1.971 14.007 6.008 3.847-3.677 8.415-5.913 13.76-6.008 5.42-.095 10.064 1.971 14.025 6.027 3.848-3.696 8.415-5.913 13.76-6.027 5.421-.095 10.065 1.971 14.026 6.027 3.828-3.696 8.415-5.913 13.76-6.027 5.421-.095 10.064 1.971 14.026 6.008 3.904-3.733 8.548-5.989 13.987-6.008 5.421-.038 10.027 2.104 13.95 6.198.796-.607 1.592-1.175 2.388-1.782 3.26-2.54 7.032-3.79 11.088-3.923 4.89-.152 9.192 1.554 12.869 4.795.417.36.796.758 1.289 1.232C259.38 2.82 263.967.621 269.35.526c5.421-.076 10.045 2.047 13.893 5.99 2.369-1.99 4.795-3.753 7.714-4.834 10.064-3.715 21.322 1.971 23.957 12.168.227.891.208 1.858.189 2.786 0 .285-.379.72-.644.796-.303.076-.853-.113-1.005-.36-.36-.587-.587-1.27-.777-1.933-.872-2.976-2.217-5.63-4.567-7.752-2.843-2.559-6.084-3.961-9.951-4.132-4.985-.208-9.23 1.384-12.699 4.947-.151.17-.265.38-.341.455.682 1.744 1.422 3.374 1.952 5.08.285.947.228 2.009.247 3.013 0 .228-.304.626-.512.663-.341.057-.891-.018-1.043-.246a5.834 5.834 0 01-.833-1.895c-.342-1.384-.91-2.635-1.668-4.037-1.498 1.478-1.953 3.279-2.388 5.041-1.972 7.79 1.895 15.22 8.547 18.442.361.17.702.36 1.043.53.701.36.777.967.588 1.612-.19.644-.967.91-1.763.644-.36-.133-.72-.303-1.081-.474-5.174-2.52-8.491-6.596-9.874-12.168-1.308-5.269-.398-10.235 2.426-14.86.246-.397.474-.814.701-1.193-5.136-7.24-18.119-7.563-24.128-.114.645 1.649 1.384 3.26 1.915 4.947.303.947.284 1.99.303 2.994 0 .285-.36.74-.644.796-.304.076-.853-.094-1.005-.34-.36-.588-.606-1.27-.796-1.934-.379-1.346-.815-2.653-1.763-3.923-.265.34-.474.55-.606.796-4.72 8.49-1.554 18.612 6.975 22.744.36.17.701.341 1.042.53.663.398.72 1.024.436 1.63-.303.626-.891.891-1.573.607-1.914-.758-3.658-1.782-5.212-3.127-6.975-5.97-8.416-16.32-3.507-24.337.247-.397.493-.796.721-1.194-4.511-7.183-17.968-7.79-23.825-.379.55 1.479 1.175 2.995 1.63 4.55.284.947.322 1.99.341 2.994.019.303-.341.853-.549.872-.398.038-.967-.133-1.194-.417-.361-.493-.493-1.138-.702-1.725-.436-1.232-.872-2.483-1.421-4.018-1.611 1.857-2.237 3.81-2.711 5.8-1.838 7.865 2.218 15.087 8.7 18.176.36.17.701.341 1.042.53.683.38.74 1.024.474 1.63-.284.626-.872.93-1.573.645a18.737 18.737 0 01-5.231-3.108c-6.994-5.97-8.434-16.3-3.544-24.318.322-.53.644-1.061.928-1.535-4.814-7.354-18.081-8.017-24.26-.36.645 1.649 1.384 3.279 1.914 4.966.304.947.285 1.99.304 2.995 0 .284-.379.72-.645.796-.303.075-.853-.114-1.004-.36-.36-.588-.588-1.27-.777-1.934-.379-1.345-.815-2.653-1.763-3.923-.265.341-.474.568-.607.815-4.719 8.51-1.535 18.631 6.975 22.744.36.17.702.341 1.043.53.663.399.72 1.024.417 1.63-.304.626-.891.873-1.573.607-1.896-.758-3.658-1.782-5.213-3.127-6.974-5.97-8.396-16.32-3.487-24.336.246-.398.493-.796.72-1.194-4.511-7.146-18.062-7.923-24.052-.19.664 1.706 1.422 3.336 1.934 5.042.284.947.227 2.009.246 3.013 0 .228-.303.626-.512.664-.341.056-.891-.02-1.042-.247a6.318 6.318 0 01-.853-1.895c-.341-1.384-.91-2.635-1.687-4.075-.379.474-.701.758-.891 1.137-4.416 8.472-1.308 18.271 7.051 22.384.417.209.967.341 1.213.682.284.38.493 1.005.398 1.44-.171.664-.796.968-1.497.759-.455-.133-.872-.36-1.289-.569-5.25-2.577-8.586-6.71-9.932-12.395-1.232-5.212-.303-10.083 2.464-14.632.171-.266.322-.53.474-.815.076-.133.133-.284.208-.417-5.06-7.202-18.062-7.563-24.108-.095.644 1.649 1.383 3.26 1.895 4.947.303.948.303 1.99.303 2.995 0 .284-.36.739-.625.815-.303.075-.853-.095-1.005-.342-.36-.587-.606-1.27-.796-1.933-.379-1.345-.834-2.653-1.687-3.866-.246.208-.454.322-.568.511-4.852 8.548-1.763 18.764 6.842 22.953.36.17.701.341 1.042.53.664.399.74 1.024.436 1.63-.303.626-.909.967-1.573.607-1.706-.947-3.525-1.762-5.022-2.994-7.146-5.838-8.643-16.13-3.848-24.242.303-.53.626-1.061.91-1.535-5.535-7.468-18.556-7.278-24.109-.057.664 1.706 1.403 3.336 1.933 5.023.285.947.247 2.009.266 3.013 0 .228-.285.645-.493.664-.341.056-.891 0-1.043-.228-.379-.568-.625-1.232-.871-1.895-.474-1.308-.929-2.616-1.498-4.246-1.213 1.138-1.687 2.294-2.047 3.412-2.047 6.293-1.175 12.073 3.507 16.944 1.232 1.27 2.843 2.161 4.302 3.203.436.323 1.08.417 1.422.796.303.342.511 1.005.398 1.44-.152.664-.777.949-1.498.778-.379-.095-.739-.284-1.08-.455-6.785-3.393-10.311-8.889-10.614-16.433-.152-3.942.929-7.562 3.071-10.879.341-.36.492-.701.72-1.118zm186.869 537.764c-37.301 0-74.582 0-111.882-.019-1.46 0-2.938-.209-4.398-.436-.303-.057-.739-.588-.758-.929-.019-.322.379-.891.702-.967 1.042-.246 2.141-.436 3.222-.436 16.337-.019 32.675-.019 49.013-.019 28.771 0 57.543-.303 86.314.095 30.079.417 60.158.076 90.256.304.474 0 .948 0 1.403.037.701.057 1.194.398 1.269 1.138.076.663-.454 1.175-1.383 1.251-.701.056-1.403.037-2.104.037-28.62 0-57.22-.019-85.84-.019H301.71c-.018 0-.018-.018-.018-.037zM135.168 95.008c1.649 1.194 1.421 2.616 1.611 3.867.132 1.004.038 2.028.038 3.051-.019 29.7.284 59.419-.133 89.119-.417 30.401-.095 60.784-.341 91.185 0 .834-.209 1.687-.493 2.464-.114.284-.777.587-1.118.512-.323-.057-.683-.55-.796-.929-.133-.512-.057-1.08-.057-1.63.038-59.343.076-118.667.132-178.01 0-2.483.209-4.966.417-7.45.057-.662.436-1.288.74-2.179zm317.714-77.67c9.382 0 18.764-.17 28.127.057 6.463.151 12.794 1.383 18.631 4.473 7.032 3.715 11.373 9.438 13.457 17.077 1.1 4.056.948 8.169.948 12.3 0 .076 0 .152-.019.228-.133 1.137-.663 2.009-1.251 2.028-.587.019-1.118-.853-1.156-2.047-.038-1.649 0-3.279 0-4.928-.038-6.274-1.933-11.94-5.913-16.812-2.389-2.937-5.554-5.022-8.984-6.557-3.128-1.403-6.463-2.01-9.875-2.56-4.89-.795-9.761-.833-14.67-.833h-48.066c-.701 0-1.421.038-2.104-.076-.322-.057-.739-.436-.796-.74-.076-.284.152-.776.398-1.004.323-.284.796-.474 1.232-.55.531-.094 1.1-.018 1.63-.018h28.373c.038-.02.038-.02.038-.038zm58.283 116.146c0-10.538-.303-21.095.076-31.633.455-13.04.133-26.061.379-39.082a6.365 6.365 0 01.474-2.236c.284-.72 1.346-.72 1.63.018.246.626.303 1.365.303 2.047.019 4.53 0 9.06 0 13.59-.019 14.84.246 29.681-.152 44.522-.398 14.973-.132 29.965-.36 44.938 0 .607-.094 1.232-.246 1.82-.152.53-.474 1.137-1.137.852-.417-.17-.815-.682-.967-1.118-.17-.493-.057-1.08-.057-1.63v-32.107c0 .019.038.019.057.019zm2.349 262.086c.436.701.834 1.099.91 1.554.133.758.076 1.554.076 2.331 0 21.493-.019 42.987-.019 64.48v32.827c0 .626.114 1.289-.076 1.857-.151.417-.701.948-1.08.967-.398.019-.929-.474-1.156-.891-.209-.36-.076-.909-.076-1.383.019-22.972-.19-45.962.152-68.934.151-9.837.075-19.673.322-29.491.019-1.422 0-1.422.947-3.317zM135.925 496.575c0 5.781.019 11.561 0 17.342-.019 3.696.834 7.259 2.009 10.709 1.498 4.397 3.962 8.283 7.449 11.429 4.17 3.753 8.984 6.084 14.594 6.69 1.308.133 2.616.285 3.924.436 1.118.114 1.686.55 1.592 1.308-.114.872-.759 1.156-1.517 1.118-1.933-.132-3.885-.17-5.799-.511-6.388-1.157-11.941-4-16.319-8.833-3.715-4.113-6.141-8.946-7.373-14.366-.626-2.73-.796-5.516-1.08-8.302-.493-4.757-.493-9.534-.228-14.253.436-7.562.095-15.144.303-22.706.019-.72-.322-1.649.834-1.876.777-.152 1.175.284 1.46 1.686.132.683.132 1.403.132 2.085.019 6.027 0 12.036 0 18.063 0-.019.019-.019.019-.019zM512 509.804c.095-1.441.095-2.464.284-3.45.095-.588.379-1.175 1.194-1.194.853 0 1.061.55 1.099 1.194.114 1.99.19 3.999.247 5.989 0 .209-.133.474-.284.626-.323.284-.683.682-1.043.682-.36 0-.948-.36-1.023-.663-.266-1.175-.379-2.388-.474-3.184zM237.876 65.538l-.038-.133.113.019-.075.114zM263.5 184.146h-60.083v-60.082H263.5v60.082zm-57.808-2.274h55.533v-55.533h-55.533v55.533zm245.731-55.533H292.688a1.14 1.14 0 01-1.137-1.137 1.14 1.14 0 011.137-1.137h158.735a1.14 1.14 0 011.137 1.137 1.14 1.14 0 01-1.137 1.137zm0 28.108H292.688a1.14 1.14 0 01-1.137-1.137 1.14 1.14 0 011.137-1.137h158.735a1.14 1.14 0 011.137 1.137 1.14 1.14 0 01-1.137 1.137zm-27.956 14.062H292.688a1.14 1.14 0 01-1.137-1.137 1.14 1.14 0 011.137-1.137h130.779a1.14 1.14 0 011.137 1.137 1.14 1.14 0 01-1.137 1.137zm27.956-28.123H357.13a1.141 1.141 0 01-1.137-1.138 1.14 1.14 0 011.137-1.137h94.293a1.14 1.14 0 011.137 1.137 1.14 1.14 0 01-1.137 1.138zm-106.139 0h-52.595a1.14 1.14 0 01-1.137-1.138 1.14 1.14 0 011.137-1.137h52.595c.626 0 1.138.512 1.138 1.137 0 .626-.512 1.138-1.138 1.138z" fill="#F6EBE5"/><path d="M233.44 168.339l-18.233-18.234a1.887 1.887 0 010-2.672 1.889 1.889 0 012.673 0l15.39 15.39 47.706-53.695a1.89 1.89 0 012.672-.152c.777.702.853 1.896.152 2.673l-50.36 56.69zm30.06 118.745h-60.083v-60.083H263.5v60.083zm-57.808-2.275h55.533v-55.533h-55.533v55.533zm245.731-55.529H292.688a1.141 1.141 0 01-1.137-1.138 1.14 1.14 0 011.137-1.137h158.735a1.14 1.14 0 011.137 1.137 1.14 1.14 0 01-1.137 1.138zm0 28.106H292.688a1.14 1.14 0 01-1.137-1.137 1.14 1.14 0 011.137-1.137h158.735a1.14 1.14 0 011.137 1.137 1.14 1.14 0 01-1.137 1.137zm-27.956 14.064H292.688a1.141 1.141 0 01-1.137-1.138 1.14 1.14 0 011.137-1.137h130.779a1.14 1.14 0 011.137 1.137c0 .626-.512 1.138-1.137 1.138zm27.956-28.126H357.13a1.14 1.14 0 01-1.137-1.137c0-.626.512-1.138 1.137-1.138h94.293a1.14 1.14 0 011.137 1.138 1.14 1.14 0 01-1.137 1.137zm-106.139 0h-52.595a1.14 1.14 0 01-1.137-1.137 1.14 1.14 0 011.137-1.138h52.595c.626 0 1.138.512 1.138 1.138 0 .625-.512 1.137-1.138 1.137z" fill="#F6EBE5"/><path d="M233.44 271.276l-18.233-18.233a1.887 1.887 0 010-2.672 1.889 1.889 0 012.673 0l15.39 15.409 47.706-53.695a1.89 1.89 0 012.672-.152c.777.702.853 1.896.152 2.673l-50.36 56.67zm30.06 118.741h-60.083v-60.082H263.5v60.082zm-57.808-2.274h55.533v-55.534h-55.533v55.534zm245.731-55.535H292.688a1.14 1.14 0 01-1.137-1.137 1.14 1.14 0 011.137-1.137h158.735a1.14 1.14 0 011.137 1.137 1.14 1.14 0 01-1.137 1.137zm0 28.107H292.688a1.14 1.14 0 01-1.137-1.137 1.14 1.14 0 011.137-1.137h158.735a1.14 1.14 0 011.137 1.137 1.14 1.14 0 01-1.137 1.137zm-27.956 14.064H292.688a1.141 1.141 0 01-1.137-1.138 1.14 1.14 0 011.137-1.137h130.779a1.14 1.14 0 011.137 1.137c0 .626-.512 1.138-1.137 1.138zm27.956-28.126H357.13a1.14 1.14 0 01-1.137-1.137 1.14 1.14 0 011.137-1.137h94.293a1.14 1.14 0 011.137 1.137 1.14 1.14 0 01-1.137 1.137zm-106.139 0h-52.595a1.14 1.14 0 01-1.137-1.137 1.14 1.14 0 011.137-1.137h52.595a1.14 1.14 0 011.138 1.137c0 .625-.512 1.137-1.138 1.137z" fill="#F6EBE5"/></svg>