<svg width="1065" height="617" fill="none" xmlns="http://www.w3.org/2000/svg"><path d="M159.19 302.39v3.656h71.382c.049 0 .082.017.131.017h32.467c.049 0 .081-.017.13-.017h31.619a1.815 1.815 0 001.828-1.828V164.425c0-.016.016-.032.016-.032V14.871a1.825 1.825 0 00-1.828-1.828H82.585c-.049 0-.098.032-.147.032-.196.017-.392.033-.571.115a1.645 1.645 0 00-.408.277c-.05.033-.115.065-.18.114a1.826 1.826 0 00-.539 1.29V302.39h3.657V166.221h208.677V302.39h-27.847l3.591-29.349h.865a1.826 1.826 0 001.828-1.829v-11.23a1.825 1.825 0 00-1.828-1.828h-7.721v-11.606a12.195 12.195 0 008.635-3.608c2.759-2.758 4.048-6.725 3.461-10.593a1.838 1.838 0 00-1.535-1.535 12.401 12.401 0 00-10.561 3.428v-9.778c.179 0 .359.017.539.017a16.15 16.15 0 0011.491-4.767c3.657-3.656 5.354-8.88 4.571-14.005a1.835 1.835 0 00-1.535-1.534c-5.125-.784-10.349.914-14.005 4.57-3.444 3.444-5.142 8.292-4.652 13.108-.033.13-.082.244-.082.391v2.971a8.97 8.97 0 00-6.676-1.665 1.801 1.801 0 00-1.518 1.518 8.922 8.922 0 002.497 7.672c1.535 1.535 3.543 2.4 5.697 2.547v22.82h-9.68v-38.327c0-.033.033-.066.033-.098a12.37 12.37 0 00-.033-3.804v-15.833c.066 0 .115.016.18.016 3.705 0 7.182-1.436 9.81-4.064a13.948 13.948 0 003.902-11.949 1.838 1.838 0 00-1.535-1.535 13.946 13.946 0 00-11.948 3.902 13.723 13.723 0 00-1.878 2.367 16.106 16.106 0 00-3.215-4.571 16.34 16.34 0 00-11.623-4.815c-.848 0-1.697.065-2.53.196a1.801 1.801 0 00-1.518 1.518c-.816 5.158.914 10.447 4.62 14.152a16.336 16.336 0 0011.622 4.815c.147 0 .294-.016.457-.016v8.847c-2.759-2.611-6.595-3.836-10.333-3.248a1.801 1.801 0 00-1.518 1.518c-.604 3.852.686 7.803 3.445 10.578a12.146 12.146 0 008.406 3.574v36.76h-9.957v-9.826c.032-.506.016-1.012 0-1.518v-20.666c0-.098-.033-.163-.049-.261.261-3.885-1.159-7.753-3.918-10.512a13.569 13.569 0 00-11.671-3.803 1.8 1.8 0 00-1.518 1.518 13.573 13.573 0 003.803 11.671c2.563 2.563 5.958 3.966 9.598 3.966.033 0 .082-.016.115-.016v7.999a14.947 14.947 0 00-1.355-1.518c-3.265-3.265-7.59-5.061-12.177-5.061-.882 0-1.78.066-2.661.213-.784.13-1.404.734-1.518 1.518a17.252 17.252 0 004.848 14.837 17.147 17.147 0 0012.193 5.044c.229 0 .458-.016.67-.032v6.398h-7.444a1.826 1.826 0 00-1.828 1.829v11.23c0 1.012.816 1.828 1.828 1.828h1.143l3.575 29.35h-69.44v.114zM84.397 162.548V16.699h208.677v145.849H84.397zm180.111 74.32a8.529 8.529 0 016.024-2.53 8.7 8.7 0 01-2.53 6.023 8.559 8.559 0 01-6.024 2.53 8.664 8.664 0 012.53-6.023zm-9.304-6.676a5.26 5.26 0 01-1.485-3.02 5.18 5.18 0 013.019 1.502 5.179 5.179 0 011.502 3.02 5.33 5.33 0 01-3.036-1.502zm10.414-18.837c2.514-2.514 5.893-3.853 9.468-3.689.147 3.509-1.175 6.97-3.689 9.467a12.548 12.548 0 01-9.484 3.689 12.812 12.812 0 013.705-9.467zm-13.989-22.314c1.975-1.975 4.62-3.004 7.395-2.987.032 2.742-1.029 5.435-2.987 7.394a10.178 10.178 0 01-7.281 2.987c.017-.473-.016-.93-.032-1.404a10.103 10.103 0 012.905-5.99zm-16.16 3.673a12.847 12.847 0 01-3.738-9.631 12.733 12.733 0 019.631 3.738c2.171 2.171 3.444 5.044 3.689 8.047a16.77 16.77 0 00-.065 1.567 12.627 12.627 0 01-9.517-3.721zm3.673 22.509a8.684 8.684 0 01-2.53-6.007c2.269.017 4.391.915 6.007 2.531a8.6 8.6 0 012.35 4.423v1.567c-2.203-.081-4.26-.947-5.827-2.514zm-7.901 9.86a9.801 9.801 0 01-7.002-2.906 9.916 9.916 0 01-2.906-7.117c2.775 0 5.224.996 7.117 2.906a9.982 9.982 0 012.906 7.117h-.115zm-10.169 19.065a13.664 13.664 0 01-3.967-10.316c3.853-.212 7.574 1.224 10.317 3.967 2.334 2.334 3.705 5.452 3.934 8.7v1.616a13.641 13.641 0 01-10.284-3.967zm4.668 17.662h42.115v7.574H225.74v-7.574zm3.004 11.231h36.401l-3.591 29.349h-29.235l-3.575-29.349z" fill="#FEF3ED"/><path d="M70.114 318.501h10.627v-3.656h-8.799V4.245h233.62v310.6H159.19v3.656h148.2a1.825 1.825 0 001.828-1.828V2.416A1.825 1.825 0 00307.39.588H70.114a1.825 1.825 0 00-1.828 1.828v314.257c0 .996.816 1.828 1.828 1.828z" fill="#FEF3ED"/><path d="M286.61 21.351H90.877a1.825 1.825 0 00-1.828 1.828v132.905c0 1.012.816 1.828 1.828 1.828H286.61a1.825 1.825 0 001.828-1.828V23.179a1.825 1.825 0 00-1.828-1.828zm-1.828 132.888H92.705V25.007h192.077V154.24zm617.265 93.631v80.866c0 1.012.817 1.828 1.829 1.828h128.574c1.02 0 1.83-.816 1.83-1.828V247.87c0-1.012-.81-1.828-1.83-1.828H903.876a1.826 1.826 0 00-1.829 1.828zm3.657 1.829h124.926v77.209H905.704v-77.209z" fill="#FEF3ED"/><path d="M996.772 255.983h-82.841a1.825 1.825 0 00-1.828 1.828v60.527c0 1.012.816 1.828 1.828 1.828h82.841a1.825 1.825 0 001.828-1.828v-60.527a1.835 1.835 0 00-1.828-1.828zm-1.828 60.543h-79.185v-56.87h79.185v56.87zm28.546-60.543h-20.99c-1.01 0-1.83.816-1.83 1.828v60.527c0 1.012.82 1.828 1.83 1.828h20.99c1.01 0 1.83-.816 1.83-1.828v-60.527c0-1.012-.82-1.828-1.83-1.828zm-1.83 60.543h-17.33v-56.87h17.33v56.87z" fill="#FEF3ED"/><path d="M920.983 310.583h68.721a1.825 1.825 0 001.829-1.828 1.825 1.825 0 00-1.829-1.828h-8.977l1.142-.424a1.818 1.818 0 001.192-1.714v-.898a1.825 1.825 0 00-1.828-1.828h-10.855c-.67-.931-1.763-1.845-3.298-1.845h-.147c-.342-.588-.979-1.306-2.301-1.534a14.036 14.036 0 01-.8-.18c-.881-.212-1.567-.147-2.383.147l-.294.114c-.326-.604-.816-1.485-1.877-1.959a3.06 3.06 0 00-1.192-.244c-1.175 0-1.959.685-2.481 1.142a2.722 2.722 0 01-.245.212c-.147 0-.114.066-.538-.114-.604-.245-1.845-.571-3.086-.032a3.518 3.518 0 00-1.616 1.469 3.403 3.403 0 01-.571-.408c-.604-.49-1.502-1.29-3.575-.898-1.55.294-2.269 1.208-2.66 1.763-1.045-.131-1.927.179-2.596.865-.424.441-.685.963-.849 1.469h-10.381a1.825 1.825 0 00-1.828 1.828v.898c0 .767.473 1.436 1.191 1.714l1.126.424h-8.994a1.825 1.825 0 00-1.828 1.829c0 1.044.816 1.86 1.828 1.86zm20.437-4.864c.49 0 .963-.196 1.306-.555.343-.359.522-.832.522-1.322 0-.098.017-.278.049-.441 1.714.147 2.579-.979 2.955-1.502.228-.326.228-.326.408-.359.13-.032.245-.032.31-.049.098.049.18.131.278.212.391.311.995.8 1.991 1.159.457.164.881.245 1.273.245 1.632 0 2.302-1.224 2.596-1.746.049-.098.13-.213.065-.245.081.016.147.049.212.081.376.164.931.392 1.73.409.164.016.327.016.49 0 1.094-.017 1.828-.621 2.334-1.061v.016c.359.669 1.094 2.04 2.824 2.04.376 0 .784-.081 1.175-.212l.751-.277c.066-.017.115-.049.164-.066.032 0 .065.017.114.033.196.049.441.098.849.196.538 1.387 1.518 1.942 3.248 1.616.114.032.392.359.506.653a1.818 1.818 0 001.714 1.191h4.228l-3.232 1.208h-29.856l-3.232-1.208h4.228v-.016zm71.58-15.621c4.24 0 7.69-3.444 7.69-7.689 0-4.244-3.45-7.688-7.69-7.688a7.688 7.688 0 00-7.69 7.688c0 4.228 3.46 7.689 7.69 7.689zm0-11.737c2.22 0 4.03 1.812 4.03 4.032 0 2.22-1.81 4.032-4.03 4.032a4.039 4.039 0 01-4.03-4.032c0-2.22 1.81-4.032 4.03-4.032z" fill="#FEF3ED"/><path d="M1014.92 282.948c.82 0 1.49-.67 1.49-1.486s-.67-1.485-1.49-1.485c-.81 0-1.48.669-1.48 1.485 0 .833.67 1.486 1.48 1.486zm-5.81-11.573h7.79c1.68 0 3.04-1.371 3.04-3.036v-2.547a3.047 3.047 0 00-3.04-3.036h-7.79a3.036 3.036 0 00-3.03 3.036v2.547c-.02 1.665 1.35 3.036 3.03 3.036zm.61-4.979h6.56v1.322h-6.56v-1.322zm-206.477-95.817h128.579a1.826 1.826 0 001.828-1.829V86.987a1.825 1.825 0 00-1.828-1.828H803.243a1.825 1.825 0 00-1.828 1.828v81.763c.016 1.012.833 1.829 1.828 1.829zm1.829-81.764h124.922v78.107H805.072V88.815zm-85.617 310.013a1.826 1.826 0 001.828-1.829v-4.766a1.825 1.825 0 00-1.828-1.828h-49.264a1.826 1.826 0 00-1.829 1.828v4.766c0 1.012.817 1.829 1.829 1.829h49.264zm-47.42-4.767h45.608v1.11h-45.608v-1.11zm98.854 12.978H618.772a1.825 1.825 0 00-1.828 1.828v94.839c0 1.012.816 1.828 1.828 1.828h152.117a1.826 1.826 0 001.829-1.828v-94.839a1.826 1.826 0 00-1.829-1.828zm-1.828 94.855H620.6v-91.199h148.461v91.199zm-446.85-175.966h1.469l2.856-13.712v-21.987l-2.856-13.695h-1.469v49.394zm12.03 0h1.453l2.873-13.712v-21.987l-2.873-13.695h-1.453v49.394zm12.439 0h1.469l2.857-13.712v-21.987l-2.857-13.695h-1.469v49.394zm12.177 0h1.469l2.857-13.712v-21.987l-2.857-13.695h-1.469v49.394zm12.03 0h1.47l2.856-15.099v-24.224l-2.856-15.099h-1.47v54.422zm12.225 0h1.453l2.873-15.099v-24.224l-2.873-15.099h-1.453v54.422zm12.635 0h1.453l2.873-16.176v-25.97l-2.873-16.177h-1.453v58.323zm12.635 0h1.452l2.873-16.176v-25.97l-2.873-16.177h-1.452v58.323zm423.948 31.749h62.421a1.826 1.826 0 001.828-1.829v-5.582a1.825 1.825 0 00-1.828-1.828H832.33a1.825 1.825 0 00-1.828 1.828v5.582c0 1.012.816 1.829 1.828 1.829zm1.829-5.583h58.764v1.926h-58.764v-1.926z" fill="#FEF3ED"/><path d="M927.822 332.62H803.749a1.826 1.826 0 00-1.829 1.828v214.243c0 1.012.817 1.829 1.829 1.829h124.073a1.826 1.826 0 001.828-1.829v-214.26c0-.995-.816-1.811-1.828-1.811zm-1.828 214.227H805.561V336.26h120.433v210.587zm34.916-189.17h62.42c1.01 0 1.83-.817 1.83-1.829v-5.582c0-1.012-.82-1.828-1.83-1.828h-62.42a1.825 1.825 0 00-1.828 1.828v5.582c0 1.012.832 1.829 1.828 1.829zm1.828-5.583h58.762v1.942h-58.762v-1.942z" fill="#FEF3ED"/><path d="M1056.4 332.62H932.328a1.825 1.825 0 00-1.828 1.828v214.243c0 1.012.816 1.829 1.828 1.829H1056.4c1.01 0 1.83-.817 1.83-1.829V334.448c0-1.012-.82-1.828-1.83-1.828zm-1.83 214.243H934.14V336.276h120.43v210.587z" fill="#FEF3ED"/><path d="M1023.35 457.249h-62.424a1.825 1.825 0 00-1.828 1.828v5.583c0 1.012.816 1.828 1.828 1.828h62.424a1.82 1.82 0 001.82-1.828v-5.583c-.01-1.012-.83-1.828-1.82-1.828zm-1.83 5.583h-58.766v-1.943h58.766v1.943zM556.745 348.454h-62.421a1.825 1.825 0 00-1.828 1.828v5.566c0 1.012.816 1.828 1.828 1.828h62.421a1.825 1.825 0 001.828-1.828v-5.583c0-.995-.816-1.811-1.828-1.811zm-1.828 5.566h-58.764v-1.926h58.764v1.926z" fill="#FEF3ED"/><path d="M585.342 332.62h-23.326c0-.229.017-.441-.016-.669l-3.705-26.362c-.18-1.241-.898-2.302-1.894-2.988v-3.525c.131.195.278.375.457.538a4.05 4.05 0 002.906 1.241h2.579c.049 0 .163 0 .31-.017.245-.016.473-.049.653-.097.147-.033.277-.066.424-.115.131-.032.245-.081.343-.13l.212-.115c.098-.049.196-.114.294-.179l.016-.016c.229-.147.523-.36.719-.604.065-.049.261-.311.31-.376 0-.016.016-.016.016-.016.065-.082.131-.163.18-.261.179-.311.391-.702.538-1.257l4.228-18.854c.016-.114.033-.212.049-.294.016-.114.033-.228.033-.359v-.473c0-.098-.017-.294-.033-.375a3.525 3.525 0 00-.131-.523c-.016-.049-.032-.098-.049-.163a4.073 4.073 0 00-.554-1.094c-.049-.098-.131-.196-.196-.277l-4.783-5.534a3.884 3.884 0 00-.588-.571 4.128 4.128 0 00-2.514-.849h-2.285c-2.236-2.269-8.716-3.118-14.838-3.379v-2.448a3.333 3.333 0 00-3.33-3.33h-1.893a3.333 3.333 0 00-3.33 3.33v2.464c-5.305.262-9.419 1.094-11.459 1.568l-9.255 1.795h-.621a1.825 1.825 0 00-1.828 1.828v.131c-1.387.653-2.693 2.008-2.693 4.309 0 .914.669 1.682 1.567 1.812.016 0 1.142.212 1.779 1.012.18.229.49.702.881 1.322 1.78 2.743 4.979 7.705 8.701 9.876l1.404 9.37v4.652c-.996.685-1.714 1.746-1.894 2.971l-3.95 26.362c-.033.228-.033.457-.033.685h-18.429c.016-.163.049-.326.049-.489v-3.396c3.248-.816 5.664-3.77 5.664-7.264 0-3.493-2.416-6.447-5.664-7.263v-.506a1.826 1.826 0 00-1.828-1.829h-22.608a1.826 1.826 0 00-1.828 1.829v18.429c0 .163.033.326.049.489h-.882c.017-.163.049-.326.049-.489v-18.429a1.826 1.826 0 00-1.828-1.829h-22.608a1.826 1.826 0 00-1.828 1.829v.506c-3.248.816-5.664 3.77-5.664 7.263 0 3.494 2.416 6.448 5.664 7.264v3.396c0 .163.033.326.049.489h-29.725v-53.997c0-.702-.571-1.273-1.273-1.273s-1.273.571-1.273 1.273v49.002h-9.712v-49.002a1.26 1.26 0 00-1.257-1.273c-.702 0-1.274.571-1.274 1.273v49.002h-9.712v-49.002c0-.702-.571-1.273-1.273-1.273s-1.273.571-1.273 1.273v49.002h-9.713v-49.002c0-.702-.571-1.273-1.273-1.273s-1.273.571-1.273 1.273v49.002h-9.713v-49.002c0-.702-.571-1.273-1.273-1.273s-1.273.571-1.273 1.273v49.002h-9.712v-49.002a1.274 1.274 0 00-2.547 0v49.002h-9.712v-49.002c0-.702-.572-1.273-1.273-1.273-.702 0-1.274.571-1.274 1.273v49.002h-9.712v-49.002c0-.702-.571-1.273-1.273-1.273s-1.273.571-1.273 1.273v49.002h-9.582v-49.002c0-.702-.572-1.273-1.273-1.273-.702 0-1.274.571-1.274 1.273v54.307H200.634c-.946 0-1.714.768-1.714 1.714v214.015c0 .947.768 1.714 1.714 1.714h126.294c.947 0 1.714-.767 1.714-1.714V334.66c0-.946-.767-1.714-1.714-1.714h-7.395v-2.611h9.582v3.02c0 .701.571 1.273 1.273 1.273.164 0 .327-.033.474-.098v214.145c0 1.013.816 1.829 1.828 1.829h124.074a1.825 1.825 0 001.828-1.829V336.26h.849v212.415c0 1.013.816 1.829 1.828 1.829h124.073a1.826 1.826 0 001.829-1.829V334.432c0-.996-.833-1.812-1.829-1.812zm-107.57-17.107h18.951v.278c0 1.012.816 1.828 1.828 1.828a3.832 3.832 0 013.836 3.836 3.842 3.842 0 01-3.836 3.836 1.825 1.825 0 00-1.828 1.828v5.011a.474.474 0 01-.473.474h-17.989a.474.474 0 01-.473-.474v-16.617h-.016zM325.214 546.961H202.348V336.374h122.866v210.587zm203.078-247.33h24.436v2.138h-24.436v-2.138zm28.68-5.861l2.09-14.886H562l.114.147-3.069 13.711c-.783.114-1.501.49-2.073 1.028zm5.142-21.693l4.685 5.419c.049.065.082.131.131.18a.923.923 0 00.049.13l-4.195 18.935a1.636 1.636 0 01-.082.18l-.016.016c-.017.017-.033.033-.033.049-.033.033-.065.049-.082.065-.016.017-.032.017-.049.033-.032.016-.049.016-.081.033-.082.049-.163.016-.245.016h-2.432c-.147 0-.229-.065-.327-.163a.37.37 0 01-.114-.278c0-.228.196-.424.441-.424h.783c.849 0 1.6-.588 1.779-1.42l3.575-15.964a1.808 1.808 0 00-.391-1.584l-1.257-1.485a1.803 1.803 0 00-1.388-.637h-3.199l.424-3.281h1.714c.082.033.18.065.31.18zm-44.513 4.636c-.49-.768-.866-1.339-1.094-1.633-.571-.734-1.273-1.24-1.91-1.583.098-.033.212-.065.343-.065.245 0 .473-.049.702-.147.065-.033.13-.082.196-.115.13-.081.261-.146.375-.261.065-.065.098-.147.163-.212.082-.114.18-.212.229-.343.032-.081.049-.179.081-.277.033-.115.082-.212.098-.327l8.684-1.681c2.204-.522 6.775-1.42 12.635-1.551.587-.016 1.159-.245 1.485-.734.327-.49.424-1.029.212-1.584v-3.395h1.208l.049 3.248a1.781 1.781 0 00.196 1.665c.327.49.881.8 1.469.817 8.194.195 12.585 1.354 13.842 2.04l-3.574 25.448h-24.943l-1.338-8.88c-.098-.604-.735-1.24-1.29-1.502-2.97-1.403-6.251-6.496-7.818-8.928zm4.799 55.76l3.95-26.362c.049-.327.457-.686.8-.686h26.737c.343 0 .735.343.784.67l3.705 26.492c-.016.017-.049.033-.13.033h-35.699l-.147-.147zm-77.324-11.018a3.832 3.832 0 013.836-3.836 1.825 1.825 0 001.828-1.828v-.278h18.952v16.601a.474.474 0 01-.474.473h-18.004a.474.474 0 01-.474-.473v-5.011a1.826 1.826 0 00-1.828-1.829 3.806 3.806 0 01-3.836-3.819zm-30.214 8.88v2.285h-9.713v-2.285h9.713zm-12.243 0v2.285h-9.712v-2.285h9.712zm-12.259 0v2.285h-9.712v-2.285h9.712zm-12.242 0v2.285h-9.713v-2.285h9.713zm-12.259 0v2.285h-9.712v-2.285h9.712zm-12.243 0v2.285h-9.712v-2.285h9.712zm-21.971 2.644v-2.628h9.713v2.285h-8.684c-.392-.016-.735.131-1.029.343zm123.274 213.885H334.485V336.276h120.434v210.588zm128.595-.017H463.081V336.26h120.417v210.587h.016z" fill="#FEF3ED"/><path d="M428.165 457.249h-62.404a1.825 1.825 0 00-1.828 1.828v5.583c0 1.012.816 1.828 1.828 1.828h62.404a1.825 1.825 0 001.828-1.828v-5.583a1.825 1.825 0 00-1.828-1.828zm-1.828 5.583h-58.748v-1.943h58.748v1.943zm-60.576-105.155h62.404a1.826 1.826 0 001.828-1.829v-5.582a1.825 1.825 0 00-1.828-1.828h-62.404a1.825 1.825 0 00-1.828 1.828v5.582c0 1.012.816 1.829 1.828 1.829zm1.828-5.583h58.748v1.942h-58.748v-1.942zm-187.75 54.537h-5.566a1.825 1.825 0 00-1.829 1.828v62.42c0 1.013.816 1.829 1.829 1.829h5.566a1.825 1.825 0 001.828-1.829v-62.42c.016-.996-.816-1.828-1.828-1.828zm-1.828 62.42h-1.91v-58.764h1.91v58.764zm33.56 3.657h5.566a1.825 1.825 0 001.828-1.829v-62.42a1.825 1.825 0 00-1.828-1.828h-5.566a1.826 1.826 0 00-1.829 1.828v62.42c0 1.013.817 1.829 1.829 1.829zm1.828-62.421h1.91v58.764h-1.91v-58.764zm641.671-164.85v-24.501h9.223a1.825 1.825 0 001.828-1.828V208.4a1.825 1.825 0 00-1.828-1.829h-85.877a1.826 1.826 0 00-1.829 1.829v10.708c0 1.012.817 1.828 1.829 1.828h8.308v24.501c0 .947.457 1.796 1.159 2.351v28.272a9.797 9.797 0 00-7.851 9.647v15.719c0 5.436 4.423 9.859 9.859 9.859h6.888c5.436 0 9.86-4.423 9.86-9.859v-15.719a9.798 9.798 0 00-7.836-9.647v-28.272a2.978 2.978 0 001.159-2.351v-24.501h14.806v24.501c0 .947.457 1.796 1.159 2.351v29.627c-4.571 2.742-7.558 8.781-7.558 15.474 0 4.048 1.11 7.966 3.118 11.035l.147.244c2.464 3.641 6.023 5.73 9.777 5.73 3.738 0 7.297-2.089 9.762-5.73.016-.032.049-.081.065-.114 2.057-3.085 3.183-7.051 3.183-11.181 0-6.693-2.987-12.732-7.558-15.475v-29.61a2.978 2.978 0 001.159-2.351v-24.501h13.908v24.501c0 .947.457 1.796 1.159 2.351v29.627c-3.722 2.219-6.383 6.545-7.248 11.818-.049.277-.016.571.065.848l7.721 23.996a1.831 1.831 0 002.024 1.24 1.854 1.854 0 001.551-1.812v-22.167h2.71v22.167a1.84 1.84 0 001.55 1.812c.098.017.196.017.278.017.783 0 1.485-.506 1.73-1.274l7.705-23.995c.081-.277.114-.571.065-.849-.849-5.191-3.575-9.598-7.231-11.818v-29.61a3.187 3.187 0 001.061-2.351zm-3.738 34.72c3.003 1.42 5.338 4.929 6.154 9.239l-3.999 12.455V289.51a1.826 1.826 0 00-1.829-1.828h-6.349a1.826 1.826 0 00-1.829 1.828v12.357l-4.032-12.487c.817-4.31 3.151-7.819 6.171-9.223a1.809 1.809 0 001.061-1.649v-31.912c0-.767-.474-1.436-1.143-1.698v-25.774a1.825 1.825 0 00-1.828-1.828h-17.564a1.825 1.825 0 00-1.828 1.828v25.774a1.84 1.84 0 00-1.159 1.698v31.912a1.85 1.85 0 001.061 1.665c3.901 1.812 6.513 6.921 6.513 12.716 0 3.444-.931 6.709-2.612 9.206-.033.033-.049.082-.065.115-1.763 2.579-4.195 4.048-6.676 4.048-2.498 0-4.832-1.404-6.611-3.934-.033-.082-.082-.147-.131-.229-1.698-2.513-2.628-5.778-2.628-9.206 0-5.795 2.612-10.92 6.513-12.716a1.842 1.842 0 001.061-1.665v-31.912c0-.767-.473-1.436-1.159-1.698v-25.774a1.825 1.825 0 00-1.828-1.828H798.15a1.825 1.825 0 00-1.828 1.828v25.774a1.824 1.824 0 00-1.142 1.698v31.096c0 .996.783 1.796 1.779 1.828a6.167 6.167 0 016.056 6.187v15.719a6.21 6.21 0 01-6.203 6.203h-6.888c-3.428 0-6.22-2.791-6.22-6.203v-15.719c0-3.395 2.661-6.105 6.073-6.187a1.825 1.825 0 001.779-1.828v-31.096c0-.767-.474-1.436-1.159-1.698v-25.774a1.825 1.825 0 00-1.828-1.828h-8.309v-7.052h82.237v7.052h-9.223a1.825 1.825 0 00-1.828 1.828v25.791a1.824 1.824 0 00-1.126 1.697v31.913c-.033.685.375 1.338 1.012 1.632zM636.696 156.704h113.023a1.825 1.825 0 001.828-1.828v-27.162a1.825 1.825 0 00-1.828-1.828H636.696a1.825 1.825 0 00-1.828 1.828v27.162c0 1.012.816 1.828 1.828 1.828zm1.812-27.162H747.89v23.506H638.508v-23.506zM803.259 84.44h128.579a1.825 1.825 0 001.828-1.828V1.828A1.825 1.825 0 00931.838 0H803.259a1.825 1.825 0 00-1.828 1.828v80.784c0 1.012.816 1.829 1.828 1.829zm1.828-80.784H930.01v77.128H805.087V3.656zM455.018 84.44h128.579a1.825 1.825 0 001.828-1.828V1.828A1.825 1.825 0 00583.597 0H455.018a1.825 1.825 0 00-1.828 1.828v80.784c0 1.012.816 1.829 1.828 1.829zm1.828-80.784h124.922v77.128H456.846V3.656zM1063.19 0H938.612a1.825 1.825 0 00-1.828 1.828V168.75c0 1.013.816 1.829 1.828 1.829h124.578c1.01 0 1.83-.816 1.83-1.829V1.828c0-1.012-.82-1.828-1.83-1.828zm-1.83 166.922H940.44V3.656h120.92v163.266zM920.934 94.349H814.131a1.825 1.825 0 00-1.828 1.828v62.926c0 1.012.816 1.828 1.828 1.828h106.803a1.826 1.826 0 001.829-1.828V96.177a1.826 1.826 0 00-1.829-1.829zm-1.812 62.926H815.975v-59.27h103.147v59.27zm-464.104 13.892h128.579a1.825 1.825 0 001.828-1.828V87.575a1.825 1.825 0 00-1.828-1.828H455.018a1.825 1.825 0 00-1.828 1.828v81.764c0 .995.816 1.828 1.828 1.828zm1.828-81.764h124.922v78.107H456.846V89.403zm-133.199 81.764h124.596a1.825 1.825 0 001.828-1.828V2.416a1.825 1.825 0 00-1.828-1.828H323.647a1.825 1.825 0 00-1.828 1.828V169.34c0 1.012.816 1.828 1.828 1.828zm1.828-166.922h120.94V167.51h-120.94V4.245z" fill="#FEF3ED"/><path d="M572.709 94.937H465.905a1.825 1.825 0 00-1.828 1.828v62.926c0 1.012.816 1.829 1.828 1.829h106.804a1.826 1.826 0 001.828-1.829V96.749c0-.996-.816-1.812-1.828-1.812zm-1.828 62.926H467.733V98.577h103.148v59.286zm-116.19 150.354a1.825 1.825 0 001.828-1.828v-26.934a1.825 1.825 0 00-1.828-1.828 1.825 1.825 0 00-1.828 1.828v26.934c0 .996.816 1.828 1.828 1.828zm6.349-43.469v42.017c0 1.012.817 1.828 1.829 1.828a1.825 1.825 0 001.828-1.828v-42.017a1.825 1.825 0 00-1.828-1.828 1.826 1.826 0 00-1.829 1.828zm22.379 42.62a1.826 1.826 0 001.829-1.828v-12.618a1.826 1.826 0 00-1.829-1.828 1.825 1.825 0 00-1.828 1.828v12.618c0 1.012.816 1.828 1.828 1.828zm6.09-31.047v29.219c0 1.012.816 1.828 1.828 1.828a1.825 1.825 0 001.828-1.828v-29.219a1.825 1.825 0 00-1.828-1.828 1.825 1.825 0 00-1.828 1.828zm-6.399 2.286v-10.806a1.825 1.825 0 00-1.828-1.828 1.826 1.826 0 00-1.829 1.828v10.806c0 1.012.817 1.828 1.829 1.828a1.825 1.825 0 001.828-1.828zm-34.475-13.32v7.64c0 1.012.816 1.828 1.828 1.828a1.825 1.825 0 001.829-1.828v-7.64a1.825 1.825 0 00-1.829-1.828 1.825 1.825 0 00-1.828 1.828zm338.872 22.15a1.826 1.826 0 00-1.829 1.828v11.867c0 1.012.817 1.829 1.829 1.829a1.826 1.826 0 001.828-1.829v-11.867a1.825 1.825 0 00-1.828-1.828zm5.861 0a1.825 1.825 0 00-1.828 1.828v13.777c0 1.012.816 1.828 1.828 1.828a1.825 1.825 0 001.828-1.828v-13.777a1.825 1.825 0 00-1.828-1.828zm5.86 15.524a1.826 1.826 0 001.828-1.829v-11.867a1.825 1.825 0 00-1.828-1.828 1.825 1.825 0 00-1.828 1.828v11.867c0 1.012.816 1.829 1.828 1.829zM439.233 112.239a1.825 1.825 0 00-1.828 1.828v46.766c0 1.012.816 1.829 1.828 1.829a1.826 1.826 0 001.828-1.829v-46.766c0-.996-.816-1.828-1.828-1.828zm507.949 50.439a1.825 1.825 0 001.828-1.828v-46.783a1.825 1.825 0 00-1.828-1.828 1.825 1.825 0 00-1.828 1.828v46.766a1.84 1.84 0 001.828 1.845zM890.931 72.77h-46.766a1.825 1.825 0 00-1.828 1.828c0 1.012.816 1.828 1.828 1.828h46.766a1.825 1.825 0 001.828-1.828c0-.996-.816-1.829-1.828-1.829zm-348.241 0h-46.767a1.825 1.825 0 00-1.828 1.828c0 1.012.816 1.828 1.828 1.828h46.767a1.825 1.825 0 001.828-1.828c0-.996-.816-1.829-1.828-1.829zm88.309 99.718a1.826 1.826 0 00-1.828 1.829c0 1.012.816 1.828 1.828 1.828h12.895a1.825 1.825 0 001.828-1.828 1.826 1.826 0 00-1.828-1.829h-12.895zm110.64 0a1.827 1.827 0 00-1.829 1.829c0 1.012.817 1.828 1.829 1.828h12.895a1.825 1.825 0 001.828-1.828 1.826 1.826 0 00-1.828-1.829h-12.895zM346.68 439.669h95.328a1.825 1.825 0 001.828-1.828 1.825 1.825 0 00-1.828-1.828H346.68a1.826 1.826 0 00-1.829 1.828c0 1.012.817 1.828 1.829 1.828zm600.013 0h95.327a1.828 1.828 0 100-3.656h-95.327a1.826 1.826 0 00-1.829 1.828c.017 1.012.833 1.828 1.829 1.828zM137.185 235.007c.327.245.718.376 1.11.376.294 0 .572-.066.849-.213l49.215-25.693 5.68 3.396a1.873 1.873 0 001.829.032l30.54-16.894a1.827 1.827 0 00-1.762-3.2L195.019 209.2l-5.664-3.379a1.82 1.82 0 00-1.78-.049L138.491 231.4l-45.2-34.589c-.799-.621-1.942-.458-2.562.342-.62.8-.457 1.943.343 2.563l46.113 35.291zm149-29.937c.31.196.652.294 1.012.294.587 0 1.175-.294 1.534-.816a1.82 1.82 0 00-.522-2.53l-20.927-13.777a1.82 1.82 0 00-2.53.522 1.82 1.82 0 00.522 2.53l20.911 13.777zM99.022 88.406c.26-.016.505-.049.767-.098 29.218-3.966 52.381-27.178 56.25-56.413a8.65 8.65 0 01.049-.343c.016-.032.016-.098.016-.13v-.017c-.016-1.044-.816-1.86-1.861-1.86-.783 0-1.436.473-1.73 1.158-.033.327-.065.654-.131.98-3.77 27.407-25.464 49.166-52.855 52.985-.407.05-.8.115-1.207.164a1.868 1.868 0 00-1.078 1.697c0 .996.784 1.812 1.78 1.877zm47.354-12.322a1.813 1.813 0 00-2.579 0 1.813 1.813 0 000 2.578l47.762 47.763c.359.359.816.538 1.29.538.473 0 .93-.179 1.289-.538a1.813 1.813 0 000-2.579l-47.762-47.763zm88.815 50.047c.359.359.816.538 1.29.538.473 0 .93-.179 1.289-.538a1.811 1.811 0 000-2.579L163.385 49.15a1.813 1.813 0 00-2.579 0 1.813 1.813 0 000 2.58l74.385 74.401zM118.969 92.423a1.813 1.813 0 00-2.579 0 1.813 1.813 0 000 2.579l31.423 31.422c.359.359.816.539 1.289.539s.931-.18 1.29-.539a1.813 1.813 0 000-2.579l-31.423-31.422zm680.274 240.311h-31.929l-2.432-9.223a1.817 1.817 0 00-1.763-1.355h-22.64c-.555 0-1.094.261-1.437.702a1.854 1.854 0 00-.342 1.567l.865 3.559a1.824 1.824 0 001.583 1.387l14.365 1.502.049 1.877h-38.899l.049-1.877 14.365-1.502a1.825 1.825 0 001.583-1.387l.882-3.559a1.814 1.814 0 00-.343-1.567 1.834 1.834 0 00-1.437-.702h-22.624c-.832 0-1.551.555-1.763 1.355l-2.432 9.223H675.61l-1.485-6.938h1.958c4.032 0 7.313-3.281 7.313-7.312v-27.571h5.893a4.522 4.522 0 004.522-4.521c0-2.498-2.041-4.538-4.522-4.538h-3.918v-1.828a1.825 1.825 0 00-1.828-1.828h-.147v-.049c0-4.032-3.281-7.313-7.313-7.313h-20.485v-4.13a1.826 1.826 0 00-1.829-1.828h-8.063a1.826 1.826 0 00-1.829 1.828v4.13h-20.485c-4.032 0-7.313 3.281-7.313 7.313l-.376.049a1.825 1.825 0 00-1.828 1.828v1.828h-4.603c-2.497 0-4.522 2.04-4.522 4.538a4.522 4.522 0 004.522 4.521h6.807v27.571c0 4.031 3.281 7.312 7.313 7.312h2.187l-1.485 6.938h-34.002c-.947 0-1.714.767-1.714 1.714v214.227c0 .947.767 1.714 1.714 1.714h209.151c.947 0 1.714-.767 1.714-1.714V334.448c0-.947-.767-1.714-1.714-1.714zm-56.414-6.872l-.016-.049h18.903l1.795 6.807h-4.26l-.098-3.461a1.827 1.827 0 00-1.633-1.763l-14.691-1.534zm-32.254-.049h18.886l-14.691 1.583a1.815 1.815 0 00-1.633 1.763l-.098 3.461h-4.26l1.796-6.807zm-43.176 1.583l-11.72-1.502-.016-.081h14.756l1.469 6.807h-2.807l-.082-3.445a1.883 1.883 0 00-1.6-1.779zm-47.631-8.896v-29.398a1.826 1.826 0 00-1.828-1.829h-8.635a.877.877 0 01-.882-.881c0-.49.392-.882.882-.882h6.431a1.825 1.825 0 001.828-1.828v-1.828h.392a1.825 1.825 0 001.828-1.828v-1.877a3.662 3.662 0 013.657-3.657h22.314a1.825 1.825 0 001.828-1.828v-4.13h4.424v4.13c0 1.012.816 1.828 1.828 1.828h22.314a3.662 3.662 0 013.656 3.657v1.877c0 1.012.816 1.828 1.828 1.828h.147v1.828c0 1.012.816 1.828 1.828 1.828h5.746c.474 0 .882.392.882.882a.888.888 0 01-.882.881h-7.721a1.826 1.826 0 00-1.828 1.829V318.5a3.66 3.66 0 01-3.656 3.656h-52.692c-2.04 0-3.689-1.648-3.689-3.656zm24.338 7.313l-11.736 1.583a1.84 1.84 0 00-1.6 1.779l-.082 3.445h-2.807l1.469-6.807h14.756zm-9.712 5.011l11.459-1.469a1.841 1.841 0 001.567-1.453l.424-2.089h4.097l.425 2.089a1.82 1.82 0 001.55 1.453l11.459 1.469.049 1.91h-31.063l.033-1.91zm163.151 216.137H591.822V336.162h33.3c.163.049.326.114.49.114h6.872c.196 0 .375-.049.555-.114h33.675c.179.065.359.114.555.114h6.872c.179 0 .326-.065.49-.114h31.177c.196.065.392.114.604.114h8.407c.196 0 .391-.049.571-.114h41.526c.18.065.36.114.572.114h8.406c.213 0 .408-.049.588-.114h31.063v210.799zM193.991 332.947h-6.366v-2.889a1.825 1.825 0 00-1.828-1.829h-2.775a5.077 5.077 0 001.942-3.983c0-2.758-2.269-5.011-5.044-5.011a4.967 4.967 0 00-3.297 1.257h-.441c-1.828-1.616-4.815-1.616-6.627 0h-.441c-.897-.816-2.056-1.257-3.313-1.257a5.023 5.023 0 00-5.011 5.011c0 1.616.75 3.069 1.926 3.983h-6.219a1.782 1.782 0 00-.8-1.044v-39.389c0-9.32-7.591-16.894-16.895-16.894-9.321 0-16.895 7.59-16.895 16.894v4.277c0 1.012.817 1.828 1.829 1.828h5.484a1.825 1.825 0 001.828-1.828v-4.277c0-4.276 3.477-7.753 7.754-7.753 4.277 0 7.77 3.477 7.77 7.753v39.568a1.813 1.813 0 00-.555.865h-6.399a5.063 5.063 0 001.926-3.983 5.023 5.023 0 00-5.011-5.011 4.967 4.967 0 00-3.297 1.257h-.441c-1.828-1.616-4.815-1.616-6.627 0h-.441a4.967 4.967 0 00-3.297-1.257 5.023 5.023 0 00-5.012 5.011c0 1.616.751 3.069 1.927 3.983h-2.808a1.825 1.825 0 00-1.828 1.829v2.889h-.735a1.6 1.6 0 00.082-.474v-25.431c0-8.88-5.958-13.761-8.586-15.475v-4.472a1.825 1.825 0 00-1.828-1.829h-.098a2.238 2.238 0 00.44-2.04c-.506-1.861-3.215-2.808-4.603-2.808-1.371 0-4.08.931-4.587 2.808a2.285 2.285 0 00.441 2.04h-.082a1.825 1.825 0 00-1.828 1.829v4.472c-2.628 1.714-8.586 6.595-8.586 15.475v25.431c0 .164.05.327.082.474H67.714c-.947 0-1.714.767-1.714 1.714v214.015c0 .947.767 1.714 1.714 1.714h126.293c.947 0 1.714-.767 1.714-1.714V334.661a1.738 1.738 0 00-1.73-1.714zm-75.626-1.061h8.733a1.825 1.825 0 001.828-1.828v-3.657c0-.457-.212-.93-.506-1.257a1.824 1.824 0 00-1.469-.751h-2.073c-.604 0-1.175.294-1.502.8-.195.278-.555.457-.946.457-.751 0-1.355-.62-1.355-1.404 0-.75.604-1.354 1.355-1.354.408 0 .8.195 1.028.506.343.473.898.75 1.469.75h2.024c.572 0 1.11-.261 1.453-.718.539-.702 1.632-.702 2.171 0 .343.441.882.702 1.453.702h2.024a1.8 1.8 0 001.469-.751c.245-.326.62-.506 1.028-.506.751 0 1.355.604 1.355 1.355 0 .784-.587 1.404-1.355 1.404-.408 0-.799-.196-1.044-.522a1.83 1.83 0 00-1.469-.735h-2.024c-.572 0-1.176.343-1.519.8a1.826 1.826 0 00-.457 1.208v3.656c0 1.012.817 1.828 1.829 1.828h15.899c.995 0 1.795-.783 1.828-1.763.375-.342.62-.832.62-1.371v-40.939c0-6.3-5.126-11.41-11.41-11.41-6.301 0-11.41 5.126-11.41 11.41v2.449h-1.845v-2.449c0-7.312 5.942-13.254 13.255-13.254 7.313 0 13.255 5.942 13.255 13.254v40.939c0 .67.359 1.241.881 1.567a1.818 1.818 0 001.812 1.584h15.752a1.825 1.825 0 001.828-1.828v-3.657c0-.441-.228-.963-.522-1.306a1.842 1.842 0 00-1.453-.702h-2.024c-.571 0-1.126.278-1.469.735a1.247 1.247 0 01-1.045.522c-.751 0-1.355-.636-1.355-1.404 0-.718.637-1.354 1.355-1.354.441 0 .784.163 1.028.522.343.473.898.751 1.47.751h2.024c.571 0 1.11-.261 1.452-.718.539-.702 1.633-.702 2.171 0 .343.44.882.701 1.453.701h2.008c.571 0 1.126-.277 1.469-.734a1.29 1.29 0 011.045-.522c.751 0 1.404.62 1.404 1.354 0 .768-.621 1.404-1.404 1.404-.408 0-.8-.196-1.045-.522a1.832 1.832 0 00-1.469-.735h-2.024c-.539 0-1.192.408-1.534.816a1.84 1.84 0 00-.441 1.176v3.656c0 1.012.816 1.828 1.828 1.828h8.733v.947h-65.62v-.93zm-29.97-24.844c0-8.195 6.367-12.145 7.64-12.863.588-.327.947-.931.947-1.6v-3.656h1.224a1.79 1.79 0 001.208-.457c.326.277.751.457 1.208.457h1.208v3.672c0 .67.359 1.274.946 1.6 1.274.718 7.64 4.669 7.64 12.863v25.04c-.163.31-.408.637-.555.751L89 332.865c-.147-.082-.409-.424-.604-.783v-25.04zm103.899 239.92H69.412V336.375h18.592c.277.065.555.13.865.13h21.057c.31 0 .588-.049.865-.13h5.142c.18.065.375.114.588.114h69.292c.212 0 .408-.049.588-.114h5.893v210.587zm397.553-377.64c0 .947.768 1.714 1.714 1.714h204.156c.947 0 1.714-.767 1.714-1.714V93.663c.065-.18.114-.359.114-.571V78.434a1.825 1.825 0 00-1.828-1.829h-64.983V1.828A1.825 1.825 0 00728.906 0h-70.533a1.826 1.826 0 00-1.829 1.828V76.59h-64.983a1.825 1.825 0 00-1.828 1.828v14.659c0 .196.049.391.114.57v75.676zm3.428-1.698V94.92H794.02v72.704H593.275zM660.201 3.656h66.877V76.59h-66.877V3.656zm-66.811 76.59h200.499v11.018H593.39V80.246z" fill="#FEF3ED"/><path d="M754.535 97.956H630.983c-.946 0-1.714.767-1.714 1.714v60.445c0 .947.768 1.714 1.714 1.714h123.552c.946 0 1.713-.767 1.713-1.714V99.67c0-.947-.767-1.714-1.713-1.714zm-1.714 60.445H632.697v-57.017h120.124v57.017zM606.677 351.409c-.947 0-1.714.767-1.714 1.714v29.643c0 .947.767 1.714 1.714 1.714h176.292c.947 0 1.714-.767 1.714-1.714v-29.643c0-.947-.767-1.714-1.714-1.714H606.677zm174.594 29.643h-172.88v-26.215h172.88v26.215z" fill="#FEF3ED"/><path d="M628.436 378.767c5.974 0 10.822-4.865 10.822-10.823 0-5.974-4.848-10.822-10.822-10.822-5.974 0-10.822 4.864-10.822 10.822 0 5.958 4.848 10.823 10.822 10.823zm0-18.233c4.081 0 7.411 3.33 7.411 7.41 0 4.081-3.33 7.411-7.411 7.411-4.081 0-7.411-3.33-7.411-7.411 0-4.097 3.33-7.41 7.411-7.41zm30.852 18.233c5.974 0 10.822-4.865 10.822-10.823 0-5.974-4.864-10.822-10.822-10.822-5.975 0-10.823 4.864-10.823 10.822-.016 5.958 4.848 10.823 10.823 10.823zm0-18.233c4.081 0 7.41 3.33 7.41 7.41 0 4.081-3.329 7.411-7.41 7.411-4.081 0-7.411-3.33-7.411-7.411a7.405 7.405 0 017.411-7.41zm30.834 18.233c5.974 0 10.822-4.865 10.822-10.823 0-5.974-4.864-10.822-10.822-10.822-5.975 0-10.823 4.864-10.823 10.822 0 5.958 4.848 10.823 10.823 10.823zm0-18.233c4.081 0 7.411 3.33 7.411 7.41 0 4.081-3.314 7.411-7.411 7.411-4.081 0-7.411-3.33-7.411-7.411.016-4.097 3.33-7.41 7.411-7.41zm30.851 18.233c5.975 0 10.823-4.865 10.823-10.823 0-5.974-4.864-10.822-10.823-10.822-5.974 0-10.822 4.864-10.822 10.822 0 5.958 4.848 10.823 10.822 10.823zm0-18.233c4.081 0 7.411 3.33 7.411 7.41 0 4.081-3.33 7.411-7.411 7.411-4.08 0-7.41-3.33-7.41-7.411 0-4.097 3.33-7.41 7.41-7.41zm42.392 18.233c5.974 0 10.822-4.865 10.822-10.823 0-5.974-4.864-10.822-10.822-10.822-5.975 0-10.823 4.864-10.823 10.822-.016 5.958 4.848 10.823 10.823 10.823zm0-18.233c4.081 0 7.411 3.33 7.411 7.41 0 4.081-3.33 7.411-7.411 7.411-4.081 0-7.411-3.33-7.411-7.411a7.405 7.405 0 017.411-7.41z" fill="#FEF3ED"/><path d="M.5 615a1.5 1.5 0 001.5 1.5h13.5a1.5 1.5 0 000-3h-12v-12a1.5 1.5 0 00-3 0V615zm66.44-67.061l-66 66 2.12 2.122 66-66-2.12-2.122z" fill="#F6EBE5"/></svg>