<svg width="60" height="60" viewBox="0 0 60 60" fill="none" xmlns="http://www.w3.org/2000/svg">
<path d="M30 56.25L18.42 50.0756C15.1188 48.3193 12.3581 45.6972 10.4342 42.4907C8.5104 39.2842 7.49604 35.6144 7.50001 31.875V7.5C7.501 6.50574 7.89641 5.55249 8.59946 4.84945C9.3025 4.1464 10.2558 3.75099 11.25 3.75H48.75C49.7443 3.75099 50.6975 4.1464 51.4006 4.84945C52.1036 5.55249 52.499 6.50574 52.5 7.5V31.875C52.504 35.6144 51.4896 39.2842 49.5658 42.4907C47.6419 45.6972 44.8813 48.3193 41.58 50.0756L30 56.25ZM12.25 7.5C11.6977 7.5 11.25 7.94772 11.25 8.5V31.875C11.2469 34.9346 12.0771 37.9373 13.6514 40.5608C15.2258 43.1843 17.4849 45.3296 20.1863 46.7663L30 51.9994L39.8138 46.7681C42.5154 45.3313 44.7747 43.1858 46.3491 40.5619C47.9234 37.9381 48.7535 34.935 48.75 31.875V8.5C48.75 7.94772 48.3023 7.5 47.75 7.5H12.25Z" fill="#FF4002"/>
<path d="M30 45V13.125H43.125V30.9913C43.1249 33.0872 42.5602 35.1437 41.4911 36.9414C40.422 38.7391 38.8886 40.2105 37.0547 41.1985L30 45Z" fill="#FF4002"/>
</svg>
