<svg width="26" height="26" viewBox="0 0 26 26" fill="none" xmlns="http://www.w3.org/2000/svg">
<path d="M22.75 7.96565V18.0341C22.7501 18.1502 22.719 18.2642 22.6602 18.3642C22.6013 18.4642 22.5167 18.5466 22.4153 18.6029L13.3153 23.6577C13.2188 23.7112 13.1103 23.7393 13 23.7393C12.8897 23.7393 12.7812 23.7112 12.6847 23.6577L3.58475 18.6029C3.48326 18.5466 3.39869 18.4642 3.33982 18.3642C3.28096 18.2642 3.24994 18.1502 3.25 18.0341V7.96565C3.25014 7.84978 3.28124 7.73605 3.3401 7.63625C3.39896 7.53644 3.48342 7.45418 3.58475 7.39798L12.6847 2.34206C12.7812 2.28857 12.8897 2.2605 13 2.2605C13.1103 2.2605 13.2188 2.28857 13.3153 2.34206L22.4153 7.39798C22.5166 7.45418 22.601 7.53644 22.6599 7.63625C22.7188 7.73605 22.7499 7.84978 22.75 7.96565V7.96565Z" stroke="#FF4002" stroke-width="2" stroke-linecap="round" stroke-linejoin="round"/>
<path d="M13 22.7498V12.9998M13 12.9998L22.2084 7.88428L13.3153 12.8243C13.2187 12.878 13.11 12.9061 12.9995 12.9061C12.889 12.9061 12.7803 12.878 12.6837 12.8243L3.82202 7.90161L13 12.9998Z" stroke="#FF4002" stroke-width="2" stroke-linecap="round" stroke-linejoin="round"/>
</svg>
