<svg width="31" height="31" viewBox="0 0 31 31" fill="none" xmlns="http://www.w3.org/2000/svg">
<path d="M17.05 9.30005H15.779C14.0585 9.30005 12.4 11.16 12.4 12.648V15.5L8.6036 19.2965C8.28862 19.6115 7.75005 19.3884 7.75005 18.9429V15.5H4.65005C2.94505 15.5 1.55005 14.105 1.55005 12.4V4.65005C1.55005 2.94505 2.94505 1.55005 4.65005 1.55005H13.95C15.655 1.55005 17.05 2.94505 17.05 4.65005V9.30005ZM17.05 10.85H26.35C28.055 10.85 29.45 12.245 29.45 13.95V21.7C29.45 23.405 28.055 24.8 26.35 24.8H23.25V28.2429C23.25 28.6884 22.7115 28.9115 22.3965 28.5965L18.6 24.8H17.05C15.345 24.8 13.95 23.405 13.95 21.7V13.95C13.95 12.245 15.345 10.85 17.05 10.85Z" fill="#FF4002"/>
</svg>
