<svg width="337" height="185" viewBox="0 0 337 185" fill="none" xmlns="http://www.w3.org/2000/svg">
<path d="M330.68 144.943L87.2518 172.763C85.1925 173 83.1277 172.386 81.6025 171.084L2.40165 103.462C-1.98677 99.7194 0.380884 92.9561 6.31654 92.2798L249.745 64.46C251.804 64.2233 253.869 64.8376 255.394 66.1395L334.595 133.767C338.983 137.509 336.616 144.267 330.68 144.943Z" fill="#565656"/>
<path d="M330.68 144.943L87.2518 172.763C85.1925 173 83.1277 172.386 81.6025 171.084L2.40165 103.462C-1.98677 99.7194 0.380884 92.9561 6.31654 92.2798L249.745 64.46C251.804 64.2233 253.869 64.8376 255.394 66.1395L334.595 133.767C338.983 137.509 336.616 144.267 330.68 144.943Z" fill="white"/>
<path d="M86.382 172.955C84.587 172.955 82.8525 172.335 81.5145 171.196L2.31371 103.569C0.314966 101.867 -0.450393 99.4037 0.259904 96.9859C1.03627 94.3313 3.35437 92.477 6.30018 92.1388L249.728 64.319C251.826 64.0767 253.924 64.7023 255.477 66.0268L334.678 133.654C336.676 135.356 337.442 137.819 336.731 140.237C335.955 142.892 333.637 144.746 330.691 145.084L87.263 172.904C86.9712 172.938 86.6738 172.955 86.382 172.955ZM250.62 64.5445C250.334 64.5445 250.048 64.5614 249.767 64.5952L6.33322 92.415C3.49754 92.7419 1.27304 94.5173 0.5242 97.0648C-0.153059 99.3699 0.584768 101.72 2.48991 103.355L81.6908 170.982C83.1884 172.262 85.2037 172.859 87.2355 172.628L330.664 144.808L330.68 144.949L330.664 144.808C333.499 144.481 335.724 142.706 336.473 140.158C337.15 137.853 336.412 135.503 334.507 133.868L255.306 66.241C254.023 65.1419 252.349 64.5445 250.62 64.5445Z" fill="#565656"/>
<path d="M19.8506 76.104C19.8506 76.104 20.5774 76.7409 21.9044 77.9132C34.7778 91.3891 50.1951 101.534 63.1401 113.793C64.5002 115.083 65.8437 116.396 67.1486 117.738C80.4791 130.842 94.2445 143.241 108.985 153.798C110.273 154.863 111.556 155.934 112.833 157.01C119.226 162.41 125.487 168.057 131.4 174.268C133.124 175.784 134.687 177.159 136.053 178.365C140.161 181.978 142.545 184.075 142.545 184.075L19.8506 76.104Z" fill="white"/>
<path d="M142.462 184.182L131.318 174.375C126.109 168.908 120.212 163.424 112.751 157.117C111.529 156.08 110.268 155.032 108.902 153.905C95.9461 144.633 82.6487 133.17 67.0552 117.839C65.8108 116.56 64.5003 115.269 63.0467 113.894C57.4469 108.596 51.258 103.586 45.2673 98.7387C37.3274 92.3136 29.1121 85.663 21.8054 78.0148L19.7572 76.2169C19.7021 76.1662 19.6911 76.076 19.7406 76.0196C19.7902 75.9633 19.8783 75.952 19.9333 76.0027L21.9872 77.8119C29.2938 85.4601 37.4981 92.0994 45.4325 98.5189C51.4232 103.366 57.6231 108.382 63.2284 113.691C64.682 115.072 65.998 116.363 67.2424 117.642C82.8194 132.961 96.1113 144.414 109.062 153.685C110.433 154.818 111.694 155.872 112.922 156.909C120.394 163.221 126.296 168.711 131.499 174.178L131.665 174.324L142.633 183.979L142.462 184.182Z" fill="#565656"/>
<path d="M62.3799 68.1909C62.3799 68.1909 63.1067 68.8278 64.4337 70.0001C77.3071 83.476 92.7244 93.621 105.669 105.879C107.029 107.17 108.373 108.483 109.678 109.825C123.008 122.929 136.774 135.328 151.514 145.885C152.802 146.95 154.085 148.021 155.363 149.097C161.755 154.496 168.016 160.144 173.93 166.355C175.653 167.871 177.217 169.246 178.582 170.452C182.69 174.065 185.074 176.162 185.074 176.162L62.3799 68.1909Z" fill="white"/>
<path d="M184.992 176.269L173.847 166.462C168.638 160.995 162.741 155.511 155.28 149.204C154.102 148.207 152.841 147.153 151.431 145.992C138.475 136.72 125.178 125.257 109.585 109.926C108.34 108.647 107.03 107.362 105.576 105.981C99.9762 100.683 93.7873 95.6727 87.7966 90.8257C79.8567 84.4005 71.6414 77.7499 64.3347 70.1017L62.2864 68.3038C62.2314 68.2531 62.2204 68.1629 62.2699 68.1066C62.3195 68.0502 62.4076 68.0389 62.4626 68.0896L64.5164 69.8988C71.8231 77.547 80.0273 84.1863 87.9617 90.6058C93.9525 95.4529 100.152 100.469 105.758 105.778C107.217 107.159 108.527 108.45 109.772 109.729C125.354 125.048 138.641 136.501 151.591 145.772C153.006 146.944 154.267 147.993 155.451 148.996C162.923 155.308 168.825 160.798 174.029 166.265L185.162 176.06L184.992 176.269Z" fill="#565656"/>
<path d="M104.915 60.2778C104.915 60.2778 105.642 60.9147 106.969 62.087C119.842 75.5629 135.26 85.7079 148.205 97.9664C149.565 99.2571 150.908 100.57 152.213 101.912C165.544 115.016 179.309 127.415 194.049 137.971C195.337 139.037 196.62 140.108 197.898 141.184C204.291 146.583 210.551 152.231 216.465 158.442C218.188 159.958 219.752 161.333 221.117 162.539C225.225 166.152 227.609 168.249 227.609 168.249L104.915 60.2778Z" fill="white"/>
<path d="M227.615 168.39C227.582 168.39 227.549 168.378 227.527 168.356L216.382 158.549C211.173 153.082 205.276 147.598 197.815 141.291C196.588 140.254 195.332 139.206 193.967 138.079C181.011 128.807 167.713 117.343 152.12 102.013C150.875 100.734 149.565 99.4432 148.111 98.068C142.511 92.7701 136.322 87.7596 130.332 82.9126C122.392 76.4874 114.177 69.8368 106.87 62.1886L104.822 60.3907C104.767 60.34 104.756 60.2498 104.805 60.1935C104.855 60.1371 104.943 60.1258 104.998 60.1766L107.052 61.9857C114.358 69.6339 122.563 76.2733 130.497 82.6928C136.488 87.5398 142.688 92.5559 148.293 97.8651C149.747 99.246 151.062 100.537 152.307 101.816C167.884 117.135 181.176 128.587 194.126 137.859C195.497 138.992 196.758 140.046 197.986 141.083C205.458 147.395 211.361 152.885 216.564 158.352L227.697 168.147C227.753 168.198 227.764 168.288 227.714 168.345C227.692 168.373 227.653 168.39 227.615 168.39Z" fill="#565656"/>
<path d="M147.445 52.3647C147.445 52.3647 148.172 53.0016 149.499 54.1739C162.373 67.6498 177.79 77.7948 190.735 90.0533C192.095 91.344 193.438 92.6572 194.743 93.9986C208.074 107.103 221.839 119.502 236.579 130.058C237.868 131.124 239.151 132.194 240.428 133.271C246.821 138.67 253.081 144.318 258.995 150.529C260.718 152.045 262.282 153.42 263.648 154.626C267.755 158.239 270.139 160.335 270.139 160.335L147.445 52.3647Z" fill="white"/>
<path d="M270.145 160.471C270.112 160.471 270.079 160.46 270.057 160.437L258.913 150.63C253.704 145.158 247.807 139.679 240.346 133.373C239.123 132.341 237.862 131.287 236.497 130.16C223.541 120.889 210.243 109.425 194.65 94.0946C193.411 92.8208 192.101 91.5302 190.641 90.1493C185.042 84.8514 178.853 79.8353 172.862 74.9939C164.922 68.5687 156.707 61.9238 149.4 54.2699L147.352 52.472C147.297 52.4213 147.286 52.3311 147.335 52.2748C147.385 52.2184 147.473 52.2071 147.528 52.2579L149.582 54.067C156.889 61.7152 165.093 68.3545 173.027 74.7741C179.018 79.6267 185.218 84.6372 190.823 89.9464C192.282 91.3329 193.598 92.6236 194.837 93.8973C210.42 109.216 223.706 120.669 236.657 129.94C238.033 131.079 239.289 132.127 240.516 133.164C247.983 139.476 253.891 144.96 259.094 150.433L270.228 160.229C270.283 160.279 270.294 160.369 270.244 160.426C270.222 160.46 270.184 160.471 270.145 160.471Z" fill="#565656"/>
<path d="M189.975 44.4517C189.975 44.4517 190.701 45.0885 192.028 46.2608C204.902 59.7368 220.319 69.8817 233.264 82.1402C234.624 83.4309 235.968 84.7441 237.273 86.0855C250.603 99.1894 264.369 111.589 279.109 122.145C280.397 123.21 281.68 124.281 282.957 125.358C289.35 130.757 295.611 136.405 301.524 142.616C303.248 144.132 304.811 145.507 306.177 146.713C310.285 150.326 312.669 152.422 312.669 152.422L189.975 44.4517Z" fill="white"/>
<path d="M312.674 152.558C312.641 152.558 312.608 152.547 312.586 152.524L301.442 142.717C296.233 137.245 290.336 131.766 282.875 125.459C281.647 124.422 280.392 123.374 279.026 122.247C266.07 112.976 252.773 101.512 237.179 86.1815C235.946 84.9134 234.635 83.6227 233.171 82.2362C227.571 76.9383 221.382 71.9222 215.391 67.0808C207.451 60.6556 199.236 54.0107 191.929 46.3569L189.881 44.5589C189.826 44.5082 189.815 44.418 189.865 44.3617C189.914 44.3053 190.002 44.294 190.057 44.3448L192.111 46.154C199.418 53.8021 207.622 60.4415 215.556 66.861C221.547 71.7137 227.747 76.7241 233.352 82.0333C234.817 83.4198 236.133 84.7161 237.366 85.9842C252.943 101.303 266.235 112.756 279.186 122.027C280.557 123.16 281.818 124.214 283.046 125.251C290.512 131.563 296.42 137.053 301.624 142.52L301.789 142.666L312.757 152.321C312.812 152.372 312.823 152.462 312.774 152.518C312.757 152.541 312.718 152.558 312.674 152.558Z" fill="#565656"/>
<path d="M306.085 115.596L227.203 99.3418C226.868 99.2911 226.724 98.874 226.95 98.6204L234.912 89.6872C235.22 89.3434 235.677 89.1743 236.129 89.2476L315.01 105.502C315.346 105.553 315.489 105.97 315.264 106.223L307.302 115.157C306.993 115.501 306.536 115.664 306.085 115.596Z" fill="#565656"/>
<path d="M306.085 115.032L227.203 98.778C226.868 98.7273 226.724 98.3102 226.95 98.0566L234.912 89.1233C235.22 88.7795 235.677 88.6105 236.129 88.6837L315.01 104.938C315.346 104.989 315.489 105.406 315.264 105.66L307.302 114.593C306.993 114.937 306.536 115.1 306.085 115.032Z" fill="#BCBCBC"/>
<path d="M306.288 115.19C306.217 115.19 306.139 115.185 306.062 115.174H306.057L227.175 98.9191C226.977 98.8909 226.806 98.7444 226.735 98.5415C226.663 98.3386 226.707 98.1188 226.851 97.9609L234.812 89.0277C235.154 88.6501 235.649 88.4641 236.15 88.543L315.043 104.798C315.241 104.826 315.412 104.972 315.483 105.175C315.555 105.378 315.511 105.598 315.368 105.756L307.406 114.689C307.114 115.01 306.712 115.19 306.288 115.19ZM306.106 114.897C306.519 114.959 306.921 114.807 307.197 114.497L315.159 105.564C315.23 105.485 315.252 105.372 315.219 105.271C315.181 105.17 315.098 105.096 314.993 105.079L236.106 88.8192C235.71 88.7572 235.297 88.9094 235.022 89.2194L227.06 98.1526C226.988 98.2315 226.966 98.3442 226.999 98.4456C227.038 98.5471 227.12 98.6204 227.225 98.6373L306.106 114.897Z" fill="#565656"/>
<path d="M303.177 128.418L216.945 100.683C216.625 100.565 216.565 100.131 216.84 99.9222L226.404 92.8207C226.773 92.5445 227.252 92.4769 227.682 92.6403L313.914 120.376C314.233 120.494 314.294 120.928 314.019 121.136L304.454 128.238C304.085 128.508 303.606 128.576 303.177 128.418Z" fill="#565656"/>
<path d="M303.177 127.714L216.945 99.9783C216.625 99.86 216.565 99.426 216.84 99.2175L226.404 92.116C226.773 91.8398 227.252 91.7722 227.682 91.9356L313.914 119.671C314.233 119.789 314.294 120.223 314.019 120.432L304.454 127.533C304.085 127.804 303.606 127.871 303.177 127.714Z" fill="white"/>
<path d="M303.65 127.939C303.474 127.939 303.304 127.911 303.133 127.843L216.906 100.108C216.702 100.035 216.565 99.8546 216.537 99.6461C216.51 99.4375 216.598 99.229 216.763 99.0994L226.327 91.9979C226.735 91.6935 227.263 91.6203 227.731 91.795L313.958 119.53C314.162 119.603 314.299 119.784 314.327 119.992C314.354 120.201 314.266 120.409 314.101 120.539L304.537 127.641C304.273 127.838 303.964 127.939 303.65 127.939ZM227.208 91.9922C226.949 91.9922 226.696 92.0768 226.487 92.2346L216.923 99.3361C216.835 99.4037 216.79 99.5052 216.807 99.6122C216.824 99.7193 216.89 99.8095 216.994 99.849L303.221 127.584H303.226C303.612 127.731 304.041 127.669 304.377 127.421L313.941 120.319C314.03 120.252 314.074 120.15 314.057 120.043C314.041 119.936 313.975 119.846 313.87 119.806L227.643 92.0712C227.5 92.0148 227.357 91.9922 227.208 91.9922Z" fill="#565656"/>
<path d="M171.15 111.865C171.15 111.865 169.284 111.532 167.422 110.687C165.561 109.836 163.959 109.058 161.52 110.704C159.081 112.344 153.618 113.449 150.271 113.747C146.923 114.052 150.419 117.8 154.444 118.454C158.469 119.107 171.816 117.293 171.816 117.293L171.15 111.865Z" fill="#BCBCBC"/>
<path d="M156.884 118.736C155.898 118.736 155.05 118.69 154.422 118.589C151.466 118.11 148.746 115.957 148.79 114.638C148.806 114.227 149.07 113.714 150.254 113.607C153.244 113.336 158.926 112.277 161.443 110.586C163.904 108.929 165.594 109.701 167.384 110.518L167.478 110.563C169.3 111.392 171.15 111.73 171.172 111.73C171.233 111.741 171.277 111.792 171.288 111.854L171.954 117.281C171.965 117.36 171.91 117.428 171.838 117.439C171.376 117.496 162.164 118.736 156.884 118.736ZM164.284 109.887C163.48 109.887 162.616 110.141 161.597 110.822C159.037 112.547 153.299 113.618 150.282 113.889C149.737 113.939 149.087 114.108 149.065 114.649C149.026 115.72 151.488 117.828 154.466 118.313C158.216 118.922 170.247 117.36 171.662 117.169L171.024 111.984C170.611 111.899 168.975 111.55 167.367 110.817L167.274 110.772C166.261 110.31 165.325 109.887 164.284 109.887Z" fill="#565656"/>
<path d="M144.323 85.7981C144.323 85.7981 117.899 85.8037 116.985 96.9575C114.782 123.819 156.376 119.739 160.197 118.611C164.019 117.484 167.757 115.731 167.757 115.731L169.767 118.679C169.767 118.679 200.392 105.964 201.257 93.2321C201.648 87.4438 194.435 82.1233 181.826 83.6732C172.636 84.8005 163.292 84.265 163.292 84.265L144.323 85.7981Z" fill="white"/>
<path d="M149.593 119.649C141.091 119.649 129.671 118.257 122.866 112.547C118.334 108.743 116.313 103.496 116.847 96.9521C117.227 92.3192 122.111 88.9038 130.971 87.0607C137.545 85.6968 144.092 85.663 144.318 85.663L163.276 84.1356C163.386 84.1412 172.735 84.6598 181.804 83.5438C192.365 82.2419 197.315 85.8095 198.956 87.4046C200.696 89.0954 201.532 91.1187 201.389 93.2492C201.026 98.5753 195.597 104.499 185.256 110.856C177.57 115.579 169.894 118.786 169.817 118.815C169.756 118.837 169.69 118.82 169.652 118.764L167.708 115.912C167.075 116.205 163.666 117.738 160.236 118.753C158.981 119.119 154.846 119.649 149.593 119.649ZM163.281 84.4118L144.334 85.9392C144.329 85.9392 144.329 85.9392 144.323 85.9392C144.059 85.9392 118.015 86.0688 117.123 96.969C116.594 103.417 118.582 108.585 123.042 112.327C133.972 121.497 156.894 119.44 160.159 118.476C163.925 117.36 167.664 115.619 167.703 115.602C167.763 115.574 167.835 115.591 167.873 115.647L169.817 118.505C171.755 117.682 200.294 105.356 201.119 93.221C201.257 91.1751 200.448 89.2306 198.768 87.6018C197.161 86.035 192.293 82.535 181.842 83.8144C172.746 84.9359 163.375 84.4174 163.281 84.4118Z" fill="#565656"/>
<path d="M166.48 107.103C166.453 107.103 166.425 107.097 166.403 107.08C166.342 107.035 166.326 106.951 166.364 106.883C166.431 106.787 172.928 97.1663 184.739 95.4698C184.16 95.143 182.773 94.5343 180.592 94.6301C180.51 94.6357 180.455 94.5737 180.449 94.4948C180.444 94.4159 180.504 94.3539 180.581 94.3483C183.637 94.2017 185.157 95.3966 185.218 95.4473C185.262 95.4811 185.278 95.5431 185.267 95.5938C185.251 95.6502 185.207 95.6897 185.152 95.6953C173.231 97.217 166.656 106.939 166.596 107.041C166.568 107.086 166.524 107.103 166.48 107.103Z" fill="#565656"/>
<path d="M166.48 106.962C168.094 105.694 168.419 103.8 171.166 104.809C173.914 105.818 179.475 105.581 182.801 105.074C186.126 104.566 183.583 109.047 179.816 110.648C177.504 111.634 171.546 112.553 167.306 113.122L166.48 106.962Z" fill="#BCBCBC"/>
<path d="M167.306 113.263C167.24 113.263 167.179 113.212 167.168 113.139C167.157 113.06 167.212 112.992 167.289 112.981C171.727 112.389 177.498 111.482 179.766 110.518C182.553 109.335 184.458 106.691 184.177 105.66C184.034 105.141 183.362 105.13 182.822 105.209C179.827 105.671 174.001 106.004 171.122 104.938C169.206 104.234 168.534 104.995 167.68 105.959C167.35 106.331 167.009 106.72 166.568 107.069C166.508 107.114 166.425 107.103 166.375 107.041C166.331 106.979 166.342 106.889 166.403 106.843C166.827 106.511 167.157 106.133 167.482 105.767C168.363 104.764 169.123 103.901 171.221 104.674C174.057 105.716 179.822 105.384 182.789 104.927C183.962 104.747 184.342 105.181 184.452 105.581C184.799 106.855 182.641 109.6 179.882 110.772C177.586 111.747 171.794 112.66 167.333 113.252C167.317 113.263 167.311 113.263 167.306 113.263Z" fill="#565656"/>
<path d="M167.306 113.263C167.24 113.263 167.179 113.212 167.168 113.139L166.199 105.818L136.526 98.8796C136.471 98.8684 136.433 98.8233 136.422 98.7726C136.416 98.7387 135.645 95.1316 131.527 92.6574C131.46 92.6179 131.438 92.5334 131.477 92.4658C131.516 92.3981 131.598 92.3756 131.664 92.415C135.53 94.7371 136.521 98.0399 136.669 98.626L166.353 105.564C166.408 105.575 166.452 105.626 166.458 105.682L167.438 113.1C167.449 113.178 167.394 113.246 167.322 113.257C167.317 113.263 167.311 113.263 167.306 113.263Z" fill="#565656"/>
<path d="M161.294 98.5809C161.228 98.5809 161.167 98.5302 161.156 98.4626L159.972 90.138C159.961 90.0591 160.011 89.9915 160.088 89.9802C160.17 89.969 160.231 90.0197 160.242 90.0986L161.404 98.2822C161.789 98.2202 162.929 97.944 163.067 96.7436C163.237 95.2274 162.307 89.1405 162.296 89.0785C162.285 88.9996 162.334 88.9319 162.411 88.915C162.494 88.9037 162.56 88.9545 162.571 89.0334C162.61 89.287 163.518 95.2162 163.342 96.7774C163.155 98.4287 161.316 98.5809 161.299 98.5809C161.305 98.5809 161.299 98.5809 161.294 98.5809Z" fill="#565656"/>
<path d="M126.886 91.6765C127.244 93.0404 132.607 95.5823 133.625 96.3263C134.638 97.0703 133.091 97.6282 132.475 97.4479C131.858 97.2619 130.112 96.4165 130.112 96.4165C130.112 96.4165 131.494 102.56 131.142 103.208C130.79 103.856 129.991 103.687 129.804 103.197C129.688 102.892 128.433 98.8118 128.433 98.8118C128.433 98.8118 129.468 103.828 128.896 104.268C128.323 104.707 127.811 104.578 127.679 104.053C127.546 103.529 126.528 98.9358 126.528 98.9358C126.528 98.9358 127.365 103.98 127.056 104.459C126.787 104.888 126.098 104.764 125.779 104.228C125.46 103.693 124.496 98.7498 124.496 98.7498C124.496 98.7498 125.818 103.355 125.019 103.45C124.221 103.546 123.521 101.816 123.224 100.536C122.921 99.2571 121.71 95.0356 121.512 93.7506L126.886 91.6765Z" fill="white"/>
<path d="M126.56 104.854C126.555 104.854 126.549 104.854 126.544 104.854C126.192 104.848 125.85 104.634 125.652 104.296C125.575 104.161 125.459 103.794 125.338 103.304C125.322 103.349 125.305 103.389 125.283 103.422C125.206 103.541 125.107 103.58 125.035 103.586C124.077 103.693 123.367 101.737 123.086 100.565C122.981 100.114 122.767 99.308 122.513 98.3724C122.062 96.6929 121.5 94.6019 121.368 93.7621C121.357 93.6945 121.396 93.6325 121.456 93.6099L126.83 91.5415C126.869 91.5246 126.907 91.5302 126.94 91.5471C126.973 91.564 127.001 91.5978 127.012 91.6373C127.254 92.5616 130.233 94.2242 132.017 95.2218C132.793 95.6558 133.41 95.9996 133.696 96.2081C134.17 96.5519 134.115 96.8676 134.038 97.0254C133.807 97.5101 132.87 97.713 132.424 97.5777C131.94 97.4312 130.806 96.907 130.294 96.6647C130.618 98.1357 131.582 102.656 131.246 103.276C131.064 103.608 130.745 103.8 130.398 103.772C130.062 103.749 129.776 103.541 129.66 103.248C129.605 103.095 129.28 102.058 128.961 101.033C129.187 102.498 129.33 104.099 128.967 104.38C128.62 104.645 128.273 104.736 127.987 104.634C127.761 104.555 127.601 104.358 127.535 104.087C127.485 103.896 127.326 103.174 127.133 102.329C127.249 103.383 127.298 104.313 127.161 104.533C127.034 104.736 126.819 104.854 126.56 104.854ZM125.388 102.323C125.597 103.231 125.79 103.975 125.894 104.149C126.043 104.403 126.302 104.566 126.555 104.572C126.72 104.583 126.858 104.504 126.94 104.38C127.117 104.11 126.797 101.41 126.39 98.9586C126.379 98.8853 126.423 98.812 126.5 98.7951C126.577 98.7782 126.643 98.8289 126.66 98.9022C126.671 98.9473 127.684 103.501 127.81 104.02C127.854 104.2 127.953 104.318 128.086 104.369C128.278 104.437 128.543 104.364 128.807 104.155C129.115 103.918 128.779 101.207 128.289 98.8402C128.273 98.7669 128.317 98.6937 128.388 98.6768C128.466 98.6599 128.532 98.6993 128.554 98.7726C128.565 98.812 129.809 102.853 129.919 103.152C129.991 103.343 130.194 103.484 130.42 103.501C130.668 103.518 130.877 103.389 131.009 103.152C131.246 102.712 130.497 98.812 129.969 96.4618C129.958 96.411 129.974 96.3547 130.018 96.3209C130.062 96.2871 130.117 96.2814 130.161 96.304C130.178 96.3152 131.907 97.1437 132.507 97.3241C132.876 97.4368 133.647 97.2339 133.796 96.9183C133.862 96.783 133.774 96.6252 133.537 96.4561C133.261 96.2532 132.623 95.8982 131.885 95.4867C129.925 94.3933 127.276 92.911 126.803 91.874L121.665 93.8523C121.825 94.7428 122.354 96.7154 122.783 98.3161C123.036 99.2516 123.251 100.063 123.356 100.514C123.681 101.895 124.347 103.327 124.958 103.327C124.975 103.327 124.991 103.327 125.002 103.327C125.013 103.327 125.03 103.321 125.052 103.287C125.14 103.152 125.151 102.831 125.118 102.413C124.776 100.937 124.419 99.1051 124.358 98.7951C124.341 98.7218 124.391 98.6486 124.463 98.6317C124.534 98.6148 124.606 98.6542 124.628 98.7275C124.71 99.0037 125.272 100.988 125.388 102.323Z" fill="#565656"/>
<path d="M140.002 48.2616C137.039 65.7166 135.619 87.0999 138.212 86.6322C140.255 86.2602 149.66 95.4245 157.434 92.9389C165.446 90.3745 174.79 88.2892 176.513 87.0323C177.791 86.1024 176.023 76.5435 176.783 67.6611C177.339 61.1288 176.684 55.4645 177.857 50.0313C179.343 43.1553 181.375 36.0426 180.367 34.7913C177.565 31.3139 157.016 22.2398 148.487 25.4523L140.002 48.2616Z" fill="#FFBD98"/>
<path d="M154.582 93.5084C150.056 93.5084 145.381 90.6509 142.088 88.6445C140.277 87.5398 138.84 86.6662 138.234 86.7733C138.03 86.8071 137.838 86.7395 137.678 86.576C135.602 84.4568 137.149 64.2289 139.864 48.2393C139.875 48.1604 139.947 48.1096 140.024 48.1266C140.101 48.1378 140.15 48.2111 140.134 48.29C137.183 65.6661 136.065 84.5301 137.871 86.3787C137.97 86.4802 138.069 86.5196 138.19 86.4971C138.9 86.3675 140.293 87.2242 142.232 88.4077C146.191 90.8256 152.17 94.4778 157.396 92.8095C160.573 91.795 163.981 90.8425 166.993 90.0084C171.514 88.7515 175.417 87.6638 176.431 86.9198C177.02 86.4915 176.877 83.6734 176.689 80.1114C176.502 76.5043 176.271 72.0123 176.64 67.65C176.86 65.0687 176.893 62.6282 176.921 60.2667C176.965 56.6822 177.009 53.2949 177.719 50.0034C178.055 48.4422 178.418 46.881 178.771 45.3649C179.916 40.4446 180.995 35.8004 180.257 34.8874C177.625 31.6241 157.197 22.3189 148.525 25.5934C148.454 25.6216 148.377 25.5822 148.349 25.5089C148.322 25.4356 148.36 25.3567 148.432 25.3285C157.192 22.0258 177.813 31.4155 180.467 34.7126C181.292 35.7328 180.296 40.0162 179.035 45.4381C178.683 46.9542 178.319 48.5154 177.983 50.0766C177.278 53.3399 177.234 56.7103 177.19 60.2836C177.163 62.6508 177.13 65.0968 176.91 67.6894C176.541 72.0292 176.772 76.5099 176.959 80.1114C177.163 84.0454 177.295 86.6436 176.585 87.1678C175.528 87.9399 171.789 88.9826 167.059 90.2958C164.053 91.13 160.644 92.0825 157.473 93.097C156.526 93.3731 155.557 93.5084 154.582 93.5084Z" fill="#565656"/>
<path d="M148.773 25.3284C137.909 28.2648 111.639 52.3253 111.54 57.6176C111.441 62.9155 120.9 93.9873 120.9 93.9873L130.211 92.8657L123.857 60.1876L147.302 42.8566L148.773 25.3284Z" fill="#FFBD98"/>
<path d="M120.906 94.134C120.846 94.134 120.791 94.0946 120.774 94.0326C120.389 92.7644 111.309 62.8762 111.408 57.6177C111.463 54.6982 118.792 46.9091 126.032 40.484C133.201 34.1208 142.931 26.7601 148.74 25.1933C148.817 25.1707 148.889 25.2215 148.911 25.2947C148.933 25.368 148.889 25.4469 148.811 25.4694C143.052 27.025 133.361 34.3576 126.214 40.7038C117.702 48.2562 111.727 55.2168 111.683 57.629C111.59 62.6846 120.383 91.7894 121.005 93.8409L130.057 92.7475L123.731 60.2216C123.72 60.1652 123.742 60.1145 123.786 60.0807L147.231 42.7497C147.292 42.7046 147.38 42.7159 147.424 42.7835C147.468 42.8455 147.451 42.9357 147.391 42.9808L124.017 60.2611L130.355 92.849C130.36 92.8884 130.355 92.9279 130.333 92.9617C130.311 92.9955 130.278 93.0124 130.239 93.0181L120.928 94.1396C120.917 94.1284 120.912 94.134 120.906 94.134Z" fill="#565656"/>
<path d="M154.141 87.8554C151.988 87.8554 149.67 87.3538 148.117 86.2322C148.057 86.1871 148.04 86.0969 148.084 86.0349C148.129 85.9729 148.217 85.956 148.277 86.0011C150.689 87.737 155.265 87.9568 157.748 86.9931C160.336 85.9898 164.73 85.4319 164.774 85.4262C164.845 85.415 164.917 85.4713 164.928 85.5502C164.939 85.6291 164.884 85.6968 164.807 85.708C164.763 85.7137 160.396 86.266 157.841 87.258C156.839 87.6469 155.523 87.8554 154.141 87.8554Z" fill="#565656"/>
<path d="M180.368 34.7913C180.368 34.7913 194.854 61.1456 191.551 78.037C188.247 94.9228 179.723 81.8865 176.937 72.7786C176.315 70.7439 175.021 63.7552 173.903 57.4202L180.368 34.7913Z" fill="#FFBD98"/>
<path d="M186.595 86.3618C182.741 86.3618 178.49 78.3304 176.805 72.8183C176.293 71.1387 175.269 65.9648 173.771 57.443C173.76 57.3641 173.81 57.2908 173.881 57.2795C173.953 57.2683 174.03 57.319 174.041 57.3923C175.517 65.7788 176.563 71.088 177.069 72.7337C178.033 75.8843 179.597 79.2491 181.259 81.7346C182.625 83.7805 184.695 86.1927 186.727 86.08C188.814 85.9673 190.394 83.2507 191.418 78.0091C194.673 61.3657 180.395 35.124 180.246 34.8592C180.208 34.7915 180.23 34.707 180.296 34.6675C180.362 34.6281 180.445 34.6506 180.483 34.7239C180.626 34.9888 194.959 61.3206 191.683 78.0655C190.631 83.4479 188.968 86.2378 186.738 86.3618C186.694 86.3618 186.645 86.3618 186.595 86.3618Z" fill="#565656"/>
<path d="M185.152 40.5233C185.323 37.8856 184.012 34.9267 184.53 33.45C185.141 31.7141 183.412 21.4001 183.148 21.479L181.044 24.2181L179.954 26.2866C179.954 26.2866 180.885 28.3156 180.015 29.33C179.15 30.3389 175.803 29.3751 175.803 29.3751L175.131 30.6602C175.131 30.6602 176.964 31.8043 177.251 32.6384C177.537 33.4726 179.112 34.3969 179.58 35.1972C180.048 36.0032 180.147 41.1095 180.147 41.1095L185.152 40.5233Z" fill="white"/>
<path d="M180.147 41.2449C180.114 41.2449 180.081 41.2337 180.059 41.2111C180.031 41.1829 180.015 41.1491 180.009 41.1097C179.982 39.7006 179.833 35.9019 179.464 35.2707C179.266 34.9269 178.831 34.5436 178.407 34.166C177.856 33.6813 177.295 33.1797 177.124 32.6837C176.86 31.9059 175.081 30.79 175.059 30.7787C174.998 30.7392 174.976 30.6603 175.009 30.5927L175.681 29.3077C175.714 29.2513 175.775 29.2175 175.841 29.24C176.749 29.5049 179.249 30.0122 179.91 29.24C180.708 28.3101 179.833 26.3713 179.827 26.3544C179.811 26.3149 179.811 26.2642 179.833 26.2304L180.923 24.1619L183.038 21.4059C183.054 21.3833 183.076 21.3664 183.104 21.3608C183.153 21.3439 183.225 21.3664 183.263 21.4059C183.698 21.8737 185.256 31.8157 184.656 33.5122C184.398 34.2449 184.618 35.3778 184.871 36.691C185.102 37.8971 185.367 39.261 185.284 40.5461C185.279 40.6137 185.229 40.6701 185.163 40.6757L180.158 41.2562C180.158 41.2449 180.152 41.2449 180.147 41.2449ZM175.318 30.604C175.725 30.8745 177.129 31.827 177.388 32.5879C177.531 33.0106 178.071 33.4897 178.589 33.9518C179.046 34.3576 179.48 34.7409 179.701 35.1241C180.141 35.8794 180.262 40.0726 180.284 40.9519L185.025 40.3995C185.086 39.1878 184.833 37.8858 184.607 36.7361C184.342 35.3834 184.117 34.2111 184.403 33.4051C184.954 31.8383 183.511 23.0967 183.126 21.744L181.154 24.3028L180.108 26.2867C180.268 26.6587 180.956 28.4397 180.119 29.4148C179.288 30.3842 176.469 29.6909 175.874 29.5331L175.318 30.604Z" fill="#565656"/>
<path d="M180.929 78.9051C177.685 75.3656 179.734 38.0603 179.734 38.0603L187.542 37.2712C187.542 37.2712 191.088 54.9573 191.726 67.5991L180.929 78.9051Z" fill="#FFBD98"/>
<path d="M180.929 79.0462C180.89 79.0462 180.857 79.0293 180.83 79.0011C177.587 75.456 179.514 39.5823 179.596 38.0549C179.602 37.9873 179.651 37.9309 179.723 37.9253L187.531 37.1362C187.602 37.1306 187.663 37.1757 187.679 37.2489C187.712 37.4237 191.236 55.0872 191.864 67.5993C191.87 67.6782 191.809 67.7459 191.732 67.7459C191.649 67.7515 191.589 67.6895 191.589 67.6106C190.989 55.679 187.751 39.0356 187.432 37.4293L179.866 38.1958C179.745 40.5404 177.955 75.456 181.033 78.8151C181.083 78.8715 181.083 78.9617 181.028 79.0124C181 79.0293 180.962 79.0462 180.929 79.0462Z" fill="#565656"/>
<path d="M96.3711 115.168L100.583 125.29C100.87 125.972 100.341 126.694 99.405 126.902L95.0606 127.866L89.8242 115.269L94.1686 114.306C95.0991 114.097 96.0902 114.486 96.3711 115.168Z" fill="#565656"/>
<path d="M100.66 122.281L100.61 125.933L99.4043 123.56L100.66 122.281Z" fill="#565656"/>
<path d="M89.8184 115.269L95.0548 127.866L93.0506 128.311C92.1145 128.52 91.1234 128.131 90.8426 127.449L87.2416 118.792C86.6249 117.293 87.7756 115.72 89.8184 115.269Z" fill="#565656"/>
<path d="M87.1147 118.138L87.0762 114.514L88.5353 115.162L87.1147 118.138Z" fill="#565656"/>
<path d="M74.9023 121.717L77.3801 127.68L90.5234 124.772L88.8385 120.714L74.9023 121.717Z" fill="#565656"/>
<path d="M90.5235 124.682V123.335L89.1084 123.047L90.5235 124.682Z" fill="#565656"/>
<path d="M73.6907 120.714L78.2553 131.687C78.883 133.192 77.7157 134.776 75.6564 135.232L73.2557 135.762C71.1964 136.219 69.0159 135.368 68.3937 133.869L63.8291 122.895L73.6907 120.714Z" fill="#565656"/>
<path d="M63.8295 119.547C63.6643 120.252 63.5597 122.112 63.8295 122.889L78.3438 132.944L78.3988 129.247L63.8295 119.547Z" fill="#565656"/>
<path d="M96.3711 111.826L100.583 121.948C100.87 122.63 100.341 123.351 99.405 123.56L95.0606 124.524L89.8242 111.927L94.1686 110.963C95.0991 110.755 96.0902 111.144 96.3711 111.826Z" fill="#BCBCBC"/>
<path d="M95.0603 124.659C95.0053 124.659 94.9557 124.625 94.9337 124.575L89.6973 111.978C89.6808 111.938 89.6808 111.893 89.7028 111.859C89.7193 111.82 89.7579 111.797 89.7964 111.786L94.1408 110.822C95.1374 110.603 96.2001 111.025 96.503 111.764L100.715 121.886C100.842 122.19 100.831 122.529 100.677 122.827C100.462 123.25 100.01 123.566 99.4377 123.69L95.0934 124.653C95.0769 124.659 95.0714 124.659 95.0603 124.659ZM90.0112 112.029L95.1374 124.36L99.3717 123.425C99.8617 123.318 100.253 123.047 100.429 122.709C100.544 122.484 100.556 122.241 100.456 122.01L96.2442 111.888C95.9854 111.268 95.0658 110.913 94.1904 111.11L90.0112 112.029Z" fill="#565656"/>
<path d="M89.8184 111.921L95.0548 124.518L93.0506 124.963C92.1145 125.172 91.1234 124.783 90.8426 124.101L87.2416 115.444C86.6249 113.95 87.7756 112.378 89.8184 111.921Z" fill="#BCBCBC"/>
<path d="M92.5437 125.161C91.7288 125.161 90.9689 124.766 90.7156 124.157L87.1146 115.5C86.8503 114.869 86.8778 114.204 87.1917 113.59C87.6322 112.716 88.5848 112.062 89.7906 111.792C89.8512 111.775 89.9228 111.814 89.9448 111.876L95.1812 124.473C95.1977 124.513 95.1977 124.558 95.1756 124.591C95.1591 124.631 95.1206 124.653 95.082 124.665L93.0778 125.11C92.9016 125.138 92.7254 125.161 92.5437 125.161ZM89.741 112.085C88.6673 112.35 87.8304 112.936 87.4395 113.714C87.1642 114.255 87.1421 114.835 87.3734 115.388L90.9744 124.045C91.2332 124.67 92.1583 125.014 93.0282 124.823L94.8728 124.417L89.741 112.085Z" fill="#565656"/>
<path d="M74.9023 120.28L77.3801 126.243L90.5234 123.334L88.8385 119.276L74.9023 120.28Z" fill="#BCBCBC"/>
<path d="M77.3803 126.384C77.3253 126.384 77.2757 126.35 77.2537 126.299L74.7759 120.336C74.7594 120.297 74.7594 120.246 74.7869 120.207C74.809 120.167 74.853 120.145 74.8971 120.139L88.8332 119.141C88.8938 119.141 88.9488 119.17 88.9708 119.226L90.6557 123.278C90.6722 123.318 90.6723 123.363 90.6502 123.397C90.6337 123.436 90.5952 123.459 90.5566 123.47L77.4134 126.378C77.4024 126.384 77.3914 126.384 77.3803 126.384ZM75.1063 120.404L77.4684 126.079L90.3364 123.233L88.7506 119.429L75.1063 120.404Z" fill="#565656"/>
<path d="M73.6907 117.366L78.2553 128.339C78.883 129.844 77.7157 131.428 75.6564 131.884L73.2557 132.414C71.1964 132.871 69.0159 132.02 68.3937 130.521L63.8291 119.547L73.6907 117.366Z" fill="#BCBCBC"/>
<path d="M72.1322 132.679C70.4032 132.679 68.8009 131.851 68.2668 130.577L63.7022 119.604C63.6857 119.564 63.6857 119.519 63.7077 119.485C63.7242 119.446 63.7628 119.423 63.8013 119.412L73.6629 117.231C73.7234 117.214 73.795 117.253 73.817 117.315L78.3817 128.289C78.646 128.926 78.6184 129.591 78.3046 130.216C77.8586 131.096 76.906 131.761 75.6836 132.025L73.2829 132.555C72.903 132.64 72.5121 132.679 72.1322 132.679ZM64.0216 119.654L68.5201 130.47C69.1203 131.913 71.2347 132.724 73.2279 132.285L75.6286 131.755C76.7684 131.501 77.6549 130.898 78.0623 130.087C78.3376 129.54 78.3596 128.959 78.1284 128.401L73.6078 117.535L64.0216 119.654Z" fill="#565656"/>
<path d="M67.6839 109.639L69.8093 112.834L63.692 114.187L62.9431 110.687C62.7339 110.18 63.1248 109.644 63.8186 109.492L66.0431 109.002C66.7369 108.844 67.4692 109.131 67.6839 109.639Z" fill="#BCBCBC"/>
<path d="M63.6865 114.328C63.6204 114.328 63.5653 114.283 63.5543 114.215L62.8055 110.715C62.7119 110.501 62.7229 110.242 62.844 110.011C63.0092 109.69 63.3506 109.447 63.7911 109.351L66.0156 108.861C66.7754 108.692 67.5628 109.002 67.8051 109.571L69.9195 112.756C69.947 112.795 69.9525 112.846 69.936 112.885C69.9195 112.93 69.8809 112.959 69.8369 112.97L63.7195 114.322C63.7085 114.328 63.6975 114.328 63.6865 114.328ZM66.4286 109.098C66.3129 109.098 66.1918 109.109 66.0707 109.137L63.8462 109.628C63.4938 109.707 63.2074 109.898 63.0863 110.141C63.0037 110.298 62.9982 110.467 63.0643 110.631L63.7911 114.018L69.5726 112.739L67.5628 109.718C67.5573 109.712 67.5518 109.701 67.5518 109.695C67.4032 109.329 66.9351 109.098 66.4286 109.098Z" fill="#565656"/>
<path d="M70.9546 113.144L73.6912 117.366L63.8296 119.547L62.888 114.925C62.822 114.615 63.0863 114.317 63.4992 114.221L69.9084 112.801C70.3269 112.716 70.7674 112.863 70.9546 113.144Z" fill="white"/>
<path d="M63.8293 119.688C63.8017 119.688 63.7742 119.682 63.7522 119.665C63.7191 119.643 63.6971 119.615 63.6916 119.575L62.7501 114.954C62.673 114.565 62.9813 114.193 63.4659 114.086L69.8751 112.665C70.3486 112.558 70.8441 112.727 71.0589 113.06L73.7955 117.281C73.823 117.321 73.823 117.372 73.8065 117.411C73.7899 117.456 73.7514 117.484 73.7074 117.496L63.8458 119.677C63.8513 119.688 63.8403 119.688 63.8293 119.688ZM70.1669 112.925C70.0898 112.925 70.0182 112.93 69.9411 112.947L63.5319 114.368C63.1961 114.441 62.9813 114.672 63.0254 114.903L63.9394 119.384L73.4651 117.276L70.8386 113.223C70.7175 113.037 70.4477 112.925 70.1669 112.925Z" fill="#565656"/>
<path d="M64.9691 109.233L64 106.905L64.9691 109.233Z" fill="white"/>
<path d="M64.9687 109.374C64.9137 109.374 64.8641 109.34 64.8421 109.289L63.873 106.962C63.8455 106.888 63.8785 106.81 63.9446 106.776C64.0107 106.748 64.0933 106.776 64.1263 106.849L65.0954 109.177C65.1229 109.25 65.0899 109.329 65.0238 109.363C65.0018 109.368 64.9853 109.374 64.9687 109.374Z" fill="#565656"/>
<path d="M233.204 152.445L230.247 151.741L243.996 126.553L247.806 126.474L233.738 152.248C233.655 152.411 233.424 152.496 233.204 152.445Z" fill="#565656"/>
<path d="M255.311 127.815L247.762 127.618L239.812 125.899L241.386 122.72L249.337 124.439L255.598 127.24L255.311 127.815Z" fill="#565656"/>
<path d="M239.812 125.899V125.065L255.598 126.406V127.24L255.311 127.815L239.812 125.899Z" fill="#565656"/>
<path d="M247.338 126.637V127.353L230.247 151.741V151.03L247.338 126.637Z" fill="#565656"/>
<path d="M233.275 151.746L230.247 151.025L243.996 125.837L247.338 126.631L233.716 151.582C233.644 151.723 233.452 151.791 233.275 151.746Z" fill="#BCBCBC"/>
<path d="M233.386 151.904C233.342 151.904 233.292 151.898 233.248 151.887L230.22 151.166C230.176 151.154 230.143 151.126 230.126 151.087C230.11 151.047 230.11 151.002 230.132 150.963L243.88 125.775C243.908 125.719 243.974 125.69 244.029 125.707L247.371 126.502C247.415 126.513 247.448 126.542 247.465 126.581C247.481 126.62 247.482 126.666 247.459 126.705L233.837 151.656C233.755 151.814 233.573 151.904 233.386 151.904ZM230.456 150.935L233.303 151.611C233.43 151.645 233.556 151.588 233.595 151.521L247.129 126.733L244.068 126.006L230.456 150.935Z" fill="#565656"/>
<path d="M255.311 126.981L247.762 126.784L239.812 125.065L241.386 121.886L249.337 123.611L255.598 126.406L255.311 126.981Z" fill="#BCBCBC"/>
<path d="M255.311 127.122L247.757 126.93L239.784 125.206C239.74 125.195 239.707 125.166 239.69 125.127C239.674 125.087 239.674 125.042 239.69 125.003L241.27 121.824C241.298 121.768 241.359 121.74 241.419 121.751L249.37 123.47L255.658 126.277C255.691 126.294 255.719 126.322 255.735 126.356C255.746 126.389 255.746 126.434 255.73 126.468L255.443 127.043C255.41 127.094 255.361 127.122 255.311 127.122ZM240.015 124.963L247.79 126.649L255.229 126.835L255.41 126.474L249.287 123.735L241.469 122.044L240.015 124.963Z" fill="#565656"/>
<path d="M166.783 13.7236L160.633 26.3429C160.881 30.7672 163.491 34.8195 166.794 38.7704C169.239 35.7495 171.133 29.2849 173.016 22.7414L166.783 13.7236Z" fill="white"/>
<path d="M166.794 38.9115C166.756 38.9115 166.717 38.8946 166.69 38.8608C163.947 35.5862 160.77 31.207 160.495 26.3543C160.495 26.3317 160.501 26.3036 160.512 26.281L166.662 13.6618C166.684 13.6167 166.728 13.5885 166.772 13.5829C166.827 13.5772 166.866 13.5998 166.893 13.6449L173.121 22.657C173.143 22.6908 173.154 22.7359 173.143 22.7754C171.397 28.8511 169.415 35.744 166.893 38.8551C166.871 38.8946 166.833 38.9228 166.794 38.9115ZM160.776 26.3768C161.051 31.0717 164.113 35.3382 166.794 38.5508C169.222 35.4284 171.155 28.7158 172.867 22.7641L166.811 14L160.776 26.3768Z" fill="#565656"/>
<path d="M183.957 13.5603C187.139 14.8002 184.959 19.2865 183.825 21.2028C182.652 23.1923 181.209 24.9846 180.615 26.0329C179.756 27.5434 176.039 33.8558 171.97 32.9879C169.079 32.3679 166.921 29.7584 165.792 27.6956C164.08 24.5732 162.053 19.7656 163.991 16.1979C165.93 12.6303 169.586 7.87907 173.005 9.07392L183.957 13.5603Z" fill="white"/>
<path d="M172.74 33.2079C172.476 33.2079 172.212 33.1797 171.942 33.1233C168.44 32.3737 166.26 28.8286 165.676 27.7634C162.973 22.8262 162.367 18.9147 163.876 16.1305C166.172 11.9034 169.784 7.80033 173.054 8.94446L184.006 13.4308C184.804 13.7408 185.333 14.2762 185.586 15.0145C186.236 16.9421 184.838 19.7658 183.946 21.2819C183.285 22.4035 182.558 23.4405 181.914 24.3535C181.424 25.0524 181 25.6555 180.741 26.1064C179.469 28.327 176.286 33.2079 172.74 33.2079ZM171.898 9.029C169.084 9.029 166.106 12.6079 164.112 16.2714C162.648 18.9654 163.253 22.7867 165.913 27.6281C166.485 28.6708 168.611 32.1257 171.997 32.8528C175.686 33.6418 179.166 28.2988 180.493 25.9655C180.757 25.4977 181.187 24.8946 181.682 24.1901C182.321 23.2771 183.048 22.2456 183.703 21.1353C184.403 19.9518 185.955 16.9928 185.317 15.1047C185.096 14.4453 184.617 13.9719 183.901 13.6957L172.955 9.20936C172.608 9.08536 172.256 9.029 171.898 9.029Z" fill="#565656"/>
<path d="M164.195 19.5403C163.468 21.5299 162.141 23.2038 162.141 23.2038C162.141 23.2038 161.525 11.74 163.38 8.98956C165.192 6.30115 167.664 2.7504 169.619 2.57005C171.568 2.38969 172.851 0.913036 174.079 0.87922C175.378 0.839767 177.113 2.5306 177.113 2.5306C177.113 2.5306 180.064 1.64573 182.393 3.31965C184.601 4.90903 184.805 6.80839 185.911 7.6989C186.903 8.49922 189.661 8.88811 190.608 11.8527C191.5 14.6426 189.645 17.5677 188.29 18.5033C186.936 19.4389 185.498 20.2899 184.728 19.4614C183.957 18.6329 180.714 14.992 178.01 15.8205C175.307 16.649 173.066 12.3036 171.772 12.5798C170.516 12.8503 168.325 19.0331 167.4 19.0669C166.475 19.0951 164.845 18.4526 164.498 17.4268C164.146 16.401 164.195 19.5403 164.195 19.5403Z" fill="#565656"/>
<path d="M162.978 18.8637C162.906 20.7405 163.727 22.3017 164.823 22.3468C165.918 22.3919 166.86 20.904 166.931 19.0272C167.003 17.1503 166.717 15.6511 165.626 15.606C164.536 15.5553 163.055 16.9813 162.978 18.8637Z" fill="white"/>
<path d="M164.872 22.4823C164.856 22.4823 164.839 22.4823 164.817 22.4823C163.65 22.4316 162.764 20.8084 162.841 18.8527C162.874 17.9565 163.221 17.0886 163.815 16.4123C164.366 15.7923 165.049 15.4372 165.627 15.4598C166.199 15.4823 166.607 15.8599 166.844 16.5813C167.031 17.1619 167.108 17.9904 167.069 19.0274C166.998 20.9493 166.012 22.4823 164.872 22.4823ZM163.116 18.8696C163.044 20.6675 163.815 22.1611 164.828 22.2062C164.845 22.2062 164.856 22.2062 164.872 22.2062C165.869 22.2062 166.728 20.7915 166.794 19.0218C166.833 18.0129 166.761 17.2239 166.585 16.6715C166.387 16.0685 166.073 15.7641 165.621 15.7416C165.12 15.7134 164.509 16.0515 164.024 16.6039C163.474 17.2295 163.149 18.0354 163.116 18.8696Z" fill="#565656"/>
<path d="M173.165 21.1917C172.906 21.6877 172.911 22.2118 173.181 22.3584C173.451 22.5049 173.875 22.2231 174.139 21.7271C174.398 21.2311 174.393 20.707 174.123 20.5604C173.847 20.4083 173.423 20.6957 173.165 21.1917Z" fill="#565656"/>
<path d="M178.831 23.9026C178.572 24.3986 178.577 24.9227 178.847 25.0693C179.117 25.2158 179.541 24.934 179.805 24.438C180.064 23.9421 180.059 23.4179 179.789 23.2714C179.464 23.091 179.089 23.4066 178.831 23.9026Z" fill="#565656"/>
<path d="M173.562 18.1313C172.146 17.7931 171.298 18.0806 171.293 18.6047C171.287 19.1232 172.191 19.4051 173.259 19.6361C174.316 19.8672 175.395 19.8447 175.516 19.3656C175.643 18.8922 174.977 18.4695 173.562 18.1313Z" fill="#565656"/>
<path d="M181.612 21.9131C180.439 21.0283 179.547 20.9606 179.348 21.4341C179.15 21.9075 179.872 22.5331 180.764 23.1756C181.645 23.8125 182.652 24.2239 182.944 23.835C183.236 23.4461 182.784 22.7924 181.612 21.9131Z" fill="#565656"/>
<path d="M174.53 25.8809C175.004 26.1063 175.45 26.3205 175.841 26.1401C176.083 26.033 176.254 25.7907 176.369 25.4074C176.59 24.6691 177.994 19.8784 177.994 19.8784L177.663 19.777C177.663 19.777 176.259 24.5677 176.039 25.306C175.956 25.5822 175.846 25.7569 175.703 25.8189C175.455 25.9316 175.081 25.7512 174.679 25.5596C174.591 25.5202 174.492 25.554 174.448 25.6442C174.409 25.7343 174.448 25.8358 174.53 25.8809Z" fill="#565656"/>
<path d="M172.251 28.2591L171.376 26.0948L172.251 28.2591Z" fill="white"/>
<path d="M172.246 28.4003C172.19 28.4003 172.141 28.3664 172.119 28.3157L171.249 26.1514C171.221 26.0782 171.254 25.9993 171.326 25.9655C171.398 25.9373 171.48 25.9711 171.508 26.0444L172.378 28.2086C172.405 28.2819 172.372 28.3608 172.301 28.3946C172.284 28.4003 172.268 28.4003 172.246 28.4003Z" fill="#565656"/>
<path d="M138.211 86.7733C138.195 86.7733 138.178 86.7676 138.162 86.762C138.09 86.7338 138.057 86.6493 138.085 86.5816C138.123 86.4858 141.741 76.9327 141.124 70.609C141.119 70.53 141.174 70.4624 141.245 70.4568C141.322 70.4455 141.389 70.5075 141.394 70.5808C142.016 76.9665 138.371 86.5873 138.333 86.6831C138.316 86.7395 138.267 86.7733 138.211 86.7733Z" fill="#565656"/>
<path d="M154.808 69.4535C154.797 69.4535 154.791 69.4535 154.78 69.4479C154.703 69.431 154.659 69.3577 154.676 69.2788C154.687 69.2111 155.981 62.6451 153.343 56.9752C150.667 51.2264 150.728 47.4896 150.728 47.4558C150.728 47.3769 150.799 47.3149 150.871 47.3205C150.948 47.3205 151.008 47.3882 151.003 47.4671C151.003 47.5009 150.948 51.1813 153.591 56.8568C156.272 62.6169 154.962 69.2731 154.945 69.3408C154.923 69.4084 154.868 69.4535 154.808 69.4535Z" fill="#565656"/>
<path d="M58.9343 167.307L155.012 136.405C155.364 136.269 155.43 135.785 155.127 135.559L144.473 127.646C144.06 127.342 143.526 127.263 143.047 127.443L46.9694 158.346C46.617 158.481 46.5509 158.966 46.8537 159.191L57.5082 167.105C57.9211 167.409 58.4552 167.488 58.9343 167.307Z" fill="#565656"/>
<path d="M58.9343 166.518L155.012 135.616C155.364 135.48 155.43 134.996 155.127 134.77L144.473 126.857C144.06 126.553 143.526 126.474 143.047 126.654L46.9694 157.557C46.617 157.692 46.5509 158.177 46.8537 158.402L57.5082 166.315C57.9211 166.625 58.4552 166.699 58.9343 166.518Z" fill="#BCBCBC"/>
<path d="M58.4052 166.755C58.0583 166.755 57.7169 166.642 57.4251 166.428L46.7762 158.521C46.5889 158.386 46.5009 158.16 46.5284 157.929C46.5614 157.698 46.7101 157.506 46.9248 157.427L143.008 126.525C143.525 126.327 144.103 126.412 144.555 126.75L155.209 134.663C155.391 134.799 155.485 135.024 155.457 135.255C155.424 135.486 155.275 135.672 155.061 135.757L58.9778 166.659C58.7906 166.721 58.5979 166.755 58.4052 166.755ZM143.569 126.705C143.41 126.705 143.244 126.733 143.09 126.79L47.0074 157.692C46.8973 157.737 46.8147 157.839 46.7982 157.963C46.7817 158.093 46.8312 158.211 46.9303 158.29L57.5848 166.203C57.9592 166.485 58.4437 166.552 58.8787 166.389H58.8842L154.956 135.486C155.066 135.441 155.149 135.34 155.165 135.216C155.182 135.086 155.132 134.968 155.028 134.889L144.373 126.976C144.147 126.795 143.861 126.705 143.569 126.705Z" fill="#565656"/>
<path d="M222.88 128.92L208.085 140.13C208.046 140.158 208.002 140.164 207.958 140.147L178.88 128.852C178.781 128.813 178.764 128.677 178.847 128.61L193.642 117.4C193.68 117.371 193.725 117.366 193.769 117.383L222.847 128.677C222.951 128.717 222.968 128.852 222.88 128.92Z" fill="#BCBCBC"/>
<path d="M208.008 140.299C207.975 140.299 207.942 140.294 207.914 140.282L178.836 128.988C178.743 128.954 178.677 128.869 178.666 128.768C178.649 128.666 178.693 128.565 178.77 128.503L193.565 117.293C193.642 117.236 193.736 117.219 193.824 117.259L222.902 128.554C222.996 128.587 223.062 128.672 223.073 128.773C223.089 128.875 223.045 128.976 222.968 129.038L208.173 140.249C208.124 140.277 208.069 140.299 208.008 140.299ZM193.719 117.518L178.93 128.728L208.008 140.017L222.798 128.807L193.719 117.518ZM222.803 128.807L222.886 128.92L222.803 128.807Z" fill="#565656"/>
<path d="M205.034 141.505L184.078 147.068C184.023 147.085 183.962 147.062 183.935 147.012L169.465 125.206C169.409 125.127 169.454 125.014 169.547 124.991L189.188 120.24C189.237 120.229 189.292 120.246 189.325 120.291L205.106 141.285C205.167 141.364 205.128 141.477 205.034 141.505Z" fill="white"/>
<path d="M184.045 147.209C183.957 147.209 183.869 147.164 183.819 147.085L169.349 125.285C169.3 125.211 169.289 125.11 169.322 125.025C169.355 124.941 169.426 124.879 169.514 124.856L189.155 120.105C189.259 120.083 189.37 120.122 189.436 120.207L205.216 141.201C205.271 141.274 205.288 141.376 205.26 141.46C205.233 141.55 205.161 141.618 205.073 141.641L184.117 147.203C184.095 147.209 184.073 147.209 184.045 147.209ZM189.221 120.376L169.58 125.133L184.051 146.933L205.002 141.37L189.221 120.376ZM205.002 141.364L205.035 141.5L205.002 141.364Z" fill="#565656"/>
<path d="M184.794 142.942L199.562 139.268L184.794 142.942Z" fill="white"/>
<path d="M184.794 143.083C184.733 143.083 184.678 143.038 184.662 142.976C184.645 142.903 184.689 142.824 184.761 142.807L199.528 139.133C199.6 139.116 199.677 139.161 199.694 139.234C199.71 139.307 199.666 139.386 199.594 139.403L184.827 143.078C184.816 143.083 184.805 143.083 184.794 143.083Z" fill="#565656"/>
<path d="M182.371 138.676L197.139 135.001L182.371 138.676Z" fill="white"/>
<path d="M182.371 138.817C182.31 138.817 182.255 138.772 182.239 138.71C182.222 138.637 182.266 138.558 182.338 138.541L197.105 134.866C197.177 134.849 197.254 134.894 197.271 134.968C197.287 135.041 197.243 135.12 197.172 135.137L182.404 138.811C182.393 138.811 182.382 138.817 182.371 138.817Z" fill="#565656"/>
<path d="M179.591 134.68L194.358 131.005L179.591 134.68Z" fill="white"/>
<path d="M179.591 134.821C179.53 134.821 179.475 134.776 179.459 134.714C179.442 134.641 179.486 134.562 179.558 134.545L194.325 130.87C194.402 130.853 194.474 130.898 194.49 130.972C194.507 131.045 194.463 131.124 194.391 131.141L179.624 134.815C179.613 134.821 179.602 134.821 179.591 134.821Z" fill="#565656"/>
<path d="M177.08 130.318L191.848 126.643L177.08 130.318Z" fill="white"/>
<path d="M177.08 130.459C177.019 130.459 176.964 130.414 176.948 130.352C176.931 130.278 176.975 130.199 177.047 130.182L191.814 126.508C191.892 126.491 191.963 126.536 191.98 126.609C191.996 126.682 191.952 126.761 191.881 126.778L177.113 130.453C177.102 130.459 177.091 130.459 177.08 130.459Z" fill="#565656"/>
<path d="M173.975 126.378L188.742 122.703L173.975 126.378Z" fill="white"/>
<path d="M173.974 126.519C173.914 126.519 173.859 126.474 173.842 126.412C173.826 126.339 173.87 126.26 173.941 126.243L188.709 122.568C188.781 122.551 188.858 122.596 188.874 122.67C188.891 122.743 188.847 122.822 188.775 122.839L174.008 126.513C173.997 126.519 173.985 126.519 173.974 126.519Z" fill="#565656"/>
</svg>
