<svg width="1261" height="712" viewBox="0 0 1261 712" fill="none" xmlns="http://www.w3.org/2000/svg">
<g opacity="0.5">
<path d="M117.628 390.863V395.589H207.729C207.791 395.589 207.832 395.61 207.894 395.61H248.875C248.937 395.61 248.978 395.589 249.04 395.589H288.949C290.247 395.589 291.257 394.534 291.257 393.226V212.533C291.257 212.512 291.278 212.491 291.278 212.491V19.2222C291.278 17.9141 290.247 16.8591 288.97 16.8591H20.9337C20.8719 16.8591 20.8101 16.9013 20.7483 16.9013C20.501 16.9224 20.2538 16.9435 20.0271 17.049C19.8417 17.1334 19.6769 17.26 19.512 17.4077C19.4502 17.4499 19.3678 17.4921 19.2854 17.5554C18.8733 17.9774 18.6055 18.5682 18.6055 19.2222V390.863H23.2207V214.854H286.621V390.863H251.471L256.004 352.927H257.096C258.373 352.927 259.403 351.872 259.403 350.564V336.047C259.403 334.739 258.373 333.684 257.096 333.684H247.35V318.683C251.471 318.662 255.324 317.016 258.249 314.02C261.732 310.454 263.359 305.327 262.618 300.327C262.473 299.314 261.69 298.512 260.681 298.343C255.818 297.584 250.853 299.229 247.35 302.774V290.136C247.577 290.136 247.803 290.157 248.03 290.157C253.511 290.157 258.662 287.962 262.535 283.996C267.15 279.27 269.293 272.518 268.304 265.893C268.16 264.88 267.377 264.078 266.367 263.909C259.898 262.897 253.305 265.091 248.689 269.817C244.342 274.269 242.199 280.536 242.817 286.76C242.776 286.929 242.714 287.076 242.714 287.266V291.106C240.324 289.292 237.295 288.49 234.287 288.954C233.298 289.102 232.515 289.904 232.371 290.916C231.815 294.524 232.989 298.238 235.523 300.833C237.46 302.816 239.994 303.935 242.714 304.124V333.621H230.496V284.08C230.496 284.038 230.537 283.996 230.537 283.954C230.784 282.308 230.743 280.641 230.496 279.038V258.571C230.578 258.571 230.64 258.592 230.723 258.592C235.4 258.592 239.788 256.736 243.106 253.339C247.041 249.309 248.875 243.549 248.03 237.894C247.886 236.881 247.103 236.08 246.093 235.911C240.571 235.046 234.946 236.924 231.011 240.953C230.105 241.882 229.322 242.916 228.642 244.013C227.632 241.84 226.293 239.835 224.583 238.105C220.668 234.096 215.455 231.881 209.913 231.881C208.841 231.881 207.77 231.965 206.719 232.134C205.73 232.282 204.947 233.083 204.803 234.096C203.773 240.764 205.957 247.6 210.634 252.389C214.549 256.398 219.761 258.613 225.304 258.613C225.489 258.613 225.675 258.592 225.881 258.592V270.028C222.399 266.652 217.557 265.07 212.838 265.829C211.849 265.977 211.067 266.779 210.922 267.792C210.16 272.771 211.788 277.877 215.27 281.464C218.113 284.376 221.863 286 225.881 286.085V333.6H213.312V320.898C213.354 320.244 213.333 319.59 213.312 318.936V292.224C213.312 292.098 213.271 292.013 213.251 291.887C213.58 286.865 211.788 281.865 208.306 278.299C204.453 274.353 198.951 272.518 193.574 273.383C192.585 273.531 191.802 274.332 191.658 275.345C190.813 280.852 192.605 286.485 196.458 290.431C199.693 293.744 203.979 295.558 208.573 295.558C208.615 295.558 208.676 295.537 208.718 295.537V305.876C208.182 305.179 207.626 304.525 207.008 303.913C202.887 299.694 197.427 297.373 191.637 297.373C190.524 297.373 189.391 297.457 188.279 297.647C187.29 297.816 186.507 298.596 186.362 299.609C185.291 306.614 187.578 313.767 192.482 318.788C196.582 322.987 202.063 325.308 207.873 325.308C208.161 325.308 208.45 325.287 208.718 325.266V333.537H199.322C198.045 333.537 197.015 334.592 197.015 335.9V350.416C197.015 351.724 198.045 352.779 199.322 352.779H200.765L205.277 390.715H117.628V390.863ZM23.2207 210.106V21.5853H286.621V210.106H23.2207ZM250.564 306.171C252.604 304.082 255.283 302.922 258.167 302.901C258.126 305.812 256.993 308.619 254.973 310.686C252.934 312.775 250.235 313.936 247.371 313.957C247.391 311.066 248.545 308.239 250.564 306.171ZM238.82 297.541C237.79 296.487 237.13 295.094 236.945 293.638C238.387 293.828 239.706 294.503 240.757 295.579C241.808 296.655 242.467 298.006 242.652 299.483C241.189 299.272 239.85 298.596 238.82 297.541ZM251.965 273.193C255.138 269.944 259.403 268.214 263.916 268.425C264.101 272.961 262.432 277.434 259.259 280.662C256.086 283.911 251.78 285.642 247.288 285.431C247.123 280.915 248.813 276.442 251.965 273.193ZM234.308 244.35C236.801 241.797 240.139 240.468 243.641 240.489C243.683 244.034 242.343 247.515 239.871 250.047C237.419 252.558 234.122 253.929 230.681 253.908C230.702 253.296 230.661 252.706 230.64 252.094C230.97 249.203 232.247 246.439 234.308 244.35ZM213.91 249.098C210.696 245.806 208.986 241.249 209.192 236.649C213.745 236.438 218.113 238.168 221.348 241.481C224.088 244.287 225.695 248.001 226.004 251.883C225.943 252.558 225.922 253.233 225.922 253.908C221.389 254.098 217.103 252.368 213.91 249.098ZM218.546 278.194C216.527 276.126 215.393 273.32 215.352 270.429C218.216 270.45 220.895 271.611 222.934 273.699C224.459 275.261 225.489 277.265 225.901 279.417V281.443C223.12 281.337 220.524 280.219 218.546 278.194ZM208.573 290.937C205.236 290.937 202.083 289.608 199.734 287.182C197.344 284.734 196.026 281.401 196.067 277.983C199.57 277.983 202.66 279.27 205.05 281.738C207.44 284.186 208.738 287.519 208.718 290.937C208.676 290.937 208.635 290.937 208.573 290.937ZM195.737 315.581C192.296 312.058 190.483 307.163 190.73 302.247C195.593 301.972 200.291 303.829 203.752 307.374C206.699 310.391 208.429 314.421 208.718 318.62V320.708C203.855 320.94 199.178 319.084 195.737 315.581ZM201.63 338.411H254.788V348.201H201.63V338.411ZM205.421 352.927H251.368L246.835 390.863H209.933L205.421 352.927Z" fill="#F2F2F2"/>
<path d="M5.1924 411.688H18.6055V406.961H7.50004V5.48623H302.383V406.961H117.628V411.688H304.691C305.968 411.688 306.998 410.633 306.998 409.325V3.12312C306.998 1.81497 305.968 0.76001 304.691 0.76001H5.1924C3.91496 0.76001 2.88477 1.81497 2.88477 3.12312V409.325C2.88477 410.612 3.91496 411.688 5.1924 411.688Z" fill="#F2F2F2"/>
<path d="M278.462 27.5974H31.4004C30.123 27.5974 29.0928 28.6524 29.0928 29.9605V201.75C29.0928 203.058 30.123 204.113 31.4004 204.113H278.462C279.739 204.113 280.769 203.058 280.769 201.75V29.9605C280.769 28.6524 279.739 27.5974 278.462 27.5974ZM276.154 199.366H33.708V32.3236H276.154V199.366Z" fill="#F2F2F2"/>
<path d="M1055.29 320.392V424.917C1055.29 426.225 1056.32 427.28 1057.6 427.28H1219.89C1221.17 427.28 1222.2 426.225 1222.2 424.917V320.392C1222.2 319.084 1221.17 318.029 1219.89 318.029H1057.6C1056.32 318.029 1055.29 319.084 1055.29 320.392ZM1059.9 322.755H1217.59V422.554H1059.9V322.755Z" fill="#F2F2F2"/>
<path d="M1174.86 330.877H1070.29C1069.01 330.877 1067.98 331.932 1067.98 333.241V411.476C1067.98 412.784 1069.01 413.839 1070.29 413.839H1174.86C1176.13 413.839 1177.16 412.784 1177.16 411.476V333.241C1177.16 331.932 1176.11 330.877 1174.86 330.877ZM1172.55 409.134H1072.6V335.625H1172.55V409.134Z" fill="#F2F2F2"/>
<path d="M1208.58 330.877H1182.08C1180.81 330.877 1179.78 331.932 1179.78 333.241V411.476C1179.78 412.784 1180.81 413.839 1182.08 413.839H1208.58C1209.86 413.839 1210.89 412.784 1210.89 411.476V333.241C1210.89 331.932 1209.86 330.877 1208.58 330.877ZM1206.27 409.134H1184.39V335.625H1206.27V409.134Z" fill="#F2F2F2"/>
<path d="M1079.19 401.453H1165.93C1167.21 401.453 1168.24 400.398 1168.24 399.09C1168.24 397.782 1167.21 396.727 1165.93 396.727H1154.6L1156.04 396.179C1156.95 395.841 1157.55 394.955 1157.55 393.963V392.803C1157.55 391.494 1156.52 390.44 1155.24 390.44H1141.54C1140.69 389.237 1139.31 388.055 1137.38 388.055C1137.31 388.055 1137.25 388.055 1137.19 388.055C1136.76 387.296 1135.95 386.367 1134.29 386.072C1133.85 385.988 1133.52 385.903 1133.28 385.84C1132.16 385.566 1131.3 385.65 1130.27 386.03L1129.9 386.178C1129.48 385.397 1128.87 384.257 1127.53 383.646C1127.03 383.435 1126.54 383.329 1126.02 383.329C1124.54 383.329 1123.55 384.215 1122.89 384.806C1122.79 384.912 1122.69 384.996 1122.58 385.08C1122.4 385.08 1122.44 385.165 1121.9 384.933C1121.14 384.616 1119.57 384.194 1118.01 384.89C1116.94 385.376 1116.32 386.178 1115.97 386.789C1115.7 386.642 1115.49 386.473 1115.25 386.262C1114.49 385.629 1113.35 384.595 1110.74 385.101C1108.78 385.481 1107.87 386.663 1107.38 387.38C1106.06 387.211 1104.95 387.612 1104.1 388.498C1103.56 389.068 1103.24 389.743 1103.03 390.397H1089.93C1088.65 390.397 1087.62 391.452 1087.62 392.76V393.921C1087.62 394.913 1088.21 395.778 1089.12 396.136L1090.54 396.685H1079.19C1077.91 396.685 1076.88 397.74 1076.88 399.048C1076.88 400.398 1077.91 401.453 1079.19 401.453ZM1104.99 395.166C1105.6 395.166 1106.2 394.913 1106.63 394.448C1107.07 393.984 1107.29 393.372 1107.29 392.739C1107.29 392.613 1107.31 392.381 1107.36 392.17C1109.52 392.36 1110.61 390.904 1111.09 390.229C1111.37 389.807 1111.37 389.807 1111.6 389.764C1111.77 389.722 1111.91 389.722 1111.99 389.701C1112.12 389.764 1112.22 389.87 1112.34 389.975C1112.84 390.376 1113.6 391.009 1114.86 391.473C1115.43 391.684 1115.97 391.79 1116.46 391.79C1118.52 391.79 1119.37 390.207 1119.74 389.532C1119.8 389.406 1119.9 389.258 1119.82 389.216C1119.92 389.237 1120.01 389.279 1120.09 389.321C1120.56 389.532 1121.26 389.828 1122.27 389.849C1122.48 389.87 1122.69 389.87 1122.89 389.849C1124.27 389.828 1125.2 389.047 1125.84 388.477V388.498C1126.29 389.363 1127.22 391.136 1129.4 391.136C1129.88 391.136 1130.39 391.03 1130.89 390.862L1131.83 390.503C1131.92 390.482 1131.98 390.44 1132.04 390.418C1132.08 390.418 1132.12 390.44 1132.18 390.461C1132.43 390.524 1132.74 390.587 1133.26 390.714C1133.94 392.507 1135.17 393.225 1137.36 392.803C1137.5 392.845 1137.85 393.267 1137.99 393.647C1138.32 394.575 1139.19 395.187 1140.16 395.187H1145.49L1141.41 396.748H1103.73L1099.65 395.187H1104.99V395.166Z" fill="#F2F2F2"/>
<path d="M1195.34 374.974C1200.69 374.974 1205.04 370.522 1205.04 365.036C1205.04 359.55 1200.69 355.098 1195.34 355.098C1189.98 355.098 1185.63 359.55 1185.63 365.036C1185.63 370.501 1190 374.974 1195.34 374.974ZM1195.34 359.803C1198.14 359.803 1200.43 362.145 1200.43 365.015C1200.43 367.884 1198.14 370.226 1195.34 370.226C1192.54 370.226 1190.25 367.884 1190.25 365.015C1190.25 362.145 1192.54 359.803 1195.34 359.803Z" fill="#F2F2F2"/>
<path d="M1197.77 365.732C1198.8 365.732 1199.64 364.867 1199.64 363.812C1199.64 362.757 1198.8 361.892 1197.77 361.892C1196.74 361.892 1195.89 362.757 1195.89 363.812C1195.89 364.888 1196.74 365.732 1197.77 365.732Z" fill="#F2F2F2"/>
<path d="M1190.43 350.773H1200.26C1202.38 350.773 1204.09 349.001 1204.09 346.849V343.557C1204.09 341.384 1202.36 339.633 1200.26 339.633H1190.43C1188.31 339.633 1186.6 341.405 1186.6 343.557V346.849C1186.58 349.001 1188.31 350.773 1190.43 350.773ZM1191.19 344.338H1199.48V346.047H1191.19V344.338Z" fill="#F2F2F2"/>
<path d="M930.577 220.486H1092.87C1094.15 220.486 1095.18 219.431 1095.18 218.123V112.437C1095.18 111.129 1094.15 110.074 1092.87 110.074H930.577C929.3 110.074 928.27 111.129 928.27 112.437V218.123C928.29 219.431 929.32 220.486 930.577 220.486ZM932.885 114.8H1090.57V215.76H932.885V114.8Z" fill="#F2F2F2"/>
<path d="M824.815 515.515C826.093 515.515 827.123 514.461 827.123 513.152V506.991C827.123 505.683 826.093 504.628 824.815 504.628H762.633C761.355 504.628 760.325 505.683 760.325 506.991V513.152C760.325 514.461 761.355 515.515 762.633 515.515H824.815ZM764.961 509.355H822.528V510.789H764.961V509.355Z" fill="#F2F2F2"/>
<path d="M889.736 526.13H697.729C696.451 526.13 695.421 527.185 695.421 528.493V651.079C695.421 652.387 696.451 653.442 697.729 653.442H889.736C891.014 653.442 892.044 652.387 892.044 651.079V528.493C892.044 527.185 891.014 526.13 889.736 526.13ZM887.429 648.737H700.036V530.856H887.429V648.737Z" fill="#F2F2F2"/>
<path d="M323.399 421.287H325.254L328.859 403.564V375.143L325.254 357.441H323.399V421.287Z" fill="#F2F2F2"/>
<path d="M338.585 421.287H340.419L344.045 403.564V375.143L340.419 357.441H338.585V421.287Z" fill="#F2F2F2"/>
<path d="M354.284 421.287H356.139L359.744 403.564V375.143L356.139 357.441H354.284V421.287Z" fill="#F2F2F2"/>
<path d="M369.655 421.287H371.51L375.115 403.564V375.143L371.51 357.441H369.655V421.287Z" fill="#F2F2F2"/>
<path d="M384.839 421.287H386.693L390.299 401.771V370.459L386.693 350.943H384.839V421.287Z" fill="#F2F2F2"/>
<path d="M400.272 421.287H402.106L405.732 401.771V370.459L402.106 350.943H400.272V421.287Z" fill="#F2F2F2"/>
<path d="M416.218 421.288H418.052L421.678 400.379V366.81L418.052 345.901H416.218V421.288Z" fill="#F2F2F2"/>
<path d="M432.166 421.288H434L437.626 400.379V366.81L434 345.901H432.166V421.288Z" fill="#F2F2F2"/>
<path d="M967.29 462.325H1046.08C1047.36 462.325 1048.39 461.27 1048.39 459.962V452.746C1048.39 451.438 1047.36 450.383 1046.08 450.383H967.29C966.013 450.383 964.982 451.438 964.982 452.746V459.962C964.982 461.27 966.013 462.325 967.29 462.325ZM969.598 455.109H1043.77V457.599H969.598V455.109Z" fill="#F2F2F2"/>
<path d="M1087.82 429.937H931.213C929.935 429.937 928.905 430.991 928.905 432.3V709.226C928.905 710.534 929.935 711.589 931.213 711.589H1087.82C1089.1 711.589 1090.13 710.534 1090.13 709.226V432.279C1090.13 430.991 1089.1 429.937 1087.82 429.937ZM1085.52 706.842H933.5V434.642H1085.52V706.842Z" fill="#F2F2F2"/>
<path d="M1129.59 462.325H1208.38C1209.66 462.325 1210.69 461.27 1210.69 459.962V452.746C1210.69 451.438 1209.66 450.383 1208.38 450.383H1129.59C1128.31 450.383 1127.28 451.438 1127.28 452.746V459.962C1127.28 461.27 1128.33 462.325 1129.59 462.325ZM1131.9 455.109H1206.07V457.62H1131.9V455.109Z" fill="#F2F2F2"/>
<path d="M1250.12 429.937H1093.51C1092.23 429.937 1091.2 430.991 1091.2 432.3V709.226C1091.2 710.534 1092.23 711.589 1093.51 711.589H1250.12C1251.4 711.589 1252.43 710.534 1252.43 709.226V432.3C1252.43 430.991 1251.4 429.937 1250.12 429.937ZM1247.81 706.863H1095.8V434.663H1247.81V706.863Z" fill="#F2F2F2"/>
<path d="M1208.4 591.03H1129.61C1128.33 591.03 1127.3 592.085 1127.3 593.393V600.609C1127.3 601.918 1128.33 602.973 1129.61 602.973H1208.4C1209.68 602.973 1210.71 601.918 1210.71 600.609V593.393C1210.68 592.085 1209.65 591.03 1208.4 591.03ZM1206.09 598.246H1131.92V595.736H1206.09V598.246Z" fill="#F2F2F2"/>
<path d="M619.436 450.403H540.646C539.369 450.403 538.339 451.458 538.339 452.766V459.961C538.339 461.269 539.369 462.324 540.646 462.324H619.436C620.713 462.324 621.743 461.269 621.743 459.961V452.745C621.743 451.458 620.713 450.403 619.436 450.403ZM617.128 457.598H542.954V455.108H617.128V457.598Z" fill="#F2F2F2"/>
<path d="M655.533 429.937H626.09C626.09 429.642 626.11 429.367 626.069 429.072L621.392 394.997C621.165 393.393 620.259 392.022 619.002 391.136V386.578C619.167 386.832 619.352 387.064 619.579 387.275C620.527 388.287 621.866 388.878 623.246 388.878H626.502C626.564 388.878 626.708 388.878 626.893 388.857C627.202 388.836 627.491 388.794 627.717 388.73C627.903 388.688 628.068 388.646 628.253 388.583C628.418 388.541 628.562 388.477 628.686 388.414L628.954 388.266C629.077 388.203 629.201 388.119 629.324 388.034C629.324 388.034 629.324 388.034 629.345 388.013C629.634 387.823 630.004 387.549 630.252 387.232C630.334 387.169 630.581 386.832 630.643 386.747C630.643 386.726 630.664 386.726 630.664 386.726C630.746 386.621 630.829 386.515 630.89 386.388C631.117 385.988 631.385 385.481 631.57 384.764L636.907 360.394C636.927 360.247 636.948 360.12 636.968 360.014C636.989 359.867 637.01 359.719 637.01 359.55V358.938C637.01 358.812 636.989 358.559 636.968 358.453C636.927 358.221 636.865 357.947 636.804 357.778C636.783 357.715 636.762 357.651 636.742 357.567C636.598 357.103 636.371 356.639 636.041 356.153C635.98 356.027 635.876 355.9 635.794 355.795L629.757 348.642C629.53 348.368 629.304 348.136 629.015 347.904C628.129 347.207 627.017 346.806 625.842 346.806H622.958C620.135 343.874 611.955 342.776 604.229 342.439V339.274C604.229 336.911 602.354 334.97 600.026 334.97H597.636C595.328 334.97 593.432 336.89 593.432 339.274V342.46C586.736 342.798 581.544 343.874 578.969 344.485L567.286 346.806H566.503C565.226 346.806 564.195 347.861 564.195 349.169V349.338C562.444 350.182 560.796 351.933 560.796 354.908C560.796 356.09 561.641 357.082 562.774 357.25C562.794 357.25 564.216 357.525 565.02 358.559C565.246 358.854 565.638 359.466 566.132 360.268C568.378 363.812 572.416 370.226 577.114 373.033L578.886 385.144V391.157C577.629 392.043 576.723 393.414 576.496 394.997L571.51 429.072C571.469 429.367 571.469 429.663 571.469 429.958H548.207C548.227 429.747 548.269 429.536 548.269 429.325V424.937C552.369 423.882 555.418 420.063 555.418 415.547C555.418 411.032 552.369 407.213 548.269 406.158V405.504C548.269 404.196 547.239 403.141 545.961 403.141H517.425C516.147 403.141 515.117 404.196 515.117 405.504V429.325C515.117 429.536 515.158 429.747 515.179 429.958H514.066C514.087 429.747 514.128 429.536 514.128 429.325V405.504C514.128 404.196 513.098 403.141 511.82 403.141H483.284C482.007 403.141 480.976 404.196 480.976 405.504V406.158C476.876 407.213 473.827 411.032 473.827 415.547C473.827 420.063 476.876 423.882 480.976 424.937V429.325C480.976 429.536 481.018 429.747 481.038 429.958H443.518V360.162C443.518 359.255 442.797 358.516 441.911 358.516C441.025 358.516 440.304 359.255 440.304 360.162V423.502H428.045V360.162C428.045 359.255 427.344 358.516 426.458 358.516C425.572 358.516 424.851 359.255 424.851 360.162V423.502H412.592V360.162C412.592 359.255 411.871 358.516 410.985 358.516C410.099 358.516 409.378 359.255 409.378 360.162V423.502H397.118V360.162C397.118 359.255 396.397 358.516 395.511 358.516C394.625 358.516 393.904 359.255 393.904 360.162V423.502H381.645V360.162C381.645 359.255 380.924 358.516 380.038 358.516C379.152 358.516 378.431 359.255 378.431 360.162V423.502H366.171V360.162C366.171 359.255 365.45 358.516 364.564 358.516C363.678 358.516 362.957 359.255 362.957 360.162V423.502H350.698V360.162C350.698 359.255 349.977 358.516 349.091 358.516C348.205 358.516 347.484 359.255 347.484 360.162V423.502H335.224V360.162C335.224 359.255 334.503 358.516 333.617 358.516C332.731 358.516 332.01 359.255 332.01 360.162V423.502H319.916V360.162C319.916 359.255 319.194 358.516 318.309 358.516C317.423 358.516 316.701 359.255 316.701 360.162V430.359H169.94C168.745 430.359 167.776 431.351 167.776 432.575V709.206C167.776 710.43 168.745 711.421 169.94 711.421H329.352C330.547 711.421 331.516 710.43 331.516 709.206V432.575C331.516 431.351 330.547 430.359 329.352 430.359H320.019V426.983H332.113V430.887C332.113 431.794 332.834 432.532 333.72 432.532C333.926 432.532 334.132 432.49 334.318 432.406V709.206C334.318 710.514 335.348 711.569 336.625 711.569H493.236C494.513 711.569 495.543 710.514 495.543 709.206V434.642H496.615V709.206C496.615 710.514 497.645 711.569 498.922 711.569H655.533C656.81 711.569 657.84 710.514 657.84 709.206V432.279C657.84 430.992 656.789 429.937 655.533 429.937ZM519.753 407.825H543.674V408.184C543.674 409.492 544.704 410.547 545.982 410.547C548.66 410.547 550.824 412.762 550.824 415.505C550.824 418.248 548.64 420.464 545.982 420.464C544.704 420.464 543.674 421.519 543.674 422.827V429.304C543.674 429.642 543.406 429.916 543.076 429.916H520.371C520.041 429.916 519.773 429.642 519.773 429.304V407.825H519.753ZM327.189 706.99H172.103V434.79H327.189V706.99ZM583.522 387.296H614.366V390.06H583.522V387.296ZM619.723 379.721L622.36 360.479H626.069L626.213 360.669L622.34 378.392C621.351 378.54 620.444 379.025 619.723 379.721ZM626.213 351.68L632.127 358.685C632.188 358.77 632.23 358.854 632.291 358.917C632.312 358.981 632.333 359.044 632.353 359.086L627.058 383.561C627.037 383.624 626.996 383.709 626.955 383.793L626.934 383.814C626.914 383.835 626.893 383.857 626.893 383.878C626.852 383.92 626.811 383.941 626.79 383.962C626.77 383.983 626.749 383.983 626.728 384.004C626.687 384.025 626.667 384.025 626.625 384.046C626.522 384.11 626.419 384.068 626.316 384.068H623.246C623.061 384.068 622.958 383.983 622.834 383.857C622.772 383.793 622.69 383.688 622.69 383.498C622.69 383.202 622.937 382.949 623.246 382.949H624.235C625.307 382.949 626.254 382.19 626.481 381.114L630.993 360.479C631.158 359.761 630.973 359.002 630.499 358.432L628.912 356.512C628.48 355.985 627.841 355.689 627.161 355.689H623.123L623.658 351.448H625.822C625.925 351.49 626.048 351.533 626.213 351.68ZM570.026 357.672C569.408 356.681 568.934 355.942 568.646 355.563C567.925 354.613 567.039 353.959 566.235 353.516C566.359 353.474 566.503 353.432 566.668 353.432C566.977 353.432 567.265 353.368 567.554 353.242C567.636 353.199 567.719 353.136 567.801 353.094C567.966 352.988 568.131 352.904 568.275 352.756C568.357 352.672 568.399 352.566 568.481 352.482C568.584 352.334 568.708 352.208 568.77 352.039C568.811 351.933 568.831 351.807 568.873 351.68C568.914 351.533 568.976 351.406 568.996 351.258L579.958 349.085C582.739 348.41 588.508 347.249 595.905 347.081C596.647 347.06 597.368 346.764 597.78 346.131C598.192 345.498 598.316 344.802 598.048 344.085V339.696H599.572L599.634 343.895C599.366 344.612 599.449 345.414 599.881 346.047C600.294 346.68 600.994 347.081 601.736 347.102C612.079 347.355 617.621 348.853 619.208 349.739L614.696 382.633H583.213L581.523 371.155C581.4 370.374 580.596 369.551 579.896 369.214C576.146 367.399 572.004 360.816 570.026 357.672ZM576.084 429.747L581.07 395.672C581.132 395.25 581.647 394.786 582.08 394.786H615.829C616.262 394.786 616.756 395.229 616.818 395.651L621.495 429.895C621.474 429.916 621.433 429.937 621.33 429.937H576.269L576.084 429.747ZM478.483 415.505C478.483 412.762 480.647 410.547 483.325 410.547C484.603 410.547 485.633 409.492 485.633 408.184V407.825H509.554V429.283C509.554 429.621 509.286 429.895 508.956 429.895H486.23C485.901 429.895 485.633 429.621 485.633 429.283V422.806C485.633 421.497 484.603 420.443 483.325 420.443C480.647 420.464 478.483 418.248 478.483 415.505ZM440.345 426.983V429.937H428.086V426.983H440.345ZM424.892 426.983V429.937H412.633V426.983H424.892ZM409.419 426.983V429.937H397.16V426.983H409.419ZM393.966 426.983V429.937H381.707V426.983H393.966ZM378.492 426.983V429.937H366.233V426.983H378.492ZM363.04 426.983V429.937H350.78V426.983H363.04ZM335.307 430.401V427.004H347.566V429.958H336.605C336.11 429.937 335.678 430.127 335.307 430.401ZM490.907 706.864H338.892V434.663H490.907V706.864ZM653.225 706.843H501.209V434.642H576.228H621.289H653.204V706.843H653.225Z" fill="#F2F2F2"/>
<path d="M457.137 591.03H378.368C377.091 591.03 376.061 592.085 376.061 593.393V600.609C376.061 601.918 377.091 602.973 378.368 602.973H457.137C458.414 602.973 459.445 601.918 459.445 600.609V593.393C459.445 592.085 458.414 591.03 457.137 591.03ZM454.829 598.246H380.676V595.736H454.829V598.246Z" fill="#F2F2F2"/>
<path d="M378.368 462.325H457.137C458.414 462.325 459.445 461.27 459.445 459.962V452.746C459.445 451.438 458.414 450.383 457.137 450.383H378.368C377.091 450.383 376.061 451.438 376.061 452.746V459.962C376.061 461.27 377.091 462.325 378.368 462.325ZM380.676 455.109H454.829V457.62H380.676V455.109Z" fill="#F2F2F2"/>
<path d="M143.69 525.603H136.664C135.387 525.603 134.356 526.657 134.356 527.966V608.649C134.356 609.957 135.387 611.012 136.664 611.012H143.69C144.967 611.012 145.998 609.957 145.998 608.649V527.966C146.018 526.679 144.967 525.603 143.69 525.603ZM141.382 606.286H138.972V530.329H141.382V606.286Z" fill="#F2F2F2"/>
<path d="M183.744 611.012H190.77C192.048 611.012 193.078 609.957 193.078 608.649V527.966C193.078 526.657 192.048 525.603 190.77 525.603H183.744C182.467 525.603 181.437 526.657 181.437 527.966V608.649C181.437 609.957 182.467 611.012 183.744 611.012ZM186.052 530.329H188.462V606.286H186.052V530.329Z" fill="#F2F2F2"/>
<path d="M995.994 317.247V285.577H1007.64C1008.91 285.577 1009.94 284.522 1009.94 283.214V269.373C1009.94 268.065 1008.91 267.01 1007.64 267.01H899.238C897.961 267.01 896.931 268.065 896.931 269.373V283.214C896.931 284.522 897.961 285.577 899.238 285.577H909.726V317.247C909.726 318.471 910.303 319.568 911.189 320.285V356.829C905.481 358.032 901.278 363.117 901.278 369.299V389.617C901.278 396.643 906.862 402.361 913.723 402.361H922.418C929.279 402.361 934.862 396.643 934.862 389.617V369.299C934.862 363.117 930.659 358.032 924.973 356.829V320.285C925.859 319.589 926.435 318.471 926.435 317.247V285.577H945.123V317.247C945.123 318.471 945.7 319.568 946.586 320.285V358.58C940.817 362.125 937.046 369.932 937.046 378.582C937.046 383.815 938.448 388.879 940.982 392.845C941.044 392.951 941.105 393.056 941.167 393.162C944.278 397.867 948.77 400.568 953.509 400.568C958.227 400.568 962.719 397.867 965.83 393.162C965.851 393.12 965.892 393.056 965.912 393.014C968.509 389.026 969.93 383.899 969.93 378.561C969.93 369.91 966.16 362.104 960.391 358.559V320.285C961.277 319.589 961.854 318.471 961.854 317.247V285.577H979.408V317.247C979.408 318.471 979.985 319.568 980.871 320.285V358.58C976.173 361.45 972.815 367.041 971.723 373.856C971.661 374.215 971.702 374.594 971.805 374.953L981.551 405.969C981.901 407.066 982.993 407.762 984.106 407.572C985.218 407.383 986.063 406.391 986.063 405.23V376.578H989.483V405.23C989.483 406.391 990.308 407.383 991.441 407.572C991.564 407.594 991.688 407.594 991.791 407.594C992.78 407.594 993.666 406.939 993.975 405.948L1003.7 374.932C1003.8 374.573 1003.84 374.194 1003.78 373.835C1002.71 367.125 999.27 361.429 994.655 358.559V320.285C995.438 319.568 995.994 318.471 995.994 317.247ZM991.276 362.125C995.067 363.96 998.013 368.497 999.044 374.067L993.996 390.166V374.215C993.996 372.907 992.965 371.852 991.688 371.852H983.673C982.396 371.852 981.365 372.907 981.365 374.215V390.187L976.276 374.046C977.306 368.476 980.253 363.939 984.065 362.125C984.889 361.745 985.404 360.901 985.404 359.994V318.745C985.404 317.753 984.806 316.888 983.962 316.551V283.235C983.962 281.927 982.931 280.872 981.654 280.872H959.484C958.207 280.872 957.176 281.927 957.176 283.235V316.551C956.332 316.888 955.714 317.753 955.714 318.745V359.994C955.714 360.901 956.229 361.745 957.053 362.146C961.977 364.488 965.274 371.092 965.274 378.582C965.274 383.034 964.099 387.254 961.977 390.482C961.936 390.524 961.915 390.588 961.895 390.63C959.67 393.964 956.6 395.862 953.468 395.862C950.315 395.862 947.369 394.048 945.123 390.778C945.082 390.672 945.02 390.588 944.958 390.482C942.816 387.233 941.641 383.013 941.641 378.582C941.641 371.092 944.938 364.467 949.862 362.146C950.666 361.766 951.201 360.922 951.201 359.994V318.745C951.201 317.753 950.604 316.888 949.738 316.551V283.235C949.738 281.927 948.708 280.872 947.431 280.872H924.148C922.871 280.872 921.841 281.927 921.841 283.235V316.551C920.996 316.888 920.398 317.753 920.398 318.745V358.939C920.398 360.226 921.387 361.26 922.644 361.302C926.93 361.407 930.288 364.931 930.288 369.299V389.617C930.288 394.048 926.765 397.635 922.459 397.635H913.764C909.437 397.635 905.914 394.027 905.914 389.617V369.299C905.914 364.91 909.272 361.407 913.579 361.302C914.835 361.26 915.824 360.226 915.824 358.939V318.745C915.824 317.753 915.227 316.888 914.362 316.551V283.235C914.362 281.927 913.331 280.872 912.054 280.872H901.567V271.757H1005.37V280.872H993.728C992.45 280.872 991.42 281.927 991.42 283.235V316.572C990.575 316.93 989.998 317.774 989.998 318.766V360.015C989.957 360.901 990.472 361.745 991.276 362.125Z" fill="#F2F2F2"/>
<path d="M720.353 202.553H863.014C864.291 202.553 865.322 201.498 865.322 200.189V165.08C865.322 163.772 864.291 162.717 863.014 162.717H720.353C719.075 162.717 718.045 163.772 718.045 165.08V200.189C718.045 201.498 719.075 202.553 720.353 202.553ZM722.64 167.443H860.706V197.826H722.64V167.443Z" fill="#F2F2F2"/>
<path d="M930.597 109.146H1092.89C1094.17 109.146 1095.2 108.091 1095.2 106.783V2.36311C1095.2 1.05496 1094.17 0 1092.89 0H930.597C929.319 0 928.289 1.05496 928.289 2.36311V106.783C928.289 108.091 929.319 109.146 930.597 109.146ZM932.904 4.72622H1090.59V104.42H932.904V4.72622Z" fill="#F2F2F2"/>
<path d="M491.032 109.146H653.329C654.607 109.146 655.637 108.091 655.637 106.783V2.36311C655.637 1.05496 654.607 0 653.329 0H491.032C489.755 0 488.725 1.05496 488.725 2.36311V106.783C488.725 108.091 489.755 109.146 491.032 109.146ZM493.34 4.72622H651.022V104.42H493.34V4.72622V4.72622Z" fill="#F2F2F2"/>
<path d="M1258.69 0H1101.44C1100.16 0 1099.13 1.05496 1099.13 2.36311V218.123C1099.13 219.431 1100.16 220.486 1101.44 220.486H1258.69C1259.97 220.486 1261 219.431 1261 218.123V2.36311C1261 1.05496 1259.97 0 1258.69 0ZM1256.38 215.76H1103.75V4.72622H1256.38V215.76V215.76Z" fill="#F2F2F2"/>
<path d="M1079.13 121.953H944.318C943.041 121.953 942.011 123.008 942.011 124.316V205.654C942.011 206.962 943.041 208.017 944.318 208.017H1079.13C1080.41 208.017 1081.44 206.962 1081.44 205.654V124.316C1081.44 123.008 1080.41 121.953 1079.13 121.953ZM1076.84 203.29H946.647V126.679H1076.84V203.29Z" fill="#F2F2F2"/>
<path d="M491.032 221.247H653.329C654.607 221.247 655.637 220.192 655.637 218.884V113.198C655.637 111.89 654.607 110.835 653.329 110.835H491.032C489.755 110.835 488.725 111.89 488.725 113.198V218.884C488.725 220.171 489.755 221.247 491.032 221.247ZM493.34 115.561H651.022V216.521H493.34V115.561V115.561Z" fill="#F2F2F2"/>
<path d="M325.211 221.246H482.481C483.758 221.246 484.788 220.191 484.788 218.883V3.12312C484.788 1.81497 483.758 0.76001 482.481 0.76001H325.211C323.934 0.76001 322.903 1.81497 322.903 3.12312V218.883C322.903 220.191 323.934 221.246 325.211 221.246ZM327.519 5.48622H480.173V216.52H327.519V5.48622Z" fill="#F2F2F2"/>
<path d="M639.586 122.713H504.774C503.497 122.713 502.467 123.768 502.467 125.076V206.413C502.467 207.721 503.497 208.776 504.774 208.776H639.586C640.863 208.776 641.893 207.721 641.893 206.413V125.055C641.893 123.768 640.863 122.713 639.586 122.713ZM637.278 204.05H507.082V127.418H637.278V204.05Z" fill="#F2F2F2"/>
<path d="M490.621 398.395C491.899 398.395 492.929 397.34 492.929 396.031V361.218C492.929 359.91 491.899 358.855 490.621 358.855C489.344 358.855 488.313 359.91 488.313 361.218V396.031C488.313 397.319 489.344 398.395 490.621 398.395Z" fill="#F2F2F2"/>
<path d="M498.636 342.208V396.517C498.636 397.825 499.666 398.88 500.943 398.88C502.221 398.88 503.251 397.825 503.251 396.517V342.208C503.251 340.9 502.221 339.845 500.943 339.845C499.666 339.845 498.636 340.9 498.636 342.208Z" fill="#F2F2F2"/>
<path d="M526.883 397.297C528.16 397.297 529.19 396.242 529.19 394.934V378.625C529.19 377.317 528.16 376.262 526.883 376.262C525.605 376.262 524.575 377.317 524.575 378.625V394.934C524.575 396.242 525.605 397.297 526.883 397.297Z" fill="#F2F2F2"/>
<path d="M534.569 357.167V394.935C534.569 396.243 535.6 397.298 536.877 397.298C538.154 397.298 539.185 396.243 539.185 394.935V357.167C539.185 355.859 538.154 354.804 536.877 354.804C535.6 354.804 534.569 355.859 534.569 357.167Z" fill="#F2F2F2"/>
<path d="M526.491 360.121V346.154C526.491 344.846 525.461 343.791 524.184 343.791C522.906 343.791 521.876 344.846 521.876 346.154V360.121C521.876 361.43 522.906 362.485 524.184 362.485C525.461 362.485 526.491 361.43 526.491 360.121Z" fill="#F2F2F2"/>
<path d="M482.976 342.905V352.779C482.976 354.087 484.006 355.142 485.283 355.142C486.561 355.142 487.591 354.087 487.591 352.779V342.905C487.591 341.596 486.561 340.542 485.283 340.542C484.006 340.542 482.976 341.596 482.976 342.905Z" fill="#F2F2F2"/>
<path d="M910.712 371.536C909.434 371.536 908.404 372.591 908.404 373.899V389.238C908.404 390.546 909.434 391.601 910.712 391.601C911.989 391.601 913.02 390.546 913.02 389.238V373.899C913.02 372.591 911.989 371.536 910.712 371.536Z" fill="#F2F2F2"/>
<path d="M918.11 371.536C916.833 371.536 915.803 372.591 915.803 373.899V391.706C915.803 393.015 916.833 394.07 918.11 394.07C919.388 394.07 920.418 393.015 920.418 391.706V373.899C920.418 372.591 919.388 371.536 918.11 371.536Z" fill="#F2F2F2"/>
<path d="M925.509 391.601C926.786 391.601 927.816 390.546 927.816 389.238V373.899C927.816 372.591 926.786 371.536 925.509 371.536C924.231 371.536 923.201 372.591 923.201 373.899V389.238C923.201 390.546 924.231 391.601 925.509 391.601Z" fill="#F2F2F2"/>
<path d="M471.108 145.078C469.831 145.078 468.801 146.133 468.801 147.441V207.89C468.801 209.199 469.831 210.253 471.108 210.253C472.386 210.253 473.416 209.199 473.416 207.89V147.441C473.416 146.154 472.386 145.078 471.108 145.078Z" fill="#F2F2F2"/>
<path d="M1112.26 210.275C1113.54 210.275 1114.57 209.22 1114.57 207.911V147.441C1114.57 146.133 1113.54 145.078 1112.26 145.078C1110.98 145.078 1109.95 146.133 1109.95 147.441V207.89C1109.95 209.199 1110.98 210.275 1112.26 210.275Z" fill="#F2F2F2"/>
<path d="M1041.26 94.0603H982.228C980.95 94.0603 979.92 95.1153 979.92 96.4234C979.92 97.7316 980.95 98.7865 982.228 98.7865H1041.26C1042.54 98.7865 1043.57 97.7316 1043.57 96.4234C1043.57 95.1364 1042.54 94.0603 1041.26 94.0603Z" fill="#F2F2F2"/>
<path d="M601.696 94.0603H542.666C541.389 94.0603 540.358 95.1153 540.358 96.4234C540.358 97.7316 541.389 98.7865 542.666 98.7865H601.696C602.974 98.7865 604.004 97.7316 604.004 96.4234C604.004 95.1364 602.974 94.0603 601.696 94.0603Z" fill="#F2F2F2"/>
<path d="M713.161 222.955C711.884 222.955 710.854 224.01 710.854 225.318C710.854 226.626 711.884 227.681 713.161 227.681H729.438C730.716 227.681 731.746 226.626 731.746 225.318C731.746 224.01 730.716 222.955 729.438 222.955H713.161Z" fill="#F2F2F2"/>
<path d="M852.816 222.955C851.539 222.955 850.509 224.01 850.509 225.318C850.509 226.626 851.539 227.681 852.816 227.681H869.093C870.371 227.681 871.401 226.626 871.401 225.318C871.401 224.01 870.371 222.955 869.093 222.955H852.816Z" fill="#F2F2F2"/>
<path d="M354.284 568.307H474.611C475.888 568.307 476.919 567.252 476.919 565.944C476.919 564.636 475.888 563.581 474.611 563.581H354.284C353.007 563.581 351.977 564.636 351.977 565.944C351.977 567.252 353.007 568.307 354.284 568.307Z" fill="#F2F2F2"/>
<path d="M1111.64 568.307H1231.97C1233.25 568.307 1234.28 567.252 1234.28 565.944C1234.28 564.636 1233.25 563.581 1231.97 563.581H1111.64C1110.36 563.581 1109.33 564.636 1109.33 565.944C1109.35 567.252 1110.38 568.307 1111.64 568.307Z" fill="#F2F2F2"/>
<path d="M89.8531 303.765C90.2652 304.081 90.7597 304.25 91.2541 304.25C91.625 304.25 91.9753 304.166 92.3256 303.976L154.446 270.766L161.616 275.154C162.317 275.576 163.203 275.597 163.924 275.196L202.474 253.359C203.587 252.726 203.999 251.291 203.381 250.152C202.762 249.012 201.361 248.59 200.249 249.223L162.853 270.407L155.703 266.039C155.023 265.617 154.158 265.596 153.457 265.976L91.5014 299.102L34.4492 254.393C33.4396 253.591 31.9973 253.802 31.2144 254.836C30.4314 255.87 30.6375 257.347 31.6471 258.148L89.8531 303.765Z" fill="#F2F2F2"/>
<path d="M277.925 265.07C278.316 265.323 278.749 265.449 279.202 265.449C279.944 265.449 280.686 265.07 281.139 264.394C281.84 263.297 281.551 261.841 280.48 261.124L254.066 243.316C252.994 242.599 251.573 242.894 250.872 243.992C250.172 245.089 250.46 246.545 251.531 247.262L277.925 265.07Z" fill="#F2F2F2"/>
<path d="M41.6804 114.273C42.0101 114.252 42.3191 114.21 42.6488 114.146C79.5298 109.019 108.767 79.0161 113.65 41.2275C113.67 41.0587 113.691 40.911 113.712 40.7844C113.732 40.7422 113.732 40.6578 113.732 40.6156V40.5945C113.712 39.2442 112.702 38.1892 111.383 38.1892C110.394 38.1892 109.57 38.8011 109.199 39.6872C109.158 40.1092 109.117 40.5312 109.035 40.9532C104.275 76.3787 76.8925 104.504 42.3191 109.441C41.804 109.504 41.3095 109.589 40.7944 109.652C39.9909 110.032 39.4346 110.876 39.4346 111.846C39.4346 113.133 40.4236 114.188 41.6804 114.273Z" fill="#F2F2F2"/>
<path d="M101.453 98.344C100.546 97.4156 99.0835 97.4156 98.1975 98.344C97.2909 99.2723 97.2909 100.77 98.1975 101.678L158.485 163.414C158.938 163.878 159.515 164.11 160.112 164.11C160.71 164.11 161.287 163.878 161.74 163.414C162.647 162.485 162.647 160.987 161.74 160.08L101.453 98.344Z" fill="#F2F2F2"/>
<path d="M213.56 163.034C214.013 163.498 214.59 163.73 215.188 163.73C215.785 163.73 216.362 163.498 216.816 163.034C217.722 162.106 217.722 160.608 216.816 159.7L122.924 63.5303C122.017 62.6019 120.554 62.6019 119.668 63.5303C118.762 64.4586 118.762 65.9567 119.668 66.8639L213.56 163.034Z" fill="#F2F2F2"/>
<path d="M66.8601 119.463C65.9536 118.535 64.5113 118.535 63.6047 119.463C62.6982 120.392 62.6982 121.89 63.6047 122.797L103.267 163.413C103.721 163.877 104.297 164.109 104.895 164.109C105.492 164.109 106.069 163.877 106.523 163.413C107.429 162.485 107.429 160.987 106.523 160.079L66.8601 119.463Z" fill="#F2F2F2"/>
<path d="M925.527 430.085H885.226L882.156 418.164C881.888 417.13 880.982 416.413 879.931 416.413H851.353C850.653 416.413 849.973 416.75 849.54 417.32C849.108 417.89 848.943 418.628 849.108 419.345L850.2 423.945C850.426 424.916 851.23 425.633 852.198 425.738L870.33 427.68L870.391 430.106H821.292L821.354 427.68L839.486 425.738C840.454 425.633 841.257 424.916 841.484 423.945L842.597 419.345C842.762 418.649 842.617 417.89 842.164 417.32C841.731 416.75 841.051 416.413 840.351 416.413H811.794C810.743 416.413 809.837 417.13 809.569 418.164L806.499 430.085H769.473L767.599 421.118H770.071C775.16 421.118 779.302 416.877 779.302 411.665V376.029H786.74C789.892 376.029 792.447 373.412 792.447 370.184C792.447 366.956 789.871 364.319 786.74 364.319H781.795V361.956C781.795 360.647 780.764 359.593 779.487 359.593H779.302V359.529C779.302 354.318 775.16 350.077 770.071 350.077H744.213V344.739C744.213 343.431 743.183 342.376 741.905 342.376H731.727C730.45 342.376 729.419 343.431 729.419 344.739V350.077H703.562C698.472 350.077 694.331 354.318 694.331 359.529L693.857 359.593C692.58 359.593 691.55 360.647 691.55 361.956V364.319H685.739C682.587 364.319 680.032 366.956 680.032 370.184C680.032 373.412 682.587 376.029 685.739 376.029H694.331V411.665C694.331 416.877 698.472 421.118 703.562 421.118H706.323L704.448 430.085H661.53C660.335 430.085 659.366 431.077 659.366 432.3V709.206C659.366 710.43 660.335 711.421 661.53 711.421H925.527C926.722 711.421 927.691 710.43 927.691 709.206V432.3C927.691 431.077 926.722 430.085 925.527 430.085ZM854.32 421.202L854.3 421.139H878.159L880.425 429.937H875.048L874.924 425.464C874.883 424.283 874.018 423.312 872.864 423.185L854.32 421.202ZM813.607 421.139H837.446L818.902 423.185C817.748 423.312 816.862 424.283 816.842 425.464L816.718 429.937H811.341L813.607 421.139ZM759.11 423.185L744.316 421.244L744.295 421.139H762.921L764.776 429.937H761.232L761.129 425.485C761.088 424.325 760.222 423.354 759.11 423.185ZM698.988 411.686V373.687C698.988 372.379 697.957 371.324 696.68 371.324H685.78C685.162 371.324 684.668 370.817 684.668 370.184C684.668 369.551 685.162 369.045 685.78 369.045H693.898C695.176 369.045 696.206 367.99 696.206 366.682V364.319H696.701C697.978 364.319 699.008 363.264 699.008 361.956V359.529C699.008 356.934 701.069 354.803 703.623 354.803H731.789C733.066 354.803 734.097 353.748 734.097 352.44V347.102H739.68V352.44C739.68 353.748 740.71 354.803 741.988 354.803H770.153C772.688 354.803 774.769 356.913 774.769 359.529V361.956C774.769 363.264 775.799 364.319 777.076 364.319H777.262V366.682C777.262 367.99 778.292 369.045 779.569 369.045H786.822C787.419 369.045 787.935 369.551 787.935 370.184C787.935 370.796 787.44 371.324 786.822 371.324H777.076C775.799 371.324 774.769 372.379 774.769 373.687V411.686C774.769 414.282 772.708 416.413 770.153 416.413H703.644C701.069 416.413 698.988 414.282 698.988 411.686ZM729.708 421.139L714.894 423.185C713.761 423.333 712.916 424.304 712.875 425.485L712.772 429.937H709.228L711.082 421.139H729.708V421.139ZM717.449 427.616L731.913 425.717C732.902 425.591 733.685 424.831 733.891 423.84L734.426 421.139H739.598L740.134 423.84C740.319 424.831 741.123 425.591 742.091 425.717L756.555 427.616L756.617 430.085H717.407L717.449 427.616ZM923.385 706.99H663.714V434.516H705.746C705.952 434.579 706.158 434.663 706.364 434.663H715.038C715.285 434.663 715.512 434.6 715.739 434.516H758.244C758.471 434.6 758.698 434.663 758.945 434.663H767.619C767.846 434.663 768.031 434.579 768.237 434.516H807.591C807.838 434.6 808.085 434.663 808.353 434.663H818.964C819.211 434.663 819.459 434.6 819.685 434.516H872.102C872.328 434.6 872.555 434.663 872.823 434.663H883.434C883.701 434.663 883.949 434.6 884.175 434.516H923.385V706.99V706.99Z" fill="#F2F2F2"/>
<path d="M161.555 430.359H153.52V426.625C153.52 425.317 152.489 424.262 151.212 424.262H147.709C149.193 423.059 150.161 421.202 150.161 419.113C150.161 415.548 147.297 412.636 143.795 412.636C142.249 412.636 140.766 413.227 139.633 414.261H139.076C136.769 412.172 132.998 412.172 130.711 414.261H130.155C129.022 413.206 127.559 412.636 125.972 412.636C122.49 412.636 119.647 415.548 119.647 419.113C119.647 421.202 120.595 423.08 122.078 424.262H114.228C114.063 423.692 113.713 423.207 113.218 422.911V371.999C113.218 359.951 103.638 350.161 91.8934 350.161C80.1286 350.161 70.5684 359.972 70.5684 371.999V377.527C70.5684 378.835 71.5986 379.89 72.876 379.89H79.7989C81.0764 379.89 82.1066 378.835 82.1066 377.527V371.999C82.1066 366.471 86.4952 361.977 91.8934 361.977C97.2916 361.977 101.701 366.471 101.701 371.999V423.143C101.371 423.439 101.124 423.819 101 424.262H92.9236C94.4071 423.059 95.3549 421.202 95.3549 419.113C95.3549 415.548 92.5115 412.636 89.0295 412.636C87.4842 412.636 86.0007 413.227 84.8675 414.261H84.3112C82.0035 412.172 78.233 412.172 75.946 414.261H75.3897C74.2565 413.227 72.773 412.636 71.2277 412.636C67.7456 412.636 64.9023 415.548 64.9023 419.113C64.9023 421.202 65.8501 423.08 67.3336 424.262H63.7897C62.5122 424.262 61.4821 425.317 61.4821 426.625V430.359H60.5549C60.6167 430.148 60.6579 429.958 60.6579 429.747V396.875C60.6579 385.397 53.1375 379.088 49.8202 376.873V371.092C49.8202 369.784 48.79 368.729 47.5126 368.729H47.389C47.9865 367.99 48.1925 367.041 47.9453 366.091C47.3066 363.686 43.8863 362.462 42.135 362.462C40.4043 362.462 36.984 363.665 36.3453 366.091C36.098 367.041 36.3247 367.99 36.9016 368.729H36.7986C35.5211 368.729 34.4909 369.784 34.4909 371.092V376.873C31.1737 379.088 23.6533 385.397 23.6533 396.875V429.747C23.6533 429.958 23.7151 430.169 23.7563 430.359H2.16341C0.968383 430.359 0 431.351 0 432.575V709.206C0 710.43 0.968383 711.421 2.16341 711.421H161.576C162.771 711.421 163.739 710.43 163.739 709.206V432.575C163.719 431.351 162.75 430.359 161.555 430.359ZM66.0973 428.988H77.1204C78.3979 428.988 79.4281 427.933 79.4281 426.625V421.899C79.4281 421.308 79.1602 420.696 78.7893 420.274C78.3567 419.662 77.6561 419.303 76.935 419.303H74.3183C73.5559 419.303 72.8348 419.683 72.4227 420.337C72.1755 420.696 71.7222 420.928 71.2277 420.928C70.2799 420.928 69.5176 420.126 69.5176 419.113C69.5176 418.143 70.2799 417.362 71.2277 417.362C71.7428 417.362 72.2373 417.615 72.5257 418.016C72.9584 418.628 73.659 418.987 74.3801 418.987H76.935C77.6561 418.987 78.336 418.649 78.7687 418.059C79.4487 417.151 80.8291 417.151 81.509 418.059C81.9417 418.628 82.6217 418.966 83.3428 418.966H85.8977C86.6394 418.966 87.3193 418.607 87.752 417.995C88.0611 417.573 88.535 417.341 89.0501 417.341C89.9979 417.341 90.7602 418.122 90.7602 419.092C90.7602 420.105 90.0185 420.907 89.0501 420.907C88.535 420.907 88.0405 420.654 87.7314 420.232C87.2987 419.641 86.6188 419.282 85.8771 419.282H83.3222C82.6011 419.282 81.8387 419.725 81.406 420.316C81.0352 420.738 80.8291 421.308 80.8291 421.877V426.604C80.8291 427.912 81.8593 428.967 83.1368 428.967H103.205C104.462 428.967 105.471 427.954 105.513 426.688C105.986 426.245 106.296 425.612 106.296 424.916V371.999C106.296 363.855 99.8259 357.251 91.8934 357.251C83.9403 357.251 77.4913 363.876 77.4913 371.999V375.164H75.163V371.999C75.163 362.547 82.6629 354.866 91.8934 354.866C101.124 354.866 108.624 362.547 108.624 371.999V424.916C108.624 425.781 109.077 426.519 109.736 426.941C109.881 428.102 110.849 428.988 112.023 428.988H131.906C133.184 428.988 134.214 427.933 134.214 426.625V421.899C134.214 421.329 133.925 420.654 133.555 420.211C133.122 419.641 132.442 419.303 131.721 419.303H129.166C128.445 419.303 127.744 419.662 127.312 420.253C126.982 420.696 126.549 420.928 125.993 420.928C125.045 420.928 124.283 420.105 124.283 419.113C124.283 418.185 125.086 417.362 125.993 417.362C126.549 417.362 126.982 417.573 127.291 418.037C127.724 418.649 128.424 419.008 129.145 419.008H131.7C132.421 419.008 133.101 418.67 133.534 418.08C134.214 417.172 135.594 417.172 136.274 418.08C136.707 418.649 137.387 418.987 138.108 418.987H140.642C141.363 418.987 142.064 418.628 142.497 418.037C142.806 417.615 143.28 417.362 143.815 417.362C144.763 417.362 145.587 418.164 145.587 419.113C145.587 420.105 144.804 420.928 143.815 420.928C143.3 420.928 142.806 420.675 142.497 420.253C142.064 419.662 141.384 419.303 140.642 419.303H138.087C137.407 419.303 136.583 419.831 136.151 420.358C135.8 420.78 135.594 421.329 135.594 421.877V426.604C135.594 427.912 136.624 428.967 137.902 428.967H148.925V430.191H66.0973V428.988ZM28.2686 396.875C28.2686 386.283 36.3041 381.177 37.9112 380.249C38.6529 379.827 39.1062 379.046 39.1062 378.181V373.455H40.6515C41.2284 373.455 41.7641 373.244 42.1762 372.864C42.5883 373.223 43.124 373.455 43.7009 373.455H45.2256V378.202C45.2256 379.067 45.6789 379.848 46.4206 380.27C48.0277 381.198 56.0632 386.304 56.0632 396.896V429.262C55.8572 429.663 55.5481 430.085 55.3627 430.233L29.0309 430.254C28.8455 430.148 28.5158 429.705 28.2686 429.241V396.875V396.875ZM159.412 706.991H4.30622V434.79H27.7741C28.1243 434.875 28.4746 434.959 28.8661 434.959H55.4451C55.8366 434.959 56.1868 434.896 56.5371 434.79H63.0273C63.254 434.875 63.5012 434.938 63.7691 434.938H151.233C151.501 434.938 151.748 434.875 151.974 434.79H159.412V706.991Z" fill="#F2F2F2"/>
<path d="M661.218 218.862C661.218 220.086 662.187 221.077 663.382 221.077H921.075C922.27 221.077 923.238 220.086 923.238 218.862V121.067C923.321 120.835 923.382 120.603 923.382 120.329V101.382C923.382 100.073 922.352 99.0184 921.075 99.0184H839.051V2.36311C839.051 1.05496 838.02 0 836.743 0H747.714C746.436 0 745.406 1.05496 745.406 2.36311V98.9973H663.382C662.104 98.9973 661.074 100.052 661.074 101.36V120.308C661.074 120.561 661.136 120.814 661.218 121.046V218.862V218.862ZM665.545 216.667V122.692H918.932V216.667H665.545ZM750.021 4.72622H834.435V98.9973H750.021V4.72622ZM665.689 103.724H747.714H836.743H918.767V117.965H665.689V103.724Z" fill="#F2F2F2"/>
<path d="M869.094 126.616H713.143C711.948 126.616 710.979 127.608 710.979 128.831V206.962C710.979 208.185 711.948 209.177 713.143 209.177H869.094C870.289 209.177 871.257 208.185 871.257 206.962V128.831C871.257 127.608 870.289 126.616 869.094 126.616ZM866.93 204.746H715.306V131.047H866.93V204.746Z" fill="#F2F2F2"/>
<path d="M682.462 454.224C681.267 454.224 680.299 455.216 680.299 456.44V494.756C680.299 495.979 681.267 496.971 682.462 496.971H904.984C906.179 496.971 907.148 495.979 907.148 494.756V456.44C907.148 455.216 906.179 454.224 904.984 454.224H682.462ZM902.842 492.54H684.626V458.655H902.842V492.54V492.54Z" fill="#F2F2F2"/>
<path d="M709.927 489.586C717.468 489.586 723.587 483.298 723.587 475.597C723.587 467.875 717.468 461.608 709.927 461.608C702.386 461.608 696.267 467.896 696.267 475.597C696.267 483.298 702.386 489.586 709.927 489.586ZM709.927 466.018C715.078 466.018 719.281 470.322 719.281 475.597C719.281 480.872 715.078 485.176 709.927 485.176C704.776 485.176 700.573 480.872 700.573 475.597C700.573 470.301 704.776 466.018 709.927 466.018Z" fill="#F2F2F2"/>
<path d="M748.869 489.586C756.41 489.586 762.53 483.298 762.53 475.597C762.53 467.875 756.39 461.608 748.869 461.608C741.328 461.608 735.209 467.896 735.209 475.597C735.188 483.298 741.328 489.586 748.869 489.586ZM748.869 466.018C754.02 466.018 758.224 470.322 758.224 475.597C758.224 480.872 754.02 485.176 748.869 485.176C743.718 485.176 739.515 480.872 739.515 475.597C739.515 470.301 743.698 466.018 748.869 466.018Z" fill="#F2F2F2"/>
<path d="M787.789 489.586C795.33 489.586 801.45 483.298 801.45 475.597C801.45 467.875 795.31 461.608 787.789 461.608C780.248 461.608 774.129 467.896 774.129 475.597C774.129 483.298 780.248 489.586 787.789 489.586ZM787.789 466.018C792.94 466.018 797.143 470.322 797.143 475.597C797.143 480.872 792.961 485.176 787.789 485.176C782.638 485.176 778.435 480.872 778.435 475.597C778.456 470.301 782.638 466.018 787.789 466.018Z" fill="#F2F2F2"/>
<path d="M826.731 489.586C834.272 489.586 840.391 483.298 840.391 475.597C840.391 467.875 834.251 461.608 826.731 461.608C819.19 461.608 813.07 467.896 813.07 475.597C813.07 483.298 819.19 489.586 826.731 489.586ZM826.731 466.018C831.882 466.018 836.085 470.322 836.085 475.597C836.085 480.872 831.882 485.176 826.731 485.176C821.58 485.176 817.377 480.872 817.377 475.597C817.377 470.301 821.58 466.018 826.731 466.018Z" fill="#F2F2F2"/>
<path d="M880.241 489.586C887.782 489.586 893.901 483.298 893.901 475.597C893.901 467.875 887.761 461.608 880.241 461.608C872.699 461.608 866.58 467.896 866.58 475.597C866.56 483.298 872.699 489.586 880.241 489.586ZM880.241 466.018C885.392 466.018 889.595 470.322 889.595 475.597C889.595 480.872 885.392 485.176 880.241 485.176C875.09 485.176 870.886 480.872 870.886 475.597C870.886 470.301 875.069 466.018 880.241 466.018Z" fill="#F2F2F2"/>
</g>
</svg>
