<svg width="29" height="29" viewBox="0 0 29 29" fill="none" xmlns="http://www.w3.org/2000/svg">
<path d="M25.9099 13.3519L14.8053 24.4565C13.4449 25.8169 11.5998 26.5812 9.67591 26.5812C7.75202 26.5812 5.90693 25.8169 4.54653 24.4565C3.18614 23.0961 2.42188 21.251 2.42188 19.3272C2.42188 17.4033 3.18614 15.5582 4.54653 14.1978L15.6511 3.0932C16.558 2.18627 17.7881 1.67676 19.0707 1.67676C20.3533 1.67676 21.5834 2.18627 22.4903 3.0932C23.3972 4.00013 23.9067 5.23019 23.9067 6.51278C23.9067 7.79537 23.3972 9.02543 22.4903 9.93236L11.3736 21.0369C10.9202 21.4904 10.3051 21.7452 9.66382 21.7452C9.02253 21.7452 8.4075 21.4904 7.95403 21.0369C7.50057 20.5835 7.24581 19.9685 7.24581 19.3272C7.24581 18.6859 7.50057 18.0708 7.95403 17.6174L18.2128 7.3707" stroke="#FF4002" stroke-width="2" stroke-linecap="round" stroke-linejoin="round"/>
</svg>
