<svg width="59" height="59" fill="none" xmlns="http://www.w3.org/2000/svg"><ellipse cx="29.5" cy="29.936" rx="13.532" ry="13.968" fill="#fff"/><circle cx="29.5" cy="29.5" r="7.421" fill="#fff"/><path opacity=".2" d="M3.752 20.899a27.467 27.467 0 0111.741-14.89 27.152 27.152 0 0118.528-3.661 27.263 27.263 0 0116.458 9.318A27.614 27.614 0 0157 29.51a27.615 27.615 0 01-6.533 17.838 27.263 27.263 0 01-16.465 9.307 27.152 27.152 0 01-18.525-3.674 27.467 27.467 0 01-11.73-14.898" stroke="#FF4002" stroke-width="4"/><path d="M45.86 51.764A27.73 27.73 0 0129.856 57a27.734 27.734 0 01-16.085-4.981A27.516 27.516 0 013.582 38.67a27.37 27.37 0 01-.51-16.754A27.493 27.493 0 0112.43 7.98a27.719 27.719 0 0115.752-5.942 27.743 27.743 0 0116.292 4.26 27.533 27.533 0 0110.78 12.88" stroke="url(#paint0_linear_2_622)" stroke-width="4" stroke-linecap="round"/><defs><linearGradient id="paint0_linear_2_622" x1="38.167" y1="26.784" x2="43.237" y2="52.257" gradientUnits="userSpaceOnUse"><stop stop-color="#FF4002"/><stop offset="1" stop-color="#FF4002" stop-opacity="0"/></linearGradient></defs></svg>