<svg width="42" height="43" viewBox="0 0 42 43" fill="none" xmlns="http://www.w3.org/2000/svg">
<path d="M5.1582 21.9774H41.0332L38.2561 19.1336C37.0822 11.4012 31.198 5.26924 23.7018 3.90052C23.5221 2.26378 22.1814 0.984619 20.5346 0.984619C18.8877 0.984619 17.5464 2.26308 17.3673 3.89982C9.87047 5.26785 3.98424 11.4005 2.81027 19.1329L0.0332031 21.9774H5.1582ZM33.7475 18.0413H31.4269C30.6042 12.7315 28.1941 8.37198 25.0172 6.23281C29.3468 8.41326 32.6173 12.7616 33.7475 18.0413ZM19.252 10.8253V6.88919H21.8145V10.8253H25.6582V13.4494H21.8145V17.3856H19.252V13.4494H15.4082V10.8253H19.252ZM16.0492 6.23281C12.8744 8.37198 10.4622 12.7315 9.6395 18.0413H7.3189C8.44982 12.7616 11.7209 8.41326 16.0492 6.23281ZM35.9082 23.3769V24.6015C35.9082 33.2841 29.0113 40.3461 20.5332 40.3461C12.0565 40.3461 5.1582 33.2841 5.1582 24.6015V23.3769H2.5957V24.6015C2.5957 34.7305 10.642 42.9702 20.5332 42.9702C30.4245 42.9702 38.4707 34.7305 38.4707 24.6015V23.3769H35.9082Z" fill="#FF4002"/>
<path d="M15.0674 7.98239H17.8007L20.534 5.18335L23.2674 7.98239H26.0007V17.779H15.0674V7.98239Z" fill="#FF4002"/>
</svg>
