<svg width="34" height="42" viewBox="0 0 34 42" fill="none" xmlns="http://www.w3.org/2000/svg">
<path d="M31.1663 41.4604H9.91634C9.16512 41.4597 8.44489 41.1537 7.9137 40.6098C7.38251 40.0658 7.08376 39.3283 7.08301 38.559V29.8547H9.91634V38.559H31.1663V6.64314H18.4163V3.7417H31.1663C31.9176 3.74247 32.6378 4.0484 33.169 4.59236C33.7002 5.13632 33.9989 5.87387 33.9997 6.64314V38.559C33.9989 39.3283 33.7002 40.0658 33.169 40.6098C32.6378 41.1537 31.9176 41.4597 31.1663 41.4604Z" fill="#FF4002"/>
<path d="M18.4167 12.4461H28.3333V15.3475H18.4167V12.4461ZM17 19.6997H28.3333V22.6011H17V19.6997ZM15.5833 26.9533H28.3333V29.8547H15.5833V26.9533ZM7.08333 25.5026C5.20529 25.5007 3.40471 24.7358 2.07673 23.3759C0.748755 22.016 0.00187523 20.1722 0 18.249V2.29105H2.83333V18.249C2.83333 19.4032 3.2811 20.5102 4.07813 21.3264C4.87516 22.1426 5.95616 22.6011 7.08333 22.6011C8.2105 22.6011 9.29151 22.1426 10.0885 21.3264C10.8856 20.5102 11.3333 19.4032 11.3333 18.249V5.19249C11.3333 4.80774 11.1841 4.43874 10.9184 4.16668C10.6527 3.89462 10.2924 3.74177 9.91667 3.74177C9.54094 3.74177 9.18061 3.89462 8.91493 4.16668C8.64926 4.43874 8.5 4.80774 8.5 5.19249V19.6997H5.66667V5.19249C5.66667 4.03823 6.11443 2.93124 6.91146 2.11505C7.70849 1.29886 8.7895 0.840332 9.91667 0.840332C11.0438 0.840332 12.1248 1.29886 12.9219 2.11505C13.7189 2.93124 14.1667 4.03823 14.1667 5.19249V18.249C14.1648 20.1722 13.4179 22.016 12.0899 23.3759C10.762 24.7358 8.96138 25.5007 7.08333 25.5026Z" fill="#FF4002"/>
</svg>
