<svg width="25" height="24" viewBox="0 0 25 24" fill="none" xmlns="http://www.w3.org/2000/svg">
<path d="M8.41516 10.9994C9.1074 10.9994 9.78409 10.7941 10.3597 10.4095C10.9352 10.025 11.3838 9.47833 11.6487 8.83879C11.9136 8.19925 11.983 7.49551 11.8479 6.81658C11.7129 6.13765 11.3795 5.51401 10.89 5.02452C10.4006 4.53504 9.77691 4.2017 9.09798 4.06665C8.41904 3.9316 7.71531 4.00091 7.07577 4.26582C6.43623 4.53073 5.8896 4.97933 5.50502 5.5549C5.12043 6.13047 4.91516 6.80716 4.91516 7.4994C4.91516 8.42766 5.28391 9.31789 5.94029 9.97427C6.59667 10.6306 7.4869 10.9994 8.41516 10.9994ZM8.41516 5.9994C8.71183 5.9994 9.00184 6.08737 9.24852 6.25219C9.49519 6.41702 9.68745 6.65128 9.80098 6.92537C9.91451 7.19946 9.94422 7.50106 9.88634 7.79203C9.82846 8.083 9.6856 8.35028 9.47582 8.56006C9.26604 8.76984 8.99877 8.9127 8.7078 8.97058C8.41683 9.02845 8.11523 8.99875 7.84114 8.88522C7.56705 8.77169 7.33278 8.57943 7.16796 8.33275C7.00314 8.08608 6.91516 7.79607 6.91516 7.4994C6.91516 7.10157 7.0732 6.72004 7.3545 6.43874C7.63581 6.15743 8.01734 5.9994 8.41516 5.9994ZM16.4152 13.9994C15.7229 13.9994 15.0462 14.2047 14.4707 14.5893C13.8951 14.9738 13.4465 15.5205 13.1816 16.16C12.9167 16.7995 12.8474 17.5033 12.9824 18.1822C13.1175 18.8611 13.4508 19.4848 13.9403 19.9743C14.4298 20.4638 15.0534 20.7971 15.7323 20.9321C16.4113 21.0672 17.115 20.9979 17.7546 20.733C18.3941 20.4681 18.9407 20.0195 19.3253 19.4439C19.7099 18.8683 19.9152 18.1916 19.9152 17.4994C19.9152 16.5711 19.5464 15.6809 18.89 15.0245C18.2337 14.3681 17.3434 13.9994 16.4152 13.9994ZM16.4152 18.9994C16.1185 18.9994 15.8285 18.9114 15.5818 18.7466C15.3351 18.5818 15.1429 18.3475 15.0293 18.0734C14.9158 17.7993 14.8861 17.4977 14.944 17.2068C15.0019 16.9158 15.1447 16.6485 15.3545 16.4387C15.5643 16.229 15.8316 16.0861 16.1225 16.0282C16.4135 15.9703 16.7151 16 16.9892 16.1136C17.2633 16.2271 17.4975 16.4194 17.6624 16.666C17.8272 16.9127 17.9152 17.2027 17.9152 17.4994C17.9152 17.8972 17.7571 18.2788 17.4758 18.5601C17.1945 18.8414 16.813 18.9994 16.4152 18.9994ZM20.1552 4.2594C20.0725 4.17655 19.9743 4.11082 19.8662 4.06598C19.7581 4.02113 19.6422 3.99805 19.5252 3.99805C19.4081 3.99805 19.2922 4.02113 19.1841 4.06598C19.076 4.11082 18.9778 4.17655 18.8952 4.2594L4.67516 18.4794C4.51016 18.6478 4.41695 18.8736 4.41516 19.1094C4.41489 19.2856 4.46695 19.458 4.56472 19.6046C4.6625 19.7512 4.8016 19.8655 4.96439 19.9329C5.12718 20.0004 5.30634 20.018 5.47916 19.9836C5.65198 19.9491 5.81069 19.8641 5.93516 19.7394L20.1552 5.5194C20.238 5.43673 20.3037 5.33853 20.3486 5.23043C20.3934 5.12232 20.4165 5.00643 20.4165 4.8894C20.4165 4.77236 20.3934 4.65647 20.3486 4.54837C20.3037 4.44026 20.238 4.34207 20.1552 4.2594Z" fill="#FF4002"/>
</svg>
