<svg width="1445" height="525" viewBox="0 0 1445 525" fill="none" xmlns="http://www.w3.org/2000/svg">
<g opacity="0.5">
<path d="M167.97 523.6C142.775 523.6 118.746 518.583 95.8831 508.55C73.0205 498.283 53.074 483.933 36.0437 465.5C19.2466 447.067 7.23206 425.367 0 400.4L92.3838 375.9C97.2829 394.333 106.848 408.683 121.079 418.95C135.543 428.983 151.173 434 167.97 434C182.435 434 195.616 430.5 207.514 423.5C219.645 416.5 229.21 407.05 236.209 395.15C243.441 383.25 247.057 370.067 247.057 355.6C247.057 333.9 239.591 315.35 224.661 299.95C209.963 284.317 191.066 276.5 167.97 276.5C160.972 276.5 154.206 277.55 147.674 279.65C141.142 281.517 134.843 284.2 128.777 287.7L86.0849 212.8L246.357 79.8L253.355 100.1H19.5966V10.5H334.541V100.1L209.963 220.5L209.263 193.9C238.191 198.333 262.571 208.483 282.4 224.35C302.464 239.983 317.628 259.35 327.892 282.45C338.391 305.317 343.64 329.7 343.64 355.6C343.64 387.333 335.591 415.917 319.494 441.35C303.397 466.55 282.05 486.617 255.455 501.55C228.86 516.25 199.698 523.6 167.97 523.6Z" fill="white"/>
<path d="M621.365 525C584.038 525 551.377 517.183 523.382 501.55C495.387 485.917 473.574 464.1 457.944 436.1C442.313 408.1 434.498 375.433 434.498 338.1V186.9C434.498 149.567 442.313 116.9 457.944 88.9C473.574 60.9 495.387 39.0833 523.382 23.45C551.377 7.81666 584.038 0 621.365 0C658.692 0 691.353 7.81666 719.348 23.45C747.343 39.0833 769.156 60.9 784.786 88.9C800.417 116.9 808.232 149.567 808.232 186.9V338.1C808.232 375.433 800.417 408.1 784.786 436.1C769.156 464.1 747.343 485.917 719.348 501.55C691.353 517.183 658.692 525 621.365 525ZM621.365 434.7C638.162 434.7 653.326 430.733 666.857 422.8C680.388 414.867 691.119 404.133 699.051 390.6C706.983 377.067 710.949 361.9 710.949 345.1V179.2C710.949 162.4 706.983 147.233 699.051 133.7C691.119 120.167 680.388 109.433 666.857 101.5C653.326 93.5666 638.162 89.6 621.365 89.6C604.568 89.6 589.404 93.5666 575.873 101.5C562.342 109.433 551.611 120.167 543.679 133.7C535.747 147.233 531.781 162.4 531.781 179.2V345.1C531.781 361.9 535.747 377.067 543.679 390.6C551.611 404.133 562.342 414.867 575.873 422.8C589.404 430.733 604.568 434.7 621.365 434.7Z" fill="white"/>
<path d="M983.081 514.5L920.092 451.5L1361.01 10.5L1424 74.2L983.081 514.5ZM1319.02 525C1295.93 525 1274.81 519.4 1255.68 508.2C1236.79 496.767 1221.62 481.6 1210.19 462.7C1198.76 443.567 1193.04 422.333 1193.04 399C1193.04 376.133 1198.88 355.133 1210.54 336C1222.21 316.867 1237.6 301.583 1256.73 290.15C1275.86 278.717 1296.63 273 1319.02 273C1342.12 273 1363.23 278.717 1382.36 290.15C1401.49 301.35 1416.65 316.517 1427.85 335.65C1439.28 354.55 1445 375.667 1445 399C1445 422.333 1439.28 443.567 1427.85 462.7C1416.65 481.6 1401.49 496.767 1382.36 508.2C1363.23 519.4 1342.12 525 1319.02 525ZM1319.02 444.5C1327.19 444.5 1334.65 442.4 1341.42 438.2C1348.42 434 1354.02 428.517 1358.22 421.75C1362.41 414.75 1364.51 407.167 1364.51 399C1364.51 390.833 1362.41 383.367 1358.22 376.6C1354.02 369.6 1348.42 364 1341.42 359.8C1334.65 355.6 1327.19 353.5 1319.02 353.5C1310.86 353.5 1303.27 355.6 1296.28 359.8C1289.51 364 1284.03 369.6 1279.83 376.6C1275.63 383.367 1273.53 390.833 1273.53 399C1273.53 407.167 1275.63 414.75 1279.83 421.75C1284.03 428.517 1289.51 434 1296.28 438.2C1303.27 442.4 1310.86 444.5 1319.02 444.5ZM1025.07 252C1001.98 252 980.865 246.4 961.735 235.2C942.605 223.767 927.324 208.6 915.893 189.7C904.695 170.567 899.096 149.333 899.096 126C899.096 103.133 904.928 82.1333 916.593 63C928.257 43.8666 943.655 28.5833 962.785 17.15C981.915 5.71666 1002.68 0 1025.07 0C1048.17 0 1069.17 5.71666 1088.06 17.15C1107.19 28.35 1122.47 43.5167 1133.9 62.65C1145.34 81.55 1151.05 102.667 1151.05 126C1151.05 149.333 1145.34 170.567 1133.9 189.7C1122.47 208.6 1107.19 223.767 1088.06 235.2C1069.17 246.4 1048.17 252 1025.07 252ZM1025.07 171.5C1033.24 171.5 1040.7 169.4 1047.47 165.2C1054.47 161 1060.07 155.517 1064.27 148.75C1068.47 141.75 1070.57 134.167 1070.57 126C1070.57 117.833 1068.47 110.367 1064.27 103.6C1060.07 96.6 1054.47 91 1047.47 86.8C1040.7 82.6 1033.24 80.5 1025.07 80.5C1016.91 80.5 1009.33 82.6 1002.33 86.8C995.562 91 990.08 96.6 985.881 103.6C981.681 110.367 979.582 117.833 979.582 126C979.582 134.167 981.681 141.75 985.881 148.75C990.08 155.517 995.562 161 1002.33 165.2C1009.33 169.4 1016.91 171.5 1025.07 171.5Z" fill="white"/>
</g>
</svg>
