<svg width="25" height="24" viewBox="0 0 25 24" fill="none" xmlns="http://www.w3.org/2000/svg">
<g clip-path="url(#clip0_1714_150)">
<path d="M20.2344 8.07817V9.58244C20.2344 9.77674 20.1572 9.96308 20.0199 10.1005C19.8825 10.2379 19.6961 10.315 19.5018 10.315C19.3075 10.315 19.1212 10.2379 18.9838 10.1005C18.8464 9.96308 18.7692 9.77674 18.7692 9.58244V8.07817H11.1648V9.58244C11.1648 9.77674 11.0877 9.96308 10.9503 10.1005C10.8129 10.2379 10.6265 10.315 10.4322 10.315C10.2379 10.315 10.0516 10.2379 9.91421 10.1005C9.77682 9.96308 9.69963 9.77674 9.69963 9.58244V8.07817H6.11966V24H24.4249V8.07817H20.2344ZM20.7228 13.6899L13.9731 20.4445C13.8358 20.5817 13.6496 20.6587 13.4554 20.6587C13.2613 20.6587 13.0751 20.5817 12.9377 20.4445L9.35775 16.8645C9.22174 16.7265 9.1455 16.5405 9.1455 16.3468C9.1455 16.153 9.22174 15.9671 9.35775 15.8291C9.42544 15.7606 9.50605 15.7062 9.59492 15.669C9.68379 15.6319 9.77915 15.6128 9.87546 15.6128C9.97177 15.6128 10.0671 15.6319 10.156 15.669C10.2449 15.7062 10.3255 15.7606 10.3932 15.8291L13.4554 18.8865L19.6923 12.6496C19.76 12.579 19.8412 12.5227 19.931 12.4839C20.0208 12.4452 20.1174 12.4247 20.2152 12.4239C20.3131 12.423 20.4101 12.4416 20.5005 12.4788C20.591 12.5159 20.6732 12.5707 20.7422 12.64C20.8112 12.7094 20.8657 12.7918 20.9024 12.8825C20.9391 12.9731 20.9573 13.0702 20.9559 13.168C20.9546 13.2658 20.9337 13.3624 20.8945 13.452C20.8553 13.5416 20.7986 13.6225 20.7277 13.6899H20.7228ZM4.97192 24L2.48596 22.3785L0 24V8.07817H4.97192V24ZM20.2344 5.26498V8.07817H18.7692V5.26498C18.7674 4.51136 18.5423 3.77518 18.1225 3.14934C17.7027 2.5235 17.1069 2.03605 16.4103 1.7485C15.8331 1.512 15.2067 1.42121 14.5862 1.48413C13.9656 1.54705 13.3702 1.76174 12.8523 2.10926C12.3344 2.45678 11.91 2.92645 11.6165 3.4768C11.3231 4.02716 11.1696 4.64128 11.1697 5.26498V8.07817H9.70452V5.26498C9.70558 4.0852 10.1021 2.93983 10.8308 2.01196C11.5595 1.08409 12.5782 0.427286 13.7241 0.146542C14.1285 0.0480127 14.5434 -0.00118532 14.9597 2.1679e-05C16.357 1.92832e-05 17.6971 0.554407 18.6861 1.5415C19.675 2.52859 20.2318 3.86773 20.2344 5.26498Z" fill="#FF4002"/>
<path d="M17.0256 8.80586C16.8313 8.80586 16.645 8.72868 16.5076 8.59129C16.3702 8.4539 16.293 8.26756 16.293 8.07326V5.26496C16.293 4.2572 15.8927 3.29072 15.1801 2.57812C14.4675 1.86553 13.501 1.4652 12.4933 1.4652C11.4855 1.4652 10.519 1.86553 9.80646 2.57812C9.09386 3.29072 8.69353 4.2572 8.69353 5.26496V8.07326C8.69353 8.26756 8.61635 8.4539 8.47896 8.59129C8.34157 8.72868 8.15523 8.80586 7.96093 8.80586C7.76664 8.80586 7.5803 8.72868 7.44291 8.59129C7.30552 8.4539 7.22833 8.26756 7.22833 8.07326V5.26496C7.22833 3.8686 7.78303 2.52944 8.7704 1.54207C9.75777 0.554699 11.0969 0 12.4933 0C13.8896 0 15.2288 0.554699 16.2162 1.54207C17.2035 2.52944 17.7582 3.8686 17.7582 5.26496V8.07326C17.7582 8.26756 17.6811 8.4539 17.5437 8.59129C17.4063 8.72868 17.2199 8.80586 17.0256 8.80586Z" fill="#FF4002"/>
</g>
<defs>
<clipPath id="clip0_1714_150">
<rect width="24.4151" height="24" fill="white"/>
</clipPath>
</defs>
</svg>
