<svg width="68" height="68" viewBox="0 0 68 68" fill="none" xmlns="http://www.w3.org/2000/svg">
<path d="M9.46685 46.2832H6.86373C6.86514 46.2139 6.85272 46.1451 6.82719 46.0807C6.80166 46.0163 6.76353 45.9577 6.71505 45.9082C6.66656 45.8587 6.60869 45.8194 6.54482 45.7926C6.48095 45.7657 6.41237 45.7519 6.3431 45.752H1.5831V58.247C1.5817 58.48 1.62621 58.711 1.71409 58.9268C1.80197 59.1426 1.9315 59.339 2.09528 59.5047C2.25906 59.6705 2.45389 59.8024 2.66863 59.8928C2.88338 59.9833 3.11384 60.0306 3.34685 60.032H6.37498C6.44425 60.032 6.51283 60.0182 6.5767 59.9913C6.64056 59.9645 6.69844 59.9252 6.74692 59.8757C6.79541 59.8263 6.83353 59.7676 6.85906 59.7032C6.88459 59.6388 6.89702 59.57 6.8956 59.5007H9.46685C9.56263 59.5007 9.65746 59.4817 9.74582 59.4447C9.83417 59.4077 9.9143 59.3536 9.98153 59.2853C10.0488 59.2171 10.1018 59.1362 10.1374 59.0473C10.1731 58.9584 10.1908 58.8633 10.1894 58.7676V47.0163C10.1908 46.9206 10.1731 46.8255 10.1374 46.7366C10.1018 46.6477 10.0488 46.5668 9.98153 46.4986C9.9143 46.4303 9.83417 46.3762 9.74582 46.3392C9.65746 46.3022 9.56263 46.2832 9.46685 46.2832ZM4.82373 57.9707C4.82517 58.0506 4.81049 58.13 4.78056 58.2042C4.75063 58.2783 4.70608 58.3456 4.64955 58.4022C4.59302 58.4587 4.52569 58.5032 4.45156 58.5332C4.37743 58.5631 4.29803 58.5778 4.2181 58.5763H4.24998C4.17094 58.5763 4.09269 58.5606 4.0198 58.53C3.94691 58.4995 3.88084 58.4547 3.82545 58.3983C3.77005 58.3419 3.72645 58.2751 3.69718 58.2017C3.66791 58.1282 3.65356 58.0497 3.65498 57.9707V56.7063C3.65357 56.6268 3.66784 56.5478 3.69699 56.4737C3.72613 56.3997 3.76957 56.3322 3.82482 56.2749C3.88007 56.2177 3.94606 56.1719 4.01901 56.1402C4.09196 56.1085 4.17044 56.0915 4.24998 56.0901C4.33041 56.0901 4.41004 56.1061 4.48422 56.1372C4.5584 56.1683 4.62564 56.2138 4.68202 56.2712C4.7384 56.3286 4.78278 56.3966 4.81259 56.4713C4.84239 56.546 4.85701 56.6259 4.8556 56.7063L4.82373 57.9707Z" fill="#FF4002"/>
<path d="M65.4394 41.9042C64.8968 41.4512 64.2124 41.2031 63.5056 41.2031C62.7989 41.2031 62.1145 41.4512 61.5719 41.9042L53.125 48.6298C52.1066 49.4601 50.837 49.9207 49.5231 49.9367H38.7706C38.3846 49.9367 38.0143 49.7833 37.7414 49.5103C37.4684 49.2374 37.315 48.8671 37.315 48.4811C37.315 48.095 37.4684 47.7248 37.7414 47.4518C38.0143 47.1788 38.3846 47.0254 38.7706 47.0254H45.8894C46.5881 47.0328 47.2677 46.7974 47.8122 46.3595C48.3567 45.9215 48.7324 45.3082 48.875 44.6242C48.9461 44.2066 48.9253 43.7786 48.8139 43.3699C48.7025 42.9612 48.5033 42.5818 48.2301 42.258C47.957 41.9343 47.6165 41.6741 47.2324 41.4955C46.8483 41.317 46.4298 41.2244 46.0063 41.2242H31.4925C29.0463 41.2128 26.6696 42.0375 24.7563 43.5617L20.5063 46.9936H15.4913C15.1052 46.9936 14.735 47.1469 14.462 47.4199C14.189 47.6929 14.0356 48.0631 14.0356 48.4492V57.1723C14.0356 57.3635 14.0733 57.5527 14.1464 57.7294C14.2196 57.906 14.3268 58.0664 14.462 58.2016C14.5972 58.3368 14.7576 58.444 14.9342 58.5171C15.1108 58.5903 15.3001 58.6279 15.4913 58.6279H47.94C49.2583 58.6334 50.5394 58.1914 51.5738 57.3742L65.3225 46.3561C65.654 46.0914 65.9237 45.7575 66.1127 45.3777C66.3016 44.9979 66.4053 44.5814 66.4164 44.1573C66.4276 43.7332 66.3459 43.3119 66.1771 42.9227C66.0084 42.5335 65.7566 42.1859 65.4394 41.9042Z" fill="#2B2E35"/>
<path d="M38.675 7.96875C37.8659 7.96875 37.075 8.20866 36.4023 8.65814C35.7296 9.10763 35.2053 9.7465 34.8957 10.494C34.5861 11.2414 34.5051 12.0639 34.663 12.8574C34.8208 13.6509 35.2104 14.3798 35.7825 14.9519C36.3546 15.524 37.0834 15.9136 37.8769 16.0714C38.6704 16.2292 39.4929 16.1482 40.2404 15.8386C40.9879 15.529 41.6267 15.0047 42.0762 14.332C42.5257 13.6593 42.7656 12.8684 42.7656 12.0594C42.7656 10.9745 42.3346 9.93401 41.5675 9.16687C40.8003 8.39973 39.7599 7.96875 38.675 7.96875ZM38.8981 13.7169V14.1206C38.8981 14.1544 38.8847 14.1869 38.8608 14.2108C38.8368 14.2347 38.8044 14.2481 38.7706 14.2481H38.5687C38.5349 14.2481 38.5025 14.2347 38.4786 14.2108C38.4547 14.1869 38.4412 14.1544 38.4412 14.1206V13.8125C38.1959 13.7951 37.957 13.7264 37.74 13.6106C37.7141 13.597 37.6943 13.5741 37.6845 13.5466C37.6746 13.519 37.6755 13.4888 37.6869 13.4619L37.7506 13.26C37.757 13.243 37.7669 13.2276 37.7798 13.2148C37.7926 13.202 37.808 13.192 37.825 13.1856C37.8416 13.178 37.8598 13.174 37.8781 13.174C37.8964 13.174 37.9146 13.178 37.9312 13.1856C38.1348 13.3031 38.3656 13.3654 38.6006 13.3663C38.6707 13.3751 38.7418 13.3696 38.8097 13.3501C38.8776 13.3305 38.9408 13.2974 38.9955 13.2527C39.0501 13.2079 39.0951 13.1525 39.1277 13.0899C39.1603 13.0272 39.1798 12.9586 39.185 12.8881C39.185 12.6225 39.0256 12.4525 38.6112 12.2931C38.1969 12.1337 37.7081 11.8575 37.7081 11.3262C37.7085 11.1091 37.7871 10.8993 37.9295 10.7354C38.072 10.5715 38.2687 10.4644 38.4837 10.4337V9.945C38.4836 9.91295 38.4956 9.88203 38.5172 9.8584C38.5389 9.83477 38.5687 9.82017 38.6006 9.8175H38.7706C38.8044 9.8175 38.8368 9.83093 38.8608 9.85484C38.8847 9.87876 38.8981 9.91118 38.8981 9.945V10.3062C39.0979 10.3137 39.2936 10.3645 39.4719 10.455C39.4989 10.4705 39.5199 10.4946 39.5315 10.5236C39.5431 10.5525 39.5445 10.5845 39.5356 10.6144L39.4612 10.8056C39.4449 10.8377 39.4189 10.8637 39.3869 10.88H39.3125C39.136 10.7861 38.9386 10.7385 38.7387 10.7419C38.3562 10.7419 38.2181 10.965 38.2181 11.1562C38.2181 11.3475 38.3669 11.5175 38.8556 11.7194C39.3444 11.9212 39.7056 12.2719 39.7056 12.7819C39.7033 13.0081 39.621 13.2261 39.4731 13.3973C39.3253 13.5685 39.1215 13.6817 38.8981 13.7169ZM55.6006 23.2687C55.4928 22.5575 55.1309 21.9094 54.582 21.4445C54.033 20.9796 53.3343 20.7293 52.615 20.74C52.5322 20.74 52.4527 20.7721 52.3933 20.8296C52.3338 20.8871 52.299 20.9654 52.2962 21.0481V22.1106C52.2989 22.1943 52.3333 22.2739 52.3925 22.3331C52.4517 22.3923 52.5313 22.4267 52.615 22.4294C52.9103 22.4224 53.1989 22.5181 53.4314 22.7003C53.664 22.8825 53.8261 23.1397 53.89 23.4281C53.926 23.6093 53.9215 23.7962 53.8769 23.9754C53.8323 24.1546 53.7486 24.3218 53.6319 24.4649C53.5151 24.6081 53.3682 24.7237 53.2016 24.8034C53.035 24.8831 52.8528 24.9251 52.6681 24.9262H51V26.5625H52.7212C53.1353 26.5616 53.5444 26.4723 53.9212 26.3007C54.298 26.1291 54.6339 25.8791 54.9064 25.5673C55.1789 25.2556 55.3818 24.8893 55.5015 24.4929C55.6212 24.0966 55.655 23.6792 55.6006 23.2687Z" fill="#FF4002"/>
<path d="M49.64 24.9042C49.2542 23.0165 48.2259 21.3209 46.7303 20.1062C45.2347 18.8915 43.3642 18.2328 41.4375 18.2423H34.8181C34.4157 18.2539 34.0146 18.293 33.6175 18.3592C33.1527 17.8015 32.5711 17.3526 31.9139 17.0442C31.2567 16.7358 30.5398 16.5754 29.8138 16.5742H28.1563L29.1338 20.5055C28.3073 21.2745 27.6458 22.2035 27.1894 23.2361H25.6594C25.5497 23.2347 25.4407 23.2551 25.339 23.2961C25.2372 23.3371 25.1446 23.3979 25.0665 23.475C24.9884 23.5521 24.9264 23.644 24.8841 23.7452C24.8418 23.8465 24.82 23.9551 24.82 24.0648V30.7267C24.82 30.9493 24.9084 31.1628 25.0659 31.3202C25.2233 31.4777 25.4368 31.5661 25.6594 31.5661H28.1881C28.6559 32.1773 29.2025 32.7239 29.8138 33.1917V37.3886C29.8165 37.6104 29.9058 37.8223 30.0626 37.9791C30.2195 38.1359 30.4314 38.2252 30.6531 38.228H34C34.2218 38.2252 34.4337 38.1359 34.5905 37.9791C34.7473 37.8223 34.8366 37.6104 34.8394 37.3886V34.8917H41.4375V37.3886C41.4375 37.6094 41.5245 37.8213 41.6796 37.9784C41.8347 38.1355 42.0455 38.2252 42.2663 38.228H45.6875C45.9101 38.228 46.1236 38.1395 46.281 37.9821C46.4384 37.8247 46.5269 37.6112 46.5269 37.3886V33.1917C47.5477 32.4148 48.3745 31.4117 48.9423 30.2613C49.5102 29.111 49.8035 27.8446 49.7994 26.5617L49.64 24.9042ZM32.3213 26.7742C32.0834 26.7763 31.8502 26.7077 31.6514 26.5771C31.4525 26.4464 31.297 26.2597 31.2045 26.0405C31.112 25.8213 31.0867 25.5795 31.1318 25.3459C31.1769 25.1123 31.2904 24.8974 31.4579 24.7285C31.6254 24.5595 31.8393 24.4441 32.0725 24.3969C32.3057 24.3497 32.5476 24.3728 32.7676 24.4634C32.9876 24.5539 33.1758 24.7078 33.3082 24.9055C33.4406 25.1031 33.5112 25.3357 33.5113 25.5736C33.5085 25.8893 33.3826 26.1916 33.1603 26.4158C32.938 26.6401 32.637 26.7687 32.3213 26.7742ZM41.225 20.8986H36.125C35.9249 20.8986 35.7331 20.8191 35.5916 20.6776C35.4501 20.5362 35.3706 20.3443 35.3706 20.1442C35.3706 19.9441 35.4501 19.7523 35.5916 19.6108C35.7331 19.4693 35.9249 19.3898 36.125 19.3898H41.225C41.4251 19.3898 41.617 19.4693 41.7584 19.6108C41.8999 19.7523 41.9794 19.9441 41.9794 20.1442C41.9794 20.3443 41.8999 20.5362 41.7584 20.6776C41.617 20.8191 41.4251 20.8986 41.225 20.8986Z" fill="#2B2E35"/>
</svg>
