<svg width="72" height="72" viewBox="0 0 72 72" fill="none" xmlns="http://www.w3.org/2000/svg">
<path fill-rule="evenodd" clip-rule="evenodd" d="M34.3125 66.9375V60.1875H31.6484V66.9375H34.3125ZM36.0022 56.8125L36.0205 56.8126H42.0525C42.5001 56.8126 42.9293 56.9904 43.2457 57.3069C43.5622 57.6233 43.74 58.0525 43.74 58.5001V66.9375H45.1912V43.0989C45.1912 43.0612 45.1925 43.0237 45.195 42.9863V5.0625H26.8125V66.9375H28.2734V58.5C28.2734 58.0524 28.4512 57.6232 28.7677 57.3068C29.0842 56.9903 29.5134 56.8125 29.9609 56.8125H36.0022ZM37.6897 66.9375H40.365V60.1876H37.6897V66.9375ZM42.0525 70.3126L42.0708 70.3125H46.8604L46.8787 70.3126H68.625C69.0726 70.3126 69.5018 70.1348 69.8182 69.8183C70.1347 69.5019 70.3125 69.0727 70.3125 68.6251V43.0989C70.3125 42.6513 70.1347 42.2221 69.8182 41.9056C69.5018 41.5891 69.0726 41.4114 68.625 41.4114H48.57V3.375C48.57 2.92745 48.3922 2.49822 48.0757 2.18176C47.7593 1.86529 47.3301 1.6875 46.8825 1.6875H25.125C24.6774 1.6875 24.2482 1.86529 23.9318 2.18176C23.6153 2.49822 23.4375 2.92745 23.4375 3.375V29.4639L3.99375 21.7689C3.73738 21.6707 3.46104 21.6361 3.18839 21.6681C2.91573 21.7 2.65488 21.7976 2.42818 21.9524C2.20148 22.1072 2.01568 22.3147 1.88668 22.557C1.75769 22.7994 1.68934 23.0693 1.6875 23.3438V68.6251C1.6875 69.0727 1.86529 69.5019 2.18176 69.8183C2.49822 70.1348 2.92745 70.3126 3.375 70.3126H25.1213L25.1396 70.3125H29.9609H35.9817L36 70.3126H42.0525ZM66.9375 66.9376H48.57V44.7864H66.9375V66.9376ZM5.0625 66.9376H23.4338V33.0638L5.0625 25.8751V66.9376ZM9.46875 51.2999H19.0312C19.4788 51.2999 19.908 51.1221 20.2245 50.8056C20.541 50.4892 20.7188 50.0599 20.7188 49.6124C20.7188 49.1648 20.541 48.7356 20.2245 48.4191C19.908 48.1027 19.4788 47.9249 19.0312 47.9249H9.46875C9.0212 47.9249 8.59197 48.1027 8.27551 48.4191C7.95904 48.7356 7.78125 49.1648 7.78125 49.6124C7.78125 50.0599 7.95904 50.4892 8.27551 50.8056C8.59197 51.1221 9.0212 51.2999 9.46875 51.2999ZM9.46875 43.3011H19.0312C19.4788 43.3011 19.908 43.1233 20.2245 42.8069C20.541 42.4904 20.7188 42.0612 20.7188 41.6136C20.7188 41.1661 20.541 40.7369 20.2245 40.4204C19.908 40.1039 19.4788 39.9261 19.0312 39.9261H9.46875C9.0212 39.9261 8.59197 40.1039 8.27551 40.4204C7.95904 40.7369 7.78125 41.1661 7.78125 41.6136C7.78125 42.0612 7.95904 42.4904 8.27551 42.8069C8.59197 43.1233 9.0212 43.3011 9.46875 43.3011ZM31.215 11.3174H40.7775C41.2251 11.3174 41.6543 11.1396 41.9707 10.8231C42.2872 10.5067 42.465 10.0774 42.465 9.62988C42.465 9.18233 42.2872 8.75311 41.9707 8.43664C41.6543 8.12017 41.2251 7.94238 40.7775 7.94238H31.215C30.7674 7.94238 30.3382 8.12017 30.0218 8.43664C29.7053 8.75311 29.5275 9.18233 29.5275 9.62988C29.5275 10.0774 29.7053 10.5067 30.0218 10.8231C30.3382 11.1396 30.7674 11.3174 31.215 11.3174ZM31.215 27.3036H40.7775C41.2251 27.3036 41.6543 27.1258 41.9707 26.8094C42.2872 26.4929 42.465 26.0637 42.465 25.6161C42.465 25.1686 42.2872 24.7394 41.9707 24.4229C41.6543 24.1064 41.2251 23.9286 40.7775 23.9286H31.215C30.7674 23.9286 30.3382 24.1064 30.0218 24.4229C29.7053 24.7394 29.5275 25.1686 29.5275 25.6161C29.5275 26.0637 29.7053 26.4929 30.0218 26.8094C30.3382 27.1258 30.7674 27.3036 31.215 27.3036ZM31.215 19.3161H40.7775C41.2251 19.3161 41.6543 19.1383 41.9707 18.8219C42.2872 18.5054 42.465 18.0762 42.465 17.6286C42.465 17.1811 42.2872 16.7519 41.9707 16.4354C41.6543 16.1189 41.2251 15.9411 40.7775 15.9411H31.215C30.7674 15.9411 30.3382 16.1189 30.0218 16.4354C29.7053 16.7519 29.5275 17.1811 29.5275 17.6286C29.5275 18.0762 29.7053 18.5054 30.0218 18.8219C30.3382 19.1383 30.7674 19.3161 31.215 19.3161ZM31.215 43.3011H40.7775C41.2251 43.3011 41.6543 43.1233 41.9707 42.8069C42.2872 42.4904 42.465 42.0612 42.465 41.6136C42.465 41.1661 42.2872 40.7369 41.9707 40.4204C41.6543 40.1039 41.2251 39.9261 40.7775 39.9261H31.215C30.7674 39.9261 30.3382 40.1039 30.0218 40.4204C29.7053 40.7369 29.5275 41.1661 29.5275 41.6136C29.5275 42.0612 29.7053 42.4904 30.0218 42.8069C30.3382 43.1233 30.7674 43.3011 31.215 43.3011ZM31.215 51.2999H40.7775C41.2251 51.2999 41.6543 51.1221 41.9707 50.8056C42.2872 50.4892 42.465 50.0599 42.465 49.6124C42.465 49.1648 42.2872 48.7356 41.9707 48.4191C41.6543 48.1027 41.2251 47.9249 40.7775 47.9249H31.215C30.7674 47.9249 30.3382 48.1027 30.0218 48.4191C29.7053 48.7356 29.5275 49.1648 29.5275 49.6124C29.5275 50.0599 29.7053 50.4892 30.0218 50.8056C30.3382 51.1221 30.7674 51.2999 31.215 51.2999ZM52.9613 51.2999H62.5238C62.9713 51.2999 63.4005 51.1221 63.717 50.8056C64.0335 50.4892 64.2113 50.0599 64.2113 49.6124C64.2113 49.1648 64.0335 48.7356 63.717 48.4191C63.4005 48.1027 62.9713 47.9249 62.5238 47.9249H52.9613C52.5137 47.9249 52.0845 48.1027 51.768 48.4191C51.4515 48.7356 51.2738 49.1648 51.2738 49.6124C51.2738 50.0599 51.4515 50.4892 51.768 50.8056C52.0845 51.1221 52.5137 51.2999 52.9613 51.2999ZM31.215 35.3024H40.7775C41.2251 35.3024 41.6543 35.1246 41.9707 34.8081C42.2872 34.4917 42.465 34.0624 42.465 33.6149C42.465 33.1673 42.2872 32.7381 41.9707 32.4216C41.6543 32.1052 41.2251 31.9274 40.7775 31.9274H31.215C30.7674 31.9274 30.3382 32.1052 30.0218 32.4216C29.7053 32.7381 29.5275 33.1673 29.5275 33.6149C29.5275 34.0624 29.7053 34.4917 30.0218 34.8081C30.3382 35.1246 30.7674 35.3024 31.215 35.3024Z" fill="#2B2E35" fill-opacity="0.1"/>
</svg>
