<svg width="85" height="85" viewBox="0 0 85 85" fill="none" xmlns="http://www.w3.org/2000/svg">
<path d="M57.9707 55.5821C55.7295 54.8018 53.3057 54.752 51.0645 53.9717C50.3838 53.7393 49.0391 53.4571 48.7568 52.6768C48.4912 51.9131 48.4912 51.0166 48.4414 50.2198C48.4082 49.5889 48.3916 48.958 48.3916 48.3272C48.3916 47.9122 49.4541 47.0323 49.6865 46.6504C50.583 45.1563 50.666 43.1475 50.832 41.4541C52.2764 41.8526 52.459 39.1797 52.708 38.3663C52.8906 37.8018 54.0029 33.917 52.2764 34.4483C52.6914 33.7178 52.8574 32.8213 52.9736 32.0079C53.3057 29.8829 53.4385 27.5586 52.791 25.4834C51.4463 21.167 47.3125 18.7432 42.9463 18.6104C38.5137 18.461 34.0645 20.586 32.4043 24.8858C31.6074 26.9776 31.6738 29.252 31.9395 31.4434C32.0557 32.4395 32.2217 33.5518 32.7197 34.4483C31.1094 33.9668 31.9727 37.3868 32.1553 37.9844C32.4209 38.8311 32.6533 41.8692 34.1641 41.4541C34.2969 42.7989 34.4463 44.1768 34.8115 45.4883C35.0605 46.3682 35.5752 47.1153 36.1728 47.7959C36.4717 48.128 36.6211 48.1612 36.6045 48.5928C36.5879 49.8877 36.6211 51.2823 36.2891 52.544C35.957 53.8057 33.1846 54.337 32.0723 54.5694C29.084 55.1836 26.3281 55.4659 23.8379 57.3252C20.9326 59.4668 19.4219 62.8038 19.4219 66.4063H65.5742C65.5742 61.5088 62.6191 57.1924 57.9707 55.5821C59.8467 56.2295 56.1113 54.9346 57.9707 55.5821ZM24.4189 60.3633C25.3486 59.3838 26.5273 58.5205 27.8057 58.0391C29.5488 57.375 31.5244 57.4082 33.334 56.9434C34.8281 56.5616 36.6875 55.9639 37.8496 54.8848C38.9121 53.8887 39.0283 52.3614 39.1279 50.9834C39.2109 49.8213 39.1943 48.6758 39.1943 47.5137C39.1943 46.7002 38.248 46.2354 37.7832 45.5879C37.0361 44.5752 37.0029 43.0645 36.8535 41.8526C36.7871 41.3213 36.7705 40.6407 36.3223 40.2754C35.8242 39.877 35.459 39.6612 35.21 39.0303C34.8779 38.167 34.7617 37.2373 34.4961 36.3409C34.3301 35.7598 34.9111 35.212 35.1436 34.7305C35.5752 33.8506 34.8281 32.4893 34.6787 31.5762C34.2139 28.8536 34.2305 25.8819 36.1895 23.7237C40.124 19.3741 49.1387 20.752 50.4336 26.8614C50.832 28.7705 50.583 30.9952 50.0518 32.8545C49.8193 33.6514 49.5537 34.2325 50.0186 35.0127C50.7158 36.1416 50.417 36.8721 50.085 38.1338C49.8193 39.1797 49.4873 39.6446 48.6904 40.292C48.0264 40.8233 48.126 42.1514 48.0098 42.9151C47.877 43.8448 47.7939 44.8243 47.2295 45.6045C47.0137 45.9034 45.835 46.833 45.835 47.1485C45.835 48.9747 45.752 50.834 46.0674 52.6436C46.499 55.2168 48.6572 55.8311 50.8154 56.711C53.0068 57.5577 55.5469 57.2422 57.6719 58.2881C59.8633 59.3672 61.9717 61.3428 62.6025 63.7832H22.4102C22.7256 62.4053 23.4893 61.3594 24.4189 60.3633C23.4395 61.4092 25.9463 58.753 24.4189 60.3633Z" fill="#2B2E35" fill-opacity="0.1"/>
<path d="M23.9229 53.457C25.085 52.876 26.3467 52.7432 27.625 52.6103C28.0898 52.5605 28.3057 52.2451 27.957 51.7969C27.293 50.9502 25.002 50.7842 24.0391 50.4023C23.4414 50.1699 23.2754 49.9541 23.2256 49.29C23.209 48.9912 23.043 47.6631 23.2754 47.4473C23.4414 47.2812 24.4873 47.3477 24.7197 47.3145C25.666 47.1982 26.6289 46.999 27.5254 46.6504C27.9072 46.501 28.2725 46.3184 28.6045 46.0859C29.0029 45.7871 28.3057 45.0566 28.123 44.6582C27.5586 43.4131 27.3096 42.0518 27.2266 40.6904C27.0605 38.0176 27.4756 35.3281 26.9775 32.6719C26.2305 28.6045 23.0928 26.5625 19.0918 26.5625C16.6182 26.5625 14.1777 27.4092 12.7998 29.5674C11.2725 31.9414 11.3555 34.8965 11.4385 37.6025C11.4883 39.1465 11.5547 40.707 11.3389 42.251C11.2393 42.915 11.0898 43.5625 10.8574 44.1934C10.6748 44.6748 9.74512 45.8701 10.1104 46.1191C11.4883 47.0986 13.8125 47.4307 15.4727 47.2978C15.5225 48.1113 15.6719 49.1572 15.373 49.9209C14.9082 51.1162 11.4385 51.4316 10.3926 51.7803C7.4707 52.7598 5.3125 55.2002 5.3125 58.4375H18.5107C18.7266 58.4375 19.5566 56.8936 19.7891 56.6445C20.9512 55.3496 22.3789 54.2373 23.9229 53.457C25.417 52.71 21.499 54.6855 23.9229 53.457ZM17.0664 55.7812H8.94824C10.127 53.8223 13.082 53.9551 15.0244 53.2578C16.8174 52.6103 17.9629 51.5146 18.1455 49.6055C18.1621 49.3896 18.1787 44.7578 17.9961 44.7578C16.5518 44.708 15.041 44.7412 13.5967 44.5254C14.7422 40.8232 13.6465 37.0049 14.2607 33.2695C14.709 30.5635 16.4355 29.0693 19.1914 29.0693C21.8311 29.0693 23.79 30.2979 24.3545 32.9541C25.1514 36.8057 24.0225 40.7402 25.251 44.5586C24.3379 44.791 23.375 44.8242 22.4287 44.8574C21.9639 44.874 21.4824 44.8906 21.0176 44.9072C20.7188 44.9238 20.8184 45.4385 20.8018 45.6875C20.6357 47.4971 19.9717 50.3525 21.416 51.8135C19.8223 52.8096 18.0957 54.1875 17.0664 55.7812Z" fill="#2B2E35" fill-opacity="0.1"/>
<path d="M66.3726 58.4375H79.687C79.687 55.2002 77.5122 52.7432 74.5903 51.7803C73.2456 51.3486 70.6558 51.2158 69.6929 50.0537C69.2114 49.4726 69.477 47.9951 69.5269 47.2978C70.2573 47.3642 71.0542 47.248 71.8013 47.1484C72.4819 47.0488 73.146 46.916 73.7935 46.6836C74.0923 46.5674 74.3911 46.4512 74.6733 46.2851C75.3208 45.9033 75.022 45.8369 74.6899 45.2725C72.8804 42.2344 73.6938 38.3828 73.6108 35.0459C73.5444 32.2734 72.814 29.2353 70.2905 27.6748C68.0161 26.2637 64.646 26.2139 62.2056 27.2099C55.1665 30.0322 59.3169 39.3623 56.9097 44.708C56.4946 45.6045 55.897 45.9199 56.9429 46.4512C57.5239 46.75 58.1548 46.9492 58.7856 47.0986C59.7485 47.331 60.7446 47.4639 61.7407 47.4971C61.9067 47.4971 61.7905 49.5889 61.7407 49.8047C61.5581 50.6182 59.7817 50.8506 59.1177 51.0332C58.437 51.2158 57.3081 51.2656 56.9761 51.9795C56.478 53.042 58.6196 52.7764 59.1509 52.876C60.8608 53.1914 62.3716 54.1377 63.6997 55.2168C64.6792 56.0137 66.0073 57.1426 66.3726 58.4375ZM66.3062 53.9385C65.4595 53.1582 64.5796 52.3945 63.6001 51.7803C65.061 50.3193 64.3804 47.4805 64.2144 45.6543C64.1147 44.6084 63.8823 44.874 62.8364 44.8408C61.8403 44.8076 60.7114 44.8574 59.7651 44.542C60.9604 40.8398 59.981 37.0381 60.5952 33.2695C61.0601 30.4307 63.0024 29.0361 65.8247 29.0361C68.3813 29.0361 70.1411 30.3144 70.6724 32.8545C71.4858 36.6894 70.2407 40.6572 71.4194 44.4756C70.0083 44.6914 68.5474 44.6416 67.1196 44.6914C66.771 44.708 66.8042 48.8584 66.8374 49.2236C66.9536 51.166 67.8501 52.3447 69.6929 53.0918C71.7017 53.9053 74.8394 53.6894 76.0679 55.7314H68.647C67.4683 55.748 67.1694 54.7187 66.3062 53.9385C66.9702 54.5361 65.4761 53.1748 66.3062 53.9385Z" fill="#2B2E35" fill-opacity="0.1"/>
</svg>
