<svg width="72" height="72" viewBox="0 0 72 72" fill="none" xmlns="http://www.w3.org/2000/svg">
<path d="M61.875 57.375H10.125C9.23019 57.376 8.37232 57.7319 7.73959 58.3646C7.10687 58.9973 6.75098 59.8552 6.75 60.75V66.375C6.75098 67.2698 7.10687 68.1277 7.73959 68.7604C8.37232 69.3931 9.23019 69.749 10.125 69.75H61.875C62.7698 69.749 63.6277 69.3931 64.2604 68.7604C64.8931 68.1277 65.249 67.2698 65.25 66.375V60.75C65.249 59.8552 64.8931 58.9973 64.2604 58.3646C63.6277 57.7319 62.7698 57.376 61.875 57.375ZM63 66.375C62.9997 66.6733 62.8811 66.9593 62.6702 67.1702C62.4593 67.3811 62.1733 67.4997 61.875 67.5H10.125C9.82672 67.4997 9.54075 67.3811 9.32983 67.1702C9.11892 66.9593 9.0003 66.6733 9 66.375V60.75C9.0003 60.4517 9.11892 60.1657 9.32983 59.9548C9.54075 59.7439 9.82672 59.6253 10.125 59.625H61.875C62.1733 59.6253 62.4593 59.7439 62.6702 59.9548C62.8811 60.1657 62.9997 60.4517 63 60.75V66.375ZM61.875 34.875H10.125C9.23019 34.876 8.37232 35.2319 7.73959 35.8646C7.10687 36.4973 6.75098 37.3552 6.75 38.25V50.625C6.75098 51.5198 7.10687 52.3777 7.73959 53.0104C8.37232 53.6431 9.23019 53.999 10.125 54H61.875C62.7698 53.999 63.6277 53.6431 64.2604 53.0104C64.8931 52.3777 65.249 51.5198 65.25 50.625V38.25C65.249 37.3552 64.8931 36.4973 64.2604 35.8646C63.6277 35.2319 62.7698 34.876 61.875 34.875ZM63 50.625C62.9997 50.9233 62.8811 51.2093 62.6702 51.4202C62.4593 51.6311 62.1733 51.7497 61.875 51.75H10.125C9.82672 51.7497 9.54075 51.6311 9.32983 51.4202C9.11892 51.2093 9.0003 50.9233 9 50.625V38.25C9.0003 37.9517 9.11892 37.6657 9.32983 37.4548C9.54075 37.2439 9.82672 37.1253 10.125 37.125H61.875C62.1733 37.1253 62.4593 37.2439 62.6702 37.4548C62.8811 37.6657 62.9997 37.9517 63 38.25V50.625ZM61.875 2.25H10.125C9.23019 2.25098 8.37232 2.60687 7.73959 3.23959C7.10687 3.87232 6.75098 4.73019 6.75 5.625V28.125C6.75098 29.0198 7.10687 29.8777 7.73959 30.5104C8.37232 31.1431 9.23019 31.499 10.125 31.5H61.875C62.7698 31.499 63.6277 31.1431 64.2604 30.5104C64.8931 29.8777 65.249 29.0198 65.25 28.125V5.625C65.249 4.73019 64.8931 3.87232 64.2604 3.23959C63.6277 2.60687 62.7698 2.25098 61.875 2.25ZM63 28.125C62.9997 28.4233 62.8811 28.7093 62.6702 28.9202C62.4593 29.1311 62.1733 29.2497 61.875 29.25H10.125C9.82672 29.2497 9.54075 29.1311 9.32983 28.9202C9.11892 28.7093 9.0003 28.4233 9 28.125V5.625C9.0003 5.32672 9.11892 5.04075 9.32983 4.82983C9.54075 4.61892 9.82672 4.5003 10.125 4.5H61.875C62.1733 4.5003 62.4593 4.61892 62.6702 4.82983C62.8811 5.04075 62.9997 5.32672 63 5.625V28.125Z" fill="#2B2E35" fill-opacity="0.1"/>
<path d="M40.3627 9.70744L33.1864 16.8837L31.6352 15.3324C30.9994 14.7136 30.1455 14.37 29.2584 14.376C28.3712 14.382 27.522 14.7371 26.8947 15.3645C26.2674 15.9919 25.9123 16.841 25.9063 17.7282C25.9004 18.6154 26.244 19.4692 26.8628 20.105L30.8002 24.0424C31.4351 24.6715 32.2927 25.0245 33.1865 25.0245C34.0802 25.0245 34.9378 24.6715 35.5727 24.0424L45.1352 14.4799C45.7567 13.8447 46.1026 12.99 46.0977 12.1013C46.0929 11.2126 45.7377 10.3617 45.1093 9.73334C44.4809 9.10494 43.63 8.74977 42.7413 8.74492C41.8527 8.74008 40.9979 9.08594 40.3627 9.70744ZM43.5443 12.889L33.9818 22.4515C33.7673 22.6557 33.4825 22.7696 33.1864 22.7696C32.8903 22.7696 32.6055 22.6557 32.391 22.4515L28.4535 18.514C28.2447 18.3026 28.1281 18.0172 28.129 17.7201C28.13 17.423 28.2484 17.1383 28.4585 16.9283C28.6686 16.7182 28.9533 16.5997 29.2504 16.5988C29.5475 16.5979 29.8329 16.7145 30.0443 16.9233L32.3911 19.2699C32.4955 19.3744 32.6195 19.4573 32.756 19.5139C32.8925 19.5704 33.0387 19.5995 33.1865 19.5995C33.3342 19.5995 33.4805 19.5704 33.617 19.5139C33.7535 19.4573 33.8775 19.3744 33.9819 19.2699L41.9536 11.2983C42.1661 11.0949 42.4497 10.9829 42.7438 10.9861C43.0379 10.9893 43.3191 11.1076 43.527 11.3156C43.735 11.5235 43.8533 11.8047 43.8565 12.0988C43.8597 12.3929 43.7477 12.6766 43.5443 12.889Z" fill="#2B2E35" fill-opacity="0.1"/>
</svg>
