<svg width="72" height="72" viewBox="0 0 72 72" fill="none" xmlns="http://www.w3.org/2000/svg">
<path d="M19.4112 47.9592C19.467 48.2393 19.4394 48.5297 19.332 48.7944C19.26 48.9672 19.152 49.1256 19.0152 49.2552C18.7488 49.5288 18.3816 49.68 18 49.68C17.6112 49.68 17.2512 49.5288 16.9848 49.2552C16.8157 49.0895 16.6908 48.8841 16.6216 48.6576C16.5525 48.4312 16.5412 48.1911 16.5888 47.9592C16.6032 47.8656 16.632 47.772 16.668 47.6856C16.704 47.5992 16.7544 47.52 16.8048 47.4408C16.8552 47.3616 16.9128 47.2896 16.9848 47.2248C17.5176 46.6848 18.4824 46.6848 19.0152 47.2248C19.0872 47.2896 19.1448 47.3616 19.1952 47.4408C19.2456 47.52 19.296 47.5992 19.332 47.6856C19.368 47.772 19.3968 47.8656 19.4112 47.9592ZM68.4 42.48V64.08C68.4 64.872 67.752 65.52 66.96 65.52H5.04C4.248 65.52 3.6 64.872 3.6 64.08V42.48C3.6 41.688 4.248 41.04 5.04 41.04H16.56V38.16C16.56 37.368 17.208 36.72 18 36.72C18.792 36.72 19.44 37.368 19.44 38.16V41.04H22.32V35.28C22.32 34.488 22.968 33.84 23.76 33.84C24.552 33.84 25.2 34.488 25.2 35.28V41.04H28.08V38.16C28.08 37.368 28.728 36.72 29.52 36.72C30.312 36.72 30.96 37.368 30.96 38.16V41.04H66.96C67.752 41.04 68.4 41.688 68.4 42.48ZM6.48 62.64H22.32V43.92H6.48V62.64ZM25.2 62.64H41.04V43.92H25.2V62.64ZM65.52 43.92H43.92V62.64H65.52V43.92ZM30.852 47.6856C30.816 47.5992 30.7728 47.52 30.7152 47.4408C30.6648 47.3616 30.6072 47.2896 30.5424 47.2248C30.3404 47.0243 30.084 46.8875 29.8051 46.8312C29.5261 46.7749 29.2368 46.8016 28.9728 46.908C28.8792 46.944 28.8 46.9944 28.7208 47.0448C28.5614 47.1461 28.4262 47.2813 28.3248 47.4408C28.2744 47.52 28.224 47.5992 28.188 47.6856C28.152 47.772 28.1232 47.8656 28.1088 47.9592C28.0623 48.1905 28.0735 48.4297 28.1413 48.6558C28.2091 48.8818 28.3315 49.0876 28.4976 49.2552C28.6344 49.392 28.7928 49.5 28.9656 49.572C29.1456 49.644 29.3256 49.68 29.52 49.68C29.7144 49.68 29.8944 49.644 30.0744 49.572C30.2472 49.5 30.4056 49.392 30.5424 49.2552C30.7085 49.0876 30.8309 48.8818 30.8987 48.6558C30.9665 48.4297 30.9776 48.1905 30.9312 47.9592C30.9168 47.8656 30.888 47.772 30.852 47.6856ZM48.24 49.68H61.2C61.992 49.68 62.64 49.032 62.64 48.24C62.64 47.448 61.992 46.8 61.2 46.8H48.24C47.448 46.8 46.8 47.448 46.8 48.24C46.8 49.032 47.448 49.68 48.24 49.68ZM18.7992 12.4848C18.72 12.4344 18.6408 12.384 18.5544 12.348C18.468 12.312 18.3744 12.2904 18.2808 12.2688C18.0029 12.2151 17.7155 12.2426 17.4528 12.348C17.3592 12.384 17.28 12.4344 17.2008 12.4848C17.1216 12.5352 17.0496 12.5928 16.9848 12.6648C16.9128 12.7296 16.8552 12.8016 16.8048 12.8808C16.7544 12.96 16.704 13.0392 16.668 13.1328C16.632 13.2192 16.6104 13.3056 16.5888 13.3992C16.5672 13.4928 16.56 13.5864 16.56 13.68C16.56 13.7736 16.5672 13.8672 16.5888 13.9608C16.6104 14.0544 16.632 14.148 16.668 14.2344C16.704 14.3208 16.7544 14.4 16.8048 14.4792C16.8552 14.5584 16.9128 14.6304 16.9848 14.7024C17.1524 14.8685 17.3582 14.9909 17.5842 15.0587C17.8102 15.1265 18.0495 15.1376 18.2808 15.0912C18.3744 15.0696 18.4608 15.048 18.5544 15.012C18.6408 14.976 18.72 14.9256 18.7992 14.8752C18.8784 14.8248 18.9504 14.7672 19.0224 14.7024C19.0872 14.6304 19.1448 14.5584 19.1952 14.4792C19.2456 14.4 19.296 14.3208 19.332 14.2344C19.368 14.1408 19.3896 14.0544 19.4112 13.9608C19.4328 13.8672 19.44 13.7736 19.44 13.68C19.44 13.2984 19.2888 12.9312 19.0224 12.6648C18.9504 12.5928 18.8784 12.5352 18.7992 12.4848ZM29.2392 12.2688C29.1456 12.2832 29.0592 12.312 28.9656 12.348C28.8792 12.384 28.8 12.4344 28.7208 12.4848C28.6416 12.5352 28.5696 12.5928 28.5048 12.6576C28.2312 12.9312 28.08 13.2984 28.08 13.68C28.08 14.0616 28.2312 14.4288 28.5048 14.6952C28.5696 14.7672 28.6416 14.8248 28.7208 14.8752C28.8 14.9256 28.8792 14.976 28.9656 15.012C29.0592 15.048 29.1456 15.0696 29.2392 15.0912C29.3328 15.1128 29.4264 15.12 29.52 15.12C29.9016 15.12 30.2688 14.9688 30.5352 14.6952C30.8088 14.4288 30.96 14.0616 30.96 13.68C30.96 13.2984 30.8088 12.9312 30.5352 12.6576C30.204 12.3264 29.7072 12.1752 29.2392 12.2688ZM68.4 23.76V29.52C68.4 30.312 67.752 30.96 66.96 30.96H5.04C4.248 30.96 3.6 30.312 3.6 29.52V7.91998C3.6 7.12798 4.248 6.47998 5.04 6.47998H42.48C43.272 6.47998 43.92 7.12798 43.92 7.91998V21.3696L49.68 18.3168V7.91998C49.68 7.12798 50.328 6.47998 51.12 6.47998H58.32C59.112 6.47998 59.76 7.12798 59.76 7.91998V18.3168L67.6368 22.4856C68.1048 22.7376 68.4 23.2272 68.4 23.76ZM6.48 28.08H22.32V9.35998H6.48V28.08ZM25.2 28.08H41.04V9.35998H25.2V28.08ZM65.52 24.624L57.6432 20.4552C57.4126 20.3335 57.2196 20.1512 57.0851 19.9279C56.9506 19.7045 56.8797 19.4487 56.88 19.188V9.35998H52.56V19.188C52.56 19.7208 52.2648 20.2104 51.7968 20.4624L43.92 24.624V28.08H65.52V24.624Z" fill="#2B2E35" fill-opacity="0.1"/>
</svg>
