<svg width="62" height="62" viewBox="0 0 62 62" fill="none" xmlns="http://www.w3.org/2000/svg">
<g clip-path="url(#clip0_804_3731)">
<path d="M59.0938 0H2.90625C2.13574 0.000897359 1.39705 0.307379 0.852212 0.852212C0.307379 1.39705 0.000897359 2.13574 0 2.90625L0 59.0938C0.000897359 59.8643 0.307379 60.603 0.852212 61.1478C1.39705 61.6926 2.13574 61.9991 2.90625 62H59.0938C59.8643 61.9991 60.603 61.6926 61.1478 61.1478C61.6926 60.603 61.9991 59.8643 62 59.0938V2.90625C61.9991 2.13574 61.6926 1.39705 61.1478 0.852212C60.603 0.307379 59.8643 0.000897359 59.0938 0V0ZM60.0625 59.0938C60.0622 59.3506 59.9601 59.5969 59.7785 59.7785C59.5969 59.9601 59.3506 60.0622 59.0938 60.0625H2.90625C2.6494 60.0622 2.40314 59.9601 2.22152 59.7785C2.0399 59.5969 1.93776 59.3506 1.9375 59.0938V2.90625C1.93776 2.6494 2.0399 2.40314 2.22152 2.22152C2.40314 2.0399 2.6494 1.93776 2.90625 1.9375H59.0938C59.3506 1.93776 59.5969 2.0399 59.7785 2.22152C59.9601 2.40314 60.0622 2.6494 60.0625 2.90625V59.0938Z" fill="#2B2E35" fill-opacity="0.1"/>
<path d="M39.7188 20.3438H22.2812C21.7676 20.3444 21.2752 20.5487 20.9119 20.9119C20.5487 21.2752 20.3444 21.7676 20.3438 22.2812V39.7188C20.3443 40.2324 20.5486 40.725 20.9118 41.0882C21.275 41.4514 21.7676 41.6557 22.2812 41.6562H39.7188C40.2324 41.6557 40.725 41.4514 41.0882 41.0882C41.4514 40.725 41.6557 40.2324 41.6562 39.7188V22.2812C41.6556 21.7676 41.4513 21.2752 41.0881 20.9119C40.7248 20.5487 40.2324 20.3444 39.7188 20.3438ZM22.2812 39.7188V22.2812H39.7188L39.7197 39.7188H22.2812Z" fill="#2B2E35" fill-opacity="0.1"/>
<path d="M36.8125 24.2189H25.1875C24.9306 24.2189 24.6842 24.3209 24.5025 24.5026C24.3208 24.6843 24.2187 24.9307 24.2187 25.1876V36.8126C24.2187 37.0696 24.3208 37.316 24.5025 37.4976C24.6842 37.6793 24.9306 37.7814 25.1875 37.7814H36.8125C37.0694 37.7814 37.3158 37.6793 37.4975 37.4976C37.6792 37.316 37.7812 37.0696 37.7812 36.8126V25.1876C37.7812 24.9307 37.6792 24.6843 37.4975 24.5026C37.3158 24.3209 37.0694 24.2189 36.8125 24.2189ZM35.8437 35.8439H26.1562V26.1564H35.8437V35.8439ZM10.8742 9.26284L11.9776 9.3631C12.1043 9.37462 12.2321 9.36106 12.3535 9.32321C12.475 9.28535 12.5878 9.22395 12.6856 9.14249C12.7833 9.06103 12.864 8.96113 12.9232 8.84847C12.9823 8.73581 13.0187 8.61261 13.0302 8.4859C13.0417 8.35919 13.0281 8.23145 12.9903 8.10998C12.9524 7.98851 12.891 7.87569 12.8096 7.77795C12.7281 7.68021 12.6282 7.59948 12.5155 7.54035C12.4029 7.48122 12.2797 7.44487 12.153 7.43335L8.3855 7.0909C8.24405 7.07803 8.10151 7.09642 7.96796 7.14476C7.83442 7.19311 7.71313 7.27023 7.6127 7.37065C7.51228 7.47108 7.43516 7.59237 7.38681 7.72591C7.33847 7.85946 7.32008 8.002 7.33295 8.14345L7.6754 11.9109C7.69715 12.1516 7.80809 12.3755 7.98643 12.5386C8.16477 12.7017 8.39763 12.7923 8.63931 12.7925C8.66837 12.7925 8.69792 12.791 8.72795 12.7876C8.98368 12.7643 9.21968 12.6404 9.38408 12.4431C9.54847 12.2458 9.62782 11.9913 9.60467 11.7356L9.50489 10.6326L16.6891 17.8169C16.8718 17.9934 17.1166 18.091 17.3706 18.0888C17.6246 18.0866 17.8675 17.9847 18.0471 17.8051C18.2268 17.6255 18.3286 17.3825 18.3309 17.1285C18.3331 16.8745 18.2354 16.6298 18.059 16.4471L10.8742 9.26284ZM16.6891 44.1834L9.50489 51.3676L9.60515 50.2642C9.62828 50.0083 9.5488 49.7537 9.3842 49.5564C9.2196 49.3591 8.98337 49.2353 8.72747 49.2121C8.47156 49.189 8.21696 49.2685 8.01966 49.4331C7.82236 49.5977 7.69853 49.8339 7.6754 50.0898L7.33295 53.8568C7.32077 53.9909 7.33666 54.126 7.37961 54.2536C7.42257 54.3812 7.49164 54.4984 7.58242 54.5978C7.67321 54.6972 7.78371 54.7766 7.90689 54.8309C8.03006 54.8852 8.16321 54.9133 8.29782 54.9132C8.32689 54.9132 8.35595 54.9118 8.3855 54.9094L12.153 54.5669C12.4089 54.5437 12.645 54.4197 12.8096 54.2223C12.9741 54.0249 13.0534 53.7703 13.0302 53.5144C13.0069 53.2585 12.883 53.0223 12.6856 52.8578C12.4882 52.6933 12.2335 52.6139 11.9776 52.6372L10.8747 52.7374L18.059 45.5532C18.2354 45.3705 18.3331 45.1258 18.3309 44.8718C18.3286 44.6178 18.2268 44.3748 18.0471 44.1952C17.8675 44.0156 17.6246 43.9137 17.3706 43.9115C17.1166 43.9093 16.8718 44.0069 16.6891 44.1834ZM53.6145 7.0909L49.847 7.43335C49.7203 7.44487 49.5971 7.48122 49.4845 7.54035C49.3718 7.59948 49.2719 7.68021 49.1904 7.77795C49.109 7.87569 49.0476 7.98851 49.0097 8.10998C48.9719 8.23145 48.9583 8.35919 48.9698 8.4859C48.9813 8.61261 49.0177 8.73581 49.0768 8.84847C49.1359 8.96113 49.2167 9.06103 49.3144 9.14249C49.4122 9.22395 49.525 9.28535 49.6465 9.32321C49.7679 9.36106 49.8957 9.37462 50.0224 9.3631L51.1253 9.26284L43.941 16.4471C43.8485 16.5365 43.7747 16.6433 43.7239 16.7615C43.6732 16.8797 43.6464 17.0069 43.6453 17.1355C43.6442 17.2641 43.6687 17.3917 43.7174 17.5107C43.7661 17.6298 43.8381 17.7379 43.929 17.8289C44.02 17.9199 44.1282 17.9918 44.2472 18.0405C44.3663 18.0892 44.4938 18.1137 44.6225 18.1126C44.7511 18.1115 44.8782 18.0848 44.9964 18.034C45.1146 17.9832 45.2215 17.9094 45.3109 17.8169L52.4951 10.6326L52.3948 11.7356C52.3716 11.9914 52.4508 12.246 52.6152 12.4434C52.7797 12.6408 53.0157 12.7648 53.2716 12.7881C53.3016 12.791 53.3316 12.792 53.3612 12.792C53.6027 12.7917 53.8354 12.7011 54.0136 12.5381C54.1918 12.3751 54.3027 12.1514 54.3246 11.9109L54.667 8.14345C54.6799 8.002 54.6615 7.85946 54.6132 7.72591C54.5648 7.59237 54.4877 7.47108 54.3873 7.37065C54.2869 7.27023 54.1656 7.19311 54.032 7.14476C53.8985 7.09642 53.7559 7.07803 53.6145 7.0909ZM53.272 49.2121C53.0163 49.2355 52.7803 49.3594 52.6159 49.5567C52.4515 49.754 52.3722 50.0085 52.3953 50.2642L52.4951 51.3676L45.3109 44.1834C45.1281 44.0069 44.8834 43.9093 44.6294 43.9115C44.3754 43.9137 44.1325 44.0156 43.9528 44.1952C43.7732 44.3748 43.6713 44.6178 43.6691 44.8718C43.6669 45.1258 43.7646 45.3705 43.941 45.5532L51.1253 52.7374L50.0224 52.6372C49.7665 52.6139 49.5118 52.6933 49.3144 52.8578C49.117 53.0223 48.9931 53.2585 48.9698 53.5144C48.9466 53.7703 49.0259 54.0249 49.1904 54.2223C49.3549 54.4197 49.5911 54.5437 49.847 54.5669L53.6145 54.9094C53.6436 54.9118 53.6731 54.9132 53.7022 54.9132C53.8367 54.9132 53.9698 54.8852 54.093 54.8309C54.2161 54.7767 54.3266 54.6973 54.4174 54.598C54.5082 54.4986 54.5772 54.3815 54.6202 54.2539C54.6632 54.1264 54.6792 53.9913 54.667 53.8573L54.3246 50.0894C54.3001 49.8339 54.1758 49.5985 53.9787 49.4343C53.7816 49.27 53.5277 49.1902 53.272 49.2121Z" fill="#2B2E35" fill-opacity="0.1"/>
</g>
<defs>
<clipPath id="clip0_804_3731">
<rect width="62" height="62" fill="white"/>
</clipPath>
</defs>
</svg>
