<svg width="96" height="96" viewBox="0 0 96 96" fill="none" xmlns="http://www.w3.org/2000/svg">
<path fill-rule="evenodd" clip-rule="evenodd" d="M66.438 26.4188L66.2578 26.2792C65.9122 23.6516 64.653 20.9148 62.6892 18.6058C59.499 14.8552 54.3012 12 47.3394 12C40.4818 12 35.6452 15.1285 32.7934 19.005C31.3822 20.9232 30.4558 23.0244 30.001 25.0194C29.9074 25.4296 29.8326 25.8416 29.7778 26.2516L29.562 26.4188C27.3138 28.1602 25.6646 30.2718 26.0554 32.6936C26.433 35.0334 28.5472 36.4578 30.5152 37.3288C31.0168 37.5508 31.5568 37.7582 32.1302 37.9512C32.0442 38.6226 32 39.3066 32 40C32 48.8366 39.1634 56 48 56C56.8366 56 64 48.8366 64 40C64 39.3066 63.9558 38.6226 63.8698 37.9512C64.4432 37.7582 64.9832 37.5508 65.4848 37.3288C67.4528 36.4578 69.567 35.0334 69.9446 32.6936C70.3354 30.2718 68.6862 28.1602 66.438 26.4188ZM33.8894 29.3438C33.6296 28.596 33.562 27.395 33.9008 25.9084C34.2316 24.458 34.9212 22.869 36 21.3964V27C36 28.1046 36.8954 29 38 29C39.1046 29 40 28.1046 40 27V17.8215C41.6458 16.883 43.636 16.2301 46 16.0501V23C46 24.1046 46.8954 25 48 25C49.1046 25 50 24.1046 50 23V16.174C52.3366 16.4884 54.3348 17.2096 56 18.1746V27C56 28.1046 56.8954 29 58 29C59.1046 29 60 28.1046 60 27V21.6364C62.2092 24.4688 62.7274 27.5244 62.1058 29.358C61.7512 30.404 62.3118 31.5396 63.358 31.8942C64.211 32.1834 65.1238 31.8638 65.6236 31.1686C66.018 31.7188 66.003 32.0108 65.9956 32.0564C65.9698 32.2166 65.6632 32.8756 63.8658 33.6712C63.0854 34.0166 62.1584 34.3268 61.1154 34.5998L61.0682 34.6114C59.9378 34.905 58.68 35.1534 57.3334 35.3554C55.02 35.7024 52.4444 35.9122 49.8006 35.9778C49.2032 35.9926 48.6022 36 48 36C46.8566 36 45.7176 35.9732 44.5984 35.92C42.5132 35.821 40.4968 35.6306 38.6484 35.3526C37.3086 35.1512 36.0572 34.9036 34.9318 34.6114L34.8848 34.5998C33.8416 34.3268 32.9146 34.0166 32.1342 33.6712C30.3368 32.8756 30.0302 32.2166 30.0044 32.0564C29.997 32.0108 29.982 31.7188 30.3764 31.1686C30.8796 31.8684 31.8002 32.1866 32.6562 31.8894C33.6996 31.527 34.2516 30.3872 33.8894 29.3438ZM36.0442 38.9618C36.7086 39.092 37.3956 39.2098 38.1006 39.3152C40.2364 39.6344 42.537 39.84 44.8766 39.9362C45.9138 39.9788 46.9586 40 48 40C49.0456 40 50.0946 39.9786 51.136 39.9358C53.4646 39.8396 55.7546 39.635 57.8816 39.3178C58.5928 39.2118 59.2858 39.0932 59.9558 38.9618C59.985 39.3038 60 39.65 60 40C60 46.6274 54.6274 52 48 52C41.3726 52 36 46.6274 36 40C36 39.65 36.015 39.3036 36.0442 38.9618ZM58 56.9792C59.3156 57.209 60.6562 57.4778 62 57.7846C72.8866 60.2698 84 65.2404 84 72.0002V84.0002H12V72.0002C12 65.2404 23.1134 60.2698 34 57.7846C35.344 57.4778 36.6844 57.209 38 56.9792V66H58V56.9792ZM30 62.9824C31.308 62.583 32.6494 62.2192 34 61.8932V70H62V61.8932C64.0494 62.3876 66.0772 62.9698 68 63.6304V80H72V65.1934C72.5786 65.4514 73.1386 65.7174 73.6768 65.9912C75.9494 67.147 77.6352 68.3408 78.7042 69.4802C79.7536 70.5986 80 71.4252 80 72.0002V80.0002H16V72.0002C16 71.4252 16.2464 70.5986 17.2957 69.4802C18.3649 68.3408 20.0506 67.147 22.3232 65.9912C23.4612 65.4124 24.6966 64.868 26 64.3612V80H30V62.9824Z" fill="#2B2E35" fill-opacity="0.1"/>
</svg>
