<svg width="29" height="29" viewBox="0 0 29 29" fill="none" xmlns="http://www.w3.org/2000/svg">
<path d="M14.4964 9.66461C11.8338 9.66461 9.66098 11.8375 9.66098 14.5C9.66098 17.1625 11.8338 19.3354 14.4964 19.3354C17.1589 19.3354 19.3318 17.1625 19.3318 14.5C19.3318 11.8375 17.1589 9.66461 14.4964 9.66461ZM28.9989 14.5C28.9989 12.4976 29.0171 10.5134 28.9046 8.51471C28.7922 6.19314 28.2625 4.13275 26.5649 2.4351C24.8636 0.733824 22.8069 0.207844 20.4853 0.0953926C18.4829 -0.0170583 16.4987 0.00107896 14.5 0.00107896C12.4976 0.00107896 10.5134 -0.0170583 8.51471 0.0953926C6.19314 0.207844 4.13275 0.737451 2.4351 2.4351C0.733824 4.13637 0.207844 6.19314 0.0953926 8.51471C-0.0170583 10.5171 0.00107896 12.5013 0.00107896 14.5C0.00107896 16.4987 -0.0170583 18.4866 0.0953926 20.4853C0.207844 22.8069 0.737452 24.8673 2.4351 26.5649C4.13637 28.2662 6.19314 28.7922 8.51471 28.9046C10.5171 29.0171 12.5013 28.9989 14.5 28.9989C16.5024 28.9989 18.4866 29.0171 20.4853 28.9046C22.8069 28.7922 24.8673 28.2625 26.5649 26.5649C28.2662 24.8636 28.7922 22.8069 28.9046 20.4853C29.0207 18.4866 28.9989 16.5024 28.9989 14.5V14.5ZM14.4964 21.9399C10.3792 21.9399 7.05647 18.6172 7.05647 14.5C7.05647 10.3828 10.3792 7.0601 14.4964 7.0601C18.6135 7.0601 21.9363 10.3828 21.9363 14.5C21.9363 18.6172 18.6135 21.9399 14.4964 21.9399ZM22.241 8.49294C21.2797 8.49294 20.5034 7.71667 20.5034 6.75539C20.5034 5.79412 21.2797 5.01784 22.241 5.01784C23.2023 5.01784 23.9785 5.79412 23.9785 6.75539C23.9788 6.98365 23.9341 7.20972 23.8468 7.42066C23.7596 7.6316 23.6317 7.82326 23.4703 7.98466C23.3088 8.14607 23.1172 8.27404 22.9063 8.36126C22.6953 8.44848 22.4692 8.49323 22.241 8.49294V8.49294Z" fill="#FF4002"/>
</svg>
