<svg width="29" height="29" viewBox="0 0 29 29" fill="none" xmlns="http://www.w3.org/2000/svg">
<path d="M17.502 8.53385C17.502 9.36458 17.2093 10.0726 16.624 10.6579C16.0387 11.2432 15.3307 11.5358 14.5 11.5358C13.6693 11.5358 12.9613 11.2432 12.376 10.6579C11.7907 10.0726 11.498 9.36458 11.498 8.53385C11.498 7.70313 11.7907 6.99512 12.376 6.40983C12.9613 5.82454 13.6693 5.5319 14.5 5.5319C15.3307 5.5319 16.0387 5.82454 16.624 6.40983C17.2093 6.99512 17.502 7.70313 17.502 8.53385ZM21.5423 15.3874C21.4165 15.1356 21.2402 14.9342 21.0137 14.7832C20.7871 14.6322 20.4882 14.5724 20.1169 14.6038C19.7456 14.6353 19.3648 14.8084 18.9746 15.123C18.8487 15.2237 18.6662 15.3496 18.4271 15.5007C18.1879 15.6517 17.6782 15.8531 16.8978 16.1048C16.1174 16.3566 15.3181 16.4824 14.5 16.4824C13.6819 16.4824 12.9015 16.3691 12.1589 16.1426C11.4162 15.916 10.875 15.6895 10.5352 15.4629L10.0254 15.123C9.6352 14.8084 9.25445 14.6353 8.88314 14.6038C8.51183 14.5724 8.21289 14.6322 7.98633 14.7832C7.75977 14.9342 7.58355 15.1356 7.45768 15.3874C7.18077 15.9538 7.16819 16.4226 7.41992 16.7939C7.67166 17.1653 8.21918 17.6278 9.0625 18.1816C10.1072 18.8487 11.5295 19.2704 13.3294 19.4466L12.3665 20.4284C10.5792 22.2157 9.37717 23.4115 8.76042 24.0156C8.48351 24.2925 8.34505 24.6229 8.34505 25.0068C8.34505 25.3907 8.48351 25.7211 8.76042 25.998L8.93034 26.168C9.20725 26.4449 9.53765 26.5833 9.92155 26.5833C10.3054 26.5833 10.6359 26.4449 10.9128 26.168L14.5189 22.5618C15.9538 24.0093 17.1558 25.2114 18.125 26.168C18.4019 26.4449 18.7323 26.5833 19.1162 26.5833C19.5001 26.5833 19.8305 26.4449 20.1074 26.168L20.2773 25.998C20.5543 25.7211 20.6927 25.3907 20.6927 25.0068C20.6927 24.6229 20.5543 24.2925 20.2773 24.0156L16.6712 20.4284L15.6895 19.4466C17.4642 19.2704 18.8802 18.8487 19.9375 18.1816C20.7808 17.6278 21.3283 17.1653 21.5801 16.7939C21.8318 16.4226 21.8192 15.9538 21.5423 15.3874ZM20.6172 8.53385C20.6172 6.84722 20.0193 5.40603 18.8236 4.21029C17.6278 3.01454 16.1866 2.41667 14.5 2.41667C12.8134 2.41667 11.3722 3.01454 10.1764 4.21029C8.98069 5.40603 8.38281 6.84722 8.38281 8.53385C8.38281 10.2205 8.98069 11.6617 10.1764 12.8574C11.3722 14.0532 12.8134 14.651 14.5 14.651C16.1866 14.651 17.6278 14.0532 18.8236 12.8574C20.0193 11.6617 20.6172 10.2205 20.6172 8.53385ZM29 5.4375V23.5625C29 25.0603 28.4682 26.341 27.4046 27.4046C26.341 28.4682 25.0603 29 23.5625 29H5.4375C3.93967 29 2.65896 28.4682 1.59538 27.4046C0.531793 26.341 0 25.0603 0 23.5625V5.4375C0 3.93967 0.531793 2.65896 1.59538 1.59538C2.65896 0.531793 3.93967 0 5.4375 0H23.5625C25.0603 0 26.341 0.531793 27.4046 1.59538C28.4682 2.65896 29 3.93967 29 5.4375Z" fill="#FF4002"/>
</svg>
