<svg width="45" height="44" viewBox="0 0 45 44" fill="none" xmlns="http://www.w3.org/2000/svg">
<path d="M43.6767 9.8539L27.7838 0.902702C27.5492 0.770495 27.2857 0.701172 27.0178 0.701172C26.75 0.701172 26.4865 0.770495 26.2518 0.902702L10.3589 9.8539C10.1097 9.9944 9.90192 10.2008 9.7572 10.4516C9.61248 10.7023 9.53613 10.9883 9.53613 11.2796C9.53613 11.5709 9.61248 11.8568 9.7572 12.1076C9.90192 12.3584 10.1097 12.5648 10.3589 12.7053L25.4285 21.1926V38.6377L20.6034 35.9198L19.0714 38.7695L26.2518 42.8139C26.4864 42.9464 26.7499 43.0159 27.0178 43.0159C27.2857 43.0159 27.5493 42.9464 27.7838 42.8139L43.6767 33.8627C43.926 33.7222 44.1339 33.5159 44.2787 33.2651C44.4235 33.0143 44.4999 32.7283 44.5 32.437V11.2796C44.4999 10.9882 44.4235 10.7023 44.2787 10.4515C44.1339 10.2007 43.926 9.99433 43.6767 9.8539ZM27.0178 4.18698L39.6129 11.2796L27.0178 18.3722L14.4227 11.2796L27.0178 4.18698ZM41.3214 31.4751L28.6071 38.6361V21.191L41.3214 14.03V31.4751Z" fill="#FF4002"/>
<path d="M12.7143 21.8585H0V18.6035H12.7143V21.8585ZM15.8929 34.8784H3.17858V31.6234H15.8929V34.8784ZM19.0715 28.3685H6.35715V25.1135H19.0715V28.3685Z" fill="#FF4002"/>
</svg>
