<svg width="44" height="37" viewBox="0 0 44 37" fill="none" xmlns="http://www.w3.org/2000/svg">
<path d="M3.14293 16.794H22.0005V20.0125H3.14293V16.794ZM0 8.7478H15.7146V11.9663H0V8.7478Z" fill="#FF4002"/>
<path d="M43.8733 17.7688L39.1589 6.50409C39.0379 6.21455 38.8366 5.96778 38.5798 5.79441C38.3231 5.62105 38.0223 5.52872 37.7147 5.52889H33.0003V2.31041C33.0003 1.88361 32.8348 1.4743 32.5401 1.17251C32.2454 0.870717 31.8457 0.701172 31.4289 0.701172H6.28544V3.91965H29.8574V24.1253C29.1413 24.5511 28.5147 25.1178 28.0135 25.7928C27.5124 26.4678 27.1468 27.2378 26.9376 28.0582H17.0625C16.6801 26.5413 15.7704 25.2192 14.5042 24.3399C13.2379 23.4606 11.702 23.0844 10.1842 23.2818C8.6665 23.4792 7.27117 24.2367 6.25979 25.4123C5.24841 26.5878 4.69043 28.1008 4.69043 29.6675C4.69043 31.2342 5.24841 32.7471 6.25979 33.9227C7.27117 35.0982 8.6665 35.8557 10.1842 36.0531C11.702 36.2505 13.2379 35.8743 14.5042 34.995C15.7704 34.1157 16.6801 32.7937 17.0625 31.2767H26.9376C27.2795 32.6578 28.0613 33.8828 29.1593 34.7578C30.2574 35.6328 31.609 36.1079 33.0003 36.1079C34.3917 36.1079 35.7433 35.6328 36.8413 34.7578C37.9394 33.8828 38.7212 32.6578 39.063 31.2767H42.4291C42.8459 31.2767 43.2456 31.1072 43.5403 30.8054C43.835 30.5036 44.0006 30.0943 44.0006 29.6675V18.4028C44.0007 18.1848 43.9574 17.9691 43.8733 17.7688ZM10.9998 32.886C10.3782 32.886 9.77057 32.6972 9.25372 32.3435C8.73686 31.9899 8.33403 31.4872 8.09615 30.8991C7.85826 30.311 7.79602 29.6639 7.91729 29.0396C8.03857 28.4153 8.3379 27.8418 8.77745 27.3917C9.21699 26.9416 9.77701 26.635 10.3867 26.5108C10.9963 26.3867 11.6283 26.4504 12.2026 26.694C12.7769 26.9376 13.2677 27.3501 13.6131 27.8794C13.9584 28.4087 14.1428 29.0309 14.1428 29.6675C14.1419 30.5208 13.8105 31.3389 13.2213 31.9423C12.6321 32.5457 11.8331 32.8851 10.9998 32.886ZM33.0003 8.74737H36.6776L40.0468 16.7936H33.0003V8.74737ZM33.0003 32.886C32.3787 32.886 31.7711 32.6972 31.2542 32.3435C30.7374 31.9899 30.3345 31.4872 30.0967 30.8991C29.8588 30.311 29.7965 29.6639 29.9178 29.0396C30.0391 28.4153 30.3384 27.8418 30.778 27.3917C31.2175 26.9416 31.7775 26.635 32.3872 26.5108C32.9968 26.3867 33.6288 26.4504 34.2031 26.694C34.7774 26.9376 35.2682 27.3501 35.6136 27.8794C35.9589 28.4087 36.1433 29.0309 36.1433 29.6675C36.1424 30.5208 35.811 31.3389 35.2218 31.9423C34.6326 32.5457 33.8336 32.8851 33.0003 32.886ZM40.8577 28.0582H39.063C38.7169 26.6798 37.9338 25.458 36.8367 24.5843C35.7395 23.7106 34.3902 23.2345 33.0003 23.2305V20.012H40.8577V28.0582Z" fill="#FF4002"/>
</svg>
