<svg width="303" height="124" viewBox="0 0 303 124" fill="none" xmlns="http://www.w3.org/2000/svg">
<g clip-path="url(#clip0_150_535)">
<path d="M49.5321 90.9843L33.545 98.235C33.2173 98.3826 32.8262 98.2403 32.6782 97.9081L4.37175 35.7578C4.22377 35.4308 4.36647 35.0406 4.69942 34.8929L20.6866 27.6423C21.0142 27.4946 21.4053 27.637 21.5533 27.9692L49.8598 90.1195C50.0078 90.4464 49.8651 90.8314 49.5321 90.9843Z" fill="white"/>
<path d="M33.275 98.4248C33.1799 98.4248 33.09 98.409 33.0002 98.3721C32.8046 98.2983 32.6461 98.1506 32.5615 97.9608L4.25503 35.8158C4.16518 35.6259 4.1599 35.4097 4.23389 35.2146C4.30788 35.0195 4.45586 34.8613 4.64612 34.7769L20.6333 27.5262C21.0296 27.347 21.4947 27.521 21.6744 27.9165L49.9809 90.0668C50.0707 90.2566 50.076 90.4728 50.002 90.6679C49.9281 90.863 49.7801 91.0212 49.5898 91.1056L33.6027 98.3563C33.497 98.3985 33.386 98.4248 33.275 98.4248ZM20.9556 27.7214C20.8817 27.7214 20.8077 27.7372 20.739 27.7688L4.75182 35.0142C4.62498 35.0722 4.52985 35.1777 4.477 35.3043C4.42943 35.4361 4.43472 35.5785 4.49285 35.705L32.7993 97.8553C32.8575 97.9819 32.9579 98.0768 33.09 98.1295C33.2221 98.177 33.3648 98.1717 33.4917 98.1137L49.4788 90.863C49.7431 90.7417 49.8593 90.4359 49.7378 90.1722L21.4313 28.0272C21.3467 27.8321 21.1565 27.7214 20.9556 27.7214Z" fill="#565656"/>
<path d="M74.5027 96.1836L57.1097 98.6041C56.7503 98.6515 56.4227 98.4037 56.3698 98.0451L44.1826 10.8259C44.135 10.4673 44.3834 10.1403 44.7428 10.0876L62.1358 7.6672C62.4951 7.61974 62.8228 7.86758 62.8757 8.22616L75.0629 95.4454C75.1105 95.804 74.8621 96.1309 74.5027 96.1836Z" fill="#BCBCBC"/>
<path d="M57.02 98.7411C56.6342 98.7411 56.2959 98.4564 56.2431 98.0662L44.0506 10.8417C44.0242 10.636 44.077 10.4251 44.2038 10.2616C44.3307 10.0929 44.5157 9.9874 44.7218 9.95576L62.1147 7.53535C62.3208 7.50371 62.527 7.56172 62.6961 7.68827C62.8652 7.81483 62.9709 7.99939 63.0026 8.20505L75.1898 95.4243C75.2163 95.6299 75.1634 95.8409 75.0366 96.0043C74.9097 96.1731 74.7248 96.2785 74.5186 96.3102L57.1257 98.7306C57.094 98.7359 57.057 98.7411 57.02 98.7411ZM62.2257 7.79374C62.1993 7.79374 62.1782 7.79374 62.1517 7.79901L44.7588 10.2194C44.6214 10.2405 44.4998 10.3091 44.4152 10.4198C44.3307 10.5305 44.2937 10.6676 44.3148 10.8048L56.5021 98.024C56.5391 98.3087 56.8033 98.5091 57.094 98.4669L74.4869 96.0465C74.6243 96.0254 74.7459 95.9569 74.8305 95.8461C74.915 95.7354 74.952 95.5983 74.9309 95.4612L62.7436 8.24196C62.7225 8.10486 62.6538 7.98357 62.5428 7.8992C62.4477 7.83065 62.3367 7.79374 62.2257 7.79374Z" fill="#565656"/>
<path d="M73.9109 98.7939L57.02 93.9953C56.6712 93.8951 56.4704 93.5365 56.5708 93.1885L82.9905 0.606354C83.0909 0.258321 83.4503 0.0579379 83.7991 0.158129L100.69 4.95677C101.039 5.05696 101.24 5.41554 101.139 5.76357L74.7195 98.3457C74.6191 98.6937 74.2597 98.8941 73.9109 98.7939Z" fill="white"/>
<path d="M74.0911 98.9521C74.0171 98.9521 73.9484 98.9415 73.8744 98.9205L56.9835 94.1218C56.566 94.0005 56.3229 93.5681 56.4444 93.1515L82.8642 0.569442C82.9223 0.369059 83.0544 0.200316 83.2394 0.100125C83.4244 -6.67615e-05 83.6358 -0.0264329 83.8366 0.0315726L100.727 4.83021C101.145 4.94622 101.388 5.3839 101.267 5.80049L74.8468 98.3826C74.7887 98.583 74.6566 98.7517 74.4716 98.8519C74.3553 98.9152 74.2232 98.9521 74.0911 98.9521ZM73.9484 98.6673C74.0858 98.7043 74.2232 98.6884 74.3447 98.6199C74.4663 98.5513 74.5561 98.4406 74.5931 98.3088L101.013 5.72666C101.05 5.59483 101.034 5.45245 100.965 5.33117C100.897 5.20988 100.786 5.12024 100.653 5.08333L83.7626 0.284688C83.6305 0.247775 83.4878 0.263595 83.3662 0.332147C83.2447 0.400699 83.1548 0.511437 83.1178 0.643267L56.6981 93.2254C56.6188 93.4996 56.7827 93.7896 57.0575 93.8687L73.9484 98.6673Z" fill="#565656"/>
<path d="M70.2067 84.1185L61.5234 91.0475C61.2433 91.2743 60.8311 91.2268 60.6038 90.9473L17.8746 37.6086C17.6473 37.3291 17.6949 36.9178 17.975 36.6911L26.6582 29.762C26.9383 29.5353 27.3506 29.5828 27.5778 29.8622L70.3071 83.1957C70.5344 83.4804 70.4921 83.8918 70.2067 84.1185Z" fill="#BCBCBC"/>
<path d="M61.1163 91.3165C61.0846 91.3165 61.0582 91.3165 61.0264 91.3112C60.8203 91.2902 60.6301 91.1847 60.4979 91.0212L17.7739 37.693C17.6418 37.5296 17.5837 37.3239 17.6048 37.1183C17.626 36.9073 17.7317 36.7228 17.8955 36.5909L26.5788 29.6619C26.917 29.393 27.4138 29.4457 27.6833 29.7832L70.4126 83.1166C70.6821 83.4541 70.6293 83.9498 70.2911 84.2188L61.6078 91.1478C61.4651 91.2585 61.296 91.3165 61.1163 91.3165ZM27.0703 29.7516C26.954 29.7516 26.843 29.7885 26.7426 29.8676L18.0593 36.7966C17.9484 36.881 17.8796 37.0075 17.8638 37.1446C17.8479 37.2817 17.8902 37.4188 17.9748 37.5296L60.7041 90.863C60.7939 90.9738 60.9155 91.0423 61.0529 91.0581C61.1903 91.0739 61.3277 91.0318 61.4387 90.9474L70.1219 84.0184C70.3492 83.8391 70.3862 83.5121 70.2065 83.2854L27.4772 29.9519C27.3768 29.8201 27.2235 29.7516 27.0703 29.7516Z" fill="#565656"/>
<path d="M40.611 95.4666L29.8561 92.6507C29.5073 92.561 29.2959 92.2025 29.391 91.8544L46.7734 25.8125C46.8632 25.4645 47.2226 25.2535 47.5714 25.3485L58.3264 28.1644C58.6752 28.254 58.8866 28.6126 58.7915 28.9606L41.4091 94.9973C41.3192 95.3453 40.9599 95.5562 40.611 95.4666Z" fill="white"/>
<path d="M40.7798 95.6195C40.7111 95.6195 40.6476 95.6089 40.5789 95.5931L29.8239 92.7772C29.6231 92.7245 29.4487 92.5926 29.343 92.4133C29.2373 92.2341 29.2109 92.0231 29.2637 91.8175L46.6461 25.7755C46.699 25.5752 46.8311 25.4011 47.0108 25.2957C47.1905 25.1902 47.4019 25.1586 47.608 25.2166L58.363 28.0325C58.7805 28.1432 59.0342 28.5703 58.9232 28.9922L41.5408 95.0341C41.4879 95.2345 41.3558 95.4085 41.1761 95.514C41.0546 95.5826 40.9172 95.6195 40.7798 95.6195ZM47.4072 25.4539C47.3173 25.4539 47.2275 25.4802 47.1429 25.5277C47.0214 25.5962 46.9368 25.7123 46.8998 25.8441L29.5174 91.8808C29.4804 92.0179 29.5016 92.155 29.5703 92.2762C29.639 92.3975 29.7552 92.4819 29.8874 92.5188L40.6424 95.3347C40.7745 95.3716 40.9172 95.3505 41.0387 95.282C41.1603 95.2134 41.2448 95.0974 41.2818 94.9656L58.6642 28.9237C58.7382 28.6442 58.5691 28.3594 58.2943 28.2856L47.5393 25.4697C47.497 25.4591 47.4494 25.4539 47.4072 25.4539Z" fill="#565656"/>
<path d="M80.3215 56.9087H13.7305V123.351H80.3215V56.9087Z" fill="#BCBCBC"/>
<path d="M80.3218 123.488H13.7308C13.6568 123.488 13.5986 123.43 13.5986 123.357V56.9139C13.5986 56.8401 13.6568 56.7821 13.7308 56.7821H80.3218C80.3958 56.7821 80.454 56.8401 80.454 56.9139V123.357C80.454 123.425 80.3958 123.488 80.3218 123.488ZM13.8629 123.225H80.1897V57.0458H13.8629V123.225Z" fill="#565656"/>
<path d="M96.9583 56.9087H30.3672V123.351H96.9583V56.9087Z" fill="white"/>
<path d="M96.9586 123.488H30.3675C30.2935 123.488 30.2354 123.43 30.2354 123.357V56.9139C30.2354 56.8401 30.2935 56.7821 30.3675 56.7821H96.9586C97.0326 56.7821 97.0907 56.8401 97.0907 56.9139V123.357C97.0907 123.425 97.0326 123.488 96.9586 123.488ZM30.4996 123.225H96.8264V57.0458H30.4996V123.225Z" fill="#565656"/>
<path d="M96.9593 56.9087L111.07 70.9935H44.4791L30.3682 56.9087H96.9593Z" fill="white"/>
<path d="M111.07 71.1253H44.4787C44.4417 71.1253 44.4099 71.1094 44.3835 71.0884L30.2726 57.0088C30.2356 56.9719 30.225 56.9139 30.2461 56.8664C30.2673 56.819 30.3148 56.7874 30.3677 56.7874H96.9588C96.9958 56.7874 97.0275 56.8032 97.0539 56.8243L111.165 70.9038C111.202 70.9407 111.212 70.9987 111.191 71.0462C111.175 71.0884 111.128 71.1253 111.07 71.1253ZM44.5315 70.8616H110.753L96.9059 57.0457H30.6848L44.5315 70.8616Z" fill="#565656"/>
<path d="M30.3683 56.9087L16.77 70.4767H0.132812L13.7311 56.9087H30.3683Z" fill="#BCBCBC"/>
<path d="M16.7695 70.6085H0.13233C0.0794795 70.6085 0.0319144 70.5769 0.0107744 70.5294C-0.0103656 70.482 0.000204383 70.4239 0.0371994 70.387L13.6355 56.819C13.6619 56.7927 13.6937 56.7821 13.7307 56.7821H30.3679C30.4207 56.7821 30.4683 56.8137 30.4894 56.8612C30.5105 56.9087 30.5 56.9667 30.463 57.0036L16.8594 70.5716C16.8382 70.5927 16.8012 70.6085 16.7695 70.6085ZM0.44943 70.3448H16.7114L30.0455 57.0405H13.7835L0.44943 70.3448Z" fill="#565656"/>
<path d="M298.323 14.67H302.208C302.567 14.67 302.863 14.9601 302.863 15.3239V108.665H297.668V15.3239C297.673 14.9601 297.964 14.67 298.323 14.67Z" fill="white"/>
<path d="M302.868 108.797H297.673C297.599 108.797 297.541 108.739 297.541 108.665V15.3239C297.541 14.8915 297.895 14.5382 298.328 14.5382H302.213C302.646 14.5382 303 14.8915 303 15.3239V108.665C303 108.739 302.937 108.797 302.868 108.797ZM297.805 108.534H302.736V15.3239C302.736 15.0392 302.504 14.8019 302.213 14.8019H298.328C298.043 14.8019 297.805 15.0339 297.805 15.3239V108.534Z" fill="#565656"/>
<path d="M104.548 14.67H108.432C108.792 14.67 109.088 14.9601 109.088 15.3239V108.665H103.893V15.3239C103.893 14.9601 104.183 14.67 104.548 14.67Z" fill="white"/>
<path d="M109.088 108.797H103.893C103.819 108.797 103.761 108.739 103.761 108.665V15.3239C103.761 14.8915 104.115 14.5382 104.548 14.5382H108.433C108.866 14.5382 109.22 14.8915 109.22 15.3239V108.665C109.22 108.739 109.162 108.797 109.088 108.797ZM104.025 108.534H108.956V15.3239C108.956 15.0392 108.723 14.8019 108.433 14.8019H104.548C104.263 14.8019 104.025 15.0339 104.025 15.3239V108.534Z" fill="#565656"/>
<path d="M103.892 123.867L302.692 123.867V108.664L103.892 108.664V123.867Z" fill="#BCBCBC"/>
<path d="M302.694 124H103.893C103.819 124 103.761 123.942 103.761 123.868V108.665C103.761 108.592 103.819 108.534 103.893 108.534H302.694C302.768 108.534 302.826 108.592 302.826 108.665V123.868C302.826 123.942 302.768 124 302.694 124ZM104.025 123.736H302.562V108.797H104.025V123.736Z" fill="#565656"/>
<path d="M297.667 104.167H241.673V108.671H297.667V104.167Z" fill="white"/>
<path d="M297.673 108.803H241.673C241.599 108.803 241.541 108.745 241.541 108.671V104.167C241.541 104.094 241.599 104.036 241.673 104.036H297.668C297.742 104.036 297.8 104.094 297.8 104.167V108.671C297.805 108.745 297.742 108.803 297.673 108.803ZM241.805 108.539H297.536V104.299H241.805V108.539Z" fill="#565656"/>
<path d="M289.851 108.802H233.857C233.783 108.802 233.725 108.744 233.725 108.671V106.419C233.725 106.345 233.783 106.287 233.857 106.287H289.851C289.925 106.287 289.984 106.345 289.984 106.419V108.671C289.984 108.744 289.925 108.802 289.851 108.802ZM233.989 108.539H289.719V106.551H233.989V108.539Z" fill="#565656"/>
<path d="M263.913 102.981C263.744 102.132 253.189 100.719 252.228 98.8519L243.365 48.7826C238.915 49.273 235.516 49.3416 231.066 49.9163L246.488 99.1367C246.61 99.8749 246.636 100.513 246.52 100.951C245.954 103.039 246.747 104.173 246.747 104.173H263.4C263.405 104.167 264.082 103.83 263.913 102.981Z" fill="white"/>
<path d="M263.405 104.299H246.752C246.71 104.299 246.668 104.278 246.641 104.241C246.609 104.194 245.822 103.034 246.398 100.908C246.504 100.529 246.488 99.9329 246.361 99.1525L230.945 49.9533C230.934 49.9164 230.939 49.8742 230.961 49.8425C230.982 49.8109 231.019 49.7898 231.056 49.7845C233.524 49.4681 235.622 49.3047 237.842 49.1359C239.575 49.0041 241.372 48.867 243.354 48.6455C243.417 48.635 243.486 48.6877 243.497 48.7562L252.36 98.8098C252.93 99.8433 256.921 100.814 259.838 101.52C262.834 102.248 263.971 102.559 264.05 102.955C264.235 103.888 263.479 104.283 263.469 104.283C263.442 104.299 263.426 104.299 263.405 104.299ZM246.821 104.036H263.368C263.479 103.967 263.913 103.661 263.786 103.007C263.68 102.728 261.513 102.2 259.769 101.779C256.455 100.977 252.703 100.065 252.111 98.9152C252.106 98.9047 252.101 98.8888 252.101 98.8783L243.259 48.9303C241.319 49.1412 239.559 49.2783 237.858 49.4049C235.685 49.5683 233.635 49.7265 231.241 50.0324L246.615 99.0998C246.752 99.9382 246.763 100.566 246.652 100.988C246.176 102.722 246.683 103.788 246.821 104.036Z" fill="#565656"/>
<path d="M242.334 29.6884L226.268 40.1293L232.023 58.8493C235.696 60.9586 243.417 59.6667 248.655 56.4025L242.334 29.6884Z" fill="#FFBD98"/>
<path d="M236.837 60.0146C234.903 60.0146 233.196 59.6772 231.959 58.9705C231.933 58.9547 231.906 58.9284 231.901 58.8967L226.146 40.1768C226.13 40.1187 226.151 40.0607 226.199 40.0291L242.265 29.5881C242.302 29.567 242.344 29.5617 242.387 29.5776C242.429 29.5934 242.455 29.6303 242.466 29.6672L248.792 56.3867C248.803 56.4394 248.782 56.4974 248.734 56.529C245.13 58.7596 240.569 60.0146 236.837 60.0146ZM232.139 58.7649C235.685 60.7582 243.142 59.6561 248.512 56.3445L242.249 29.8992L226.426 40.1873L232.139 58.7649Z" fill="#565656"/>
<path d="M249.432 101.9C250.711 102.459 254.843 101.968 254.875 102.823C254.902 103.471 254.304 103.867 253.295 103.814C252.28 103.761 251.107 103.761 251.107 103.761L249.432 101.9Z" fill="white"/>
<path d="M253.475 103.951C253.417 103.951 253.354 103.951 253.29 103.946C252.291 103.893 251.123 103.893 251.113 103.893C251.039 103.893 250.981 103.835 250.981 103.761C250.981 103.688 251.039 103.63 251.113 103.63C251.123 103.63 252.302 103.63 253.306 103.682C253.871 103.714 254.305 103.598 254.548 103.361C254.691 103.218 254.759 103.039 254.749 102.828C254.733 102.469 253.243 102.406 252.154 102.364C251.076 102.322 249.966 102.274 249.384 102.021C249.316 101.99 249.289 101.916 249.316 101.847C249.347 101.779 249.421 101.752 249.49 101.779C250.024 102.011 251.113 102.058 252.164 102.1C253.745 102.164 254.992 102.216 255.013 102.817C255.024 103.102 254.928 103.355 254.733 103.55C254.463 103.814 254.03 103.951 253.475 103.951Z" fill="#565656"/>
<path d="M205.925 102.011L214.069 101.958L214.011 91.8174L208.625 91.0897L205.925 102.011Z" fill="white"/>
<path d="M205.919 102.142C205.877 102.142 205.84 102.121 205.813 102.09C205.787 102.058 205.782 102.016 205.787 101.979L208.493 91.0581C208.509 90.9948 208.572 90.9473 208.641 90.9579L214.026 91.6856C214.09 91.6961 214.143 91.7489 214.143 91.8174L214.206 101.958C214.206 102.032 214.148 102.09 214.074 102.09L205.919 102.142C205.924 102.142 205.924 102.142 205.919 102.142ZM208.725 91.2374L206.094 101.879L213.942 101.826L213.878 91.9334L208.725 91.2374Z" fill="#565656"/>
<path d="M213.197 100.877C213.852 100.645 214.576 100.761 215.121 101.193C216.833 102.548 219.46 103.545 221.098 104.22C223.032 105.016 225.569 105.449 226.615 106.361C227.609 107.22 226.97 108.855 225.654 108.839L206.976 108.597C206.168 108.586 205.222 107.906 205.269 107.099V101.088C205.312 100.65 205.771 100.386 206.173 100.566C208.525 101.626 210.697 101.768 213.197 100.877Z" fill="#565656"/>
<path d="M215.342 104.531C215.316 104.531 215.284 104.521 215.258 104.505C215.2 104.457 215.194 104.378 215.237 104.32C215.765 103.661 216.299 103.007 216.838 102.353C216.886 102.295 216.97 102.29 217.023 102.337C217.081 102.385 217.086 102.469 217.039 102.522C216.5 103.171 215.966 103.825 215.443 104.484C215.416 104.515 215.379 104.531 215.342 104.531Z" fill="white"/>
<path d="M217.901 105.296C217.869 105.296 217.837 105.285 217.811 105.259C217.758 105.211 217.753 105.127 217.8 105.074C218.382 104.442 218.799 103.941 219.153 103.445C219.195 103.387 219.28 103.371 219.338 103.413C219.396 103.455 219.412 103.54 219.37 103.598C219.01 104.099 218.588 104.605 218.001 105.248C217.969 105.28 217.932 105.296 217.901 105.296Z" fill="white"/>
<path d="M220.131 105.718C220.088 105.718 220.046 105.697 220.025 105.66C219.983 105.602 219.998 105.517 220.057 105.475C220.379 105.248 220.712 104.884 221.008 104.563C221.092 104.473 221.172 104.389 221.246 104.304C221.293 104.252 221.378 104.246 221.431 104.299C221.484 104.347 221.484 104.431 221.436 104.484C221.362 104.563 221.283 104.647 221.198 104.737C220.897 105.069 220.553 105.443 220.205 105.686C220.183 105.707 220.157 105.718 220.131 105.718Z" fill="white"/>
<path d="M192.971 43.7467C192.971 43.7467 227.36 48.1709 234.194 56.0175C241.027 63.8641 216.991 100.202 216.991 100.202C213.017 101.773 205.745 98.1084 205.163 96.9061C204.582 95.7038 217.916 69.4273 217.916 69.4273L184.499 63.8588L192.971 43.7467Z" fill="white"/>
<path d="M214.735 100.708C210.734 100.708 205.576 98.0557 205.042 96.9588C204.461 95.7513 216.014 72.876 217.716 69.5222L184.473 63.9906C184.431 63.9853 184.399 63.959 184.378 63.9221C184.357 63.8851 184.357 63.843 184.373 63.806L192.845 43.6939C192.866 43.6412 192.929 43.6043 192.982 43.6148C193.066 43.6254 201.692 44.7433 211.041 46.8104C223.614 49.5841 231.436 52.6532 234.284 55.9278C237.159 59.2236 235.13 67.6977 228.265 81.1075C223.165 91.0634 217.156 100.181 217.097 100.27C217.082 100.292 217.06 100.313 217.034 100.318C216.357 100.592 215.575 100.708 214.735 100.708ZM184.684 63.7533L217.938 69.2902C217.98 69.2955 218.017 69.3218 218.033 69.3588C218.054 69.3957 218.054 69.4378 218.033 69.48C212.7 79.9843 204.905 95.9358 205.28 96.8428C205.803 97.9291 212.88 101.641 216.902 100.091C217.763 98.7781 240.69 63.6795 234.089 56.1018C230.585 52.0784 219.592 48.9672 210.988 47.0688C202.194 45.1283 194.034 44.0209 193.045 43.8891L184.684 63.7533Z" fill="#565656"/>
<path d="M211.237 99.8222C211.216 99.8222 211.2 99.8169 211.184 99.8116C211.12 99.78 211.089 99.7009 211.12 99.6376L227.409 64.2859L195.371 57.4465C195.302 57.4307 195.255 57.3621 195.271 57.2883C195.286 57.2198 195.35 57.1723 195.429 57.1881L227.625 64.0591C227.662 64.0697 227.699 64.096 227.715 64.1277C227.731 64.1646 227.736 64.2068 227.715 64.2437L211.358 99.7431C211.337 99.7958 211.289 99.8222 211.237 99.8222Z" fill="#565656"/>
<path d="M121.799 89.8663L119.579 97.6918L131.56 98.4037L134.673 90.9315L121.799 89.8663Z" fill="white"/>
<path d="M131.56 98.5356H131.555L119.579 97.8237C119.537 97.8237 119.5 97.8026 119.478 97.771C119.457 97.7393 119.447 97.6971 119.457 97.6602L121.672 89.8347C121.688 89.7767 121.751 89.7346 121.809 89.7398L134.689 90.805C134.731 90.8103 134.768 90.8314 134.789 90.8683C134.81 90.9052 134.816 90.9474 134.8 90.9896L131.681 98.4618C131.66 98.5039 131.613 98.5356 131.56 98.5356ZM119.753 97.5653L131.47 98.2614L134.483 91.0423L121.894 89.9982L119.753 97.5653Z" fill="#565656"/>
<path d="M120.863 97.1487C120.905 97.8395 120.588 98.5039 120.023 98.9047C118.242 100.165 116.551 102.406 115.446 103.793C114.141 105.422 113.02 107.737 111.852 108.486C110.748 109.198 109.352 108.133 109.733 106.873L115.161 89.0385C115.393 88.2633 116.318 87.5514 117.079 87.8204L122.866 89.492C123.273 89.6555 123.4 90.167 123.115 90.5045C121.439 92.4661 120.699 94.5068 120.863 97.1487Z" fill="#565656"/>
<path d="M118.321 100.439C118.279 100.439 118.236 100.418 118.21 100.381C117.734 99.6852 117.253 98.9944 116.767 98.3036C116.725 98.2456 116.741 98.1612 116.799 98.119C116.857 98.0769 116.941 98.0927 116.984 98.1507C117.47 98.8415 117.951 99.5323 118.432 100.234C118.474 100.292 118.458 100.376 118.395 100.418C118.374 100.429 118.347 100.439 118.321 100.439Z" fill="white"/>
<path d="M116.63 102.359C116.593 102.359 116.55 102.343 116.524 102.306C116.143 101.821 115.768 101.272 115.314 100.534C115.277 100.471 115.292 100.392 115.356 100.355C115.419 100.318 115.499 100.339 115.536 100.397C115.985 101.13 116.349 101.668 116.725 102.143C116.772 102.201 116.762 102.285 116.704 102.327C116.688 102.348 116.661 102.359 116.63 102.359Z" fill="white"/>
<path d="M115.213 104.104C115.171 104.104 115.123 104.083 115.097 104.041C115.039 103.946 114.98 103.846 114.917 103.74C114.685 103.361 114.42 102.928 114.283 102.527C114.262 102.459 114.293 102.385 114.362 102.359C114.431 102.332 114.505 102.369 114.531 102.438C114.658 102.812 114.917 103.229 115.144 103.598C115.208 103.703 115.271 103.804 115.329 103.898C115.366 103.962 115.345 104.041 115.282 104.078C115.255 104.099 115.234 104.104 115.213 104.104Z" fill="white"/>
<path d="M167.091 44.2424C167.091 44.2424 161.452 49.7424 161.452 58.4274C161.452 67.1124 166.695 91.5486 166.695 91.5486L129.658 88.8118C127.755 91.4695 125.387 96.5634 126.518 101.536C126.518 101.536 180.425 111.118 187.592 107.716C194.758 104.315 186.065 70.8248 189.278 56.0123L167.091 44.2424Z" fill="white"/>
<path d="M181.466 108.581C175.806 108.581 166.737 107.727 154.344 106.029C140.132 104.083 126.624 101.684 126.492 101.663C126.439 101.652 126.396 101.615 126.386 101.562C125.318 96.8535 127.316 91.8492 129.546 88.7327C129.573 88.6958 129.62 88.6747 129.663 88.68L166.525 91.4062C166.06 89.202 161.314 66.6484 161.314 58.4327C161.314 49.7899 166.938 44.2108 166.996 44.1528C167.038 44.1106 167.096 44.1054 167.149 44.1317L189.336 55.8963C189.388 55.9227 189.415 55.9807 189.404 56.0387C188.004 62.4931 188.865 72.4331 189.7 82.0462C190.762 94.3012 191.767 105.876 187.65 107.832C186.593 108.333 184.526 108.581 181.466 108.581ZM126.624 101.42C129.081 101.852 180.615 110.875 187.533 107.595C191.487 105.718 190.493 94.2327 189.436 82.0726C188.606 72.4859 187.745 62.5775 189.124 56.0809L167.112 44.4059C166.478 45.0651 161.579 50.4121 161.579 58.4274C161.579 67.0017 166.769 91.2744 166.816 91.517C166.827 91.5592 166.816 91.6013 166.784 91.633C166.758 91.6646 166.716 91.6804 166.673 91.6804L129.71 88.9489C127.554 92.0021 125.619 96.8535 126.624 101.42Z" fill="#565656"/>
<path d="M166.689 91.5486C166.689 91.5486 172.149 91.6804 175.764 94.4278L166.689 91.5486Z" fill="white"/>
<path d="M175.769 94.5543C175.743 94.5543 175.711 94.5438 175.69 94.528C172.149 91.8386 166.743 91.6752 166.69 91.6752C166.616 91.6752 166.558 91.6119 166.563 91.5381C166.563 91.4642 166.637 91.4115 166.7 91.4115C166.753 91.4115 172.244 91.575 175.854 94.317C175.912 94.3592 175.923 94.4436 175.88 94.5016C175.849 94.5385 175.806 94.5543 175.769 94.5543Z" fill="#565656"/>
<path d="M175.04 100.007C161.167 100.007 128.141 98.7887 126.412 98.7202C126.338 98.7149 126.28 98.6569 126.285 98.5831C126.285 98.5145 126.349 98.4565 126.418 98.4565H126.423C144.651 99.1368 179.5 100.228 180.932 99.5164C181.498 99.2317 180.034 94.3856 178.486 89.2495C175.425 79.1196 170.806 63.8167 172.714 56.3392C172.73 56.2707 172.804 56.2232 172.873 56.2443C172.942 56.2601 172.984 56.334 172.968 56.4025C171.076 63.8114 175.684 79.0721 178.734 89.1756C180.816 96.0625 181.778 99.3899 181.049 99.7537C180.684 99.933 178.438 100.007 175.04 100.007Z" fill="#565656"/>
<path d="M251.915 15.7142L235.864 17.581L241.567 29.4932L251.957 26.5296L251.915 15.7142Z" fill="white"/>
<path d="M241.567 29.625C241.519 29.625 241.472 29.5986 241.445 29.5512L235.743 17.6389C235.722 17.602 235.727 17.5546 235.748 17.5176C235.769 17.4807 235.806 17.4544 235.849 17.4491L251.899 15.5824C251.936 15.5771 251.973 15.5876 252.005 15.614C252.031 15.6404 252.047 15.672 252.047 15.7142L252.095 26.5349C252.095 26.5929 252.058 26.6456 252 26.6614L241.609 29.6197C241.593 29.6197 241.583 29.625 241.567 29.625ZM236.065 17.6864L241.641 29.335L251.831 26.4347L251.788 15.8619L236.065 17.6864Z" fill="#565656"/>
<path d="M268.705 24.8106C270.623 27.6318 267.569 27.9165 265.476 28.6021C263.383 29.2823 261.829 29.8834 260.751 30.3791C259.197 31.0963 259.599 32.1035 258.848 32.0929C258.098 32.0771 257.279 31.0752 257.279 31.0752C257.279 31.0752 252.01 32.8417 250.435 31.6763C248.585 30.3106 247.385 25.4803 247.613 23.1759C247.967 19.685 249.002 14.6649 252.612 12.9142C256.222 11.1688 261.908 9.46023 264.044 12.3869L268.705 24.8106Z" fill="white"/>
<path d="M258.859 32.2195C258.854 32.2195 258.849 32.2195 258.843 32.2195C258.151 32.2089 257.443 31.4601 257.237 31.2228C256.523 31.4548 251.878 32.8997 250.356 31.7818C248.469 30.3897 247.248 25.4961 247.48 23.1653C248.035 17.6495 249.742 14.1586 252.554 12.7982C256.824 10.731 262.115 9.51821 264.155 12.313C264.16 12.3236 264.165 12.3341 264.171 12.3447L268.827 24.7473C269.392 25.5857 269.572 26.2607 269.366 26.8144C269.033 27.7267 267.727 28.0905 266.464 28.4438C266.142 28.5335 265.819 28.6231 265.513 28.7233C263.552 29.3614 261.967 29.9572 260.799 30.4951C259.98 30.8748 259.731 31.3336 259.551 31.6763C259.398 31.9663 259.261 32.2195 258.859 32.2195ZM257.274 30.9433C257.311 30.9433 257.353 30.9592 257.374 30.9908C257.379 31.0013 258.161 31.9453 258.843 31.9558C259.097 31.9663 259.16 31.8398 259.319 31.5498C259.52 31.1806 259.789 30.6691 260.693 30.2578C261.866 29.7147 263.462 29.1188 265.434 28.4755C265.74 28.3753 266.063 28.2856 266.396 28.1907C267.595 27.8585 268.832 27.5105 269.117 26.7248C269.292 26.2554 269.117 25.6543 268.594 24.8844C268.589 24.8738 268.584 24.8686 268.578 24.858L263.927 12.4554C261.972 9.81351 256.835 11.0211 252.67 13.0354C249.949 14.3538 248.289 17.7708 247.745 23.1917C247.517 25.4645 248.691 30.2262 250.514 31.5709C252.015 32.6782 257.184 30.9644 257.237 30.9486C257.247 30.9433 257.263 30.9433 257.274 30.9433Z" fill="#565656"/>
<path d="M253.659 17.7444C251.936 18.9256 247.703 20.5129 246.989 18.0714C246.244 15.5244 253.204 8.11024 256.28 6.97123C259.287 5.85857 263.325 4.4348 265.032 5.41562C266.739 6.39644 268.626 5.94822 269.656 6.62319C270.745 7.34035 271.221 9.69221 271.221 9.69221C271.221 9.69221 274.149 10.6836 275.121 13.3677C276.041 15.9146 275.142 17.5546 275.549 18.9098C275.914 20.1174 277.964 22.021 277.071 24.9477C276.231 27.7003 273.055 28.9764 271.411 28.95C269.767 28.9237 268.578 27.3997 268.414 26.2871C268.245 25.1797 266.507 25.5805 265.666 25.0057C264.826 24.4309 264.16 22.5642 262.939 22.0474C261.75 21.5412 257.781 23.8667 257.004 23.3552C256.222 22.8436 255.593 21.4726 255.889 20.4443C256.185 19.4213 253.659 17.7444 253.659 17.7444Z" fill="#565656"/>
<path d="M253.685 17.1433C252.148 18.161 251.397 19.7272 252.005 20.6394C252.613 21.5517 254.351 21.4673 255.889 20.4443C257.427 19.4266 258.447 18.3298 257.839 17.4175C257.232 16.5052 255.223 16.1256 253.685 17.1433Z" fill="white"/>
<path d="M253.453 21.3988C252.772 21.3988 252.206 21.1721 251.9 20.7133C251.25 19.743 252.021 18.0925 253.617 17.0326C255.203 15.9832 257.285 16.3418 257.951 17.3437C258.532 18.2138 257.861 19.2948 255.964 20.5551C255.123 21.1141 254.214 21.3988 253.453 21.3988ZM253.76 17.2541C252.285 18.2296 251.551 19.7219 252.116 20.5709C252.682 21.4199 254.341 21.3197 255.816 20.3389C257.57 19.1735 258.21 18.2191 257.729 17.4913C257.195 16.6898 255.293 16.2363 253.76 17.2541Z" fill="#565656"/>
<path d="M261.253 27.8849C260.725 28.0431 260.365 28.4122 260.455 28.7022C260.545 28.9922 261.042 29.103 261.576 28.9448C262.104 28.7866 262.463 28.4175 262.374 28.1274C262.284 27.8321 261.782 27.7214 261.253 27.8849Z" fill="#565656"/>
<path d="M254.732 30.9749C254.769 31.0382 254.843 31.0751 254.922 31.0593C255.017 31.0382 255.075 30.9486 255.054 30.8536C254.928 30.2578 254.97 29.6777 255.171 29.2928C255.218 29.2084 255.181 29.1029 255.097 29.0555C255.012 29.0133 254.906 29.0449 254.859 29.1293C254.621 29.5828 254.563 30.2525 254.711 30.9275C254.716 30.9433 254.721 30.9591 254.732 30.9749Z" fill="#565656"/>
<path d="M265.038 26.8724C264.568 25.4908 263.881 24.9213 263.442 25.185C263.009 25.4486 263.252 26.3662 263.622 27.3945C263.992 28.4122 264.584 29.3245 265.043 29.1768C265.509 29.0397 265.509 28.254 265.038 26.8724Z" fill="#565656"/>
<path d="M240.843 22.7224C240.177 20.0067 240.627 18.5566 240.542 17.1065C240.389 16.9746 240.241 16.8639 240.103 16.7901C238.011 15.6405 230.474 11.1319 214.439 14.3907C188.363 19.6903 162.276 44.5853 162.276 47.7123C162.276 50.8446 169.623 51.6725 173.407 57.0828C176.979 62.1926 188.76 60.3786 193.13 63.5742C197.501 66.7645 206.163 56.4975 217.098 51.0924C227.937 45.7401 234.174 38.5738 237.16 35.4889C240.146 32.4041 243.491 29.9731 243.665 29.0556C242.608 27.6002 241.419 25.0743 240.843 22.7224Z" fill="#FFBD98"/>
<path d="M195.043 64.3018C194.308 64.3018 193.643 64.1067 193.051 63.6743C191.206 62.3296 188.019 61.8867 184.648 61.4174C180.087 60.7846 175.372 60.1254 173.295 57.1566C171.393 54.4356 168.539 52.8642 166.25 51.5986C163.951 50.333 162.139 49.3311 162.139 47.7122C162.139 46.1303 168.359 39.3014 178.496 31.7607C185.541 26.5191 199.572 17.2804 214.407 14.2589C230.051 11.0791 237.524 15.2133 239.982 16.5685L240.161 16.6687C240.304 16.7478 240.457 16.8586 240.626 17.001C240.653 17.022 240.669 17.059 240.674 17.0906C240.7 17.5441 240.674 18.0029 240.647 18.488C240.584 19.5848 240.515 20.824 240.97 22.6855C241.509 24.8792 242.635 27.405 243.776 28.9712C243.797 29.0028 243.808 29.0397 243.797 29.0714C243.686 29.6462 242.55 30.6639 240.975 32.0771C239.828 33.1054 238.523 34.2708 237.26 35.5733C236.995 35.8475 236.7 36.1586 236.382 36.4908C233.122 39.9237 227.054 46.3148 217.161 51.1978C212.949 53.2808 209.064 56.0914 205.64 58.5698C201.327 61.6968 197.728 64.3018 195.043 64.3018ZM225.014 13.3255C220.332 13.3255 216.4 14.127 214.46 14.5173C199.678 17.523 185.683 26.7406 178.654 31.9717C168.734 39.3489 162.403 46.2252 162.403 47.7122C162.403 49.1782 164.158 50.1432 166.377 51.3719C168.692 52.648 171.572 54.2405 173.512 57.0089C175.52 59.8829 180.182 60.5315 184.685 61.159C188.088 61.6336 191.307 62.0818 193.204 63.4687C195.809 65.367 200.074 62.2822 205.481 58.3694C208.911 55.8857 212.801 53.0698 217.039 50.9764C226.891 46.1092 232.937 39.7444 236.187 36.3221C236.509 35.9846 236.8 35.6787 237.069 35.3992C238.338 34.0862 239.643 32.9208 240.795 31.8873C242.17 30.6586 243.359 29.5934 243.522 29.0819C242.376 27.4894 241.25 24.9583 240.711 22.754C240.246 20.8557 240.314 19.5954 240.378 18.4827C240.404 18.024 240.425 17.5916 240.41 17.1697C240.272 17.0537 240.151 16.964 240.034 16.906L239.849 16.8058C234.971 14.1007 229.628 13.3255 225.014 13.3255Z" fill="#565656"/>
<path d="M192.311 63.0467C192.263 63.0467 192.221 63.0204 192.194 62.9782C192.168 62.936 189.716 58.5381 190.572 53.0012C190.583 52.9274 190.651 52.88 190.725 52.8905C190.799 52.901 190.847 52.9696 190.836 53.0434C189.991 58.4854 192.401 62.8094 192.427 62.8516C192.464 62.9149 192.443 62.994 192.379 63.0309C192.353 63.0415 192.332 63.0467 192.311 63.0467Z" fill="#565656"/>
<path d="M173.406 57.2093C173.385 57.2093 173.369 57.204 173.348 57.1988C173.285 57.1671 173.253 57.088 173.285 57.0248C173.306 56.9826 175.341 52.6796 174.326 45.3709C174.315 45.2971 174.368 45.2338 174.437 45.2233C174.516 45.2127 174.574 45.2655 174.585 45.334C175.61 52.7323 173.539 57.0986 173.517 57.1408C173.502 57.183 173.454 57.2093 173.406 57.2093Z" fill="#565656"/>
<path d="M191.45 45.0809C191.376 45.0809 191.317 45.0228 191.317 44.949C191.317 44.8699 191.36 36.7755 194.959 31.8134C195.001 31.7554 195.086 31.7396 195.144 31.7818C195.202 31.824 195.218 31.9083 195.175 31.9663C191.629 36.8546 191.587 44.8647 191.587 44.9438C191.582 45.0176 191.523 45.0809 191.45 45.0809Z" fill="#565656"/>
<path d="M222.752 55.8752L228.65 46.1619C223.513 44.0104 218.397 43.7046 213.155 41.764C210.676 45.9932 209.646 52.6744 209.603 54.9524C209.461 62.6091 231.409 82.0779 231.409 82.0779L237.085 81.2078C235.368 75.5444 229.623 66.216 222.752 55.8752Z" fill="white"/>
<path d="M231.404 82.2098C231.372 82.2098 231.34 82.1992 231.314 82.1781C231.261 82.1307 225.759 77.2424 220.347 71.4787C213.065 63.7218 209.402 58.1638 209.466 54.9524C209.503 52.975 210.417 46.162 213.038 41.6955C213.07 41.6428 213.139 41.6164 213.197 41.6375C215.633 42.5393 218.08 43.0982 220.443 43.6361C223.149 44.2531 225.939 44.8858 228.698 46.0407C228.735 46.0565 228.761 46.0829 228.772 46.1198C228.782 46.1567 228.777 46.1936 228.761 46.2305L222.905 55.8753C228.951 64.9821 235.367 75.1014 237.207 81.1709C237.217 81.2078 237.212 81.2448 237.191 81.2817C237.17 81.3133 237.138 81.3344 237.101 81.3397L231.425 82.2098C231.42 82.2098 231.414 82.2098 231.404 82.2098ZM213.213 41.9223C210.877 45.9721 209.777 52.4951 209.735 54.9524C209.598 62.298 230.32 80.9284 231.446 81.9356L236.911 81.0971C235.019 75.0276 228.645 64.9821 222.641 55.9438C222.615 55.9016 222.609 55.8436 222.636 55.8014L228.455 46.2147C225.77 45.1073 223.032 44.4851 220.384 43.8839C218.049 43.3566 215.633 42.8082 213.213 41.9223Z" fill="#565656"/>
<path d="M218.191 28.4122C215.253 32.3091 212.283 37.498 209.032 43.0402C213.493 46.4045 222.261 49.7055 228.153 50.486C228.153 50.486 235.97 39.3436 238.39 31.9769L218.191 28.4122Z" fill="#FFBD98"/>
<path d="M228.154 50.6178C228.148 50.6178 228.143 50.6178 228.138 50.6178C222.034 49.8058 213.25 46.3834 208.959 43.1457C208.906 43.1035 208.89 43.0297 208.922 42.9717L209.836 41.4108C212.711 36.5014 215.427 31.861 218.091 28.3279C218.133 28.2699 218.218 28.2594 218.276 28.3015C218.334 28.3437 218.345 28.4281 218.302 28.4861C215.644 32.0086 212.933 36.6385 210.063 41.5426L209.207 43.0033C213.488 46.1831 222.076 49.5263 228.09 50.3436C228.74 49.4103 235.975 38.906 238.264 31.9348C238.285 31.8662 238.359 31.8293 238.433 31.8504C238.502 31.8715 238.539 31.9453 238.518 32.0192C236.123 39.3226 228.344 50.4544 228.265 50.5651C228.238 50.5968 228.196 50.6178 228.154 50.6178Z" fill="#565656"/>
<path d="M220.068 96.1046L220.205 84.92C220.216 84.166 220.834 83.5595 221.59 83.5701L225.099 83.6123L224.924 97.5283L221.415 97.4861C220.665 97.4756 220.057 96.8586 220.068 96.1046Z" fill="white"/>
<path d="M224.93 97.6602L221.421 97.618C221.019 97.6127 220.644 97.4545 220.364 97.1645C220.084 96.8797 219.93 96.5 219.936 96.0993L220.073 84.9148C220.078 84.514 220.237 84.1396 220.528 83.8601C220.813 83.5806 221.209 83.433 221.595 83.433L225.104 83.4752C225.141 83.4752 225.173 83.491 225.2 83.5174C225.226 83.5437 225.237 83.5754 225.237 83.6123L225.062 97.5283C225.062 97.6021 225.004 97.6602 224.93 97.6602ZM220.2 96.1046C220.195 96.4315 220.321 96.7479 220.554 96.9799C220.787 97.2172 221.093 97.349 221.426 97.3543L224.803 97.3965L224.972 83.7441L221.595 83.7019C221.59 83.7019 221.585 83.7019 221.579 83.7019C221.257 83.7019 220.95 83.8285 220.718 84.05C220.48 84.282 220.348 84.5878 220.343 84.92L220.2 96.1046Z" fill="#565656"/>
<path d="M224.931 97.5282L225.105 83.6122L226.728 83.6333C227.483 83.6438 228.091 84.2608 228.081 85.0149L227.959 94.5858C227.938 96.231 226.58 97.5493 224.931 97.5282Z" fill="white"/>
<path d="M224.967 97.6601C224.952 97.6601 224.941 97.6601 224.925 97.6601C224.851 97.6601 224.793 97.5968 224.793 97.5282L224.967 83.6122C224.967 83.5384 225.026 83.4803 225.1 83.4803L226.722 83.5014C227.124 83.5067 227.499 83.6649 227.779 83.9549C228.059 84.2397 228.212 84.6194 228.207 85.0201L228.086 94.591C228.075 95.4242 227.742 96.1994 227.145 96.7847C226.558 97.3489 225.787 97.6601 224.967 97.6601ZM225.232 83.744L225.063 97.3964C226.579 97.3437 227.805 96.1097 227.821 94.5805L227.943 85.0096C227.948 84.6826 227.821 84.3663 227.589 84.1342C227.356 83.8969 227.05 83.7651 226.717 83.7598L225.232 83.744Z" fill="#565656"/>
<path d="M238.598 92.582L238.682 85.9957L228.065 85.8639L228.012 90.3409L238.598 92.582Z" fill="white"/>
<path d="M238.597 92.7139C238.587 92.7139 238.581 92.7139 238.571 92.7086L227.98 90.4675C227.916 90.4569 227.874 90.3989 227.874 90.3356L227.932 85.8534C227.932 85.7796 227.99 85.7216 228.064 85.7216L238.682 85.8534C238.719 85.8534 238.751 85.8692 238.777 85.8956C238.803 85.9219 238.814 85.9536 238.814 85.9905L238.729 92.582C238.729 92.6242 238.708 92.6611 238.682 92.6822C238.655 92.7033 238.629 92.7139 238.597 92.7139ZM228.144 90.2354L238.47 92.4186L238.55 86.1223L228.196 85.9958L228.144 90.2354Z" fill="#565656"/>
<path d="M238.56 95.7986L238.713 83.6755C238.734 82.0144 240.098 80.6856 241.762 80.7067L243.702 80.733C245.367 80.7541 246.698 82.1146 246.677 83.7757L246.524 95.8988L238.56 95.7986Z" fill="white"/>
<path d="M246.524 96.0307C246.519 96.0307 246.519 96.0307 246.524 96.0307L238.56 95.9305C238.523 95.9305 238.491 95.9147 238.465 95.8883C238.438 95.8619 238.428 95.8303 238.428 95.7934L238.581 83.6702C238.602 81.9512 240.008 80.5696 241.726 80.5696C241.741 80.5696 241.752 80.5696 241.768 80.5696L243.707 80.5959C244.548 80.6065 245.335 80.944 245.922 81.5451C246.509 82.1463 246.826 82.9373 246.815 83.7757L246.662 95.8989C246.662 95.9358 246.646 95.9674 246.619 95.9938C246.588 96.0149 246.556 96.0307 246.524 96.0307ZM238.692 95.6668L246.392 95.7618L246.54 83.7704C246.551 83.0005 246.26 82.2781 245.721 81.7244C245.182 81.176 244.463 80.8649 243.692 80.8596L241.757 80.8332C241.747 80.8332 241.731 80.8332 241.72 80.8332C240.145 80.8332 238.861 82.0988 238.84 83.6702L238.692 95.6668Z" fill="#565656"/>
<path d="M240.51 104.995L239.971 101.277L244.912 101.341L244.341 105.043C244.336 105.602 243.871 106.05 243.311 106.044L241.514 106.023C240.954 106.013 240.504 105.554 240.51 104.995Z" fill="white"/>
<path d="M243.321 106.176C243.316 106.176 243.311 106.176 243.306 106.176L241.509 106.155C240.88 106.15 240.372 105.633 240.372 105.006L239.833 101.299C239.828 101.262 239.839 101.219 239.865 101.193C239.891 101.161 239.928 101.135 239.965 101.146L244.907 101.209C244.944 101.209 244.981 101.225 245.007 101.256C245.034 101.288 245.044 101.325 245.039 101.362L244.468 105.064C244.463 105.67 243.95 106.176 243.321 106.176ZM240.124 101.409L240.642 104.974C240.642 104.979 240.642 104.99 240.642 104.995C240.637 105.48 241.028 105.881 241.514 105.892L243.311 105.913C243.316 105.913 243.316 105.913 243.321 105.913C243.802 105.913 244.199 105.522 244.204 105.043L244.748 101.473L240.124 101.409Z" fill="#565656"/>
<path d="M239.221 100.692L238.555 95.7987L246.519 95.8989L245.732 100.777C245.679 101.104 245.393 101.346 245.055 101.341L239.876 101.278C239.548 101.272 239.268 101.024 239.221 100.692Z" fill="white"/>
<path d="M245.071 101.473C245.066 101.473 245.066 101.473 245.061 101.473L239.881 101.409C239.485 101.404 239.147 101.104 239.094 100.713L238.428 95.8198C238.423 95.7829 238.433 95.7407 238.46 95.7143C238.486 95.6879 238.534 95.6721 238.56 95.6721L246.525 95.7723C246.562 95.7723 246.599 95.7881 246.625 95.8198C246.652 95.8514 246.662 95.8883 246.657 95.9252L245.869 100.803C245.806 101.183 245.462 101.473 245.071 101.473ZM238.708 95.9305L239.353 100.671C239.39 100.935 239.617 101.135 239.881 101.14L245.061 101.204C245.325 101.193 245.563 101.009 245.605 100.75L246.366 96.0254L238.708 95.9305Z" fill="#565656"/>
<path d="M242.38 106.034L242.349 108.607L242.38 106.034Z" fill="white"/>
<path d="M242.349 108.739C242.275 108.739 242.217 108.676 242.217 108.607L242.249 106.034C242.249 105.96 242.312 105.902 242.381 105.902C242.455 105.902 242.513 105.966 242.513 106.034L242.481 108.607C242.481 108.681 242.418 108.739 242.349 108.739Z" fill="#565656"/>
<path d="M231.827 80.6646C230.463 82.3678 231.388 85.1626 231.272 87.0715C231.15 88.9804 230.923 91.9387 232.45 92.2446C233.978 92.5504 236.086 92.4819 236.573 91.6276C237.064 90.7733 237.286 88.0049 237.202 87.1453C237.117 86.2858 237.08 81.2077 237.08 81.2077L231.827 80.6646Z" fill="white"/>
<path d="M234.157 92.5399C233.534 92.5399 232.915 92.4713 232.424 92.3711C230.822 92.0495 231.007 89.1386 231.129 87.2139L231.139 87.061C231.176 86.4862 231.118 85.8323 231.05 85.1363C230.907 83.5754 230.743 81.8036 231.721 80.5802C231.747 80.5433 231.8 80.5275 231.837 80.5327L237.096 81.0759C237.164 81.0811 237.212 81.1391 237.212 81.2077C237.212 81.2604 237.249 86.2911 237.333 87.1348C237.413 87.9574 237.207 90.7839 236.689 91.6962C236.324 92.3289 235.241 92.5399 234.157 92.5399ZM231.885 80.8017C231.023 81.9407 231.171 83.5543 231.314 85.1152C231.377 85.8218 231.441 86.4862 231.404 87.0821L231.393 87.235C231.277 89.0701 231.102 91.8385 232.477 92.118C234.062 92.4344 236.028 92.3131 236.461 91.5643C236.921 90.7575 237.164 88.0471 237.074 87.1612C236.995 86.3649 236.958 82.1147 236.953 81.329L231.885 80.8017Z" fill="#565656"/>
</g>
<defs>
<clipPath id="clip0_150_535">
<rect width="303" height="124" fill="white"/>
</clipPath>
</defs>
</svg>
