<svg width="258" height="167" viewBox="0 0 258 167" fill="none" xmlns="http://www.w3.org/2000/svg">
<g clip-path="url(#clip0_150_713)">
<path d="M4.46196 72.678C14.3637 83.2164 23.2952 94.5728 32.296 105.838C32.9371 106.643 33.5825 107.448 34.2279 108.249C39.8848 114.425 45.0002 120.813 50.0291 127.218C50.7091 127.988 51.3935 128.754 52.0822 129.52C56.2144 134.099 60.4939 138.544 65.0073 142.785C65.5661 143.036 66.1422 143.248 66.7356 143.422C69.7026 144.292 73.0336 144.201 76.0483 143.002C76.0483 143.002 79.6434 141.569 85.7118 139.154C86.721 138.752 87.8039 138.323 88.9387 137.865C100.69 132.061 112.909 128.737 125.696 124.907C130.525 123.63 134.22 120.306 138.785 118.519C139.695 118.086 140.613 117.653 141.536 117.225C159.057 109.071 176.396 101.844 194.904 95.6721C195.528 95.4254 196.143 95.183 196.749 94.9407C212.498 88.6696 223.301 84.3676 223.301 84.3676C227.728 82.6062 230.296 78.9664 230.487 75.1622C230.526 74.4005 230.47 73.6345 230.314 72.8728C229.976 71.7605 229.976 70.7391 229.123 69.7178C228.469 68.9258 227.814 68.1381 227.156 67.3591C218.324 58.7336 208.379 50.5539 204.399 38.544C202.978 34.1988 198.43 31.39 195.021 28.0662C185.362 18.8695 178.54 8.39167 166.606 0.726992C163.198 -1.31577 159.503 2.25906 155.834 3.50982C155.02 3.83441 154.08 4.20661 153.032 4.62641C152.33 4.9034 151.581 5.20202 150.788 5.52229C146.149 7.11495 141.319 8.13633 136.776 10.1834C121.715 16.5714 108.928 25.7681 92.4299 28.75C91.5289 29.0919 90.6237 29.4338 89.7184 29.7757C85.192 31.4809 80.6353 33.1645 75.966 34.7138C72.2712 35.9906 68.8623 37.2673 65.1676 38.293C58.6314 40.5911 53.2344 44.1703 47.049 46.8189C46.1134 47.2604 45.1562 47.7105 44.2033 48.1649C40.3916 49.9869 36.5842 51.8869 32.7725 53.8777C26.8037 56.9419 19.7001 57.9676 13.1292 60.3392C12.6398 60.534 12.3842 60.6379 12.3842 60.6379C11.5006 60.9884 10.6863 61.4169 9.95427 61.9059C9.22225 62.395 8.5682 62.9446 7.99645 63.5419C6.34615 65.8876 2.36986 67.9303 3.17985 70.9166C3.40941 71.423 3.8339 72.0115 4.46196 72.678Z" fill="white"/>
<path d="M70.7941 144.105C69.421 144.105 68.0436 143.911 66.7095 143.521C66.1118 143.344 65.5227 143.132 64.9639 142.881C64.9509 142.876 64.9423 142.868 64.9336 142.859C60.6974 138.882 56.4699 134.541 51.9998 129.59C51.3111 128.828 50.6267 128.058 49.9467 127.287C45.3597 121.453 39.9843 114.697 34.1455 108.323C33.4958 107.513 32.8547 106.708 32.2093 105.903L30.0306 103.177C21.8917 92.9802 13.4757 82.4375 4.37526 72.7517C3.74286 72.0808 3.30972 71.4749 3.08015 70.9513C2.50406 68.8263 4.22799 67.1947 5.89994 65.615C6.67094 64.8879 7.39863 64.1998 7.90974 63.4727C8.50315 62.8495 9.1702 62.2912 9.89789 61.8064C10.6472 61.3044 11.4745 60.8759 12.3452 60.5254L13.0902 60.2268C15.6501 59.3049 18.3183 58.5778 20.8998 57.8724C24.9238 56.7774 29.082 55.6435 32.7248 53.7696C36.4498 51.8177 40.2962 49.8961 44.1555 48.0524C45.1085 47.598 46.0614 47.1479 47.0013 46.7065C49.5829 45.6028 52.0648 44.3131 54.4688 43.0667C57.8343 41.3226 61.3168 39.5178 65.1329 38.1762C68.0176 37.3755 70.6988 36.4364 73.5316 35.4366C74.3199 35.1597 75.1169 34.8784 75.9312 34.597C80.7652 32.9914 85.3955 31.2732 89.6793 29.6589C90.5846 29.317 91.4856 28.9751 92.3908 28.6332C103.471 26.6294 112.666 21.9337 122.404 16.9609C127.012 14.6065 131.781 12.17 136.732 10.0709C139.634 8.76391 142.701 7.86371 145.664 6.98948C147.34 6.4961 149.077 5.98541 150.753 5.4098L155.795 3.40166C156.882 3.02946 157.987 2.44953 159.052 1.88258C161.59 0.540931 164.215 -0.843991 166.663 0.623161C174.52 5.66947 180.276 12.0574 185.842 18.2333C188.766 21.4749 191.785 24.8247 195.094 27.9797C195.982 28.8453 196.966 29.6892 197.914 30.5072C200.63 32.8442 203.441 35.2635 204.498 38.5008C207.924 48.8401 215.868 56.4139 223.552 63.7367C224.765 64.8922 226.017 66.0867 227.23 67.2682C227.892 68.0559 228.546 68.8436 229.2 69.6356C229.837 70.4016 230.01 71.1547 230.188 71.951C230.253 72.2366 230.318 72.5309 230.409 72.8296C230.569 73.5999 230.626 74.3789 230.591 75.1536C230.387 79.1915 227.606 82.7534 223.336 84.4542L196.784 95.0273C196.177 95.2696 195.562 95.512 194.939 95.7587C177.955 101.42 161.001 108.266 141.575 117.307C140.652 117.736 139.734 118.168 138.824 118.601C136.862 119.372 135.039 120.436 133.271 121.466C130.919 122.843 128.485 124.262 125.717 124.994C124.245 125.435 122.772 125.872 121.312 126.305C110.029 129.655 99.3688 132.814 88.982 137.943C87.8384 138.401 86.7556 138.834 85.7464 139.237L76.0828 143.084C74.4109 143.768 72.6047 144.105 70.7941 144.105ZM65.0722 142.69C65.618 142.933 66.1897 143.14 66.7702 143.313C69.8152 144.205 73.0941 144.058 76.0092 142.898L85.6727 139.05C86.6819 138.648 87.7648 138.22 88.8997 137.761C99.2952 132.628 109.959 129.46 121.256 126.11C122.72 125.677 124.188 125.24 125.665 124.799C128.407 124.072 130.828 122.661 133.167 121.293C134.939 120.259 136.775 119.186 138.742 118.415C139.643 117.982 140.566 117.554 141.488 117.121C160.919 108.076 177.881 101.225 194.869 95.5639C195.489 95.3216 196.104 95.0792 196.706 94.8368L223.258 84.2638C227.451 82.5933 230.179 79.1007 230.379 75.1493C230.418 74.3919 230.357 73.6302 230.205 72.8858C230.114 72.5915 230.049 72.2929 229.984 72.0029C229.811 71.2326 229.647 70.5012 229.04 69.7784C228.386 68.9864 227.732 68.1987 227.074 67.4197C225.87 66.2468 224.618 65.0524 223.409 63.8968C215.708 56.5524 207.742 48.9613 204.299 38.57C203.259 35.389 200.47 32.9914 197.776 30.6716C196.823 29.8537 195.839 29.0054 194.947 28.1355C191.629 24.9762 188.606 21.622 185.682 18.3805C180.125 12.2132 174.377 5.83826 166.55 0.80926C164.207 -0.592974 161.755 0.701063 159.156 2.07733C158.082 2.64428 156.969 3.23287 155.873 3.6094L150.831 5.61754C149.142 6.19747 147.405 6.70816 145.729 7.20154C142.77 8.07145 139.717 8.97165 136.823 10.2743C131.877 12.3734 127.112 14.8056 122.508 17.16C112.757 22.1414 103.549 26.8458 92.4558 28.8496C91.5722 29.1872 90.6669 29.5291 89.7616 29.871C85.4778 31.4853 80.8431 33.2035 76.0049 34.8091C75.1949 35.0904 74.3979 35.3674 73.6096 35.6487C70.7724 36.6485 68.0869 37.5919 65.2022 38.3883C61.4078 39.7256 57.9339 41.526 54.5727 43.2658C52.1688 44.5122 49.6782 45.8019 47.0923 46.9099C46.161 47.3513 45.2037 47.7971 44.2508 48.2558C40.3915 50.0995 36.5495 52.0211 32.8244 53.9686C29.1643 55.8513 24.9931 56.9852 20.9561 58.0845C18.3789 58.7856 15.7151 59.5127 13.1638 60.4345L12.4231 60.7288C11.5612 61.0707 10.7512 61.4948 10.0148 61.9882C9.30015 62.4643 8.64609 63.0096 8.07434 63.6112C7.55889 64.3426 6.79222 65.0697 6.04721 65.7751C4.4229 67.3115 2.74662 68.8998 3.28373 70.882C3.49597 71.3711 3.92045 71.9553 4.53119 72.6045C13.636 82.299 22.0563 92.846 30.1952 103.043L32.3696 105.769C33.0106 106.574 33.656 107.379 34.3014 108.18C40.1402 114.555 45.5199 121.315 50.1026 127.149C50.7784 127.915 51.4627 128.681 52.1514 129.443C56.6258 134.389 60.8447 138.722 65.0722 142.69Z" fill="#565656"/>
<path d="M198.373 70.2588C197.905 69.6139 197.437 68.9691 196.965 68.3286C195.454 66.2945 193.916 64.2993 192.604 62.6201C192.131 62.0142 191.655 61.4039 191.178 60.7937L191.131 60.7331C187.12 54.9035 182.568 49.0002 177.608 43.1922L176.153 41.3356C173.259 37.6482 170.53 34.1686 167.845 30.4899L165.766 27.7157C165.19 26.9497 164.614 26.1793 164.05 25.4263C163.635 24.7771 163.197 24.1279 162.712 23.4398C162.275 22.8252 161.815 22.1933 161.291 21.5052C160.373 20.3626 159.45 19.2244 158.528 18.0905C155.392 14.23 152.165 10.2614 149.284 6.07629C149.103 6.13256 148.916 6.19315 148.734 6.24941C151.641 10.4821 154.902 14.494 158.069 18.3934C158.991 19.5274 159.914 20.6656 160.828 21.7995C161.343 22.479 161.802 23.1022 162.236 23.7167C162.716 24.4005 163.15 25.0411 163.57 25.6989C164.141 26.4649 164.722 27.2353 165.298 28.0057L167.377 30.7755C170.067 34.4585 172.8 37.9425 175.693 41.6342L177.153 43.4995C182.108 49.3032 186.648 55.1934 190.659 61.0188L190.715 61.0923C191.191 61.7026 191.664 62.3085 192.14 62.9144C193.448 64.5936 194.986 66.5801 196.493 68.6142C196.965 69.2504 197.433 69.8909 197.905 70.5488C201.678 75.2488 205.199 80.1913 208.608 84.9736C209.579 86.3325 210.566 87.7218 211.562 89.1024C211.736 89.0331 211.918 88.9596 212.087 88.8946C211.077 87.4924 210.068 86.0815 209.085 84.7009C205.672 79.91 202.146 74.9589 198.373 70.2588Z" fill="#565656"/>
<path d="M176.452 79.5508C175.984 78.906 175.516 78.2611 175.044 77.6206C173.536 75.5865 171.994 73.5956 170.682 71.9121C170.271 71.3841 169.855 70.8518 169.439 70.3194L169.209 70.0251C165.198 64.1955 160.646 58.2922 155.686 52.4842L154.231 50.6276C151.342 46.9445 148.613 43.4606 145.928 39.7819L144.022 37.2371C143.389 36.3932 142.753 35.5449 142.133 34.7183C141.717 34.0691 141.28 33.4199 140.795 32.7318C140.357 32.1172 139.898 31.4853 139.374 30.7972C138.456 29.6547 137.533 28.5164 136.611 27.3825C133.336 23.3576 129.966 19.2115 126.995 14.823C126.83 14.9052 126.666 14.9875 126.501 15.074C129.485 19.4798 132.868 23.6432 136.156 27.6855C137.078 28.8194 138.001 29.9576 138.915 31.0915C139.43 31.771 139.89 32.3942 140.323 33.0088C140.804 33.6882 141.237 34.3331 141.657 34.9909C142.289 35.8349 142.922 36.6831 143.558 37.5271L145.464 40.0675C148.154 43.7549 150.887 47.2388 153.776 50.9262L155.236 52.7915C160.191 58.5952 164.731 64.4855 168.742 70.3108L168.98 70.6181C169.396 71.1504 169.807 71.6784 170.223 72.2107C171.531 73.8899 173.073 75.8808 174.576 77.9105C175.048 78.5467 175.516 79.1873 175.988 79.8451C179.761 84.5452 183.282 89.4876 186.687 94.2656C187.492 95.3995 188.315 96.5507 189.143 97.702C189.325 97.637 189.502 97.5764 189.684 97.5115C188.835 96.33 187.995 95.1485 187.163 93.9886C183.75 89.202 180.224 84.2509 176.452 79.5508Z" fill="#565656"/>
<path d="M154.535 88.847C154.067 88.2022 153.599 87.5573 153.127 86.9168C151.607 84.8697 150.069 82.8832 148.765 81.2083C148.272 80.5765 147.778 79.9446 147.293 79.3214C143.282 73.496 138.729 67.5885 133.77 61.7805L132.314 59.9238C129.421 56.2321 126.688 52.7482 124.007 49.0781L122.044 46.4598C121.429 45.6418 120.814 44.8195 120.212 44.0145C119.796 43.3653 119.359 42.7161 118.874 42.028C118.436 41.4091 117.973 40.7816 117.453 40.0934C116.535 38.9509 115.612 37.8127 114.69 36.6787C111.636 32.9221 108.496 29.053 105.671 24.9891C105.494 25.0584 105.316 25.1233 105.139 25.1882C107.984 29.2911 111.146 33.1905 114.226 36.9774C115.149 38.1113 116.071 39.2495 116.985 40.3834C117.501 41.0586 117.96 41.6861 118.393 42.3007C118.874 42.9801 119.307 43.625 119.727 44.2828C120.338 45.1008 120.953 45.9231 121.572 46.7454L123.534 49.3594C126.22 53.0381 128.953 56.5264 131.851 60.2181L133.311 62.0834C138.266 67.8871 142.805 73.7817 146.816 79.607C147.31 80.2389 147.804 80.8751 148.297 81.507C149.601 83.1775 151.135 85.1597 152.651 87.2068C153.123 87.843 153.591 88.4835 154.063 89.1413C157.835 93.8414 161.357 98.7839 164.761 103.562C165.394 104.449 166.035 105.345 166.676 106.245C166.849 106.172 167.022 106.102 167.2 106.029C166.542 105.107 165.888 104.189 165.242 103.285C161.833 98.4939 158.308 93.5471 154.535 88.847Z" fill="#565656"/>
<path d="M132.613 98.139C132.145 97.4941 131.677 96.8493 131.205 96.2087C129.693 94.1703 128.151 92.1795 126.843 90.5003C126.354 89.8684 125.86 89.2365 125.371 88.6133C121.36 82.7836 116.807 76.8804 111.848 71.0724L110.392 69.2157C107.499 65.5284 104.77 62.0444 102.084 58.3701L100.179 55.8253C99.5463 54.9813 98.9095 54.1331 98.2901 53.3064C97.8786 52.6572 97.4412 52.0081 96.9517 51.3199C96.5186 50.7054 96.0551 50.0735 95.531 49.3854C94.6127 48.2428 93.6901 47.1046 92.7675 45.9707C89.2633 41.6644 85.6552 37.2154 82.5322 32.485C82.3546 32.5499 82.177 32.6105 81.9951 32.6754C85.1354 37.4447 88.7739 41.9328 92.304 46.2736C93.2266 47.4075 94.1492 48.5458 95.0632 49.6797C95.5786 50.3591 96.0378 50.9867 96.4709 51.5969C96.9517 52.2807 97.3848 52.9256 97.805 53.5791C98.4374 54.423 99.0698 55.2713 99.7065 56.1152L101.612 58.6557C104.298 62.3344 107.031 65.8227 109.929 69.5144L111.389 71.3797C116.344 77.1834 120.883 83.0736 124.898 88.9033C125.392 89.5351 125.886 90.167 126.375 90.7989C127.684 92.4781 129.221 94.4646 130.729 96.4987C131.201 97.1349 131.668 97.7754 132.141 98.4333C135.913 103.133 139.435 108.076 142.844 112.858C143.519 113.806 144.204 114.767 144.897 115.732C145.066 115.654 145.235 115.576 145.408 115.498C144.706 114.52 144.009 113.542 143.324 112.581C139.916 107.79 136.39 102.843 132.613 98.139Z" fill="#565656"/>
<path d="M110.695 107.435C110.228 106.79 109.76 106.146 109.288 105.505C107.776 103.467 106.234 101.476 104.926 99.7966C104.514 99.2686 104.099 98.7362 103.683 98.2039L103.453 97.9096C99.4423 92.0799 94.8899 86.1767 89.9303 80.3687L88.475 78.512C85.5815 74.8247 82.8527 71.3407 80.1672 67.6664L78.0794 64.8792C77.5077 64.1132 76.9316 63.3515 76.3728 62.6027C75.957 61.9535 75.5195 61.3044 75.0344 60.6162C74.6013 60.0017 74.1378 59.3698 73.6137 58.6817C72.6954 57.5391 71.7728 56.4009 70.8502 55.267C67.1598 50.727 63.3438 46.0356 60.1125 41.0196C60.0085 40.8768 59.9002 40.7296 59.7919 40.5868C59.623 40.6647 59.4541 40.7469 59.2852 40.8248C59.3978 40.9806 59.5147 41.1321 59.6273 41.2879C62.863 46.3169 66.692 51.017 70.3867 55.5656C71.3093 56.6995 72.2319 57.8377 73.1459 58.9716C73.6613 59.6511 74.1205 60.2787 74.5536 60.8889C75.0344 61.5684 75.4675 62.2132 75.8877 62.8711C76.4595 63.6371 77.0312 64.3988 77.6073 65.1648L79.6951 67.9477C82.3806 71.6264 85.1137 75.1146 88.0072 78.8063L89.4669 80.6716C94.4221 86.4753 98.9615 92.3656 102.972 98.1909L103.211 98.4982C103.626 99.0305 104.038 99.5585 104.454 100.091C105.758 101.766 107.3 103.757 108.807 105.791C109.279 106.427 109.747 107.067 110.219 107.725C113.992 112.425 117.513 117.368 120.922 122.15C121.741 123.301 122.577 124.47 123.417 125.643C123.603 125.586 123.789 125.53 123.976 125.478C123.109 124.271 122.247 123.063 121.403 121.877C117.998 117.086 114.468 112.135 110.695 107.435Z" fill="#565656"/>
<path d="M88.7783 116.727C88.3105 116.082 87.8427 115.438 87.3705 114.797C85.8588 112.763 84.3212 110.768 83.0087 109.089C82.5366 108.483 82.0601 107.872 81.5837 107.262L81.536 107.202C77.5251 101.372 72.9727 95.4687 68.0132 89.6607L66.5578 87.804C63.6687 84.1166 60.9355 80.637 58.25 76.9583L56.2532 74.2924C55.6511 73.4874 55.0447 72.6824 54.4556 71.8947C54.0398 71.2455 53.6023 70.5963 53.1172 69.9082C52.6797 69.2936 52.2206 68.6618 51.6965 67.9736C50.7782 66.8311 49.8556 65.6928 48.933 64.5589C45.3985 60.2137 41.7558 55.7257 38.6198 50.9478C38.4552 51.03 38.2906 51.1165 38.126 51.1988C41.275 55.9941 44.9307 60.4994 48.4782 64.8619C49.4008 65.9958 50.3234 67.134 51.2374 68.2679C51.7528 68.9474 52.2119 69.5706 52.6451 70.1852C53.1259 70.869 53.559 71.5095 53.9792 72.1674C54.5813 72.9723 55.1833 73.7773 55.7897 74.5823L57.7865 77.244C60.4764 80.927 63.2096 84.4109 66.103 88.1026L67.5627 89.9679C72.5179 95.7716 77.0573 101.662 81.0682 107.487L81.1245 107.561C81.601 108.171 82.0731 108.777 82.5496 109.383C83.8577 111.062 85.3954 113.049 86.9027 115.083C87.3749 115.719 87.8427 116.359 88.3148 117.017C92.0875 121.717 95.609 126.66 99.0179 131.442C99.4034 131.987 99.7975 132.533 100.192 133.087C100.369 133.022 100.547 132.952 100.724 132.888C100.313 132.312 99.9015 131.736 99.4986 131.169C96.0768 126.378 92.551 121.432 88.7783 116.727Z" fill="#565656"/>
<path d="M66.8568 126.024C66.389 125.379 65.9212 124.734 65.4491 124.093C63.9417 122.059 62.3997 120.068 61.0873 118.385C60.6758 117.857 60.26 117.325 59.8442 116.792L59.6146 116.498C55.6036 110.668 51.0513 104.765 46.0917 98.957L44.6363 97.1003C41.7472 93.4173 39.0184 89.9377 36.3286 86.2547L34.3621 83.632C33.747 82.814 33.1319 81.996 32.5342 81.191C32.1184 80.5419 31.6809 79.8927 31.1958 79.2045C30.7583 78.5856 30.2948 77.9538 29.775 77.27C28.8568 76.1274 27.9342 74.9892 27.0072 73.8509C23.3168 69.3153 19.5008 64.6196 16.2695 59.6036C16.2175 59.5343 16.1699 59.4694 16.1179 59.4001C15.9317 59.4564 15.7454 59.5127 15.5635 59.5689C15.6371 59.6685 15.7107 59.768 15.7887 59.8719C19.0243 64.9009 22.849 69.601 26.5481 74.1496C27.4707 75.2835 28.3933 76.4217 29.3073 77.5599C29.8227 78.2351 30.2818 78.8626 30.715 79.4772C31.1958 80.161 31.6289 80.8015 32.0491 81.4594C32.6598 82.2773 33.2749 83.0996 33.8899 83.9176L35.8521 86.536C38.5463 90.2233 41.2751 93.7073 44.1642 97.3946L45.6239 99.2599C50.5791 105.064 55.1185 110.954 59.1295 116.779L59.3677 117.086C59.7835 117.619 60.195 118.147 60.6108 118.679C61.9189 120.358 63.4609 122.349 64.964 124.379C65.4361 125.015 65.9039 125.656 66.376 126.314C70.1487 131.014 73.6702 135.956 77.0748 140.734C77.4256 141.227 77.7808 141.725 78.136 142.223C78.3006 142.158 78.4782 142.089 78.6601 142.015C78.2876 141.496 77.9194 140.976 77.5512 140.461C74.1553 135.67 70.6295 130.724 66.8568 126.024Z" fill="#565656"/>
<path d="M102.575 79.3344C102.575 79.3344 98.0265 79.8494 96.0557 81.204L102.575 79.3344Z" fill="white"/>
<path d="M96.051 81.3122C96.0163 81.3122 95.9817 81.2949 95.96 81.2646C95.9254 81.217 95.9384 81.1478 95.986 81.1132C97.9612 79.7585 102.371 79.2478 102.557 79.2262C102.622 79.2175 102.669 79.2608 102.678 79.3214C102.687 79.382 102.643 79.4339 102.583 79.4426C102.54 79.4469 98.0391 79.9706 96.1116 81.2949C96.0943 81.3079 96.0726 81.3122 96.051 81.3122Z" fill="#565656"/>
<path d="M130.815 65.2039L112.692 55.7648C112.099 55.4575 111.891 54.7434 112.224 54.1721L128.762 26.0366C129.1 25.4653 129.849 25.2532 130.447 25.5605L148.57 34.9953C149.163 35.3026 149.371 36.0167 149.038 36.5879L132.5 64.7235C132.162 65.2991 131.409 65.5112 130.815 65.2039Z" fill="#BCBCBC"/>
<path d="M131.395 65.4549C131.179 65.4549 130.962 65.4073 130.763 65.3034L112.64 55.8643C112.324 55.6999 112.099 55.4272 112.003 55.094C111.908 54.765 111.956 54.4188 112.129 54.1202L128.667 25.9846C129.03 25.3657 129.853 25.132 130.494 25.4696L148.617 34.9087C148.934 35.0732 149.159 35.3458 149.254 35.6791C149.349 36.008 149.302 36.3542 149.128 36.6529L132.591 64.7884C132.34 65.2082 131.872 65.4549 131.395 65.4549ZM129.862 25.5259C129.459 25.5259 129.065 25.7293 128.857 26.0885L112.32 54.2241C112.172 54.4751 112.138 54.7607 112.211 55.029C112.289 55.3017 112.48 55.5311 112.74 55.6652L130.863 65.1044C131.404 65.3857 132.097 65.1909 132.4 64.6716L148.938 36.536C149.085 36.285 149.12 35.9993 149.046 35.731C148.968 35.4584 148.778 35.229 148.518 35.0948L130.395 25.6557C130.226 25.5648 130.044 25.5259 129.862 25.5259Z" fill="#565656"/>
<path d="M130.282 30.1567L143.74 37.1636L130.282 30.1567Z" fill="white"/>
<path d="M143.74 37.2717C143.723 37.2717 143.706 37.2674 143.688 37.2587L130.231 30.2519C130.179 30.2259 130.157 30.161 130.183 30.1048C130.213 30.0528 130.278 30.0312 130.33 30.0571L143.788 37.064C143.84 37.09 143.862 37.1549 143.836 37.2111C143.814 37.2501 143.779 37.2717 143.74 37.2717Z" fill="#565656"/>
<path d="M127.627 34.4673L141.085 41.4741L127.627 34.4673Z" fill="white"/>
<path d="M141.085 41.5823C141.068 41.5823 141.05 41.5779 141.033 41.5693L127.575 34.5624C127.523 34.5365 127.502 34.4716 127.528 34.4153C127.558 34.3634 127.623 34.3417 127.675 34.3677L141.133 41.3745C141.185 41.4005 141.206 41.4654 141.18 41.5217C141.163 41.5606 141.124 41.5823 141.085 41.5823Z" fill="#565656"/>
<path d="M124.976 38.778L138.433 45.7848L124.976 38.778Z" fill="white"/>
<path d="M138.434 45.8929C138.416 45.8929 138.399 45.8886 138.382 45.88L124.924 38.8731C124.872 38.8471 124.85 38.7822 124.876 38.726C124.902 38.674 124.972 38.6524 125.024 38.6784L138.481 45.6852C138.533 45.7112 138.555 45.7761 138.529 45.8324C138.512 45.8713 138.473 45.8929 138.434 45.8929Z" fill="#565656"/>
<path d="M122.325 43.0885L135.783 50.0953L122.325 43.0885Z" fill="white"/>
<path d="M135.778 50.2035C135.761 50.2035 135.744 50.1992 135.727 50.1905L122.269 43.1837C122.217 43.1577 122.195 43.0928 122.221 43.0365C122.251 42.9846 122.316 42.9629 122.368 42.9889L135.826 49.9957C135.878 50.0217 135.9 50.0866 135.874 50.1429C135.856 50.1818 135.817 50.2035 135.778 50.2035Z" fill="#565656"/>
<path d="M119.67 47.399L133.128 54.4059L119.67 47.399Z" fill="white"/>
<path d="M133.128 54.514C133.111 54.514 133.093 54.5097 133.076 54.5011L119.618 47.4942C119.566 47.4682 119.545 47.4033 119.571 47.3471C119.601 47.2951 119.666 47.2735 119.718 47.2995L133.176 54.3063C133.228 54.3323 133.249 54.3972 133.223 54.4534C133.206 54.4924 133.167 54.514 133.128 54.514Z" fill="#565656"/>
<path d="M117.019 51.7096L130.476 58.7164L117.019 51.7096Z" fill="white"/>
<path d="M130.477 58.8246C130.459 58.8246 130.442 58.8203 130.425 58.8116L116.967 51.8048C116.915 51.7788 116.893 51.7139 116.919 51.6576C116.945 51.6057 117.015 51.584 117.066 51.61L130.524 58.6168C130.576 58.6428 130.598 58.7077 130.572 58.764C130.55 58.8029 130.516 58.8246 130.477 58.8246Z" fill="#565656"/>
<path d="M132.972 76.6425L118.379 62.7543C117.903 62.2999 117.907 61.5555 118.396 61.0924L119.995 59.569L142.349 38.2455C142.835 37.7824 143.619 37.7738 144.095 38.2282L146.586 40.5955L158.688 52.112C159.164 52.5665 159.16 53.3108 158.67 53.7739L134.717 76.6252C134.228 77.0926 133.448 77.0969 132.972 76.6425Z" fill="white"/>
<path d="M133.826 77.0882C133.488 77.0882 133.15 76.967 132.894 76.7247L118.302 62.8365C118.05 62.5985 117.916 62.2825 117.916 61.9406C117.916 61.5901 118.059 61.2655 118.319 61.0145L142.272 38.1632C142.8 37.6612 143.649 37.6526 144.169 38.1459L158.762 52.0341C159.013 52.2721 159.147 52.5881 159.147 52.93C159.147 53.2762 159.004 53.6051 158.744 53.8562L134.791 76.7074C134.523 76.9584 134.176 77.0882 133.826 77.0882ZM133.046 76.5646C133.479 76.98 134.198 76.9714 134.644 76.5472L158.597 53.696C158.814 53.4883 158.935 53.2156 158.935 52.93C158.935 52.6487 158.822 52.389 158.615 52.1899L144.022 38.3061C143.584 37.8906 142.87 37.8992 142.423 38.3234L118.47 61.1746C118.254 61.3823 118.133 61.655 118.133 61.945C118.133 62.2263 118.245 62.4859 118.453 62.685L133.046 76.5646Z" fill="#565656"/>
<path d="M139.314 52.4497L136.026 49.3206C135.918 49.2167 135.922 49.0523 136.031 48.9441L136.39 48.6022L141.428 43.7982C141.536 43.6944 141.714 43.69 141.822 43.7939L142.381 44.3262L145.105 46.923C145.213 47.0268 145.209 47.1913 145.101 47.2995L139.704 52.4453C139.595 52.5535 139.422 52.5535 139.314 52.4497Z" fill="#FFBD98"/>
<path d="M139.509 52.6358C139.413 52.6358 139.314 52.6011 139.24 52.5319L135.952 49.4028C135.879 49.3336 135.84 49.2384 135.84 49.1388C135.84 49.0393 135.883 48.9441 135.957 48.8705L141.354 43.7247C141.505 43.5818 141.748 43.5775 141.895 43.7203L145.183 46.8494C145.256 46.9186 145.295 47.0139 145.295 47.1091C145.295 47.2129 145.252 47.3081 145.179 47.3774L139.781 52.5232C139.708 52.5968 139.604 52.6358 139.509 52.6358ZM141.627 43.8285C141.583 43.8285 141.536 43.8458 141.501 43.8805L136.104 49.0263C136.074 49.0566 136.052 49.0956 136.052 49.1388C136.052 49.1778 136.069 49.2167 136.1 49.247L139.387 52.3761C139.452 52.4367 139.565 52.4367 139.63 52.3718L145.027 47.2259C145.057 47.1956 145.079 47.1567 145.079 47.1134C145.079 47.0744 145.062 47.0355 145.031 47.0095L141.744 43.8805C141.713 43.8458 141.67 43.8285 141.627 43.8285Z" fill="#565656"/>
<path d="M146.734 59.6339L143.446 56.5048C143.338 56.401 143.342 56.2365 143.451 56.1283L143.81 55.7864L148.848 50.9824C148.956 50.8786 149.133 50.8742 149.242 50.9781L149.801 51.5104L152.525 54.1072C152.633 54.211 152.629 54.3755 152.521 54.4837L147.124 59.6296C147.02 59.7377 146.842 59.7377 146.734 59.6339Z" fill="#FFBD98"/>
<path d="M146.929 59.82C146.833 59.82 146.734 59.7853 146.66 59.7161L143.372 56.587C143.299 56.5178 143.26 56.4226 143.26 56.323C143.26 56.2235 143.303 56.124 143.377 56.0547L148.774 50.9089C148.925 50.766 149.168 50.7617 149.315 50.9045L152.603 54.0336C152.676 54.1028 152.715 54.1981 152.715 54.2976C152.715 54.3971 152.672 54.4967 152.598 54.5659L147.201 59.7118C147.128 59.781 147.028 59.82 146.929 59.82ZM146.812 59.556C146.877 59.6209 146.989 59.6166 147.054 59.5516L152.451 54.4058C152.481 54.3755 152.499 54.3365 152.499 54.2933C152.499 54.2543 152.481 54.2154 152.451 54.1851L149.164 51.056C149.099 50.9954 148.986 50.9954 148.921 51.0603L143.524 56.2062C143.494 56.2365 143.472 56.2754 143.472 56.3187C143.472 56.3577 143.489 56.3966 143.52 56.4226L146.812 59.556Z" fill="#565656"/>
<path d="M132.076 72.8729L128.788 69.7438C128.68 69.64 128.684 69.4755 128.792 69.3673L129.152 69.0254L134.189 64.2215C134.298 64.1176 134.475 64.1133 134.584 64.2171L135.142 64.7495L137.867 67.3462C137.975 67.4501 137.971 67.6145 137.863 67.7227L132.465 72.8686C132.357 72.9724 132.184 72.9724 132.076 72.8729Z" fill="#FFBD98"/>
<path d="M132.266 73.0547C132.171 73.0547 132.071 73.0201 131.998 72.9508L128.71 69.8218C128.637 69.7525 128.598 69.6573 128.598 69.5578C128.598 69.4582 128.641 69.3587 128.715 69.2895L134.112 64.1436C134.263 64.0008 134.506 63.9965 134.653 64.1393L137.941 67.2683C138.014 67.3376 138.053 67.4328 138.053 67.5323C138.053 67.6319 138.01 67.7314 137.936 67.8007L132.544 72.9465C132.466 73.0201 132.366 73.0547 132.266 73.0547ZM134.389 64.2518C134.346 64.2518 134.298 64.2691 134.263 64.3037L128.866 69.4496C128.836 69.4799 128.814 69.5188 128.814 69.5621C128.814 69.6011 128.832 69.64 128.862 69.666L132.149 72.795C132.214 72.86 132.327 72.8556 132.392 72.7907L137.789 67.6449C137.819 67.6146 137.841 67.5756 137.841 67.5323C137.841 67.4934 137.824 67.4544 137.793 67.4285L134.506 64.2994C134.475 64.2648 134.432 64.2518 134.389 64.2518Z" fill="#565656"/>
<path d="M133.336 50.5497L144.329 61.2958L133.336 50.5497Z" fill="white"/>
<path d="M144.329 61.3997C144.303 61.3997 144.273 61.391 144.255 61.3694L133.262 50.6233C133.219 50.58 133.219 50.5151 133.262 50.4718C133.305 50.4285 133.375 50.4285 133.414 50.4718L144.407 61.2179C144.45 61.2612 144.45 61.3261 144.407 61.3694C144.385 61.391 144.359 61.3997 144.329 61.3997Z" fill="#565656"/>
<path d="M131.058 52.783L142.051 63.5291L131.058 52.783Z" fill="white"/>
<path d="M142.055 63.6372C142.029 63.6372 141.999 63.6286 141.982 63.6069L130.989 52.8608C130.945 52.8175 130.945 52.7526 130.989 52.7093C131.032 52.6661 131.101 52.6661 131.14 52.7093L142.133 63.4555C142.177 63.4987 142.177 63.5637 142.133 63.6069C142.112 63.6243 142.081 63.6372 142.055 63.6372Z" fill="#565656"/>
<path d="M128.784 55.0161L139.777 65.7622L128.784 55.0161Z" fill="white"/>
<path d="M139.777 65.8704C139.751 65.8704 139.721 65.8617 139.704 65.8401L128.71 55.094C128.667 55.0507 128.667 54.9858 128.71 54.9425C128.754 54.8992 128.819 54.8992 128.862 54.9425L139.855 65.6886C139.898 65.7319 139.898 65.7968 139.855 65.8401C139.833 65.8617 139.803 65.8704 139.777 65.8704Z" fill="#565656"/>
<path d="M203.779 150.095L85.7638 166.212L82.2812 143.253L200.301 127.136L203.779 150.095Z" fill="#565656"/>
<path d="M203.779 149.481L85.7638 165.602L82.2812 142.638L200.301 126.521L203.779 149.481Z" fill="white"/>
<path d="M85.7638 165.71C85.7118 165.71 85.6641 165.671 85.6555 165.619L82.173 142.66C82.1686 142.63 82.1773 142.604 82.1946 142.578C82.212 142.556 82.2379 142.539 82.2683 142.534L200.284 126.417C200.344 126.409 200.396 126.452 200.405 126.508L203.887 149.468C203.892 149.498 203.883 149.524 203.866 149.55C203.848 149.572 203.822 149.589 203.792 149.593L85.7768 165.71C85.7724 165.71 85.7681 165.71 85.7638 165.71ZM82.4069 142.733L85.8547 165.481L203.658 149.394L200.21 126.647L82.4069 142.733Z" fill="#565656"/>
<path d="M213.152 167L96.6182 143.041L101.794 120.367L218.324 144.326L213.152 167Z" fill="#565656"/>
<path d="M213.152 166.212L96.6182 142.253L101.794 119.579L218.324 143.543L213.152 166.212Z" fill="#BCBCBC"/>
<path d="M213.148 166.32C213.139 166.32 213.135 166.32 213.126 166.316L96.5964 142.357C96.5661 142.353 96.5444 142.335 96.5271 142.309C96.5098 142.283 96.5054 142.253 96.5141 142.227L101.69 119.553C101.703 119.497 101.755 119.458 101.816 119.471L218.345 143.43C218.376 143.435 218.397 143.452 218.415 143.478C218.432 143.504 218.436 143.534 218.428 143.56L213.252 166.234C213.243 166.286 213.2 166.32 213.148 166.32ZM96.7523 142.171L213.07 166.087L218.194 143.625L101.876 119.709L96.7523 142.171Z" fill="#565656"/>
<path d="M256.996 62.0402L208.492 40.4786L174.377 103.921L173.849 103.796V104.903L223.249 126.863L257.892 62.4383V61.326L256.996 62.0402Z" fill="#565656"/>
<path d="M223.249 125.751L173.849 103.796L208.492 39.3663L257.892 61.326L223.249 125.751Z" fill="#BCBCBC"/>
<path d="M223.249 125.859C223.236 125.859 223.219 125.855 223.206 125.85L173.805 103.891C173.779 103.878 173.758 103.856 173.749 103.826C173.74 103.796 173.74 103.765 173.758 103.739L208.396 39.3144C208.422 39.2625 208.483 39.2452 208.535 39.2668L257.935 61.2265C257.961 61.2395 257.983 61.2611 257.992 61.2914C258 61.3217 258 61.352 257.983 61.378L223.344 125.803C223.327 125.842 223.288 125.859 223.249 125.859ZM174 103.744L223.201 125.617L257.74 61.3823L208.539 39.5092L174 103.744Z" fill="#565656"/>
<path d="M237.352 89.2192C237.352 89.864 236.767 90.3877 236.052 90.3877C235.333 90.3877 234.753 89.864 234.753 89.2192C234.753 88.5743 235.338 88.0507 236.052 88.0507C236.767 88.0507 237.352 88.5743 237.352 89.2192Z" fill="#565656"/>
<path d="M236.049 89.7861C237.003 89.7861 237.777 89.0905 237.777 88.2324C237.777 87.3743 237.003 86.6787 236.049 86.6787C235.094 86.6787 234.32 87.3743 234.32 88.2324C234.32 89.0905 235.094 89.7861 236.049 89.7861Z" fill="white"/>
<path d="M236.048 89.8944C235.035 89.8944 234.212 89.15 234.212 88.2325C234.212 87.315 235.035 86.5706 236.048 86.5706C237.062 86.5706 237.885 87.315 237.885 88.2325C237.885 89.15 237.062 89.8944 236.048 89.8944ZM236.048 86.787C235.156 86.787 234.428 87.4361 234.428 88.2325C234.428 89.0288 235.156 89.678 236.048 89.678C236.941 89.678 237.668 89.0288 237.668 88.2325C237.668 87.4361 236.945 86.787 236.048 86.787Z" fill="#565656"/>
<path d="M53.065 34.4153L16.8452 98.2645L0.108398 92.7595L36.3282 28.9146L53.065 34.4153Z" fill="#565656"/>
<path d="M53.065 34.4153V33.5844L51.8955 34.7529L53.065 34.4153Z" fill="#565656"/>
<path d="M0.108398 92.7594V91.9285L1.71971 91.7467L1.10464 92.7594H0.108398Z" fill="#565656"/>
<path d="M53.065 33.5843L16.8452 97.4335L0.108398 91.9285L36.3282 28.0792L53.065 33.5843Z" fill="#BCBCBC"/>
<path d="M16.8454 97.5418C16.8324 97.5418 16.8237 97.5418 16.8107 97.5375L0.0739295 92.0324C0.0436091 92.0237 0.0176203 91.9978 0.00462585 91.9675C-0.00836858 91.9372 -0.0040371 91.9025 0.0132888 91.8766L36.2331 28.0273C36.2591 27.9841 36.3154 27.9624 36.363 27.9797L53.0998 33.4805C53.1302 33.4891 53.1562 33.5151 53.1692 33.5454C53.1821 33.5757 53.1778 33.6103 53.1605 33.6363L16.9407 97.4855C16.9234 97.5201 16.8844 97.5418 16.8454 97.5418ZM0.268846 91.8679L16.7978 97.3037L52.9049 33.6493L36.376 28.2134L0.268846 91.8679Z" fill="#565656"/>
<path d="M197.165 11.9276L200.313 21.7779C200.526 22.4401 200.132 23.1455 199.43 23.3446L196.181 24.2794L192.266 12.0229L195.514 11.088C196.216 10.889 196.952 11.2655 197.165 11.9276Z" fill="#565656"/>
<path d="M200.371 19.9645V22.1414L199.431 21.2066L200.371 19.9645Z" fill="#565656"/>
<path d="M192.266 12.0272L196.182 24.2838L194.683 24.7166C193.982 24.92 193.245 24.5435 193.033 23.877L190.339 15.4506C189.875 14.0007 190.742 12.4687 192.266 12.0272Z" fill="#565656"/>
<path d="M190.217 14.559V12.4081L191.308 13.0356L190.217 14.559Z" fill="#565656"/>
<path d="M181.112 19.1465L182.966 24.9502L192.794 22.1198L191.534 18.1727L181.112 19.1465Z" fill="#565656"/>
<path d="M192.794 22.1198L193.128 20.895H192.404L192.794 22.1198Z" fill="#565656"/>
<path d="M180.207 17.3245L183.62 28.0013C184.088 29.4642 183.218 31.0092 181.676 31.4507L179.882 31.9657C178.34 32.4071 176.716 31.5848 176.248 30.122L172.835 19.4451L180.207 17.3245Z" fill="#565656"/>
<path d="M172.84 17.3029C172.718 17.991 172.636 18.6878 172.84 19.4452L174.031 19.3846L172.84 17.3029Z" fill="#565656"/>
<path d="M197.165 9.78531L200.314 19.6356C200.527 20.2977 200.133 21.0032 199.431 21.2023L196.182 22.1371L192.267 9.88053L195.515 8.9457C196.217 8.74662 196.953 9.12315 197.165 9.78531Z" fill="#FFBD98"/>
<path d="M196.186 22.2496C196.139 22.2496 196.1 22.2193 196.082 22.176L192.167 9.91944C192.158 9.89348 192.162 9.86318 192.175 9.83721C192.188 9.81125 192.214 9.79394 192.24 9.78528L195.489 8.85046C196.247 8.63406 197.044 9.04088 197.273 9.75931L200.422 19.6096C200.531 19.9515 200.496 20.3107 200.327 20.6266C200.15 20.9599 199.842 21.2066 199.465 21.3148L196.217 22.2453C196.204 22.2453 196.195 22.2496 196.186 22.2496ZM192.405 9.9584L196.256 22.0072L199.4 21.1027C199.721 21.0118 199.981 20.8041 200.132 20.5228C200.275 20.2588 200.301 19.9558 200.21 19.6745L197.061 9.82423C196.866 9.214 196.186 8.8721 195.545 9.0582L192.405 9.9584Z" fill="#565656"/>
<path d="M192.266 9.88489L196.182 22.1415L194.683 22.5742C193.982 22.7776 193.245 22.4011 193.033 21.7346L190.339 13.3082C189.875 11.8584 190.742 10.3263 192.266 9.88489Z" fill="white"/>
<path d="M194.302 22.7344C193.687 22.7344 193.119 22.3536 192.929 21.7693L190.234 13.3429C190.009 12.6331 190.078 11.8801 190.429 11.2222C190.802 10.5211 191.443 10.0104 192.236 9.78539C192.292 9.76808 192.352 9.8027 192.37 9.85463L196.285 22.1112C196.294 22.1372 196.29 22.1675 196.277 22.1934C196.264 22.2194 196.238 22.2367 196.212 22.2454L194.713 22.6781C194.579 22.7171 194.44 22.7344 194.302 22.7344ZM192.197 10.0191C191.508 10.2441 190.953 10.7029 190.624 11.3218C190.299 11.9277 190.234 12.6245 190.442 13.278L193.136 21.7044C193.331 22.3103 194.011 22.6565 194.653 22.4704L196.047 22.0679L192.197 10.0191Z" fill="#565656"/>
<path d="M181.112 18.0126L182.966 23.8163L192.794 20.9858L191.534 17.0388L181.112 18.0126Z" fill="#FFBD98"/>
<path d="M182.971 23.9245C182.923 23.9245 182.884 23.8942 182.867 23.8509L181.013 18.0472C181.004 18.017 181.009 17.9823 181.026 17.9564C181.043 17.9304 181.074 17.9131 181.108 17.9088L191.526 16.935C191.573 16.9307 191.625 16.9609 191.638 17.0086L192.899 20.9556C192.907 20.9815 192.903 21.0118 192.89 21.0378C192.877 21.0638 192.851 21.0811 192.825 21.0897L183.001 23.9202C182.988 23.9245 182.98 23.9245 182.971 23.9245ZM181.26 18.1078L183.04 23.6821L192.656 20.9123L191.456 17.1557L181.26 18.1078Z" fill="#565656"/>
<path d="M180.208 15.1821L183.621 25.859C184.089 27.3218 183.218 28.8669 181.676 29.3083L179.883 29.8234C178.341 30.2648 176.717 29.4425 176.249 27.9797L172.836 17.3028L180.208 15.1821Z" fill="#FFBD98"/>
<path d="M179.043 30.0528C177.747 30.0528 176.543 29.2521 176.149 28.0143L172.736 17.3375C172.727 17.3115 172.732 17.2812 172.745 17.2552C172.758 17.2293 172.784 17.2119 172.81 17.2033L180.182 15.0826C180.242 15.0653 180.299 15.0999 180.316 15.1519L183.729 25.8288C183.959 26.5429 183.885 27.3046 183.53 27.9667C183.153 28.6722 182.508 29.1872 181.711 29.4166L179.918 29.9316C179.623 30.0095 179.328 30.0528 179.043 30.0528ZM172.974 17.3764L176.353 27.9451C176.803 29.3517 178.371 30.1437 179.853 29.7195L181.646 29.2045C182.386 28.9924 182.984 28.5164 183.335 27.8629C183.664 27.2483 183.729 26.5515 183.517 25.8937L180.138 15.3207L172.974 17.3764Z" fill="#565656"/>
<path d="M175.715 7.66034L177.305 10.7721L172.731 12.0878L172.172 8.68172C172.016 8.18834 172.306 7.66467 172.826 7.51752L174.489 7.03713C175.009 6.88565 175.559 7.16696 175.715 7.66034Z" fill="white"/>
<path d="M172.731 12.1916C172.71 12.1916 172.692 12.1873 172.675 12.1743C172.649 12.157 172.632 12.131 172.627 12.1007L172.068 8.69465C171.991 8.45229 172.017 8.1753 172.142 7.93294C172.276 7.6776 172.51 7.4915 172.801 7.40927L174.464 6.92887C175.036 6.76441 175.642 7.07169 175.82 7.61268L177.405 10.7158C177.418 10.7461 177.422 10.7807 177.409 10.8067C177.396 10.837 177.37 10.8586 177.34 10.8672L172.766 12.1829C172.753 12.1916 172.74 12.1916 172.731 12.1916ZM174.776 7.10199C174.689 7.10199 174.607 7.11497 174.52 7.13661L172.857 7.61701C172.627 7.68193 172.441 7.8334 172.333 8.03681C172.233 8.22724 172.211 8.44363 172.276 8.64704L172.822 11.9492L177.154 10.7028L175.625 7.70789C175.62 7.70357 175.62 7.69924 175.616 7.69058C175.499 7.3357 175.153 7.10199 174.776 7.10199Z" fill="#565656"/>
<path d="M178.163 11.075L180.207 15.1821L172.835 17.3028L172.133 12.8104C172.085 12.5075 172.28 12.2175 172.588 12.1266L177.383 10.746C177.695 10.6552 178.024 10.798 178.163 11.075Z" fill="white"/>
<path d="M172.84 17.411C172.818 17.411 172.801 17.4067 172.783 17.3937C172.757 17.3764 172.74 17.3504 172.736 17.3201L172.034 12.8234C171.978 12.4686 172.207 12.1223 172.567 12.0185L177.362 10.6379C177.725 10.534 178.107 10.6941 178.267 11.023L180.311 15.1302C180.324 15.1605 180.329 15.1908 180.311 15.2211C180.298 15.2514 180.272 15.273 180.242 15.2817L172.87 17.4023C172.857 17.411 172.848 17.411 172.84 17.411ZM177.569 10.8283C177.518 10.8283 177.466 10.8369 177.414 10.8499L172.619 12.2305C172.359 12.3041 172.198 12.5421 172.237 12.7931L172.922 17.1686L180.051 15.1172L178.063 11.1269C177.977 10.9408 177.777 10.8283 177.569 10.8283Z" fill="#565656"/>
<path d="M173.688 7.26647L172.965 4.99866L173.688 7.26647Z" fill="white"/>
<path d="M173.689 7.3747C173.641 7.3747 173.602 7.3444 173.585 7.30112L172.861 5.03331C172.844 4.97705 172.874 4.91646 172.931 4.89915C172.987 4.88184 173.048 4.91213 173.065 4.96839L173.788 7.2362C173.806 7.29247 173.775 7.35306 173.719 7.37037C173.71 7.3747 173.697 7.3747 173.689 7.3747Z" fill="#565656"/>
<path d="M195.93 45.9664L198.182 38.9639L195.93 45.9664Z" fill="white"/>
<path d="M195.93 46.0746C195.917 46.0746 195.908 46.0746 195.895 46.0703C195.839 46.053 195.809 45.9924 195.826 45.9361L198.074 38.9336C198.092 38.8773 198.152 38.847 198.208 38.8644C198.265 38.8817 198.295 38.9423 198.278 38.9985L196.03 46.001C196.021 46.0443 195.978 46.0746 195.93 46.0746Z" fill="#565656"/>
<path d="M198.057 43.0538L193.804 36.6875L198.057 43.0538Z" fill="white"/>
<path d="M198.057 43.162C198.023 43.162 197.988 43.1447 197.966 43.1144L193.713 36.7481C193.678 36.7005 193.691 36.6312 193.743 36.5966C193.791 36.562 193.86 36.575 193.895 36.6269L198.148 42.9932C198.183 43.0408 198.17 43.1101 198.118 43.1447C198.1 43.1577 198.079 43.162 198.057 43.162Z" fill="#565656"/>
<path d="M187.35 43.5731L194.016 38.7476L187.35 43.5731Z" fill="white"/>
<path d="M187.35 43.6814C187.315 43.6814 187.285 43.6641 187.263 43.6381C187.228 43.5905 187.237 43.5212 187.289 43.4866L193.955 38.661C194.003 38.6264 194.072 38.6351 194.107 38.687C194.141 38.7346 194.133 38.8039 194.081 38.8385L187.415 43.6641C187.393 43.677 187.371 43.6814 187.35 43.6814Z" fill="#565656"/>
<path d="M196.195 45.3346L190.75 39.5958L196.195 45.3346Z" fill="white"/>
<path d="M196.195 45.4428C196.165 45.4428 196.139 45.4298 196.117 45.4082L190.672 39.6694C190.633 39.6262 190.633 39.5569 190.677 39.518C190.72 39.479 190.789 39.479 190.828 39.5223L196.273 45.2611C196.312 45.3043 196.312 45.3736 196.269 45.4125C196.251 45.4342 196.225 45.4428 196.195 45.4428Z" fill="#565656"/>
<path d="M192.86 47.8751L189.724 41.0977L192.86 47.8751Z" fill="white"/>
<path d="M192.86 47.9833C192.821 47.9833 192.782 47.9617 192.76 47.9184L189.628 41.1409C189.602 41.0847 189.628 41.0241 189.68 40.9981C189.732 40.9721 189.797 40.9981 189.823 41.05L192.955 47.8275C192.981 47.8838 192.955 47.9444 192.903 47.9703C192.89 47.979 192.873 47.9833 192.86 47.9833Z" fill="#565656"/>
<path d="M164.951 13.265L167.199 6.26245L164.951 13.265Z" fill="white"/>
<path d="M164.952 13.3732C164.939 13.3732 164.93 13.3732 164.917 13.3689C164.861 13.3516 164.83 13.291 164.848 13.2347L167.096 6.23219C167.113 6.17592 167.174 6.14563 167.23 6.16294C167.286 6.18025 167.317 6.24084 167.299 6.29711L165.051 13.2996C165.043 13.3472 164.999 13.3732 164.952 13.3732Z" fill="#565656"/>
<path d="M161.877 15.1736L158.745 8.39612L161.877 15.1736Z" fill="white"/>
<path d="M161.877 15.2818C161.838 15.2818 161.799 15.2601 161.777 15.2168L158.641 8.43938C158.615 8.38312 158.641 8.32253 158.693 8.29656C158.745 8.2706 158.81 8.29656 158.836 8.3485L161.972 15.126C161.998 15.1822 161.972 15.2428 161.92 15.2688C161.911 15.2774 161.894 15.2818 161.877 15.2818Z" fill="#565656"/>
<path d="M166.468 93.3221L165.48 92.08C166.121 91.7121 166.308 90.998 165.892 90.4787C165.48 89.9593 164.627 89.8382 163.986 90.2017L162.998 88.9596L160.677 90.2839L164.146 94.6421L166.468 93.3221Z" fill="#BCBCBC"/>
<path d="M164.147 94.7546C164.116 94.7546 164.082 94.7416 164.06 94.7156L160.591 90.3575C160.569 90.3315 160.565 90.3012 160.569 90.2709C160.573 90.2406 160.595 90.2146 160.621 90.1973L162.943 88.873C162.99 88.847 163.046 88.8557 163.081 88.899L164.012 90.0675C164.684 89.7299 165.55 89.8771 165.975 90.4137C166.178 90.6691 166.26 90.985 166.2 91.2966C166.139 91.6126 165.936 91.9068 165.641 92.1103L166.555 93.2571C166.577 93.2831 166.581 93.3134 166.577 93.3437C166.572 93.374 166.551 93.4 166.525 93.4173L164.203 94.7416C164.186 94.7503 164.168 94.7546 164.147 94.7546ZM160.842 90.3228L164.177 94.5079L166.308 93.2918L165.398 92.1492C165.377 92.1232 165.372 92.0929 165.377 92.0627C165.381 92.0324 165.403 92.0064 165.429 91.9891C165.732 91.816 165.936 91.552 165.992 91.2577C166.04 91.0066 165.975 90.7556 165.81 90.5479C165.429 90.0718 164.636 89.9593 164.043 90.3012C163.995 90.3272 163.939 90.3142 163.904 90.2752L162.973 89.1067L160.842 90.3228Z" fill="#565656"/>
<path d="M168.11 92.145L169.708 91.4352C170.111 91.9805 170.982 92.1796 171.653 91.8853C172.32 91.591 172.532 90.9072 172.13 90.3662L173.728 89.6564L172.26 87.6873L166.642 90.1758L168.11 92.145Z" fill="#BCBCBC"/>
<path d="M168.11 92.2531C168.075 92.2531 168.045 92.2358 168.023 92.2098L166.555 90.2407C166.533 90.2147 166.529 90.1801 166.537 90.1498C166.546 90.1195 166.568 90.0935 166.598 90.0762L172.216 87.5877C172.264 87.566 172.316 87.5833 172.346 87.6223L173.81 89.5915C173.832 89.6174 173.836 89.6521 173.827 89.6824C173.819 89.7127 173.797 89.7386 173.767 89.7516L172.285 90.4094C172.433 90.6605 172.476 90.9375 172.407 91.2015C172.32 91.5347 172.06 91.8203 171.692 91.9805C171.007 92.2834 170.124 92.093 169.673 91.565L168.149 92.2401C168.14 92.2488 168.127 92.2531 168.11 92.2531ZM166.81 90.2234L168.144 92.0151L169.665 91.3399C169.712 91.3183 169.764 91.3356 169.795 91.3746C170.171 91.8766 170.981 92.0627 171.605 91.79C171.913 91.6559 172.125 91.4222 172.199 91.1538C172.264 90.9115 172.207 90.6561 172.038 90.4354C172.017 90.4095 172.012 90.3748 172.021 90.3445C172.03 90.3142 172.051 90.2883 172.082 90.2753L173.559 89.6218L172.225 87.83L166.81 90.2234Z" fill="#565656"/>
<path d="M166.598 88.7086L167.283 87.341C168.019 87.553 168.851 87.2674 169.136 86.6961C169.422 86.1248 169.058 85.4886 168.318 85.2766L169.002 83.909L166.33 83.1343L163.917 87.9382L166.598 88.7086Z" fill="#BCBCBC"/>
<path d="M166.598 88.8168C166.589 88.8168 166.576 88.8168 166.567 88.8124L163.895 88.0377C163.865 88.0291 163.839 88.0074 163.826 87.9771C163.813 87.9469 163.813 87.9122 163.83 87.8863L166.243 83.0823C166.264 83.0347 166.321 83.0131 166.368 83.026L169.041 83.8007C169.071 83.8094 169.097 83.831 169.11 83.8613C169.123 83.8916 169.123 83.9262 169.106 83.9522L168.473 85.2073C168.842 85.3458 169.127 85.5925 169.262 85.8998C169.379 86.1724 169.37 86.471 169.236 86.7394C168.937 87.3323 168.101 87.6439 167.338 87.4621L166.693 88.7518C166.676 88.7951 166.637 88.8168 166.598 88.8168ZM164.081 87.869L166.541 88.583L167.187 87.2977C167.209 87.2501 167.265 87.2284 167.312 87.2414C168.006 87.4405 168.777 87.1765 169.041 86.6485C169.149 86.4321 169.158 86.207 169.062 85.9907C168.941 85.7093 168.66 85.4886 168.291 85.3804C168.261 85.3718 168.235 85.3501 168.222 85.3198C168.209 85.2895 168.209 85.2549 168.226 85.2289L168.855 83.9782L166.394 83.2641L164.081 87.869Z" fill="#565656"/>
<path d="M167.641 67.3029L166.021 66.8009L173.554 48.8445L175.642 48.7882L167.936 67.1644C167.888 67.2769 167.758 67.3375 167.641 67.3029Z" fill="#565656"/>
<path d="M179.748 49.7403L175.611 49.6019L171.258 48.3771L172.124 46.1093L176.477 47.3384L179.903 49.3335L179.748 49.7403Z" fill="#565656"/>
<path d="M171.258 48.377V47.7841L179.903 48.7405V49.3334L179.748 49.7403L171.258 48.377Z" fill="#565656"/>
<path d="M175.382 48.905V49.4114L166.021 66.8008V66.2901L175.382 48.905Z" fill="#565656"/>
<path d="M167.68 66.8051L166.021 66.2901L173.554 48.3337L175.382 48.9007L167.919 66.6883C167.88 66.7878 167.776 66.8354 167.68 66.8051Z" fill="#BCBCBC"/>
<path d="M167.737 66.922C167.706 66.922 167.676 66.9177 167.646 66.909L165.987 66.394C165.957 66.3854 165.935 66.3637 165.922 66.3378C165.909 66.3118 165.909 66.2772 165.922 66.2512L173.454 48.2948C173.476 48.2429 173.532 48.2169 173.584 48.2342L175.416 48.8012C175.447 48.8098 175.468 48.8315 175.481 48.8574C175.494 48.8834 175.494 48.918 175.481 48.944L168.018 66.7316C167.971 66.8528 167.858 66.922 167.737 66.922ZM166.169 66.2209L167.715 66.7013C167.758 66.7143 167.806 66.6926 167.823 66.6494L175.239 48.97L173.615 48.4679L166.169 66.2209Z" fill="#565656"/>
<path d="M179.748 49.1473L175.611 49.0088L171.258 47.784L172.124 45.5162L176.477 46.7454L179.903 48.7405L179.748 49.1473Z" fill="#BCBCBC"/>
<path d="M179.748 49.2556L175.607 49.1171L171.228 47.888C171.198 47.8793 171.176 47.8577 171.159 47.8317C171.146 47.8057 171.141 47.7711 171.154 47.7452L172.021 45.4817C172.038 45.4297 172.094 45.3994 172.151 45.4168L176.504 46.6415C176.512 46.6459 176.521 46.6459 176.53 46.6502L179.96 48.6454C180.008 48.6713 180.025 48.7276 180.008 48.7752L179.852 49.182C179.835 49.2296 179.796 49.2556 179.748 49.2556ZM171.401 47.7105L175.642 48.905L179.674 49.0349L179.77 48.7838L176.434 46.845L172.19 45.6505L171.401 47.7105Z" fill="#565656"/>
<path d="M73.3499 92.6731C73.3499 92.6731 67.8576 95.5684 66.1207 97.1135C64.3707 98.6715 63.0063 104.207 61.0788 103.571C55.998 101.891 60.7236 93.5776 62.0144 92.2749C64.6003 89.6652 68.7109 88.4534 68.7109 88.4534L73.3499 92.6731Z" fill="white"/>
<path d="M61.3945 103.731C61.2819 103.731 61.165 103.713 61.0437 103.675C59.8309 103.276 59.0729 102.476 58.7913 101.299C58.0506 98.2171 60.8704 93.2746 61.936 92.197C64.5132 89.5959 68.6368 88.3582 68.6801 88.3452C68.7147 88.3322 68.7537 88.3452 68.784 88.3711L73.4187 92.5952C73.4447 92.6168 73.4577 92.6557 73.4534 92.6904C73.449 92.725 73.4274 92.7553 73.3971 92.7726C73.3407 92.8029 67.8961 95.6809 66.1895 97.2C65.5138 97.8016 64.877 99.0437 64.262 100.247C63.348 102.03 62.4817 103.731 61.3945 103.731ZM68.6844 88.5702C68.1776 88.7304 64.4612 89.9552 62.0919 92.3485C61.6544 92.7899 60.6885 94.2181 59.9132 96.0142C59.2764 97.4857 58.6051 99.5847 59.0036 101.247C59.2678 102.346 59.9781 103.09 61.113 103.467C62.1872 103.822 63.1445 101.952 64.0714 100.143C64.6951 98.9225 65.3405 97.6631 66.0465 97.0356C67.6405 95.616 72.2839 93.1188 73.1588 92.6514L68.6844 88.5702Z" fill="#565656"/>
<path d="M84.5764 108.119C84.5764 108.119 80.9943 111.114 79.6342 113.023C78.2698 114.931 75.7446 120.423 72.2274 118.078C69.0698 115.974 75.6016 107.786 76.966 106.561C78.3305 105.336 79.9418 103.895 79.9418 103.895L84.5764 108.119Z" fill="white"/>
<path d="M73.9473 118.757C73.3539 118.757 72.7561 118.558 72.1671 118.169C71.6256 117.809 71.3268 117.26 71.2748 116.537C71.0452 113.352 75.7145 107.544 76.8927 106.483C78.2571 105.258 79.8728 103.817 79.8728 103.817C79.9161 103.778 79.9767 103.783 80.0157 103.817L84.6504 108.041C84.672 108.063 84.685 108.093 84.685 108.124C84.685 108.154 84.672 108.184 84.646 108.206C84.6114 108.236 81.0596 111.214 79.7212 113.088C79.5132 113.382 79.2793 113.754 79.0065 114.187C77.9236 115.918 76.4379 118.285 74.5147 118.701C74.3285 118.74 74.1379 118.757 73.9473 118.757ZM79.9421 104.042C79.6129 104.337 78.2311 105.574 77.0356 106.643C76.4552 107.167 74.9912 108.903 73.7524 110.802C72.6522 112.49 71.3701 114.853 71.487 116.52C71.5347 117.173 71.8032 117.667 72.284 117.987C73.0117 118.471 73.7481 118.636 74.4671 118.484C76.2993 118.091 77.7547 115.767 78.8202 114.07C79.0931 113.633 79.327 113.256 79.5436 112.958C80.7737 111.235 83.8317 108.604 84.4121 108.115L79.9421 104.042Z" fill="#565656"/>
<path d="M76.8707 104.48C69.6978 102.476 67.9089 97.728 66.9213 96.5552C65.9337 95.3823 64.2401 94.3609 63.3565 92.8851C59.4842 86.4106 61.8621 80.9834 61.8621 80.9834L82.7745 73.1976C82.7745 73.1976 93.8847 66.5932 99.4074 70.8822C104.93 75.1711 102.574 79.3259 102.574 79.3259C102.574 79.3259 120.242 75.0802 116.664 87.7306C114.035 97.0356 82.0425 110.854 82.0425 110.854C82.6576 108.15 80.5178 105.319 76.8707 104.48Z" fill="#565656"/>
<path d="M90.4629 69.389C93.404 68.9605 94.4695 68.6749 96.475 69.6746C98.4805 70.6744 100.352 73.3923 95.1366 72.6782C89.9258 71.9641 89.2588 72.1069 89.2588 72.1069L90.4629 69.389Z" fill="white"/>
<path d="M96.6437 72.9032C96.2279 72.9032 95.7255 72.8686 95.1277 72.7864C90.0642 72.0896 89.3106 72.2065 89.2846 72.2151C89.2456 72.2194 89.2066 72.2065 89.1806 72.1762C89.1546 72.1459 89.1503 72.1026 89.1676 72.068L90.3718 69.3501C90.3848 69.3154 90.4194 69.2938 90.4541 69.2851C90.714 69.2462 90.9565 69.2116 91.1904 69.1769C93.5814 68.8177 94.6729 68.6533 96.5311 69.5838C97.7266 70.181 98.8441 71.3495 98.5972 72.1415C98.476 72.5137 98.0212 72.9032 96.6437 72.9032ZM89.5141 71.9857C90.0296 71.9857 91.4503 72.0636 95.1537 72.57C97.718 72.9205 98.2767 72.4055 98.385 72.068C98.5929 71.3928 97.523 70.3152 96.4272 69.7699C94.6296 68.874 93.629 69.0211 91.2121 69.3847C90.9998 69.415 90.7746 69.4496 90.5364 69.4842L89.4318 71.9857C89.4578 71.9857 89.4838 71.9857 89.5141 71.9857Z" fill="#565656"/>
<path d="M88.3967 85.3503C88.3664 85.3503 88.3361 85.3373 88.3144 85.3113C88.2754 85.2637 88.2797 85.1988 88.3274 85.1598C88.3404 85.1512 89.5965 84.1038 91.9658 82.8574C94.1489 81.7062 97.7613 80.1438 102.552 79.2306C102.613 79.2177 102.669 79.2566 102.678 79.3172C102.691 79.3778 102.652 79.4341 102.591 79.4427C93.4775 81.1868 88.5137 85.2854 88.466 85.3286C88.4487 85.3416 88.4227 85.3503 88.3967 85.3503Z" fill="white"/>
<path d="M77.9628 104.653C77.56 104.653 77.1875 104.631 76.8583 104.588C76.7977 104.579 76.7587 104.527 76.763 104.466C76.7717 104.406 76.8237 104.367 76.8843 104.371C81.7096 105.007 95.3234 100.788 100.266 96.4426C100.309 96.4036 100.378 96.408 100.417 96.4513C100.456 96.4945 100.452 96.5638 100.409 96.6027C95.7739 100.688 83.5375 104.653 77.9628 104.653Z" fill="white"/>
<path d="M76.1953 37.7911L85.0792 43.2182L90.0171 32.9828L81.2415 29.4945L76.1953 37.7911Z" fill="white"/>
<path d="M85.0792 43.3264C85.0575 43.3264 85.0402 43.3221 85.0229 43.3091L76.1347 37.8819C76.0827 37.8516 76.0654 37.7824 76.1001 37.7348L81.1506 29.4382C81.1765 29.3906 81.2372 29.3733 81.2848 29.395L90.0604 32.8832C90.0864 32.8962 90.1124 32.9179 90.121 32.9438C90.1297 32.9698 90.1297 33.0044 90.1167 33.0304L85.1788 43.2658C85.1658 43.2918 85.1398 43.3134 85.1095 43.3221C85.1009 43.3264 85.0922 43.3264 85.0792 43.3264ZM76.3426 37.7564L85.0359 43.0624L89.8698 33.039L81.2892 29.6287L76.3426 37.7564Z" fill="#565656"/>
<path d="M84.0783 21.9597C81.3711 27.6335 84.4898 35.5016 88.7823 37.5487C93.0748 39.5958 95.5914 34.5365 98.2985 28.8627C101.006 23.1888 99.2255 18.3113 94.959 16.2166C88.9772 13.2736 86.7855 16.2858 84.0783 21.9597Z" fill="white"/>
<path d="M90.6406 38.1114C90.0429 38.1114 89.4105 37.9642 88.7347 37.644C86.5993 36.6269 84.7195 34.199 83.7016 31.1478C82.623 27.9106 82.7227 24.5435 83.9788 21.9121C85.733 18.2377 87.1711 15.9656 89.3195 15.2169C90.8615 14.6802 92.6677 14.9659 95.0024 16.1171C99.6024 18.3806 100.963 23.5178 98.3896 28.9103C96.2282 33.4459 94.0018 38.1114 90.6406 38.1114ZM90.9092 15.1736C90.372 15.1736 89.8696 15.2558 89.3931 15.4203C87.314 16.1431 85.9063 18.3806 84.1737 22.003C82.9392 24.5867 82.8439 27.8932 83.9052 31.0786C84.9057 34.0735 86.7466 36.4538 88.8257 37.4492C89.4754 37.7608 90.0862 37.9036 90.6623 37.9036C93.8632 37.9036 95.977 33.4719 98.199 28.8151C100.716 23.5394 99.3945 18.5147 94.9114 16.3118C93.3608 15.5501 92.0527 15.1736 90.9092 15.1736Z" fill="#565656"/>
<path d="M87.7254 34.3417L92.1911 30.1221L95.5047 29.9316L97.2979 26.0928C97.2979 26.0928 99.338 25.9803 100.408 24.4655C100.832 23.8639 102.24 22.5829 102.669 21.436C103.323 19.6962 102.821 17.9347 101.872 16.6753C100.3 14.5893 98.619 14.8663 95.8166 13.8665C93.0141 12.8668 91.1949 13.3948 91.1949 13.3948C91.1949 13.3948 90.6491 12.5682 88.8645 12.4037C86.963 12.2306 85.1048 13.5852 84.2212 14.7451C83.3332 15.9006 82.5752 17.1644 81.6829 19.3673C80.7907 21.5702 80.5221 23.6908 80.3315 25.9586C80.128 28.4039 80.3142 30.5332 80.3142 30.5332C82.1334 32.3985 84.4594 33.7488 87.7254 34.3417Z" fill="#565656"/>
<path d="M91.6023 29.8235C91.8188 28.313 92.6938 27.1921 93.5601 27.3133C94.4264 27.4345 94.9548 28.7588 94.7383 30.2692C94.5217 31.7797 93.6467 32.9006 92.7804 32.7794C91.9141 32.6582 91.3857 31.3339 91.6023 29.8235Z" fill="white"/>
<path d="M92.9104 32.8963C92.8627 32.8963 92.8151 32.8919 92.7674 32.8876C91.8448 32.7578 91.2731 31.3772 91.4983 29.8105L91.6066 29.8278L91.4983 29.8105C91.6066 29.0618 91.8708 28.3823 92.252 27.8932C92.6461 27.3869 93.1139 27.1445 93.5731 27.2094C94.0322 27.2744 94.4177 27.6379 94.6516 28.2351C94.8812 28.8108 94.9505 29.5378 94.8422 30.2866C94.6343 31.771 93.7853 32.8963 92.9104 32.8963ZM93.4301 27.4128C93.0879 27.4128 92.7328 27.6249 92.4252 28.0231C92.0657 28.4818 91.8145 29.1267 91.7149 29.8408C91.5113 31.2906 91.9964 32.5587 92.8021 32.6756C93.5947 32.7881 94.4307 31.7061 94.6343 30.2563C94.7339 29.5465 94.6733 28.854 94.4567 28.313C94.2488 27.7937 93.9239 27.4778 93.5471 27.4215C93.5038 27.4172 93.4648 27.4128 93.4301 27.4128Z" fill="#565656"/>
<path d="M62.6636 60.0841C63.9587 49.1691 66.4406 39.0029 68.1559 35.9734C69.4337 33.7143 72.2665 34.1514 74.8437 34.476C74.8437 34.476 75.9872 34.8568 77.7068 35.2031C77.7068 35.2031 77.3863 37.1939 80.5786 38.4403C83.7709 39.6911 86.8289 39.3059 86.8289 39.3059C86.8289 39.3059 91.7191 42.6643 93.9542 45.0057C96.1892 47.3471 96.4967 50.2598 96.3625 53.5143C96.2585 55.9509 94.5736 54.5573 94.2833 57.6691C93.6163 64.8447 91.6368 65.7146 91.5502 75.8981C91.4722 84.727 92.5508 85.3286 90.1381 90.4744C87.8554 95.3476 79.435 97.0485 73.5919 94.6725C66.3367 91.7252 62.7069 87.2329 61.3728 85.3286C60.0344 83.433 61.3685 70.999 62.6636 60.0841Z" fill="#FFBD98"/>
<path d="M79.3401 95.8323C77.2957 95.8323 75.2729 95.4818 73.5489 94.7807C66.6316 91.9719 62.8935 87.6959 61.2822 85.4021C59.9828 83.5498 61.1263 72.1372 62.56 60.0754L62.6683 60.0884L62.56 60.0754C63.9157 48.6498 66.4237 38.8211 68.0653 35.9215C69.3388 33.671 72.1412 34.0258 74.6102 34.3375L74.8571 34.3678C74.8874 34.3764 76.0352 34.7573 77.7288 35.0948C77.7851 35.1078 77.8241 35.1598 77.8154 35.216C77.8025 35.2939 77.5556 37.1376 80.6179 38.3364C83.7496 39.5612 86.7859 39.202 86.8163 39.1977C86.8422 39.1933 86.8682 39.202 86.8899 39.215C86.9375 39.2496 91.8148 42.6037 94.0325 44.9278C96.3845 47.3947 96.5967 50.5108 96.4711 53.5143C96.4191 54.7218 95.986 55.0377 95.5312 55.371C95.0461 55.7259 94.5393 56.0894 94.392 57.6734C94.1191 60.5947 93.621 62.5076 93.1402 64.3556C92.4385 67.0606 91.7108 69.8564 91.6588 75.8938C91.6372 78.4256 91.7108 80.2736 91.7671 81.7624C91.9144 85.4454 91.9664 86.826 90.2381 90.5177C88.5705 94.0709 83.9055 95.8323 79.3401 95.8323ZM71.864 34.3158C70.348 34.3158 69.0139 34.675 68.2516 36.0253C66.6229 38.9034 64.128 48.6974 62.7722 60.097C61.8106 68.1815 60.0261 83.2339 61.4555 85.2723C63.0538 87.5488 66.7615 91.7858 73.6269 94.5773C79.1322 96.8104 87.6782 95.4601 90.0345 90.4311C91.7411 86.7871 91.6892 85.4238 91.5462 81.7754C91.4856 80.2866 91.4163 78.4342 91.4379 75.8981C91.4899 69.8347 92.2219 67.026 92.928 64.308C93.4088 62.4687 93.9025 60.5644 94.1711 57.6604C94.327 55.9769 94.8945 55.5657 95.3969 55.2022C95.8301 54.8862 96.2026 54.6179 96.2502 53.5143C96.3758 50.5584 96.1722 47.4899 93.8722 45.0836C91.7628 42.8764 87.2277 39.7213 86.7946 39.4227C86.4134 39.4617 83.5157 39.7084 80.5356 38.5442C77.6768 37.4276 77.5642 35.731 77.5859 35.2939C75.9356 34.9563 74.8181 34.5841 74.8051 34.5841L74.5755 34.5582C73.6616 34.437 72.7346 34.3158 71.864 34.3158Z" fill="#565656"/>
<path d="M125.787 68.1209C130.538 67.199 133.83 65.8357 133.635 65.1606C133.41 64.3599 132.838 64.7062 132.838 64.7062C132.838 64.7062 133.419 64.3599 133.232 63.8449C133.033 63.291 132.492 63.1914 132.492 63.1914C132.492 63.1914 132.734 62.8452 132.453 62.2652C132.197 61.7416 131.599 61.9277 131.599 61.9277C131.599 61.9277 132.998 60.837 133.575 60.5601C134.151 60.2831 134.722 59.5863 133.769 59.4651C132.812 59.3482 128.173 62.3648 128.173 62.3648C128.606 61.1963 128.446 60.5254 128.191 60.1532C128.009 59.8849 127.601 59.9455 127.489 60.2441C127.047 61.4126 125.839 62.8668 124.894 63.5247C124.08 64.0916 124.548 64.6239 124.548 64.6239L125.787 68.1209Z" fill="white"/>
<path d="M125.786 68.2291C125.743 68.2291 125.699 68.1988 125.682 68.1555L124.452 64.6715C124.409 64.611 124.279 64.4205 124.313 64.1565C124.344 63.8969 124.521 63.6502 124.833 63.4338C125.7 62.8279 126.925 61.4213 127.389 60.2009C127.458 60.0191 127.618 59.8936 127.813 59.8719C127.995 59.846 128.177 59.9282 128.285 60.0883C128.515 60.4259 128.701 61.0448 128.376 62.1051C129.381 61.4646 132.924 59.2444 133.782 59.3569C134.232 59.4132 134.358 59.5993 134.384 59.7421C134.436 60.0667 134.033 60.4562 133.626 60.651C133.223 60.8457 132.396 61.4559 131.958 61.7849C132.179 61.8108 132.418 61.9234 132.556 62.209C132.764 62.6331 132.712 62.9491 132.652 63.1178C132.842 63.1871 133.184 63.3689 133.34 63.806C133.44 64.0916 133.345 64.3426 133.197 64.5287C133.236 64.5331 133.275 64.546 133.314 64.559C133.513 64.6369 133.656 64.8274 133.739 65.1303C133.765 65.2299 133.747 65.3337 133.678 65.4419C133.176 66.2556 129.793 67.4544 125.803 68.2291C125.799 68.2291 125.795 68.2291 125.786 68.2291ZM127.874 60.0883C127.861 60.0883 127.852 60.0883 127.839 60.0883C127.727 60.1013 127.636 60.1749 127.592 60.2788C127.116 61.5382 125.855 62.988 124.959 63.6112C124.699 63.793 124.556 63.9834 124.53 64.1782C124.504 64.3902 124.625 64.5417 124.634 64.546C124.643 64.5547 124.651 64.5677 124.656 64.5807L125.86 67.991C130.131 67.1514 133.098 65.9786 133.5 65.3207C133.535 65.2645 133.548 65.2169 133.535 65.1822C133.47 64.9485 133.371 64.8057 133.241 64.7538C133.076 64.6889 132.907 64.7884 132.898 64.7884C132.846 64.8187 132.781 64.8014 132.751 64.7495C132.721 64.6975 132.738 64.6326 132.786 64.6023C132.812 64.585 133.284 64.2907 133.137 63.8709C132.963 63.3818 132.5 63.291 132.478 63.2866C132.444 63.278 132.413 63.2563 132.396 63.2217C132.383 63.1871 132.387 63.1481 132.409 63.1178C132.418 63.1049 132.608 62.8106 132.361 62.2999C132.149 61.8671 131.66 62.0099 131.638 62.0186C131.59 62.0359 131.534 62.0099 131.512 61.9666C131.486 61.919 131.499 61.8628 131.543 61.8325C131.599 61.7892 132.959 60.7332 133.535 60.4519C133.899 60.2744 134.207 59.9498 134.176 59.7724C134.155 59.6339 133.908 59.582 133.76 59.5647C133.011 59.4694 129.52 61.6117 128.238 62.447C128.199 62.473 128.147 62.4687 128.112 62.4427C128.077 62.4124 128.06 62.3648 128.077 62.3215C128.502 61.166 128.329 60.5341 128.108 60.2052C128.051 60.1316 127.969 60.0883 127.874 60.0883Z" fill="#565656"/>
<path d="M93.0874 44.2051C98.6707 49.6539 103.479 61.205 107.004 70.2589L123.668 62.8583C125.431 65.0049 126.375 67.1299 126.444 69.2419C126.444 69.2419 104.436 83.2815 100.412 81.308C96.388 79.3345 90.4365 59.8071 90.4365 59.8071L93.0874 44.2051Z" fill="#FFBD98"/>
<path d="M101.426 81.6023C100.988 81.6023 100.638 81.5373 100.365 81.4032C98.6711 80.5722 96.4663 76.6858 93.8155 69.8564C91.8446 64.7841 90.3503 59.8893 90.333 59.8373C90.3156 59.7811 90.346 59.7205 90.4066 59.7032C90.4672 59.6859 90.5235 59.7162 90.5409 59.7768C90.6015 59.9715 96.527 79.2825 100.46 81.2127C104.289 83.0954 125.136 69.9473 126.336 69.1856C126.25 67.1731 125.344 65.0871 123.638 62.9924L107.052 70.3584C107.026 70.3714 106.996 70.3714 106.966 70.3584C106.94 70.3454 106.918 70.3238 106.905 70.2978C103.037 60.361 98.3592 49.5024 93.0141 44.2829C92.9708 44.2397 92.9708 44.1747 93.0141 44.1315C93.0575 44.0882 93.1224 44.0882 93.1657 44.1315C98.5238 49.3595 103.197 60.1879 107.065 70.1161L123.625 62.763C123.672 62.7414 123.72 62.7543 123.75 62.7933C125.539 64.9702 126.479 67.1385 126.553 69.2418C126.553 69.2808 126.535 69.3154 126.501 69.337C126.444 69.3717 120.926 72.8859 114.988 76.1145C108.265 79.7629 103.717 81.6023 101.426 81.6023Z" fill="#565656"/>
</g>
<defs>
<clipPath id="clip0_150_713">
<rect width="258" height="167" fill="white"/>
</clipPath>
</defs>
</svg>
