<svg width="420" height="103" viewBox="0 0 420 103" fill="none" xmlns="http://www.w3.org/2000/svg">
<path d="M419.054 24.5711H414.006C413.613 24.5711 413.275 24.3245 413.132 23.9683H411.945V18.8445H410.625V23.9683H408.502V18.8445H407.173V23.9683H405.051V18.8445H403.721V23.9683H401.599V18.8445H400.27V23.9683H398.147V15.6752L124.169 15.6752V23.9683H122.046V18.8445H120.717V23.9683H118.594V18.8445H117.274V23.9683H115.151V18.8445H113.822V23.9683H111.699V18.8445H110.37V23.9683H108.247V15.6752H106.918V23.9683H105.687V30.5261C105.839 30.5078 105.982 30.5078 106.133 30.5078C108.256 30.5078 110.022 32.024 110.468 34.0516H108.854C108.31 34.0516 107.873 34.4991 107.873 35.0562C107.873 35.6134 108.31 36.0609 108.854 36.0609H110.584V37.5405H108.854C108.31 37.5405 107.873 37.988 107.873 38.5452C107.873 39.1023 108.31 39.5498 108.854 39.5498H110.584V41.0386H108.854C108.31 41.0386 107.873 41.4861 107.873 42.0432C107.873 42.6004 108.31 43.0479 108.854 43.0479H110.584V44.5275H108.854C108.31 44.5275 107.873 44.9751 107.873 45.5322C107.873 46.0893 108.31 46.5369 108.854 46.5369H110.584V48.0165H108.854C108.31 48.0165 107.873 48.464 107.873 49.0211C107.873 49.5783 108.31 50.0258 108.854 50.0258H110.584V51.5054H108.854C108.31 51.5054 107.873 51.9529 107.873 52.5101C107.873 53.0672 108.31 53.5147 108.854 53.5147H110.468C110.022 55.5423 108.247 57.0585 106.133 57.0585C106.116 57.0585 106.107 57.0585 106.089 57.0585C106.026 59.972 105.794 59.4697 105.224 62.8764L105.313 62.9404C105.197 63.4427 105.072 63.9542 104.938 64.4656C102.896 74.9507 97.5705 86.5044 84.5031 93.5736C81.7023 95.2633 79.178 97.1539 75.6458 98.3504L75.5477 98.2682C75.4942 98.2865 75.4407 98.3047 75.3871 98.323L74.843 98.5513C74.843 98.5513 74.8341 98.5422 74.8252 98.5331C68.4833 100.771 60.848 102.086 51.6696 102.086C-2.35718 102.086 0.0154674 48.3453 0.0154674 41.9154L0.0154674 14.7436C0.0154674 8.31375 5.10863 3.0986 11.3881 3.0986L94.2078 3.0986H94.3059V3.06207C94.5378 3.06207 94.7608 3.08034 94.9927 3.0986H95.0819C97.7935 3.2904 100.237 4.44121 102.102 6.21308C102.655 6.82502 103.217 7.49176 103.788 8.22242C104.358 9.08096 104.804 10.0308 105.134 11.0264L413.078 11.0264V4.13981C413.078 3.61007 413.498 3.17167 414.015 3.17167H419.063C419.581 3.17167 420 3.60094 420 4.13981V23.603C419.991 24.1419 419.581 24.5711 419.054 24.5711ZM53.1146 20.4155C37.2286 20.4155 24.3485 33.604 24.3485 49.8705C24.3485 66.137 37.2286 79.3347 53.1146 79.3347C69.0095 79.3347 81.8896 66.1462 81.8896 49.8705C81.8896 33.604 69.0095 20.4155 53.1146 20.4155ZM50.1354 99.6839C51.2058 99.7295 52.1067 98.8801 52.1513 97.7841L52.4456 90.6236C52.4902 89.5276 51.6607 88.6051 50.5903 88.5594C49.5289 88.5138 48.628 89.3632 48.5834 90.4592L48.2979 97.6197C48.2355 98.7066 49.065 99.6382 50.1354 99.6839ZM42.9015 98.8801C43.954 99.0354 44.9441 98.2956 45.0958 97.2087L46.1126 90.1212C46.2732 89.0344 45.5417 88.0297 44.4892 87.8744C43.4278 87.7192 42.4466 88.459 42.295 89.5458L41.2692 96.6425C41.1086 97.7111 41.8401 98.7157 42.9015 98.8801ZM35.6765 96.9895C36.7112 97.2544 37.7637 96.6151 38.0224 95.5556L39.7528 88.6142C40.0204 87.5548 39.3961 86.477 38.3524 86.203C37.3178 85.929 36.2652 86.5684 36.0066 87.6278L34.2761 94.5692C34.0085 95.6378 34.6329 96.7155 35.6765 96.9895ZM15.063 83.9562C15.732 84.8148 16.9451 84.9518 17.7836 84.2668L23.2514 79.7914C24.0809 79.1064 24.2236 77.8643 23.5546 77.0057C22.8856 76.1472 21.6726 76.0102 20.8341 76.6952L15.3663 81.1705C14.5279 81.8556 14.3941 83.1068 15.063 83.9562ZM10.9065 77.8369C11.4862 78.7593 12.6815 79.0333 13.5824 78.4397L19.4872 74.5763C20.3881 73.9917 20.6557 72.7587 20.0759 71.8454C19.5051 70.9229 18.3009 70.6489 17.4 71.2426L11.5041 75.0969C10.5943 75.6905 10.3267 76.9144 10.9065 77.8369ZM7.56155 71.0143C8.04322 71.9915 9.20278 72.3843 10.1572 71.8911L16.4099 68.6761C17.3643 68.1829 17.7479 66.9956 17.2662 66.0183C16.7846 65.041 15.625 64.6483 14.6706 65.1324L8.41785 68.3473C7.46344 68.8496 7.07989 70.037 7.56155 71.0143ZM3.0125 43.5777C2.90546 44.6645 3.68147 45.6418 4.74292 45.7514L11.7092 46.4821C12.7707 46.5917 13.7251 45.8062 13.8321 44.7102C13.9392 43.6233 13.1721 42.6552 12.1017 42.5364L5.13539 41.8058C4.07394 41.6962 3.12845 42.4908 3.0125 43.5777ZM4.2345 36.2253C4.02042 37.2939 4.6894 38.3442 5.73301 38.5726L12.5834 40.0522C13.627 40.2805 14.6527 39.5864 14.8757 38.5178C15.0987 37.4492 14.4297 36.3988 13.3772 36.1705L6.52687 34.7C5.47434 34.4717 4.45749 35.1567 4.2345 36.2253ZM15.6071 29.8593L8.94411 27.6673C7.92726 27.3294 6.83906 27.9048 6.50903 28.946C6.18792 29.9872 6.74986 31.1015 7.76671 31.4394L14.4297 33.6223C15.4466 33.9602 16.5348 33.3848 16.8648 32.3436C17.1859 31.3115 16.624 30.1973 15.6071 29.8593Z" fill="#FEF3ED"/>
<rect width="1.97346" height="6.21938" transform="matrix(1 0 0 -1 385.481 9.39331)" fill="#FEF3ED"/>
<path d="M384.166 4.45947L398.638 4.45947V0.841467L384.166 0.841467V4.45947Z" fill="#FEF3ED"/>
<rect width="1.97346" height="6.21938" transform="matrix(1 0 0 -1 388.771 9.39331)" fill="#FEF3ED"/>
<rect width="1.97346" height="6.21938" transform="matrix(1 0 0 -1 392.06 9.39331)" fill="#FEF3ED"/>
<rect width="1.97346" height="6.21938" transform="matrix(1 0 0 -1 395.349 9.39331)" fill="#FEF3ED"/>
<rect width="1.97346" height="6.21938" transform="matrix(1 0 0 -1 372.325 9.39331)" fill="#FEF3ED"/>
<path d="M371.01 4.45947L385.482 4.45947V0.841467L371.01 0.841467V4.45947Z" fill="#FEF3ED"/>
<rect width="1.97346" height="6.21938" transform="matrix(1 0 0 -1 375.614 9.39331)" fill="#FEF3ED"/>
<rect width="1.97346" height="6.21938" transform="matrix(1 0 0 -1 378.903 9.39331)" fill="#FEF3ED"/>
<rect width="1.97346" height="6.21938" transform="matrix(1 0 0 -1 382.192 9.39331)" fill="#FEF3ED"/>
<rect width="1.97346" height="6.21938" transform="matrix(1 0 0 -1 359.169 9.39331)" fill="#FEF3ED"/>
<path d="M357.854 4.45947L372.326 4.45947V0.841467L357.854 0.841467V4.45947Z" fill="#FEF3ED"/>
<rect width="1.97346" height="6.21938" transform="matrix(1 0 0 -1 362.458 9.39331)" fill="#FEF3ED"/>
<rect width="1.97346" height="6.21938" transform="matrix(1 0 0 -1 365.747 9.39331)" fill="#FEF3ED"/>
<rect width="1.97346" height="6.21938" transform="matrix(1 0 0 -1 369.036 9.39331)" fill="#FEF3ED"/>
<rect width="1.97346" height="6.21938" transform="matrix(1 0 0 -1 346.013 9.39331)" fill="#FEF3ED"/>
<path d="M344.697 4.45947L359.169 4.45947V0.841467L344.697 0.841467V4.45947Z" fill="#FEF3ED"/>
<rect width="1.97346" height="6.21938" transform="matrix(1 0 0 -1 349.302 9.39331)" fill="#FEF3ED"/>
<rect width="1.97346" height="6.21938" transform="matrix(1 0 0 -1 352.591 9.39331)" fill="#FEF3ED"/>
<rect width="1.97346" height="6.21938" transform="matrix(1 0 0 -1 355.88 9.39331)" fill="#FEF3ED"/>
<rect width="1.97346" height="6.21938" transform="matrix(1 0 0 -1 332.856 9.39331)" fill="#FEF3ED"/>
<path d="M331.541 4.45947L346.013 4.45947V0.841467L331.541 0.841467V4.45947Z" fill="#FEF3ED"/>
<rect width="1.97346" height="6.21938" transform="matrix(1 0 0 -1 336.146 9.39331)" fill="#FEF3ED"/>
<rect width="1.97346" height="6.21938" transform="matrix(1 0 0 -1 339.435 9.39331)" fill="#FEF3ED"/>
<rect width="1.97346" height="6.21938" transform="matrix(1 0 0 -1 342.724 9.39331)" fill="#FEF3ED"/>
<rect width="1.97346" height="6.21938" transform="matrix(1 0 0 -1 319.7 9.39331)" fill="#FEF3ED"/>
<path d="M318.385 4.45947L332.857 4.45947V0.841467L318.385 0.841467V4.45947Z" fill="#FEF3ED"/>
<rect width="1.97346" height="6.21938" transform="matrix(1 0 0 -1 322.989 9.39331)" fill="#FEF3ED"/>
<rect width="1.97346" height="6.21938" transform="matrix(1 0 0 -1 326.278 9.39331)" fill="#FEF3ED"/>
<rect width="1.97346" height="6.21938" transform="matrix(1 0 0 -1 329.567 9.39331)" fill="#FEF3ED"/>
<rect width="1.97346" height="6.21938" transform="matrix(1 0 0 -1 306.544 9.39331)" fill="#FEF3ED"/>
<path d="M305.229 4.45947L319.701 4.45947V0.841467L305.229 0.841467V4.45947Z" fill="#FEF3ED"/>
<rect width="1.97346" height="6.21938" transform="matrix(1 0 0 -1 309.833 9.39331)" fill="#FEF3ED"/>
<rect width="1.97346" height="6.21938" transform="matrix(1 0 0 -1 313.122 9.39331)" fill="#FEF3ED"/>
<rect width="1.97346" height="6.21938" transform="matrix(1 0 0 -1 316.411 9.39331)" fill="#FEF3ED"/>
<rect width="1.97346" height="6.21938" transform="matrix(1 0 0 -1 293.388 9.39331)" fill="#FEF3ED"/>
<path d="M292.072 4.45947L306.544 4.45947V0.841467L292.072 0.841467V4.45947Z" fill="#FEF3ED"/>
<rect width="1.97346" height="6.21938" transform="matrix(1 0 0 -1 296.677 9.39331)" fill="#FEF3ED"/>
<rect width="1.97346" height="6.21938" transform="matrix(1 0 0 -1 299.966 9.39331)" fill="#FEF3ED"/>
<rect width="1.97346" height="6.21938" transform="matrix(1 0 0 -1 303.255 9.39331)" fill="#FEF3ED"/>
<rect width="1.97346" height="6.21938" transform="matrix(1 0 0 -1 280.23 9.39331)" fill="#FEF3ED"/>
<path d="M278.915 4.45947L293.387 4.45947V0.841467L278.915 0.841467V4.45947Z" fill="#FEF3ED"/>
<rect width="1.97346" height="6.21938" transform="matrix(1 0 0 -1 283.52 9.39331)" fill="#FEF3ED"/>
<rect width="1.97346" height="6.21938" transform="matrix(1 0 0 -1 286.809 9.39331)" fill="#FEF3ED"/>
<rect width="1.97346" height="6.21938" transform="matrix(1 0 0 -1 290.098 9.39331)" fill="#FEF3ED"/>
<rect width="1.97346" height="6.21938" transform="matrix(1 0 0 -1 267.074 9.39331)" fill="#FEF3ED"/>
<path d="M265.759 4.45947L280.231 4.45947V0.841467L265.759 0.841467V4.45947Z" fill="#FEF3ED"/>
<rect width="1.97346" height="6.21938" transform="matrix(1 0 0 -1 270.363 9.39331)" fill="#FEF3ED"/>
<rect width="1.97346" height="6.21938" transform="matrix(1 0 0 -1 273.652 9.39331)" fill="#FEF3ED"/>
<rect width="1.97346" height="6.21938" transform="matrix(1 0 0 -1 276.941 9.39331)" fill="#FEF3ED"/>
<rect width="1.97346" height="6.21938" transform="matrix(1 0 0 -1 253.918 9.39331)" fill="#FEF3ED"/>
<path d="M252.603 4.45947L267.075 4.45947V0.841467L252.603 0.841467V4.45947Z" fill="#FEF3ED"/>
<rect width="1.97346" height="6.21938" transform="matrix(1 0 0 -1 257.207 9.39331)" fill="#FEF3ED"/>
<rect width="1.97346" height="6.21938" transform="matrix(1 0 0 -1 260.496 9.39331)" fill="#FEF3ED"/>
<rect width="1.97346" height="6.21938" transform="matrix(1 0 0 -1 263.785 9.39331)" fill="#FEF3ED"/>
<rect width="1.97346" height="6.21938" transform="matrix(1 0 0 -1 240.762 9.39331)" fill="#FEF3ED"/>
<path d="M239.446 4.45947L253.918 4.45947V0.841467L239.446 0.841467V4.45947Z" fill="#FEF3ED"/>
<rect width="1.97346" height="6.21938" transform="matrix(1 0 0 -1 244.051 9.39331)" fill="#FEF3ED"/>
<rect width="1.97346" height="6.21938" transform="matrix(1 0 0 -1 247.34 9.39331)" fill="#FEF3ED"/>
<rect width="1.97346" height="6.21938" transform="matrix(1 0 0 -1 250.629 9.39331)" fill="#FEF3ED"/>
<rect width="1.97346" height="6.21938" transform="matrix(1 0 0 -1 227.605 9.39331)" fill="#FEF3ED"/>
<path d="M226.29 4.45947L240.762 4.45947V0.841467L226.29 0.841467V4.45947Z" fill="#FEF3ED"/>
<rect width="1.97346" height="6.21938" transform="matrix(1 0 0 -1 230.895 9.39331)" fill="#FEF3ED"/>
<rect width="1.97346" height="6.21938" transform="matrix(1 0 0 -1 234.184 9.39331)" fill="#FEF3ED"/>
<rect width="1.97346" height="6.21938" transform="matrix(1 0 0 -1 237.473 9.39331)" fill="#FEF3ED"/>
<rect width="1.97346" height="6.21938" transform="matrix(1 0 0 -1 214.449 9.39331)" fill="#FEF3ED"/>
<path d="M213.134 4.45947L227.606 4.45947V0.841467L213.134 0.841467V4.45947Z" fill="#FEF3ED"/>
<rect width="1.97346" height="6.21938" transform="matrix(1 0 0 -1 217.738 9.39331)" fill="#FEF3ED"/>
<rect width="1.97346" height="6.21938" transform="matrix(1 0 0 -1 221.027 9.39331)" fill="#FEF3ED"/>
<rect width="1.97346" height="6.21938" transform="matrix(1 0 0 -1 224.316 9.39331)" fill="#FEF3ED"/>
<rect width="1.97346" height="6.21938" transform="matrix(1 0 0 -1 201.293 9.39331)" fill="#FEF3ED"/>
<path d="M199.978 4.45947L214.45 4.45947V0.841467L199.978 0.841467V4.45947Z" fill="#FEF3ED"/>
<rect width="1.97346" height="6.21938" transform="matrix(1 0 0 -1 204.582 9.39331)" fill="#FEF3ED"/>
<rect width="1.97346" height="6.21938" transform="matrix(1 0 0 -1 207.871 9.39331)" fill="#FEF3ED"/>
<rect width="1.97346" height="6.21938" transform="matrix(1 0 0 -1 211.16 9.39331)" fill="#FEF3ED"/>
<rect width="1.97346" height="6.21938" transform="matrix(1 0 0 -1 188.136 9.39331)" fill="#FEF3ED"/>
<path d="M186.82 4.45947L201.292 4.45947V0.841467L186.82 0.841467V4.45947Z" fill="#FEF3ED"/>
<rect width="1.97346" height="6.21938" transform="matrix(1 0 0 -1 191.425 9.39331)" fill="#FEF3ED"/>
<rect width="1.97346" height="6.21938" transform="matrix(1 0 0 -1 194.714 9.39331)" fill="#FEF3ED"/>
<rect width="1.97346" height="6.21938" transform="matrix(1 0 0 -1 198.003 9.39331)" fill="#FEF3ED"/>
<rect width="1.97346" height="6.21938" transform="matrix(1 0 0 -1 174.979 9.39331)" fill="#FEF3ED"/>
<path d="M173.664 4.45947L188.136 4.45947V0.841467L173.664 0.841467V4.45947Z" fill="#FEF3ED"/>
<rect width="1.97346" height="6.21938" transform="matrix(1 0 0 -1 178.269 9.39331)" fill="#FEF3ED"/>
<rect width="1.97346" height="6.21938" transform="matrix(1 0 0 -1 181.558 9.39331)" fill="#FEF3ED"/>
<rect width="1.97346" height="6.21938" transform="matrix(1 0 0 -1 184.847 9.39331)" fill="#FEF3ED"/>
<rect width="1.97346" height="6.21938" transform="matrix(1 0 0 -1 161.823 9.39331)" fill="#FEF3ED"/>
<path d="M160.508 4.45947L174.98 4.45947V0.841467L160.508 0.841467V4.45947Z" fill="#FEF3ED"/>
<rect width="1.97346" height="6.21938" transform="matrix(1 0 0 -1 165.112 9.39331)" fill="#FEF3ED"/>
<rect width="1.97346" height="6.21938" transform="matrix(1 0 0 -1 168.401 9.39331)" fill="#FEF3ED"/>
<rect width="1.97346" height="6.21938" transform="matrix(1 0 0 -1 171.69 9.39331)" fill="#FEF3ED"/>
<rect width="1.97346" height="6.21938" transform="matrix(1 0 0 -1 148.667 9.39331)" fill="#FEF3ED"/>
<path d="M147.352 4.45947L161.824 4.45947V0.841467L147.352 0.841467V4.45947Z" fill="#FEF3ED"/>
<rect width="1.97346" height="6.21938" transform="matrix(1 0 0 -1 151.956 9.39331)" fill="#FEF3ED"/>
<rect width="1.97346" height="6.21938" transform="matrix(1 0 0 -1 155.245 9.39331)" fill="#FEF3ED"/>
<rect width="1.97346" height="6.21938" transform="matrix(1 0 0 -1 158.534 9.39331)" fill="#FEF3ED"/>
<rect width="1.97346" height="6.21938" transform="matrix(1 0 0 -1 135.511 9.39331)" fill="#FEF3ED"/>
<path d="M134.195 4.45947L148.667 4.45947V0.841467L134.195 0.841467V4.45947Z" fill="#FEF3ED"/>
<rect width="1.97346" height="6.21938" transform="matrix(1 0 0 -1 138.8 9.39331)" fill="#FEF3ED"/>
<rect width="1.97346" height="6.21938" transform="matrix(1 0 0 -1 142.089 9.39331)" fill="#FEF3ED"/>
<rect width="1.97346" height="6.21938" transform="matrix(1 0 0 -1 145.378 9.39331)" fill="#FEF3ED"/>
<rect width="1.97346" height="6.21938" transform="matrix(1 0 0 -1 122.354 9.39331)" fill="#FEF3ED"/>
<path d="M121.039 4.45947L135.511 4.45947V0.841467L121.039 0.841467V4.45947Z" fill="#FEF3ED"/>
<rect width="1.97346" height="6.21938" transform="matrix(1 0 0 -1 125.644 9.39331)" fill="#FEF3ED"/>
<rect width="1.97346" height="6.21938" transform="matrix(1 0 0 -1 128.933 9.39331)" fill="#FEF3ED"/>
<rect width="1.97346" height="6.21938" transform="matrix(1 0 0 -1 132.222 9.39331)" fill="#FEF3ED"/>
</svg>
