<svg width="52" height="55" viewBox="0 0 52 55" fill="none" xmlns="http://www.w3.org/2000/svg">
<path d="M24.8984 44.5389V38.8968L43.0389 19.7109L45.8815 21.0917L46.0419 26.4966L27.5894 46.0124L24.8984 44.5389V44.5389Z" stroke="#FF4002" stroke-width="1.3" stroke-linecap="round" stroke-linejoin="round"/>
<path d="M27.5894 46.0125V40.1676L24.8984 38.8969M27.5894 40.1676L45.8815 21.0918" stroke="#FF4002" stroke-width="1.3" stroke-linecap="round" stroke-linejoin="round"/>
<path d="M24.8978 43.9794L9.04102 35.3902V31.2228L28.3103 11.7058L42.8215 19.9398M24.8978 39.6091L9.04102 31.2228M14.0991 26.0986L29.1509 34.399M16.9688 23.3956L31.674 31.7304M21.9543 18.142L36.8155 26.2923M24.5543 15.51L39.9388 22.9888" stroke="#FF4002" stroke-width="1.3" stroke-linecap="round" stroke-linejoin="round"/>
<path d="M28.3094 11.7057V10.6894L25.1147 8.98779L6.08595 29.0628L5.95703 34.7805L9.0402 36.4064V35.3901M6.08595 29.0628L9.4822 30.7735" stroke="#FF4002" stroke-width="1.3" stroke-linecap="round" stroke-linejoin="round"/>
</svg>
